#VRML V2.0 utf8
# 3D model generated by easyeda2kicad.py (https://github.com/uPesy/easyeda2kicad.py)

Shape{
    appearance Appearance {
        material  Material 	{
            diffuseColor 0.6666666666666666 0.6666666666666666 0.6666666666666666
            specularColor 0.4666666666666667 0.4666666666666667 0.4666666666666667
            ambientIntensity 0.6667
            transparency 0.0
            shininess 0.5
        }
    }
    geometry IndexedFaceSet {
        ccw TRUE
        solid FALSE
        coord DEF co Coordinate {
            point [
                -3.811 -0.126 -0.3023, -3.811 -0.126 0.0, -4.063 -0.126 -0.3023, -4.063 -0.126 0.0, -4.063 -0.126 -0.8788, -4.063 -0.126 -1.1763, -3.811 -0.126 -0.8788, -3.811 -0.126 -1.1763, -3.811 0.126 -0.7989, -3.811 0.126 -1.1763, -4.063 0.126 -0.7989, -4.063 0.126 -1.1763, -4.063 0.126 -0.3822, -4.063 0.126 0.0, -3.811 0.126 -0.3822, -3.811 0.126 0.0, 3.811 -0.126 -1.1763, 4.063 -0.126 -1.1763, 3.811 -0.126 -0.8788, 4.063 -0.126 -0.8788, 3.811 0.126 0.0, 4.063 0.126 0.0, 3.811 0.126 -0.3822, 4.063 0.126 -0.3822
            ]
        }
        coordIndex [
            0,1,2,-1,2,1,3,-1,4,5,6,-1,6,5,7,-1,8,9,10,-1,10,9,11,-1,12,13,14,-1,14,13,15,-1,16,17,18,-1,18,17,19,-1,20,21,22,-1,22,21,23,-1,
        ]
    }
}
Shape{
    appearance Appearance {
        material  Material 	{
            diffuseColor 1.0 1.0 1.0
            specularColor 0.30196078431372547 0.30196078431372547 0.30196078431372547
            ambientIntensity 1.0
            transparency 0.0
            shininess 0.5
        }
    }
    geometry IndexedFaceSet {
        ccw TRUE
        solid FALSE
        coord DEF co Coordinate {
            point [
                3.6693 0.7283 2.7559, 3.6693 0.9252 2.7559, -3.6693 0.7283 2.7559, -3.6693 0.9252 2.7559, -4.9016 0.9252 2.7559, -4.9016 0.7283 2.7559, -4.1811 0.9252 2.7559, -4.1811 0.7283 2.7559, 4.0712 0.9252 1.5086, 4.0944 0.9252 1.5675, 4.9016 0.9252 0.0, 4.063 0.9252 2.5717, 4.1811 0.9252 2.7559, 4.063 0.9252 2.5484, 4.9016 0.9252 2.7559, 4.1024 0.9252 2.4813, -4.063 0.9252 2.5717, -4.063 0.9252 2.5484, 0.4921 0.9252 0.0, 4.1024 0.9252 1.6302, -4.0712 0.9252 1.5086, -4.0341 0.9252 1.4574, -4.9016 0.9252 0.0, -3.9854 0.9252 1.417, -4.4823 0.9252 0.0, 3.9282 0.9252 1.39, 3.9854 0.9252 1.417, 4.0341 0.9252 1.4574, -4.1024 0.9252 2.4813, -4.1024 0.9252 1.6302, -4.0944 0.9252 1.5675, -0.4921 0.9252 0.0, -1.4764 0.9252 0.0, -3.6693 0.9252 1.378, 3.8661 0.9252 1.378, 3.4449 0.9252 0.0, 3.6693 0.9252 1.378, 2.4606 0.9252 0.0, 1.4764 0.9252 0.0, -3.9282 0.9252 1.39, -3.8661 0.9252 1.378, -3.4449 0.9252 0.0, -2.4606 0.9252 0.0, -4.9016 0.7283 1.8898, -4.7047 0.7283 1.8898, 4.9016 0.7283 2.7559, 4.1811 0.7283 2.7559, 4.063 0.7283 2.5717, -0.4921 0.7283 0.7874, -4.063 0.7283 2.5717, -4.063 0.7283 2.5484, -4.1024 0.7283 2.4813, -3.9282 0.7283 1.39, -3.9854 0.7283 1.417, -4.7047 0.7283 0.7874, -4.0341 0.7283 1.4574, 4.0944 0.7283 1.5675, 4.7047 0.7283 0.7874, 4.1024 0.7283 1.6302, 4.7047 0.7283 1.8898, 4.1024 0.7283 2.4813, 4.9016 0.7283 1.8898, 4.063 0.7283 2.5484, -4.0712 0.7283 1.5086, -4.0944 0.7283 1.5675, -4.1024 0.7283 1.6302, 0.4921 0.7283 0.7874, 1.4764 0.7283 0.7874, 3.6693 0.7283 1.378, -3.8661 0.7283 1.378, -3.4449 0.7283 0.7874, -3.6693 0.7283 1.378, -2.4606 0.7283 0.7874, -1.4764 0.7283 0.7874, 4.0712 0.7283 1.5086, 4.0341 0.7283 1.4574, 4.3839 0.7283 0.7874, 3.9854 0.7283 1.417, 3.9282 0.7283 1.39, 3.8661 0.7283 1.378, 3.4449 0.7283 0.7874, 2.4606 0.7283 0.7874, -4.7047 0.4134 2.7559, -4.9016 0.4134 2.7559, -4.7047 -1.2781 2.7559, -4.9016 -1.3386 2.7559, 4.7047 -1.2781 2.7559, 4.9016 -1.3386 2.7559, 4.7047 0.4134 2.7559, 4.9016 0.4134 2.7559, -4.9016 -1.3386 0.0, -4.9016 0.4134 1.5748, -4.9016 0.5256 0.0, -4.9016 0.4949 1.5855, -4.9016 0.5709 1.617, -4.9016 0.6361 1.6671, -4.9016 0.6862 1.7323, -4.9016 0.7176 1.8082, -4.4823 -1.3386 0.0, -3.4449 -1.3386 0.0, -2.4606 -1.3386 0.0, -1.4764 -1.3386 0.0, -0.4921 -1.3386 0.0, 0.4921 -1.3386 0.0, 1.4764 -1.3386 0.0, 2.4606 -1.3386 0.0, 3.4449 -1.3386 0.0, 4.9016 -1.3386 0.0, 4.9016 0.7176 1.8082, 4.9016 0.6862 1.7323, 4.9016 0.6361 1.6671, 4.9016 0.5709 1.617, 4.9016 0.4949 1.5855, 4.9016 0.4134 1.5748, 4.9016 0.5256 0.0, 3.4449 0.5256 0.0, -3.0787 -0.126 0.0, -3.4449 0.5256 0.0, -2.0945 -0.126 0.0, -2.4606 0.5256 0.0, -1.1102 -0.126 0.0, -1.4764 0.5256 0.0, -0.126 -0.126 0.0, -0.4921 0.5256 0.0, 0.8583 -0.126 0.0, 0.4921 0.5256 0.0, 1.8425 -0.126 0.0, 1.4764 0.5256 0.0, 2.8268 -0.126 0.0, 2.4606 0.5256 0.0, 3.811 -0.126 0.0, 4.063 -0.126 0.0, 4.063 0.126 0.0, 3.811 0.126 0.0, 3.0787 -0.126 0.0, 3.0787 0.126 0.0, 2.8268 0.126 0.0, 2.0945 -0.126 0.0, 2.0945 0.126 0.0, 1.8425 0.126 0.0, 1.1102 -0.126 0.0, 1.1102 0.126 0.0, 0.8583 0.126 0.0, 0.126 -0.126 0.0, 0.126 0.126 0.0, -0.126 0.126 0.0, -0.8583 -0.126 0.0, -0.8583 0.126 0.0, -1.1102 0.126 0.0, -1.8425 -0.126 0.0, -1.8425 0.126 0.0, -2.0945 0.126 0.0, -2.8268 -0.126 0.0, -2.8268 0.126 0.0, -3.0787 0.126 0.0, -4.063 0.126 0.0, -4.4823 0.5256 0.0, -3.811 0.126 0.0, -3.811 -0.126 0.0, -4.063 -0.126 0.0, 4.7047 -1.1417 2.5197, 4.7047 0.6361 1.6671, 4.7047 0.6862 1.7323, 4.7047 0.7176 1.8082, 4.7047 -1.1417 0.7874, 4.7047 0.4134 1.5748, 4.7047 0.4272 0.7874, 4.7047 0.4949 1.5855, 4.7047 0.5709 1.617, 4.3839 -1.1417 0.7874, 3.4449 -1.1417 0.7874, 2.4606 -1.1417 0.7874, 1.4764 -1.1417 0.7874, 0.4921 -1.1417 0.7874, -4.7047 -1.1417 2.5197, -0.4921 -1.1417 0.7874, -1.4764 -1.1417 0.7874, -2.4606 -1.1417 0.7874, -3.4449 -1.1417 0.7874, -4.7047 -1.1417 0.7874, -4.7047 0.4134 1.5748, -4.7047 0.7176 1.8082, -4.7047 0.6862 1.7323, -4.7047 0.6361 1.6671, -4.7047 0.5709 1.617, -4.7047 0.4949 1.5855, -4.7047 0.4272 0.7874, -3.4449 0.4272 0.7874, -4.063 0.126 0.7874, -4.063 -0.126 0.7874, -3.811 -0.126 0.7874, -3.811 0.126 0.7874, -3.0787 0.126 0.7874, -3.0787 -0.126 0.7874, -2.8268 -0.126 0.7874, -2.8268 0.126 0.7874, -2.4606 0.4272 0.7874, -1.8425 0.126 0.7874, -1.4764 0.4272 0.7874, -2.0945 0.126 0.7874, -2.0945 -0.126 0.7874, -1.8425 -0.126 0.7874, -0.8583 0.126 0.7874, -0.4921 0.4272 0.7874, -1.1102 0.126 0.7874, -1.1102 -0.126 0.7874, -0.8583 -0.126 0.7874, 0.126 0.126 0.7874, 0.4921 0.4272 0.7874, -0.126 0.126 0.7874, -0.126 -0.126 0.7874, 0.126 -0.126 0.7874, 1.1102 0.126 0.7874, 1.4764 0.4272 0.7874, 0.8583 0.126 0.7874, 0.8583 -0.126 0.7874, 1.1102 -0.126 0.7874, 2.0945 0.126 0.7874, 2.4606 0.4272 0.7874, 1.8425 0.126 0.7874, 1.8425 -0.126 0.7874, 2.0945 -0.126 0.7874, 2.8268 0.126 0.7874, 2.8268 -0.126 0.7874, 3.0787 -0.126 0.7874, 3.0787 0.126 0.7874, 3.4449 0.4272 0.7874, 4.3839 0.4272 0.7874, 4.063 0.126 0.7874, 4.063 -0.126 0.7874, 3.811 0.126 0.7874, 3.811 -0.126 0.7874
            ]
        }
        coordIndex [
            0,1,2,-1,2,1,3,-1,4,5,6,-1,6,5,7,-1,8,9,10,-1,11,12,13,-1,13,12,14,-1,13,14,15,-1,6,16,4,-1,4,16,17,-1,3,1,18,-1,10,9,14,-1,14,9,19,-1,14,19,15,-1,20,21,22,-1,22,21,23,-1,22,23,24,-1,25,26,10,-1,10,26,27,-1,10,27,8,-1,17,28,4,-1,4,28,29,-1,4,29,22,-1,22,29,30,-1,22,30,20,-1,18,31,3,-1,3,31,32,-1,3,32,33,-1,25,10,34,-1,34,10,35,-1,34,35,36,-1,36,35,37,-1,36,37,1,-1,1,37,38,-1,1,38,18,-1,23,39,24,-1,24,39,40,-1,24,40,41,-1,41,40,33,-1,41,33,42,-1,42,33,32,-1,5,43,44,-1,45,46,47,-1,0,2,48,-1,49,7,50,-1,50,7,5,-1,50,5,51,-1,51,5,44,-1,52,53,54,-1,54,53,55,-1,56,57,58,-1,58,57,59,-1,58,59,60,-1,59,61,60,-1,60,61,45,-1,60,45,62,-1,62,45,47,-1,55,63,54,-1,54,63,64,-1,54,64,44,-1,44,64,65,-1,44,65,51,-1,48,66,0,-1,0,66,67,-1,0,67,68,-1,52,54,69,-1,69,54,70,-1,69,70,71,-1,71,70,72,-1,71,72,2,-1,2,72,73,-1,2,73,48,-1,56,74,57,-1,57,74,75,-1,57,75,76,-1,76,75,77,-1,77,78,76,-1,76,78,79,-1,76,79,80,-1,80,79,68,-1,80,68,81,-1,81,68,67,-1,82,83,84,-1,84,83,85,-1,84,85,86,-1,86,85,87,-1,86,87,88,-1,88,87,89,-1,85,83,90,-1,90,83,91,-1,90,91,92,-1,92,91,93,-1,92,93,22,-1,93,94,22,-1,22,94,95,-1,22,95,96,-1,5,4,43,-1,43,4,22,-1,43,22,97,-1,97,22,96,-1,90,98,85,-1,85,98,99,-1,85,99,100,-1,100,101,85,-1,85,101,102,-1,85,102,87,-1,87,102,103,-1,87,103,104,-1,104,105,87,-1,87,105,106,-1,87,106,107,-1,10,108,109,-1,109,110,10,-1,10,110,111,-1,10,111,112,-1,108,10,61,-1,61,10,14,-1,61,14,45,-1,89,87,113,-1,113,87,107,-1,113,107,112,-1,112,107,114,-1,112,114,10,-1,46,45,12,-1,12,45,14,-1,10,114,115,-1,116,99,117,-1,118,100,119,-1,120,101,121,-1,122,102,123,-1,124,103,125,-1,126,104,127,-1,128,105,129,-1,130,106,115,-1,106,130,107,-1,107,130,131,-1,107,131,114,-1,114,131,132,-1,114,132,115,-1,115,132,133,-1,115,133,130,-1,105,128,106,-1,106,128,134,-1,106,134,115,-1,115,134,135,-1,115,135,129,-1,129,135,136,-1,129,136,128,-1,104,126,105,-1,105,126,137,-1,105,137,129,-1,129,137,138,-1,129,138,127,-1,127,138,139,-1,127,139,126,-1,103,124,104,-1,104,124,140,-1,104,140,127,-1,127,140,141,-1,127,141,125,-1,125,141,142,-1,125,142,124,-1,102,122,103,-1,103,122,143,-1,103,143,125,-1,125,143,144,-1,125,144,123,-1,123,144,145,-1,123,145,122,-1,101,120,102,-1,102,120,146,-1,102,146,123,-1,123,146,147,-1,123,147,121,-1,121,147,148,-1,121,148,120,-1,100,118,101,-1,101,118,149,-1,101,149,121,-1,121,149,150,-1,121,150,119,-1,119,150,151,-1,119,151,118,-1,99,116,100,-1,100,116,152,-1,100,152,119,-1,119,152,153,-1,119,153,117,-1,117,153,154,-1,117,154,116,-1,155,156,157,-1,157,156,117,-1,157,117,158,-1,158,117,99,-1,158,99,159,-1,159,99,98,-1,159,98,155,-1,155,98,156,-1,156,98,90,-1,156,90,92,-1,10,115,35,-1,35,115,129,-1,35,129,37,-1,37,129,127,-1,37,127,38,-1,38,127,125,-1,38,125,18,-1,18,125,123,-1,18,123,31,-1,31,123,121,-1,31,121,32,-1,32,121,119,-1,32,119,42,-1,42,119,117,-1,42,117,41,-1,41,117,156,-1,41,156,24,-1,24,156,92,-1,24,92,22,-1,160,86,88,-1,161,162,57,-1,57,162,163,-1,57,163,59,-1,160,88,164,-1,164,88,165,-1,164,165,166,-1,166,165,167,-1,166,167,57,-1,57,167,168,-1,57,168,161,-1,164,169,160,-1,160,169,170,-1,160,170,171,-1,171,172,160,-1,160,172,173,-1,160,173,174,-1,174,173,175,-1,174,175,176,-1,176,177,174,-1,174,177,178,-1,174,178,179,-1,82,84,174,-1,82,174,180,-1,44,181,54,-1,54,181,182,-1,54,182,183,-1,183,184,54,-1,54,184,185,-1,54,185,186,-1,186,185,180,-1,186,180,179,-1,179,180,174,-1,54,186,187,-1,188,186,189,-1,189,186,179,-1,189,179,190,-1,190,179,178,-1,190,178,191,-1,191,178,187,-1,191,187,188,-1,188,187,186,-1,192,187,193,-1,193,187,178,-1,193,178,194,-1,194,178,177,-1,194,177,195,-1,195,177,196,-1,195,196,192,-1,192,196,187,-1,197,198,199,-1,199,198,196,-1,199,196,200,-1,200,196,177,-1,200,177,201,-1,201,177,176,-1,201,176,197,-1,197,176,198,-1,202,203,204,-1,204,203,198,-1,204,198,205,-1,205,198,176,-1,205,176,206,-1,206,176,175,-1,206,175,202,-1,202,175,203,-1,207,208,209,-1,209,208,203,-1,209,203,210,-1,210,203,175,-1,210,175,211,-1,211,175,173,-1,211,173,207,-1,207,173,208,-1,212,213,214,-1,214,213,208,-1,214,208,215,-1,215,208,173,-1,215,173,216,-1,216,173,172,-1,216,172,212,-1,212,172,213,-1,217,218,219,-1,219,218,213,-1,219,213,220,-1,220,213,172,-1,220,172,221,-1,221,172,171,-1,221,171,217,-1,217,171,218,-1,222,218,223,-1,223,218,171,-1,223,171,224,-1,224,171,170,-1,224,170,225,-1,225,170,226,-1,225,226,222,-1,222,226,218,-1,227,228,229,-1,228,227,230,-1,230,227,226,-1,230,226,231,-1,231,226,170,-1,231,170,229,-1,229,170,169,-1,229,169,227,-1,227,169,164,-1,227,164,166,-1,54,187,70,-1,70,187,196,-1,70,196,72,-1,72,196,198,-1,72,198,73,-1,73,198,203,-1,73,203,48,-1,48,203,208,-1,48,208,66,-1,66,208,213,-1,66,213,67,-1,67,213,218,-1,67,218,81,-1,81,218,226,-1,81,226,80,-1,80,226,227,-1,80,227,76,-1,76,227,166,-1,76,166,57,-1,86,160,84,-1,84,160,174,-1,83,82,91,-1,91,82,180,-1,113,165,89,-1,89,165,88,-1,165,113,167,-1,167,113,112,-1,167,112,168,-1,168,112,111,-1,168,111,161,-1,161,111,110,-1,161,110,162,-1,162,110,109,-1,162,109,163,-1,163,109,108,-1,163,108,59,-1,59,108,61,-1,91,180,93,-1,93,180,185,-1,93,185,94,-1,94,185,184,-1,94,184,95,-1,95,184,183,-1,95,183,96,-1,96,183,182,-1,96,182,97,-1,97,182,181,-1,97,181,43,-1,43,181,44,-1,
        ]
    }
}
Shape{
    appearance Appearance {
        material  Material 	{
            diffuseColor 0.6666666666666666 0.6666666666666666 0.6666666666666666
            specularColor 0.4666666666666667 0.4666666666666667 0.4666666666666667
            ambientIntensity 0.6667
            transparency 0.0
            shininess 0.5
        }
    }
    geometry IndexedFaceSet {
        ccw TRUE
        solid FALSE
        coord DEF co Coordinate {
            point [
                3.8701 0.0669 2.7165, 3.8701 -0.0669 2.7165, 4.0039 0.0669 2.7165, 4.0039 -0.0669 2.7165, 3.811 0.126 2.5543, 3.811 0.126 0.7874, 3.811 -0.126 2.5543, 3.811 -0.126 0.7874, 4.063 0.126 2.5543, 4.063 0.126 0.7874, 4.063 -0.126 2.5543, 4.063 -0.126 0.7874, 4.063 -0.126 0.0, 3.811 -0.126 0.0, 4.063 -0.126 -0.3023, 3.811 -0.126 -0.3023, 4.063 -0.126 -0.8788, 4.063 -0.126 -1.1763, 4.063 0.126 -1.1763, 4.063 0.126 0.0, 4.063 0.126 -0.3822, 4.063 0.0831 -0.4446, 4.063 0.126 -0.7989, 4.063 0.0831 -0.7365, 4.063 -0.1759 -0.7689, 4.063 0.0563 -0.6657, 4.063 -0.2015 -0.6509, 4.063 0.0472 -0.5905, 4.063 0.0563 -0.5154, 4.063 -0.1759 -0.4122, 4.063 -0.2015 -0.5302, 3.811 0.126 -1.1763, 3.811 0.126 -0.7989, 3.811 0.126 0.0, 3.811 -0.126 -1.1763, 3.811 -0.126 -0.8788, 3.811 0.0831 -0.7365, 3.811 0.0563 -0.6657, 3.811 -0.1759 -0.7689, 3.811 -0.2015 -0.6509, 3.811 0.0472 -0.5905, 3.811 -0.2015 -0.5302, 3.811 0.0563 -0.5154, 3.811 -0.1759 -0.4122, 3.811 0.0831 -0.4446, 3.811 0.126 -0.3822, 3.8701 -0.0669 -1.3386, 3.8701 0.0669 -1.3386, 4.0039 -0.0669 -1.3386, 4.0039 0.0669 -1.3386, 2.8858 0.0669 2.7165, 2.8858 -0.0669 2.7165, 3.0197 0.0669 2.7165, 3.0197 -0.0669 2.7165, 2.8268 0.126 2.5543, 2.8268 0.126 0.7874, 2.8268 -0.126 2.5543, 2.8268 -0.126 0.7874, 3.0787 0.126 2.5543, 3.0787 0.126 0.7874, 3.0787 -0.126 2.5543, 3.0787 -0.126 0.7874, 3.0787 -0.126 -1.1763, 3.0787 -0.126 0.0, 2.8268 -0.126 -1.1763, 2.8268 -0.126 0.0, 3.0787 0.126 -1.1763, 3.0787 0.126 0.0, 2.8268 0.126 -1.1763, 2.8268 0.126 0.0, 2.8858 -0.0669 -1.3386, 2.8858 0.0669 -1.3386, 3.0197 -0.0669 -1.3386, 3.0197 0.0669 -1.3386, 1.9016 0.0669 2.7165, 1.9016 -0.0669 2.7165, 2.0354 0.0669 2.7165, 2.0354 -0.0669 2.7165, 1.8425 0.126 2.5543, 1.8425 0.126 0.7874, 1.8425 -0.126 2.5543, 1.8425 -0.126 0.7874, 2.0945 0.126 2.5543, 2.0945 0.126 0.7874, 2.0945 -0.126 2.5543, 2.0945 -0.126 0.7874, 2.0945 -0.126 -1.1763, 2.0945 -0.126 0.0, 1.8425 -0.126 -1.1763, 1.8425 -0.126 0.0, 2.0945 0.126 -1.1763, 2.0945 0.126 0.0, 1.8425 0.126 -1.1763, 1.8425 0.126 0.0, 1.9016 -0.0669 -1.3386, 1.9016 0.0669 -1.3386, 2.0354 -0.0669 -1.3386, 2.0354 0.0669 -1.3386, 0.9173 0.0669 2.7165, 0.9173 -0.0669 2.7165, 1.0512 0.0669 2.7165, 1.0512 -0.0669 2.7165, 0.8583 0.126 2.5543, 0.8583 0.126 0.7874, 0.8583 -0.126 2.5543, 0.8583 -0.126 0.7874, 1.1102 0.126 2.5543, 1.1102 0.126 0.7874, 1.1102 -0.126 2.5543, 1.1102 -0.126 0.7874, 1.1102 -0.126 -1.1763, 1.1102 -0.126 0.0, 0.8583 -0.126 -1.1763, 0.8583 -0.126 0.0, 1.1102 0.126 -1.1763, 1.1102 0.126 0.0, 0.8583 0.126 -1.1763, 0.8583 0.126 0.0, 0.9173 -0.0669 -1.3386, 0.9173 0.0669 -1.3386, 1.0512 -0.0669 -1.3386, 1.0512 0.0669 -1.3386, -0.0669 0.0669 2.7165, -0.0669 -0.0669 2.7165, 0.0669 0.0669 2.7165, 0.0669 -0.0669 2.7165, -0.126 0.126 2.5543, -0.126 0.126 0.7874, -0.126 -0.126 2.5543, -0.126 -0.126 0.7874, 0.126 0.126 2.5543, 0.126 0.126 0.7874, 0.126 -0.126 2.5543, 0.126 -0.126 0.7874, 0.126 -0.126 -1.1763, 0.126 -0.126 0.0, -0.126 -0.126 -1.1763, -0.126 -0.126 0.0, 0.126 0.126 -1.1763, 0.126 0.126 0.0, -0.126 0.126 -1.1763, -0.126 0.126 0.0, -0.0669 -0.0669 -1.3386, -0.0669 0.0669 -1.3386, 0.0669 -0.0669 -1.3386, 0.0669 0.0669 -1.3386, -1.0512 0.0669 2.7165, -1.0512 -0.0669 2.7165, -0.9173 0.0669 2.7165, -0.9173 -0.0669 2.7165, -1.1102 0.126 2.5543, -1.1102 0.126 0.7874, -1.1102 -0.126 2.5543, -1.1102 -0.126 0.7874, -0.8583 0.126 2.5543, -0.8583 0.126 0.7874, -0.8583 -0.126 2.5543, -0.8583 -0.126 0.7874, -0.8583 -0.126 -1.1763, -0.8583 -0.126 0.0, -1.1102 -0.126 -1.1763, -1.1102 -0.126 0.0, -0.8583 0.126 -1.1763, -0.8583 0.126 0.0, -1.1102 0.126 -1.1763, -1.1102 0.126 0.0, -1.0512 -0.0669 -1.3386, -1.0512 0.0669 -1.3386, -0.9173 -0.0669 -1.3386, -0.9173 0.0669 -1.3386, -2.0354 0.0669 2.7165, -2.0354 -0.0669 2.7165, -1.9016 0.0669 2.7165, -1.9016 -0.0669 2.7165, -2.0945 0.126 2.5543, -2.0945 0.126 0.7874, -2.0945 -0.126 2.5543, -2.0945 -0.126 0.7874, -1.8425 0.126 2.5543, -1.8425 0.126 0.7874, -1.8425 -0.126 2.5543, -1.8425 -0.126 0.7874, -1.8425 -0.126 -1.1763, -1.8425 -0.126 0.0, -2.0945 -0.126 -1.1763, -2.0945 -0.126 0.0, -1.8425 0.126 -1.1763, -1.8425 0.126 0.0, -2.0945 0.126 -1.1763, -2.0945 0.126 0.0, -2.0354 -0.0669 -1.3386, -2.0354 0.0669 -1.3386, -1.9016 -0.0669 -1.3386, -1.9016 0.0669 -1.3386, -3.0197 0.0669 2.7165, -3.0197 -0.0669 2.7165, -2.8858 0.0669 2.7165, -2.8858 -0.0669 2.7165, -3.0787 0.126 2.5543, -3.0787 0.126 0.7874, -3.0787 -0.126 2.5543, -3.0787 -0.126 0.7874, -2.8268 0.126 2.5543, -2.8268 0.126 0.7874, -2.8268 -0.126 2.5543, -2.8268 -0.126 0.7874, -2.8268 -0.126 -1.1763, -2.8268 -0.126 0.0, -3.0787 -0.126 -1.1763, -3.0787 -0.126 0.0, -2.8268 0.126 -1.1763, -2.8268 0.126 0.0, -3.0787 0.126 -1.1763, -3.0787 0.126 0.0, -3.0197 -0.0669 -1.3386, -3.0197 0.0669 -1.3386, -2.8858 -0.0669 -1.3386, -2.8858 0.0669 -1.3386, -4.0039 0.0669 2.7165, -4.0039 -0.0669 2.7165, -3.8701 0.0669 2.7165, -3.8701 -0.0669 2.7165, -4.063 0.126 2.5543, -4.063 0.126 0.7874, -4.063 -0.126 2.5543, -4.063 -0.126 0.7874, -3.811 0.126 2.5543, -3.811 0.126 0.7874, -3.811 -0.126 2.5543, -3.811 -0.126 0.7874, -3.811 -0.126 -0.8788, -3.811 -0.126 -1.1763, -3.811 0.126 -1.1763, -3.811 0.126 0.0, -3.811 -0.126 0.0, -3.811 0.126 -0.3822, -3.811 -0.126 -0.3023, -3.811 0.0831 -0.4446, -3.811 0.0563 -0.5154, -3.811 -0.1759 -0.4122, -3.811 -0.2015 -0.5302, -3.811 0.0472 -0.5905, -3.811 -0.2015 -0.6509, -3.811 0.0563 -0.6657, -3.811 -0.1759 -0.7689, -3.811 0.0831 -0.7365, -3.811 0.126 -0.7989, -4.063 -0.126 -0.3023, -4.063 -0.126 0.0, -4.063 0.126 0.0, -4.063 0.126 -1.1763, -4.063 -0.126 -1.1763, -4.063 0.126 -0.7989, -4.063 -0.126 -0.8788, -4.063 0.0831 -0.7365, -4.063 0.126 -0.3822, -4.063 0.0831 -0.4446, -4.063 -0.1759 -0.4122, -4.063 0.0563 -0.5154, -4.063 -0.2015 -0.5302, -4.063 0.0472 -0.5905, -4.063 0.0563 -0.6657, -4.063 -0.1759 -0.7689, -4.063 -0.2015 -0.6509, -4.0039 -0.0669 -1.3386, -4.0039 0.0669 -1.3386, -3.8701 -0.0669 -1.3386, -3.8701 0.0669 -1.3386
            ]
        }
        coordIndex [
            0,1,2,-1,2,1,3,-1,4,5,6,-1,6,5,7,-1,8,9,4,-1,4,9,5,-1,10,11,8,-1,8,11,9,-1,6,7,10,-1,10,7,11,-1,12,13,14,-1,14,13,15,-1,16,17,18,-1,19,12,20,-1,20,12,14,-1,20,14,21,-1,18,22,16,-1,16,22,23,-1,16,23,24,-1,24,23,25,-1,24,25,26,-1,26,25,27,-1,21,14,28,-1,28,14,29,-1,28,29,27,-1,27,29,30,-1,27,30,26,-1,18,31,22,-1,22,31,32,-1,15,13,33,-1,31,34,32,-1,32,34,35,-1,32,35,36,-1,36,35,37,-1,35,38,37,-1,37,38,39,-1,37,39,40,-1,40,39,41,-1,40,41,42,-1,42,41,43,-1,42,43,44,-1,44,43,15,-1,44,15,45,-1,45,15,33,-1,46,47,48,-1,48,47,49,-1,47,31,49,-1,49,31,18,-1,46,34,47,-1,47,34,31,-1,17,48,18,-1,18,48,49,-1,48,17,46,-1,46,17,34,-1,10,3,6,-1,6,3,1,-1,8,2,10,-1,10,2,3,-1,0,4,1,-1,1,4,6,-1,4,0,8,-1,8,0,2,-1,50,51,52,-1,52,51,53,-1,54,55,56,-1,56,55,57,-1,58,59,54,-1,54,59,55,-1,60,61,58,-1,58,61,59,-1,56,57,60,-1,60,57,61,-1,62,63,64,-1,64,63,65,-1,66,67,62,-1,62,67,63,-1,68,69,66,-1,66,69,67,-1,64,65,68,-1,68,65,69,-1,70,71,72,-1,72,71,73,-1,74,75,76,-1,76,75,77,-1,78,79,80,-1,80,79,81,-1,82,83,78,-1,78,83,79,-1,84,85,82,-1,82,85,83,-1,80,81,84,-1,84,81,85,-1,86,87,88,-1,88,87,89,-1,90,91,86,-1,86,91,87,-1,92,93,90,-1,90,93,91,-1,88,89,92,-1,92,89,93,-1,94,95,96,-1,96,95,97,-1,98,99,100,-1,100,99,101,-1,102,103,104,-1,104,103,105,-1,106,107,102,-1,102,107,103,-1,108,109,106,-1,106,109,107,-1,104,105,108,-1,108,105,109,-1,110,111,112,-1,112,111,113,-1,114,115,110,-1,110,115,111,-1,116,117,114,-1,114,117,115,-1,112,113,116,-1,116,113,117,-1,118,119,120,-1,120,119,121,-1,122,123,124,-1,124,123,125,-1,126,127,128,-1,128,127,129,-1,130,131,126,-1,126,131,127,-1,132,133,130,-1,130,133,131,-1,128,129,132,-1,132,129,133,-1,134,135,136,-1,136,135,137,-1,138,139,134,-1,134,139,135,-1,140,141,138,-1,138,141,139,-1,136,137,140,-1,140,137,141,-1,142,143,144,-1,144,143,145,-1,146,147,148,-1,148,147,149,-1,150,151,152,-1,152,151,153,-1,154,155,150,-1,150,155,151,-1,156,157,154,-1,154,157,155,-1,152,153,156,-1,156,153,157,-1,158,159,160,-1,160,159,161,-1,162,163,158,-1,158,163,159,-1,164,165,162,-1,162,165,163,-1,160,161,164,-1,164,161,165,-1,166,167,168,-1,168,167,169,-1,170,171,172,-1,172,171,173,-1,174,175,176,-1,176,175,177,-1,178,179,174,-1,174,179,175,-1,180,181,178,-1,178,181,179,-1,176,177,180,-1,180,177,181,-1,182,183,184,-1,184,183,185,-1,186,187,182,-1,182,187,183,-1,188,189,186,-1,186,189,187,-1,184,185,188,-1,188,185,189,-1,190,191,192,-1,192,191,193,-1,194,195,196,-1,196,195,197,-1,198,199,200,-1,200,199,201,-1,202,203,198,-1,198,203,199,-1,204,205,202,-1,202,205,203,-1,200,201,204,-1,204,201,205,-1,206,207,208,-1,208,207,209,-1,210,211,206,-1,206,211,207,-1,212,213,210,-1,210,213,211,-1,208,209,212,-1,212,209,213,-1,214,215,216,-1,216,215,217,-1,218,219,220,-1,220,219,221,-1,222,223,224,-1,224,223,225,-1,226,227,222,-1,222,227,223,-1,228,229,226,-1,226,229,227,-1,224,225,228,-1,228,225,229,-1,230,231,232,-1,233,234,235,-1,235,234,236,-1,235,236,237,-1,237,236,238,-1,236,239,238,-1,238,239,240,-1,238,240,241,-1,241,240,242,-1,241,242,243,-1,243,242,244,-1,243,244,245,-1,245,244,230,-1,245,230,246,-1,246,230,232,-1,247,248,249,-1,250,251,252,-1,252,251,253,-1,252,253,254,-1,249,255,247,-1,247,255,256,-1,247,256,257,-1,257,256,258,-1,257,258,259,-1,259,258,260,-1,254,253,261,-1,261,253,262,-1,261,262,260,-1,260,262,263,-1,260,263,259,-1,264,265,266,-1,266,265,267,-1,71,68,73,-1,73,68,66,-1,70,64,71,-1,71,64,68,-1,62,72,66,-1,66,72,73,-1,72,62,70,-1,70,62,64,-1,60,53,56,-1,56,53,51,-1,58,52,60,-1,60,52,53,-1,50,54,51,-1,51,54,56,-1,54,50,58,-1,58,50,52,-1,95,92,97,-1,97,92,90,-1,94,88,95,-1,95,88,92,-1,86,96,90,-1,90,96,97,-1,96,86,94,-1,94,86,88,-1,84,77,80,-1,80,77,75,-1,82,76,84,-1,84,76,77,-1,74,78,75,-1,75,78,80,-1,78,74,82,-1,82,74,76,-1,119,116,121,-1,121,116,114,-1,118,112,119,-1,119,112,116,-1,110,120,114,-1,114,120,121,-1,120,110,118,-1,118,110,112,-1,108,101,104,-1,104,101,99,-1,106,100,108,-1,108,100,101,-1,98,102,99,-1,99,102,104,-1,102,98,106,-1,106,98,100,-1,143,140,145,-1,145,140,138,-1,142,136,143,-1,143,136,140,-1,134,144,138,-1,138,144,145,-1,144,134,142,-1,142,134,136,-1,132,125,128,-1,128,125,123,-1,130,124,132,-1,132,124,125,-1,122,126,123,-1,123,126,128,-1,126,122,130,-1,130,122,124,-1,167,164,169,-1,169,164,162,-1,166,160,167,-1,167,160,164,-1,158,168,162,-1,162,168,169,-1,168,158,166,-1,166,158,160,-1,156,149,152,-1,152,149,147,-1,154,148,156,-1,156,148,149,-1,146,150,147,-1,147,150,152,-1,150,146,154,-1,154,146,148,-1,191,188,193,-1,193,188,186,-1,190,184,191,-1,191,184,188,-1,182,192,186,-1,186,192,193,-1,192,182,190,-1,190,182,184,-1,180,173,176,-1,176,173,171,-1,178,172,180,-1,180,172,173,-1,170,174,171,-1,171,174,176,-1,174,170,178,-1,178,170,172,-1,215,212,217,-1,217,212,210,-1,214,208,215,-1,215,208,212,-1,206,216,210,-1,210,216,217,-1,216,206,214,-1,214,206,208,-1,204,197,200,-1,200,197,195,-1,202,196,204,-1,204,196,197,-1,194,198,195,-1,195,198,200,-1,198,194,202,-1,202,194,196,-1,265,250,267,-1,267,250,232,-1,264,251,265,-1,265,251,250,-1,231,266,232,-1,232,266,267,-1,266,231,264,-1,264,231,251,-1,228,221,224,-1,224,221,219,-1,226,220,228,-1,228,220,221,-1,218,222,219,-1,219,222,224,-1,222,218,226,-1,226,218,220,-1,
        ]
    }
}
Shape{
    appearance Appearance {
        material  Material 	{
            diffuseColor 1.0 1.0 1.0
            specularColor 0.30196078431372547 0.30196078431372547 0.30196078431372547
            ambientIntensity 1.0
            transparency 0.0
            shininess 0.5
        }
    }
    geometry IndexedFaceSet {
        ccw TRUE
        solid FALSE
        coord DEF co Coordinate {
            point [
                3.6693 0.9252 1.378, 3.6693 0.9252 2.7559, 3.6693 0.7283 1.378, 3.6693 0.7283 2.7559, 3.8661 0.9252 1.378, 3.8661 0.7283 1.378, 4.1024 0.7283 1.6302, 4.1024 0.9252 1.6302, 4.0944 0.7283 1.5675, 4.0944 0.9252 1.5675, 4.0712 0.7283 1.5086, 4.0712 0.9252 1.5086, 4.0341 0.7283 1.4574, 4.0341 0.9252 1.4574, 3.9854 0.7283 1.417, 3.9854 0.9252 1.417, 3.9282 0.7283 1.39, 3.9282 0.9252 1.39, 4.1024 0.9252 2.4813, 4.1024 0.7283 2.4813, 4.063 0.9252 2.5484, 4.063 0.7283 2.5484, 4.063 0.9252 2.5717, 4.063 0.7283 2.5717, 4.1811 0.9252 2.7559, 4.1811 0.7283 2.7559, -3.6693 0.9252 1.378, -3.6693 0.7283 1.378, -3.6693 0.9252 2.7559, -3.6693 0.7283 2.7559, -3.8661 0.9252 1.378, -3.8661 0.7283 1.378, -3.9282 0.7283 1.39, -3.9282 0.9252 1.39, -3.9854 0.7283 1.417, -3.9854 0.9252 1.417, -4.0341 0.7283 1.4574, -4.0341 0.9252 1.4574, -4.0712 0.7283 1.5086, -4.0712 0.9252 1.5086, -4.0944 0.7283 1.5675, -4.0944 0.9252 1.5675, -4.1024 0.7283 1.6302, -4.1024 0.9252 1.6302, -4.1024 0.9252 2.4813, -4.1024 0.7283 2.4813, -4.063 0.9252 2.5484, -4.063 0.7283 2.5484, -4.063 0.9252 2.5717, -4.063 0.7283 2.5717, -4.1811 0.9252 2.7559, -4.1811 0.7283 2.7559
            ]
        }
        coordIndex [
            0,1,2,-1,2,1,3,-1,4,0,5,-1,5,0,2,-1,6,7,8,-1,8,7,9,-1,8,9,10,-1,10,9,11,-1,10,11,12,-1,12,11,13,-1,12,13,14,-1,14,13,15,-1,14,15,16,-1,16,15,17,-1,16,17,5,-1,5,17,4,-1,18,7,19,-1,19,7,6,-1,20,18,21,-1,21,18,19,-1,22,20,23,-1,23,20,21,-1,24,22,25,-1,25,22,23,-1,26,27,28,-1,28,27,29,-1,30,31,26,-1,26,31,27,-1,31,30,32,-1,32,30,33,-1,32,33,34,-1,34,33,35,-1,34,35,36,-1,36,35,37,-1,36,37,38,-1,38,37,39,-1,38,39,40,-1,40,39,41,-1,40,41,42,-1,42,41,43,-1,44,45,43,-1,43,45,42,-1,46,47,44,-1,44,47,45,-1,48,49,46,-1,46,49,47,-1,50,51,48,-1,48,51,49,-1,
        ]
    }
}
Shape{
    appearance Appearance {
        material  Material 	{
            diffuseColor 0.6666666666666666 0.6666666666666666 0.6666666666666666
            specularColor 0.4666666666666667 0.4666666666666667 0.4666666666666667
            ambientIntensity 0.6667
            transparency 0.0
            shininess 0.5
        }
    }
    geometry IndexedFaceSet {
        ccw TRUE
        solid FALSE
        coord DEF co Coordinate {
            point [
                3.811 0.126 -0.3822, 4.063 0.126 -0.3822, 3.811 0.0831 -0.4446, 4.063 0.0831 -0.4446, 3.811 0.0563 -0.5154, 4.063 0.0563 -0.5154, 3.811 0.0472 -0.5905, 4.063 0.0472 -0.5905, 3.811 0.0563 -0.6657, 4.063 0.0563 -0.6657, 3.811 0.0831 -0.7365, 4.063 0.0831 -0.7365, 3.811 0.126 -0.7989, 4.063 0.126 -0.7989, 3.811 -0.126 -0.8788, 4.063 -0.126 -0.8788, 4.063 -0.1759 -0.7689, 3.811 -0.1759 -0.7689, 4.063 -0.2015 -0.6509, 3.811 -0.2015 -0.6509, 4.063 -0.2015 -0.5302, 3.811 -0.2015 -0.5302, 4.063 -0.1759 -0.4122, 3.811 -0.1759 -0.4122, 4.063 -0.126 -0.3023, 3.811 -0.126 -0.3023, -3.811 0.126 -0.7989, -4.063 0.126 -0.7989, -3.811 0.0831 -0.7365, -4.063 0.0831 -0.7365, -3.811 0.0563 -0.6657, -4.063 0.0563 -0.6657, -3.811 0.0472 -0.5905, -4.063 0.0472 -0.5905, -3.811 0.0563 -0.5154, -4.063 0.0563 -0.5154, -3.811 0.0831 -0.4446, -4.063 0.0831 -0.4446, -3.811 0.126 -0.3822, -4.063 0.126 -0.3822, -3.811 -0.126 -0.3023, -4.063 -0.126 -0.3023, -4.063 -0.1759 -0.4122, -3.811 -0.1759 -0.4122, -4.063 -0.2015 -0.5302, -3.811 -0.2015 -0.5302, -4.063 -0.2015 -0.6509, -3.811 -0.2015 -0.6509, -4.063 -0.1759 -0.7689, -3.811 -0.1759 -0.7689, -4.063 -0.126 -0.8788, -3.811 -0.126 -0.8788
            ]
        }
        coordIndex [
            0,1,2,-1,2,1,3,-1,2,3,4,-1,4,3,5,-1,4,5,6,-1,6,5,7,-1,6,7,8,-1,8,7,9,-1,8,9,10,-1,10,9,11,-1,10,11,12,-1,12,11,13,-1,14,15,16,-1,14,16,17,-1,17,16,18,-1,17,18,19,-1,19,18,20,-1,19,20,21,-1,21,20,22,-1,21,22,23,-1,23,22,24,-1,23,24,25,-1,26,27,28,-1,28,27,29,-1,28,29,30,-1,30,29,31,-1,30,31,32,-1,32,31,33,-1,32,33,34,-1,34,33,35,-1,34,35,36,-1,36,35,37,-1,36,37,38,-1,38,37,39,-1,40,41,42,-1,40,42,43,-1,43,42,44,-1,43,44,45,-1,45,44,46,-1,45,46,47,-1,47,46,48,-1,47,48,49,-1,49,48,50,-1,49,50,51,-1,
        ]
    }
}