#VRML V2.0 utf8
# 3D model generated by easyeda2kicad.py (https://github.com/uPesy/easyeda2kicad.py)

Shape{
    appearance Appearance {
        material  Material 	{
            diffuseColor 0.6666666666666666 0.6666666666666666 0.6666666666666666
            specularColor 0.4666666666666667 0.4666666666666667 0.4666666666666667
            ambientIntensity 0.6667
            transparency 0.0
            shininess 0.5
        }
    }
    geometry IndexedFaceSet {
        ccw TRUE
        solid FALSE
        coord DEF co Coordinate {
            point [
                0.4429 0.4646 0.0, 0.4823 0.4646 0.0, 0.4823 0.0591 0.0, 0.0591 -0.055 0.0, 0.0438 -0.0591 0.0, 0.0591 -0.0463 0.0, 0.0438 0.0197 0.0, 0.5217 0.0591 0.0, 0.5217 0.0276 0.0, 0.4823 -0.0591 0.0, 0.0689 0.4646 0.0, -0.0062 0.4646 0.0, 0.5217 -0.0591 0.0, 0.5217 -0.0276 0.0, 0.6496 -0.0276 0.0, 0.6496 0.0276 0.0, 0.3248 0.4646 0.0, 0.3248 0.6496 0.0, 0.4429 0.6496 0.0, 0.187 0.4646 0.0, 0.187 0.6496 0.0, 0.0689 0.6496 0.0, 0.1648 -0.0591 0.0, 0.0854 -0.0595 0.0, 0.1244 -0.0591 0.0, 0.0905 -0.059 0.0, 0.0981 -0.0564 0.0, 0.0034 0.0197 0.0, 0.0034 0.011 0.0, 0.0015 -0.0504 0.0, 0.0853 0.0111 0.0, 0.0912 0.009 0.0, 0.0605 -0.0471 0.0, 0.0967 0.0054 0.0, 0.1014 0.0001 0.0, 0.1071 -0.0205 0.0, 0.1063 -0.029 0.0, 0.1042 -0.0358 0.0, 0.0867 -0.0505 0.0, 0.0793 -0.0514 0.0, 0.0924 -0.0484 0.0, 0.0973 -0.0452 0.0, 0.101 -0.0413 0.0, 0.0689 -0.0502 0.0, 0.1136 -0.0011 0.0, 0.1089 0.0063 0.0, 0.1542 0.0197 0.0, -0.0062 -0.0595 0.0, 0.0015 -0.0591 0.0, 0.1047 -0.006 0.0, 0.1068 -0.0144 0.0, 0.0332 -0.0235 0.0, 0.0332 -0.0504 0.0, 0.0054 -0.0235 0.0, 0.0054 -0.0149 0.0, 0.0332 -0.0149 0.0, 0.0332 0.011 0.0, 0.1045 -0.0523 0.0, 0.1104 -0.0461 0.0, 0.1244 -0.0504 0.0, 0.1146 -0.0386 0.0, 0.1542 -0.0504 0.0, 0.1169 -0.0303 0.0, 0.1177 -0.0212 0.0, 0.1166 -0.01 0.0, 0.1018 0.0131 0.0, 0.0943 0.0174 0.0, 0.0856 0.02 0.0, 0.0777 0.0206 0.0, 0.0682 0.02 0.0, 0.0591 0.0175 0.0, 0.0591 0.007 0.0, 0.068 0.0108 0.0, 0.0776 0.012 0.0, -0.083 -0.0591 0.0, -0.0733 -0.0375 0.0, -0.0688 -0.0445 0.0, -0.1128 0.0197 0.0, -0.1233 0.0197 0.0, -0.0623 -0.0507 0.0, -0.0541 -0.0555 0.0, -0.045 -0.0582 0.0, -0.1425 -0.0591 0.0, -0.154 -0.0591 0.0, -0.4823 -0.0595 0.0, -0.4823 -0.0591 0.0, -0.5217 -0.0591 0.0, -0.0353 -0.0591 0.0, -0.0945 -0.0591 0.0, -0.102 -0.037 0.0, -0.1346 -0.037 0.0, -0.5217 0.0591 0.0, -0.4823 0.0591 0.0, -0.5217 0.0276 0.0, -0.5217 -0.0276 0.0, -0.6496 0.0276 0.0, -0.6496 -0.0276 0.0, -0.0138 -0.0591 0.0, -0.0138 0.0197 0.0, -0.0361 0.0197 0.0, -0.0653 0.0094 0.0, -0.0709 0.0032 0.0, -0.0745 -0.0035 0.0, -0.0474 0.0185 0.0, -0.0567 0.0152 0.0, -0.0652 0.0095 0.0, -0.0766 -0.0113 0.0, -0.0772 -0.0187 0.0, -0.0761 -0.0292 0.0, -0.4823 0.4646 0.0, -0.4429 0.4646 0.0, -0.4429 0.6496 0.0, -0.3248 0.6496 0.0, -0.3248 0.4646 0.0, -0.187 0.4646 0.0, -0.0689 0.4646 0.0, -0.0689 0.6496 0.0, -0.187 0.6496 0.0, 0.0675 -0.0584 0.0, 0.0755 -0.0595 0.0, -0.0062 -0.2205 0.0, -0.4823 -0.2205 0.0, 0.0786 -0.06 0.0, 0.0808 -0.06 0.0, 0.1648 0.0197 0.0, 0.4823 -0.0595 0.0, 0.4823 -0.2205 0.0
            ]
        }
        coordIndex [
            0,1,2,-1,3,4,5,-1,5,4,6,-1,7,8,2,-1,2,8,9,-1,2,9,10,-1,10,9,11,-1,12,9,13,-1,13,9,8,-1,13,8,14,-1,14,8,15,-1,16,17,18,-1,18,0,16,-1,16,0,2,-1,16,2,19,-1,19,2,10,-1,19,10,20,-1,20,10,21,-1,22,23,24,-1,24,23,25,-1,24,25,26,-1,27,28,29,-1,30,31,32,-1,32,31,33,-1,32,33,34,-1,35,36,32,-1,32,36,37,-1,38,39,40,-1,40,39,41,-1,37,42,32,-1,32,42,41,-1,32,41,43,-1,43,41,39,-1,44,45,46,-1,6,27,11,-1,11,27,29,-1,11,29,47,-1,47,29,48,-1,47,48,4,-1,34,49,32,-1,32,49,50,-1,32,50,35,-1,51,52,53,-1,53,52,29,-1,53,29,54,-1,54,29,28,-1,54,28,55,-1,55,28,56,-1,26,57,24,-1,24,57,58,-1,24,58,59,-1,59,58,60,-1,59,60,61,-1,60,62,61,-1,61,62,63,-1,61,63,46,-1,46,63,64,-1,46,64,44,-1,65,66,11,-1,11,66,67,-1,11,67,68,-1,68,69,11,-1,11,69,70,-1,11,70,6,-1,6,70,71,-1,6,71,5,-1,5,71,72,-1,5,72,32,-1,32,72,73,-1,32,73,30,-1,74,75,76,-1,77,78,11,-1,76,79,74,-1,74,79,80,-1,74,80,81,-1,82,47,83,-1,83,47,84,-1,83,84,78,-1,78,84,85,-1,78,85,11,-1,11,85,86,-1,81,87,74,-1,74,87,47,-1,74,47,88,-1,88,47,82,-1,88,82,89,-1,89,82,90,-1,91,92,93,-1,93,92,94,-1,93,94,95,-1,95,94,96,-1,87,97,47,-1,47,97,98,-1,47,98,11,-1,11,98,99,-1,100,101,77,-1,77,101,102,-1,99,103,11,-1,11,103,104,-1,11,104,77,-1,77,104,105,-1,77,105,100,-1,102,106,77,-1,77,106,107,-1,77,107,74,-1,74,107,108,-1,74,108,75,-1,92,109,110,-1,111,112,110,-1,110,112,113,-1,110,113,92,-1,92,113,114,-1,86,94,11,-1,11,94,92,-1,11,92,115,-1,115,92,114,-1,115,114,116,-1,116,114,117,-1,3,118,4,-1,4,118,119,-1,4,119,47,-1,47,119,120,-1,47,120,84,-1,84,120,121,-1,119,122,120,-1,120,122,123,-1,120,123,23,-1,45,65,46,-1,46,65,11,-1,46,11,124,-1,124,11,9,-1,124,9,22,-1,22,9,125,-1,22,125,23,-1,23,125,126,-1,23,126,120,-1,
        ]
    }
}
Shape{
    appearance Appearance {
        material  Material 	{
            diffuseColor 0.20784313725490197 0.20784313725490197 0.20784313725490197
            specularColor 0.01568627450980392 0.01568627450980392 0.01568627450980392
            ambientIntensity 0.298
            transparency 0.0
            shininess 0.5
        }
    }
    geometry IndexedFaceSet {
        ccw TRUE
        solid FALSE
        coord DEF co Coordinate {
            point [
                -0.4429 0.5906 0.0098, -0.4429 0.4646 0.0098, -0.5807 0.5906 0.0098, -0.4823 0.4646 0.0098, -0.5909 0.5892 0.0098, -0.6148 0.5709 0.0098, -0.6085 0.579 0.0098, -0.6004 0.5853 0.0098, -0.4823 0.0591 0.0098, -0.5217 0.0591 0.0098, -0.5217 0.0276 0.0098, -0.6201 0.0276 0.0098, -0.6201 0.5512 0.0098, -0.6187 0.5614 0.0098, -0.6201 0.5512 0.0787, -0.6201 0.0276 0.0787
            ]
        }
        coordIndex [
            0,1,2,-1,2,1,3,-1,2,3,4,-1,5,6,3,-1,3,6,7,-1,3,7,4,-1,3,8,9,-1,10,11,9,-1,9,11,12,-1,9,12,3,-1,3,12,13,-1,3,13,5,-1,12,11,14,-1,14,11,15,-1,
        ]
    }
}
Shape{
    appearance Appearance {
        material  Material 	{
            diffuseColor 0.6666666666666666 0.6666666666666666 0.6666666666666666
            specularColor 0.4666666666666667 0.4666666666666667 0.4666666666666667
            ambientIntensity 0.6667
            transparency 0.0
            shininess 0.5
        }
    }
    geometry IndexedFaceSet {
        ccw TRUE
        solid FALSE
        coord DEF co Coordinate {
            point [
                -0.4823 -0.2205 0.0, -0.4823 -0.2205 0.0098, -0.4823 -0.0595 0.0, -0.4823 -0.0591 0.0098, -0.4823 -0.0591 0.0
            ]
        }
        coordIndex [
            0,1,2,-1,2,1,3,-1,2,3,4,-1,
        ]
    }
}
Shape{
    appearance Appearance {
        material  Material 	{
            diffuseColor 0.20784313725490197 0.20784313725490197 0.20784313725490197
            specularColor 0.01568627450980392 0.01568627450980392 0.01568627450980392
            ambientIntensity 0.298
            transparency 0.0
            shininess 0.5
        }
    }
    geometry IndexedFaceSet {
        ccw TRUE
        solid FALSE
        coord DEF co Coordinate {
            point [
                0.6201 0.5512 0.0098, 0.6201 0.0276 0.0098, 0.5217 0.0591 0.0098, 0.5217 0.0276 0.0098, 0.4429 0.4646 0.0098, 0.4429 0.5906 0.0098, 0.4823 0.4646 0.0098, 0.5807 0.5906 0.0098, 0.5909 0.5892 0.0098, 0.6004 0.5853 0.0098, 0.6085 0.579 0.0098, 0.6148 0.5709 0.0098, 0.4823 0.0591 0.0098, 0.6187 0.5614 0.0098, 0.6201 -0.5512 0.0098, 0.6201 -0.0276 0.0098, 0.6201 -0.5512 0.0787, 0.6201 -0.0276 0.0787
            ]
        }
        coordIndex [
            0,1,2,-1,2,1,3,-1,4,5,6,-1,6,5,7,-1,6,7,8,-1,8,9,6,-1,6,9,10,-1,6,10,11,-1,2,12,0,-1,0,12,6,-1,0,6,13,-1,13,6,11,-1,14,15,16,-1,16,15,17,-1,
        ]
    }
}
Shape{
    appearance Appearance {
        material  Material 	{
            diffuseColor 0.6666666666666666 0.6666666666666666 0.6666666666666666
            specularColor 0.4666666666666667 0.4666666666666667 0.4666666666666667
            ambientIntensity 0.6667
            transparency 0.0
            shininess 0.5
        }
    }
    geometry IndexedFaceSet {
        ccw TRUE
        solid FALSE
        coord DEF co Coordinate {
            point [
                0.4823 0.0591 0.0, 0.4823 0.4646 0.0, 0.4823 0.0591 0.0098, 0.4823 0.4646 0.0098
            ]
        }
        coordIndex [
            0,1,2,-1,2,1,3,-1,
        ]
    }
}
Shape{
    appearance Appearance {
        material  Material 	{
            diffuseColor 0.20784313725490197 0.20784313725490197 0.20784313725490197
            specularColor 0.01568627450980392 0.01568627450980392 0.01568627450980392
            ambientIntensity 0.298
            transparency 0.0
            shininess 0.5
        }
    }
    geometry IndexedFaceSet {
        ccw TRUE
        solid FALSE
        coord DEF co Coordinate {
            point [
                0.187 -0.5906 0.0787, 0.187 -0.5906 0.0098, 0.3248 -0.5906 0.0787, 0.3248 -0.5906 0.0098, 0.5807 0.5906 0.0098, 0.4429 0.5906 0.0098, 0.5807 0.5906 0.0787, 0.4429 0.5906 0.0787
            ]
        }
        coordIndex [
            0,1,2,-1,2,1,3,-1,4,5,6,-1,6,5,7,-1,
        ]
    }
}
Shape{
    appearance Appearance {
        material  Material 	{
            diffuseColor 0.6666666666666666 0.6666666666666666 0.6666666666666666
            specularColor 0.4666666666666667 0.4666666666666667 0.4666666666666667
            ambientIntensity 0.6667
            transparency 0.0
            shininess 0.5
        }
    }
    geometry IndexedFaceSet {
        ccw TRUE
        solid FALSE
        coord DEF co Coordinate {
            point [
                0.4823 0.4646 0.0098, 0.4823 0.4646 0.0, 0.4429 0.4646 0.0098, 0.4429 0.4646 0.0
            ]
        }
        coordIndex [
            0,1,2,-1,2,1,3,-1,
        ]
    }
}
Shape{
    appearance Appearance {
        material  Material 	{
            diffuseColor 0.20784313725490197 0.20784313725490197 0.20784313725490197
            specularColor 0.01568627450980392 0.01568627450980392 0.01568627450980392
            ambientIntensity 0.298
            transparency 0.0
            shininess 0.5
        }
    }
    geometry IndexedFaceSet {
        ccw TRUE
        solid FALSE
        coord DEF co Coordinate {
            point [
                -0.4823 -0.2205 0.0098, 0.4823 -0.2205 0.0098, 0.3248 -0.4646 0.0098, 0.4429 -0.4646 0.0098, 0.5217 -0.0276 0.0098, 0.6201 -0.0276 0.0098, 0.5217 -0.0591 0.0098, 0.6201 -0.5512 0.0098, 0.4823 -0.0591 0.0098, 0.0689 -0.4646 0.0098, 0.0689 -0.5906 0.0098, -0.0689 -0.5906 0.0098, -0.0689 -0.4646 0.0098, -0.187 -0.4646 0.0098, 0.6148 -0.5709 0.0098, 0.6085 -0.579 0.0098, 0.6004 -0.5853 0.0098, 0.187 -0.4646 0.0098, 0.187 -0.5906 0.0098, 0.3248 -0.5906 0.0098, 0.6187 -0.5614 0.0098, 0.4429 -0.5906 0.0098, 0.5807 -0.5906 0.0098, 0.5909 -0.5892 0.0098, -0.4429 -0.4646 0.0098, -0.4429 -0.5906 0.0098, -0.6201 -0.0276 0.0098, -0.5807 -0.5906 0.0098, -0.6201 -0.5512 0.0098, -0.6187 -0.5614 0.0098, -0.5217 -0.0591 0.0098, -0.4823 -0.0591 0.0098, -0.187 -0.5906 0.0098, -0.3248 -0.5906 0.0098, -0.3248 -0.4646 0.0098, -0.5217 -0.0276 0.0098, -0.6004 -0.5853 0.0098, -0.6085 -0.579 0.0098, -0.6148 -0.5709 0.0098, -0.5909 -0.5892 0.0098, -0.0689 -0.5906 0.0787, 0.0689 -0.5906 0.0787, 0.187 0.5906 0.0098, 0.187 0.5906 0.0787, 0.3248 0.5906 0.0098, 0.3248 0.5906 0.0787
            ]
        }
        coordIndex [
            0,1,2,-1,2,1,3,-1,4,5,6,-1,6,5,7,-1,6,7,8,-1,9,10,11,-1,12,13,0,-1,14,15,1,-1,1,15,16,-1,11,12,9,-1,9,12,0,-1,9,0,17,-1,17,0,2,-1,17,2,18,-1,18,2,19,-1,8,7,1,-1,1,7,20,-1,1,20,14,-1,21,3,22,-1,22,3,1,-1,22,1,23,-1,23,1,16,-1,24,25,26,-1,26,25,27,-1,26,27,28,-1,28,27,29,-1,30,31,0,-1,32,33,13,-1,13,33,34,-1,13,34,0,-1,0,34,24,-1,0,24,30,-1,30,24,26,-1,30,26,35,-1,36,37,38,-1,29,27,38,-1,38,27,39,-1,38,39,36,-1,40,11,41,-1,41,11,10,-1,42,43,44,-1,44,43,45,-1,
        ]
    }
}
Shape{
    appearance Appearance {
        material  Material 	{
            diffuseColor 0.6666666666666666 0.6666666666666666 0.6666666666666666
            specularColor 0.4666666666666667 0.4666666666666667 0.4666666666666667
            ambientIntensity 0.6667
            transparency 0.0
            shininess 0.5
        }
    }
    geometry IndexedFaceSet {
        ccw TRUE
        solid FALSE
        coord DEF co Coordinate {
            point [
                0.187 0.4646 0.0, 0.187 0.4646 0.0098, 0.3248 0.4646 0.0, 0.3248 0.4646 0.0098
            ]
        }
        coordIndex [
            0,1,2,-1,2,1,3,-1,
        ]
    }
}
Shape{
    appearance Appearance {
        material  Material 	{
            diffuseColor 0.20784313725490197 0.20784313725490197 0.20784313725490197
            specularColor 0.01568627450980392 0.01568627450980392 0.01568627450980392
            ambientIntensity 0.298
            transparency 0.0
            shininess 0.5
        }
    }
    geometry IndexedFaceSet {
        ccw TRUE
        solid FALSE
        coord DEF co Coordinate {
            point [
                0.187 0.4646 0.0098, 0.187 0.5906 0.0098, 0.3248 0.4646 0.0098, 0.3248 0.5906 0.0098, -0.3248 -0.5906 0.0787, -0.3248 -0.5906 0.0098, -0.187 -0.5906 0.0787, -0.187 -0.5906 0.0098, -0.0689 0.5906 0.0098, -0.0689 0.5906 0.0787, 0.0689 0.5906 0.0098, 0.0689 0.5906 0.0787
            ]
        }
        coordIndex [
            0,1,2,-1,2,1,3,-1,4,5,6,-1,6,5,7,-1,8,9,10,-1,10,9,11,-1,
        ]
    }
}
Shape{
    appearance Appearance {
        material  Material 	{
            diffuseColor 0.6666666666666666 0.6666666666666666 0.6666666666666666
            specularColor 0.4666666666666667 0.4666666666666667 0.4666666666666667
            ambientIntensity 0.6667
            transparency 0.0
            shininess 0.5
        }
    }
    geometry IndexedFaceSet {
        ccw TRUE
        solid FALSE
        coord DEF co Coordinate {
            point [
                -0.0689 0.4646 0.0, -0.0689 0.4646 0.0098, -0.0062 0.4646 0.0, 0.0689 0.4646 0.0098, 0.0689 0.4646 0.0
            ]
        }
        coordIndex [
            0,1,2,-1,2,1,3,-1,2,3,4,-1,
        ]
    }
}
Shape{
    appearance Appearance {
        material  Material 	{
            diffuseColor 0.20784313725490197 0.20784313725490197 0.20784313725490197
            specularColor 0.01568627450980392 0.01568627450980392 0.01568627450980392
            ambientIntensity 0.298
            transparency 0.0
            shininess 0.5
        }
    }
    geometry IndexedFaceSet {
        ccw TRUE
        solid FALSE
        coord DEF co Coordinate {
            point [
                -0.0689 0.4646 0.0098, -0.0689 0.5906 0.0098, 0.0689 0.4646 0.0098, 0.0689 0.5906 0.0098, -0.5807 -0.5906 0.0098, -0.4429 -0.5906 0.0098, -0.5807 -0.5906 0.0787, -0.4429 -0.5906 0.0787, -0.3248 0.5906 0.0098, -0.3248 0.5906 0.0787, -0.187 0.5906 0.0098, -0.187 0.5906 0.0787
            ]
        }
        coordIndex [
            0,1,2,-1,2,1,3,-1,4,5,6,-1,6,5,7,-1,8,9,10,-1,10,9,11,-1,
        ]
    }
}
Shape{
    appearance Appearance {
        material  Material 	{
            diffuseColor 0.6666666666666666 0.6666666666666666 0.6666666666666666
            specularColor 0.4666666666666667 0.4666666666666667 0.4666666666666667
            ambientIntensity 0.6667
            transparency 0.0
            shininess 0.5
        }
    }
    geometry IndexedFaceSet {
        ccw TRUE
        solid FALSE
        coord DEF co Coordinate {
            point [
                -0.3248 0.4646 0.0, -0.3248 0.4646 0.0098, -0.187 0.4646 0.0, -0.187 0.4646 0.0098
            ]
        }
        coordIndex [
            0,1,2,-1,2,1,3,-1,
        ]
    }
}
Shape{
    appearance Appearance {
        material  Material 	{
            diffuseColor 0.20784313725490197 0.20784313725490197 0.20784313725490197
            specularColor 0.01568627450980392 0.01568627450980392 0.01568627450980392
            ambientIntensity 0.298
            transparency 0.0
            shininess 0.5
        }
    }
    geometry IndexedFaceSet {
        ccw TRUE
        solid FALSE
        coord DEF co Coordinate {
            point [
                -0.3248 0.4646 0.0098, -0.3248 0.5906 0.0098, -0.187 0.4646 0.0098, -0.187 0.5906 0.0098, 0.6201 0.5512 0.0787, 0.6201 0.5514 0.0787, 0.5969 0.5282 0.2994, 0.6201 -0.5514 0.0787, 0.6201 -0.5512 0.0787, 0.5969 -0.5282 0.2994, 0.6201 -0.0276 0.0787, 0.6201 0.0276 0.0787, 0.5809 0.5906 0.0787, 0.5807 0.5906 0.0787, 0.5577 0.5674 0.2994, 0.4429 0.5906 0.0787, 0.3248 0.5906 0.0787, 0.187 0.5906 0.0787, 0.0689 0.5906 0.0787, -0.5577 0.5674 0.2994, -0.0689 0.5906 0.0787, -0.187 0.5906 0.0787, -0.3248 0.5906 0.0787, -0.4429 0.5906 0.0787, -0.5807 0.5906 0.0787, -0.5809 0.5906 0.0787, -0.6201 -0.5512 0.0787, -0.6201 -0.5514 0.0787, -0.5969 -0.5282 0.2994, -0.6201 0.5514 0.0787, -0.6201 0.5512 0.0787, -0.5969 0.5282 0.2994, -0.6201 0.0276 0.0787, -0.6201 -0.0276 0.0787, -0.5809 -0.5906 0.0787, -0.5807 -0.5906 0.0787, -0.5577 -0.5674 0.2994, -0.4429 -0.5906 0.0787, -0.3248 -0.5906 0.0787, -0.187 -0.5906 0.0787, -0.0689 -0.5906 0.0787, 0.5577 -0.5674 0.2994, 0.0689 -0.5906 0.0787, 0.187 -0.5906 0.0787, 0.3248 -0.5906 0.0787, 0.4429 -0.5906 0.0787, 0.5807 -0.5906 0.0787, 0.5809 -0.5906 0.0787, 0.5577 0.5282 0.3346, -0.4741 -0.4446 0.3346, -0.4679 -0.4528 0.3346, -0.4626 -0.4724 0.3346, -0.4639 -0.4826 0.3346, 0.5577 -0.5282 0.3346, -0.4679 -0.4921 0.3346, -0.4741 -0.5003 0.3346, -0.5577 -0.5282 0.3346, -0.5122 -0.5105 0.3346, -0.5217 -0.5065 0.3346, -0.5298 -0.5003 0.3346, -0.5361 -0.4921 0.3346, -0.54 -0.4826 0.3346, -0.5413 -0.4724 0.3346, -0.54 -0.4623 0.3346, -0.5577 0.5282 0.3346, -0.5361 -0.4528 0.3346, -0.4823 -0.5065 0.3346, -0.4918 -0.5105 0.3346, -0.502 -0.5118 0.3346, -0.5298 -0.4446 0.3346, -0.5217 -0.4383 0.3346, -0.5122 -0.4344 0.3346, -0.4639 -0.4623 0.3346, -0.502 -0.4331 0.3346, -0.4918 -0.4344 0.3346, -0.4823 -0.4383 0.3346, 0.6201 0.5512 0.0098, 0.6201 0.0276 0.0098, 0.5807 -0.5906 0.0098, 0.4429 -0.5906 0.0098, -0.6201 -0.5512 0.0098, -0.6201 -0.0276 0.0098, -0.5807 0.5906 0.0098, -0.4429 0.5906 0.0098
            ]
        }
        coordIndex [
            0,1,2,-1,2,1,3,-1,4,5,6,-1,7,8,9,-1,9,8,10,-1,9,10,6,-1,6,10,11,-1,6,11,4,-1,12,13,14,-1,14,13,15,-1,14,15,16,-1,16,17,14,-1,14,17,18,-1,14,18,19,-1,18,20,19,-1,19,20,21,-1,19,21,22,-1,22,23,19,-1,19,23,24,-1,19,24,25,-1,26,27,28,-1,29,30,31,-1,31,30,32,-1,31,32,28,-1,28,32,33,-1,28,33,26,-1,34,35,36,-1,36,35,37,-1,36,37,38,-1,38,39,36,-1,36,39,40,-1,36,40,41,-1,40,42,41,-1,41,42,43,-1,41,43,44,-1,44,45,41,-1,41,45,46,-1,41,46,47,-1,48,49,50,-1,51,52,53,-1,53,52,54,-1,53,54,55,-1,56,57,58,-1,58,59,56,-1,56,59,60,-1,56,60,61,-1,61,62,56,-1,56,62,63,-1,56,63,64,-1,64,63,65,-1,55,66,53,-1,53,66,67,-1,53,67,56,-1,56,67,68,-1,56,68,57,-1,65,69,64,-1,64,69,70,-1,64,70,71,-1,48,50,53,-1,53,50,72,-1,53,72,51,-1,71,73,64,-1,64,73,74,-1,64,74,48,-1,48,74,75,-1,48,75,49,-1,4,11,76,-1,76,11,77,-1,46,45,78,-1,78,45,79,-1,26,33,80,-1,80,33,81,-1,24,23,82,-1,82,23,83,-1,
        ]
    }
}
Shape{
    appearance Appearance {
        material  Material 	{
            diffuseColor 0.6666666666666666 0.6666666666666666 0.6666666666666666
            specularColor 0.4666666666666667 0.4666666666666667 0.4666666666666667
            ambientIntensity 0.6667
            transparency 0.0
            shininess 0.5
        }
    }
    geometry IndexedFaceSet {
        ccw TRUE
        solid FALSE
        coord DEF co Coordinate {
            point [
                -0.4823 0.4646 0.0098, -0.4823 0.4646 0.0, -0.4823 0.0591 0.0098, -0.4823 0.0591 0.0, -0.4429 0.4646 0.0, -0.4429 0.4646 0.0098, 0.4823 -0.0591 0.0, 0.4823 -0.0591 0.0098, 0.4823 -0.0595 0.0, 0.4823 -0.2205 0.0098, 0.4823 -0.2205 0.0, -0.0062 -0.2205 0.0, -0.4823 -0.2205 0.0098, -0.4823 -0.2205 0.0, -0.3248 0.4646 0.0098, -0.3248 0.4646 0.0, -0.3248 0.5906 0.0098, -0.3248 0.6496 0.0, -0.3248 0.5906 0.0787, -0.3248 0.6496 0.0787, -0.4429 0.6496 0.0, -0.4429 0.6496 0.0787, -0.4429 0.5906 0.0098, -0.4429 0.5906 0.0787, -0.4429 -0.4646 0.0098, -0.4429 -0.4646 0.0, -0.4429 -0.5906 0.0098, -0.4429 -0.6496 0.0, -0.4429 -0.5906 0.0787, -0.4429 -0.6496 0.0787, -0.3248 -0.6496 0.0, -0.3248 -0.6496 0.0787, -0.3248 -0.4646 0.0, -0.3248 -0.4646 0.0098, -0.3248 -0.5906 0.0098, -0.3248 -0.5906 0.0787, -0.0689 0.6496 0.0787, -0.187 0.6496 0.0787, -0.0689 0.5906 0.0787, -0.187 0.5906 0.0787, -0.0689 0.4646 0.0098, -0.0689 0.4646 0.0, -0.0689 0.5906 0.0098, -0.0689 0.6496 0.0, -0.187 0.6496 0.0, -0.187 0.4646 0.0, -0.187 0.4646 0.0098, -0.187 0.5906 0.0098, -0.187 -0.4646 0.0098, -0.187 -0.4646 0.0, -0.187 -0.5906 0.0098, -0.187 -0.6496 0.0, -0.187 -0.5906 0.0787, -0.187 -0.6496 0.0787, -0.0689 -0.6496 0.0, -0.0689 -0.6496 0.0787, -0.0689 -0.4646 0.0, -0.0689 -0.4646 0.0098, -0.0689 -0.5906 0.0098, -0.0689 -0.5906 0.0787, 0.187 0.6496 0.0787, 0.0689 0.6496 0.0787, 0.187 0.5906 0.0787, 0.0689 0.5906 0.0787, 0.187 0.4646 0.0098, 0.187 0.4646 0.0, 0.187 0.5906 0.0098, 0.187 0.6496 0.0, 0.0689 0.6496 0.0, 0.0689 0.4646 0.0, 0.0689 0.4646 0.0098, 0.0689 0.5906 0.0098, 0.0689 -0.4646 0.0098, 0.0689 -0.4646 0.0, 0.0689 -0.5906 0.0098, 0.0689 -0.6496 0.0, 0.0689 -0.5906 0.0787, 0.0689 -0.6496 0.0787, 0.187 -0.6496 0.0, 0.187 -0.6496 0.0787, 0.187 -0.4646 0.0, 0.187 -0.4646 0.0098, 0.187 -0.5906 0.0098, 0.187 -0.5906 0.0787, 0.4429 0.6496 0.0787, 0.3248 0.6496 0.0787, 0.4429 0.5906 0.0787, 0.3248 0.5906 0.0787, 0.4429 0.4646 0.0098, 0.4429 0.4646 0.0, 0.4429 0.5906 0.0098, 0.4429 0.6496 0.0, 0.3248 0.6496 0.0, 0.3248 0.4646 0.0, 0.3248 0.4646 0.0098, 0.3248 0.5906 0.0098, 0.3248 -0.4646 0.0098, 0.3248 -0.4646 0.0, 0.3248 -0.5906 0.0098, 0.3248 -0.6496 0.0, 0.3248 -0.5906 0.0787, 0.3248 -0.6496 0.0787, 0.4429 -0.6496 0.0, 0.4429 -0.6496 0.0787, 0.4429 -0.4646 0.0, 0.4429 -0.4646 0.0098, 0.4429 -0.5906 0.0098, 0.4429 -0.5906 0.0787, 0.5217 0.0591 0.0, 0.4823 0.0591 0.0, 0.5217 0.0591 0.0098, 0.4823 0.0591 0.0098, 0.5217 -0.0591 0.0098, 0.5217 -0.0591 0.0, 0.5217 -0.0276 0.0, 0.5217 -0.0276 0.0098, 0.6201 -0.0276 0.0098, 0.6496 -0.0276 0.0, 0.6201 -0.0276 0.0787, 0.6496 -0.0276 0.0787, 0.6496 0.0276 0.0787, 0.6496 0.0276 0.0, 0.6201 0.0276 0.0787, 0.6201 0.0276 0.0098, 0.5217 0.0276 0.0098, 0.5217 0.0276 0.0, -0.5217 0.0591 0.0098, -0.5217 0.0591 0.0, -0.5217 0.0276 0.0098, -0.5217 0.0276 0.0, -0.6201 0.0276 0.0098, -0.6496 0.0276 0.0, -0.6201 0.0276 0.0787, -0.6496 0.0276 0.0787, -0.6496 -0.0276 0.0787, -0.6496 -0.0276 0.0, -0.6201 -0.0276 0.0787, -0.6201 -0.0276 0.0098, -0.5217 -0.0276 0.0098, -0.5217 -0.0276 0.0, -0.5217 -0.0591 0.0098, -0.5217 -0.0591 0.0, -0.4823 -0.0591 0.0, -0.4823 -0.0591 0.0098
            ]
        }
        coordIndex [
            0,1,2,-1,2,1,3,-1,1,0,4,-1,4,0,5,-1,6,7,8,-1,8,7,9,-1,8,9,10,-1,10,9,11,-1,11,9,12,-1,11,12,13,-1,14,15,16,-1,16,15,17,-1,16,17,18,-1,18,17,19,-1,20,21,17,-1,17,21,19,-1,4,5,22,-1,23,21,22,-1,22,21,20,-1,22,20,4,-1,18,19,23,-1,23,19,21,-1,24,25,26,-1,26,25,27,-1,26,27,28,-1,28,27,29,-1,30,31,27,-1,27,31,29,-1,32,33,34,-1,35,31,34,-1,34,31,30,-1,34,30,32,-1,33,32,24,-1,24,32,25,-1,29,31,28,-1,28,31,35,-1,32,30,25,-1,25,30,27,-1,36,37,38,-1,38,37,39,-1,40,41,42,-1,42,41,43,-1,42,43,38,-1,38,43,36,-1,44,37,43,-1,43,37,36,-1,45,46,47,-1,39,37,47,-1,47,37,44,-1,47,44,45,-1,48,49,50,-1,50,49,51,-1,50,51,52,-1,52,51,53,-1,54,55,51,-1,51,55,53,-1,56,57,58,-1,59,55,58,-1,58,55,54,-1,58,54,56,-1,57,56,48,-1,48,56,49,-1,53,55,52,-1,52,55,59,-1,56,54,49,-1,49,54,51,-1,60,61,62,-1,62,61,63,-1,64,65,66,-1,66,65,67,-1,66,67,62,-1,62,67,60,-1,68,61,67,-1,67,61,60,-1,69,70,71,-1,63,61,71,-1,71,61,68,-1,71,68,69,-1,72,73,74,-1,74,73,75,-1,74,75,76,-1,76,75,77,-1,78,79,75,-1,75,79,77,-1,80,81,82,-1,83,79,82,-1,82,79,78,-1,82,78,80,-1,81,80,72,-1,72,80,73,-1,77,79,76,-1,76,79,83,-1,80,78,73,-1,73,78,75,-1,84,85,86,-1,86,85,87,-1,88,89,90,-1,90,89,91,-1,90,91,86,-1,86,91,84,-1,92,85,91,-1,91,85,84,-1,93,94,95,-1,87,85,95,-1,95,85,92,-1,95,92,93,-1,96,97,98,-1,98,97,99,-1,98,99,100,-1,100,99,101,-1,102,103,99,-1,99,103,101,-1,104,105,106,-1,107,103,106,-1,106,103,102,-1,106,102,104,-1,105,104,96,-1,96,104,97,-1,101,103,100,-1,100,103,107,-1,104,102,97,-1,97,102,99,-1,108,109,110,-1,110,109,111,-1,7,6,112,-1,112,6,113,-1,113,114,112,-1,112,114,115,-1,115,114,116,-1,116,114,117,-1,116,117,118,-1,118,117,119,-1,120,119,121,-1,121,119,117,-1,122,120,123,-1,123,120,121,-1,123,121,124,-1,124,121,125,-1,125,108,124,-1,124,108,110,-1,119,120,118,-1,118,120,122,-1,2,3,126,-1,126,3,127,-1,126,127,128,-1,128,127,129,-1,128,129,130,-1,130,129,131,-1,130,131,132,-1,132,131,133,-1,134,133,135,-1,135,133,131,-1,136,134,137,-1,137,134,135,-1,137,135,138,-1,138,135,139,-1,138,139,140,-1,140,139,141,-1,141,142,140,-1,140,142,143,-1,133,134,132,-1,132,134,136,-1,
        ]
    }
}
Shape{
    appearance Appearance {
        material  Material 	{
            diffuseColor 1.0 1.0 1.0
            specularColor 0.8784313725490196 0.8784313725490196 0.8784313725490196
            ambientIntensity 1.0
            transparency 0.0
            shininess 0.5
        }
    }
    geometry IndexedFaceSet {
        ccw TRUE
        solid FALSE
        coord DEF co Coordinate {
            point [
                -0.1233 0.0197 0.0079, -0.154 -0.0591 0.0079, -0.1233 0.0197 0.0, -0.154 -0.0591 0.0, -0.1425 -0.0591 0.0079, -0.1425 -0.0591 0.0, -0.1346 -0.037 0.0079, -0.1346 -0.037 0.0, -0.102 -0.037 0.0079, -0.102 -0.037 0.0, -0.0945 -0.0591 0.0079, -0.0945 -0.0591 0.0, -0.083 -0.0591 0.0079, -0.083 -0.0591 0.0, -0.1128 0.0197 0.0079, -0.1128 0.0197 0.0, -0.1047 -0.0283 0.0079, -0.1164 0.0046 0.0079, -0.1172 0.0073 0.0079, -0.1177 0.0101 0.0079, -0.1179 0.0101 0.0079, -0.1185 0.0073 0.0079, -0.1192 0.0046 0.0079, -0.131 -0.0283 0.0079, -0.1047 -0.0283 0.0, -0.131 -0.0283 0.0, -0.1164 0.0046 0.0, -0.1172 0.0073 0.0, -0.1177 0.0101 0.0, -0.1179 0.0101 0.0, -0.1185 0.0073 0.0, -0.1192 0.0046 0.0, -0.0353 -0.0591 0.0079, -0.0138 -0.0591 0.0079, -0.0353 -0.0591 0.0, -0.0138 -0.0591 0.0, -0.0138 0.0197 0.0079, -0.0138 0.0197 0.0, -0.0361 0.0197 0.0079, -0.0361 0.0197 0.0, -0.0772 -0.0187 0.0079, -0.0772 -0.0187 0.0, -0.0766 -0.0113 0.0, -0.0766 -0.0113 0.0079, -0.0745 -0.0035 0.0, -0.0745 -0.0035 0.0079, -0.0709 0.0032 0.0, -0.0709 0.0032 0.0079, -0.0653 0.0094 0.0, -0.0653 0.0094 0.0079, -0.0652 0.0095 0.0, -0.0652 0.0095 0.0079, -0.0567 0.0152 0.0, -0.0567 0.0152 0.0079, -0.0474 0.0185 0.0, -0.0474 0.0185 0.0079, -0.045 -0.0582 0.0, -0.045 -0.0582 0.0079, -0.0541 -0.0555 0.0, -0.0541 -0.0555 0.0079, -0.0623 -0.0507 0.0, -0.0623 -0.0507 0.0079, -0.0688 -0.0445 0.0, -0.0688 -0.0445 0.0079, -0.0733 -0.0375 0.0, -0.0733 -0.0375 0.0079, -0.0761 -0.0292 0.0, -0.0761 -0.0292 0.0079, -0.0614 0.0 0.0079, -0.0576 0.0041 0.0079, -0.0518 0.0078 0.0079, -0.0453 0.0101 0.0079, -0.036 0.011 0.0079, -0.0244 0.011 0.0079, -0.0244 -0.0504 0.0079, -0.0356 -0.0504 0.0079, -0.0439 -0.0496 0.0079, -0.0505 -0.0476 0.0079, -0.0559 -0.0444 0.0079, -0.0603 -0.04 0.0079, -0.0636 -0.0346 0.0079, -0.0659 -0.0272 0.0079, -0.0667 -0.0189 0.0079, -0.066 -0.0111 0.0079, -0.0642 -0.0049 0.0079, -0.036 0.011 0.0, -0.0244 0.011 0.0, -0.0453 0.0101 0.0, -0.0518 0.0078 0.0, -0.0576 0.0041 0.0, -0.0614 0.0 0.0, -0.0642 -0.0049 0.0, -0.066 -0.0111 0.0, -0.0667 -0.0189 0.0, -0.0659 -0.0272 0.0, -0.0636 -0.0346 0.0, -0.0603 -0.04 0.0, -0.0559 -0.0444 0.0, -0.0505 -0.0476 0.0, -0.0439 -0.0496 0.0, -0.0356 -0.0504 0.0, -0.0244 -0.0504 0.0, 0.0015 -0.0504 0.0079, 0.0015 -0.0591 0.0079, 0.0015 -0.0504 0.0, 0.0015 -0.0591 0.0, 0.0438 -0.0591 0.0079, 0.0438 -0.0591 0.0, 0.0438 0.0197 0.0079, 0.0438 0.0197 0.0, 0.0034 0.0197 0.0079, 0.0034 0.0197 0.0, 0.0034 0.011 0.0079, 0.0034 0.011 0.0, 0.0332 0.011 0.0079, 0.0332 0.011 0.0, 0.0332 -0.0149 0.0079, 0.0332 -0.0149 0.0, 0.0054 -0.0149 0.0079, 0.0054 -0.0149 0.0, 0.0054 -0.0235 0.0079, 0.0054 -0.0235 0.0, 0.0332 -0.0235 0.0079, 0.0332 -0.0235 0.0, 0.0332 -0.0504 0.0079, 0.0332 -0.0504 0.0, 0.0591 -0.0463 0.0079, 0.0591 -0.055 0.0079, 0.0591 -0.0463 0.0, 0.0591 -0.055 0.0, 0.0675 -0.0584 0.0079, 0.0808 -0.06 0.0079, 0.0808 -0.06 0.0, 0.0786 -0.06 0.0, 0.0786 -0.06 0.0079, 0.0755 -0.0595 0.0, 0.0675 -0.0584 0.0, 0.1177 -0.0212 0.0079, 0.1177 -0.0212 0.0, 0.1169 -0.0303 0.0, 0.1169 -0.0303 0.0079, 0.1146 -0.0386 0.0, 0.1146 -0.0386 0.0079, 0.1104 -0.0461 0.0, 0.1104 -0.0461 0.0079, 0.1045 -0.0523 0.0, 0.1045 -0.0523 0.0079, 0.0981 -0.0564 0.0, 0.0981 -0.0564 0.0079, 0.0905 -0.059 0.0, 0.0905 -0.059 0.0079, 0.0854 -0.0595 0.0, 0.0777 0.0206 0.0079, 0.0777 0.0206 0.0, 0.0856 0.02 0.0, 0.0856 0.02 0.0079, 0.0943 0.0174 0.0, 0.0943 0.0174 0.0079, 0.1018 0.0131 0.0, 0.1018 0.0131 0.0079, 0.1089 0.0063 0.0, 0.1089 0.0063 0.0079, 0.1136 -0.0011 0.0, 0.1136 -0.0011 0.0079, 0.1166 -0.01 0.0, 0.1166 -0.01 0.0079, 0.0591 0.0175 0.0079, 0.0591 0.0175 0.0, 0.0682 0.02 0.0, 0.0682 0.02 0.0079, 0.0591 0.007 0.0079, 0.0591 0.007 0.0, 0.0776 0.012 0.0079, 0.0776 0.012 0.0, 0.068 0.0108 0.0, 0.068 0.0108 0.0079, 0.1071 -0.0205 0.0079, 0.1071 -0.0205 0.0, 0.1068 -0.0144 0.0, 0.1068 -0.0144 0.0079, 0.1047 -0.006 0.0, 0.1047 -0.006 0.0079, 0.1014 0.0001 0.0, 0.1014 0.0001 0.0079, 0.0967 0.0054 0.0, 0.0967 0.0054 0.0079, 0.0912 0.009 0.0, 0.0912 0.009 0.0079, 0.0853 0.0111 0.0, 0.0853 0.0111 0.0079, 0.0793 -0.0514 0.0079, 0.0793 -0.0514 0.0, 0.0867 -0.0505 0.0, 0.0867 -0.0505 0.0079, 0.0924 -0.0484 0.0, 0.0924 -0.0484 0.0079, 0.0973 -0.0452 0.0, 0.0973 -0.0452 0.0079, 0.101 -0.0413 0.0, 0.101 -0.0413 0.0079, 0.1042 -0.0358 0.0, 0.1042 -0.0358 0.0079, 0.1063 -0.029 0.0, 0.1063 -0.029 0.0079, 0.0605 -0.0471 0.0, 0.0605 -0.0471 0.0079, 0.0689 -0.0502 0.0, 0.0689 -0.0502 0.0079, 0.1244 -0.0504 0.0079, 0.1244 -0.0591 0.0079, 0.1244 -0.0504 0.0, 0.1244 -0.0591 0.0, 0.1648 -0.0591 0.0079, 0.1648 -0.0591 0.0, 0.1648 0.0197 0.0079, 0.1648 0.0197 0.0, 0.1542 0.0197 0.0079, 0.1542 0.0197 0.0, 0.1542 -0.0504 0.0079, 0.1542 -0.0504 0.0
            ]
        }
        coordIndex [
            0,1,2,-1,2,1,3,-1,1,4,3,-1,3,4,5,-1,4,6,5,-1,5,6,7,-1,6,8,7,-1,7,8,9,-1,8,10,9,-1,9,10,11,-1,10,12,11,-1,11,12,13,-1,12,14,13,-1,13,14,15,-1,14,0,15,-1,15,0,2,-1,16,17,14,-1,12,10,8,-1,17,18,14,-1,14,18,19,-1,14,19,0,-1,0,19,20,-1,0,20,21,-1,21,22,0,-1,0,22,23,-1,0,23,1,-1,4,1,6,-1,6,1,23,-1,6,23,8,-1,8,23,16,-1,8,16,12,-1,12,16,14,-1,16,23,24,-1,24,23,25,-1,17,16,26,-1,26,16,24,-1,17,26,27,-1,17,27,18,-1,18,27,28,-1,18,28,19,-1,20,19,29,-1,29,19,28,-1,20,29,30,-1,20,30,21,-1,21,30,31,-1,21,31,22,-1,23,22,25,-1,25,22,31,-1,32,33,34,-1,34,33,35,-1,33,36,35,-1,35,36,37,-1,36,38,37,-1,37,38,39,-1,40,41,42,-1,40,42,43,-1,43,42,44,-1,43,44,45,-1,45,44,46,-1,45,46,47,-1,47,46,48,-1,47,48,49,-1,49,48,50,-1,49,50,51,-1,51,50,52,-1,51,52,53,-1,53,52,54,-1,53,54,55,-1,55,54,39,-1,55,39,38,-1,32,34,56,-1,32,56,57,-1,57,56,58,-1,57,58,59,-1,59,58,60,-1,59,60,61,-1,61,60,62,-1,61,62,63,-1,63,62,64,-1,63,64,65,-1,65,64,66,-1,65,66,67,-1,67,66,41,-1,67,41,40,-1,45,47,68,-1,68,47,49,-1,68,49,69,-1,69,49,51,-1,69,51,70,-1,70,51,53,-1,70,53,71,-1,71,53,55,-1,71,55,72,-1,72,55,38,-1,72,38,73,-1,73,38,36,-1,73,36,74,-1,74,36,33,-1,74,33,75,-1,75,33,32,-1,75,32,76,-1,76,32,57,-1,76,57,77,-1,77,57,59,-1,77,59,78,-1,78,59,61,-1,78,61,79,-1,79,61,63,-1,79,63,80,-1,80,63,65,-1,80,65,81,-1,81,65,67,-1,81,67,82,-1,82,67,40,-1,82,40,83,-1,83,40,43,-1,83,43,84,-1,84,43,45,-1,84,45,68,-1,72,73,85,-1,85,73,86,-1,72,85,87,-1,72,87,71,-1,71,87,88,-1,71,88,70,-1,70,88,89,-1,70,89,69,-1,69,89,90,-1,69,90,68,-1,68,90,91,-1,68,91,84,-1,84,91,92,-1,84,92,83,-1,83,92,93,-1,83,93,82,-1,82,93,94,-1,82,94,81,-1,81,94,95,-1,81,95,80,-1,80,95,96,-1,80,96,79,-1,79,96,97,-1,79,97,78,-1,78,97,98,-1,78,98,77,-1,77,98,99,-1,77,99,76,-1,76,99,100,-1,76,100,75,-1,74,75,101,-1,101,75,100,-1,73,74,86,-1,86,74,101,-1,102,103,104,-1,104,103,105,-1,103,106,105,-1,105,106,107,-1,106,108,107,-1,107,108,109,-1,108,110,109,-1,109,110,111,-1,110,112,111,-1,111,112,113,-1,112,114,113,-1,113,114,115,-1,114,116,115,-1,115,116,117,-1,116,118,117,-1,117,118,119,-1,118,120,119,-1,119,120,121,-1,120,122,121,-1,121,122,123,-1,122,124,123,-1,123,124,125,-1,124,102,125,-1,125,102,104,-1,106,103,102,-1,102,124,106,-1,106,124,122,-1,106,122,108,-1,112,110,114,-1,114,110,108,-1,114,108,116,-1,116,108,122,-1,116,122,118,-1,118,122,120,-1,126,127,128,-1,128,127,129,-1,129,127,130,-1,131,132,133,-1,131,133,134,-1,134,133,135,-1,134,135,130,-1,130,135,136,-1,130,136,129,-1,137,138,139,-1,137,139,140,-1,140,139,141,-1,140,141,142,-1,142,141,143,-1,142,143,144,-1,144,143,145,-1,144,145,146,-1,146,145,147,-1,146,147,148,-1,148,147,149,-1,148,149,150,-1,150,149,131,-1,131,149,151,-1,131,151,132,-1,152,153,154,-1,152,154,155,-1,155,154,156,-1,155,156,157,-1,157,156,158,-1,157,158,159,-1,159,158,160,-1,159,160,161,-1,161,160,162,-1,161,162,163,-1,163,162,164,-1,163,164,165,-1,165,164,138,-1,165,138,137,-1,166,167,168,-1,166,168,169,-1,169,168,153,-1,169,153,152,-1,166,170,167,-1,167,170,171,-1,172,173,174,-1,172,174,175,-1,175,174,171,-1,175,171,170,-1,176,177,178,-1,176,178,179,-1,179,178,180,-1,179,180,181,-1,181,180,182,-1,181,182,183,-1,183,182,184,-1,183,184,185,-1,185,184,186,-1,185,186,187,-1,187,186,188,-1,187,188,189,-1,189,188,173,-1,189,173,172,-1,190,191,192,-1,190,192,193,-1,193,192,194,-1,193,194,195,-1,195,194,196,-1,195,196,197,-1,197,196,198,-1,197,198,199,-1,199,198,200,-1,199,200,201,-1,201,200,202,-1,201,202,203,-1,203,202,177,-1,203,177,176,-1,126,128,204,-1,126,204,205,-1,205,204,206,-1,205,206,207,-1,207,206,191,-1,207,191,190,-1,193,131,190,-1,190,131,134,-1,190,134,207,-1,207,134,130,-1,207,130,205,-1,205,130,127,-1,205,127,126,-1,170,166,175,-1,175,166,169,-1,175,169,172,-1,172,169,152,-1,172,152,189,-1,189,152,155,-1,189,155,187,-1,187,155,157,-1,187,157,185,-1,185,157,159,-1,185,159,183,-1,183,159,161,-1,183,161,181,-1,181,161,163,-1,181,163,179,-1,179,163,165,-1,179,165,176,-1,176,165,137,-1,176,137,203,-1,203,137,140,-1,203,140,201,-1,201,140,142,-1,201,142,199,-1,199,142,144,-1,199,144,197,-1,197,144,146,-1,197,146,195,-1,195,146,148,-1,195,148,193,-1,193,148,150,-1,193,150,131,-1,208,209,210,-1,210,209,211,-1,209,212,211,-1,211,212,213,-1,212,214,213,-1,213,214,215,-1,214,216,215,-1,215,216,217,-1,216,218,217,-1,217,218,219,-1,218,208,219,-1,219,208,210,-1,216,214,218,-1,218,214,212,-1,218,212,208,-1,208,212,209,-1,
        ]
    }
}
Shape{
    appearance Appearance {
        material  Material 	{
            diffuseColor 0.6666666666666666 0.6666666666666666 0.6666666666666666
            specularColor 0.4666666666666667 0.4666666666666667 0.4666666666666667
            ambientIntensity 0.6667
            transparency 0.0
            shininess 0.5
        }
    }
    geometry IndexedFaceSet {
        ccw TRUE
        solid FALSE
        coord DEF co Coordinate {
            point [
                -0.1047 -0.0283 0.0, -0.131 -0.0283 0.0, -0.1164 0.0046 0.0, -0.1192 0.0046 0.0, -0.1172 0.0073 0.0, -0.1185 0.0073 0.0, -0.1177 0.0101 0.0, -0.1179 0.0101 0.0, -0.0244 0.011 0.0, -0.0244 -0.0504 0.0, -0.036 0.011 0.0, -0.0356 -0.0504 0.0, -0.0439 -0.0496 0.0, -0.0667 -0.0189 0.0, -0.066 -0.0111 0.0, -0.0642 -0.0049 0.0, -0.0453 0.0101 0.0, -0.0505 -0.0476 0.0, -0.0559 -0.0444 0.0, -0.0603 -0.04 0.0, -0.0636 -0.0346 0.0, -0.0659 -0.0272 0.0, -0.0614 0.0 0.0, -0.0576 0.0041 0.0, -0.0518 0.0078 0.0
            ]
        }
        coordIndex [
            0,1,2,-1,2,1,3,-1,2,3,4,-1,4,3,5,-1,4,5,6,-1,6,5,7,-1,8,9,10,-1,10,9,11,-1,10,11,12,-1,13,14,10,-1,10,14,15,-1,10,15,16,-1,12,17,10,-1,10,17,18,-1,10,18,19,-1,19,20,10,-1,10,20,21,-1,10,21,13,-1,22,23,15,-1,15,23,24,-1,15,24,16,-1,
        ]
    }
}
Shape{
    appearance Appearance {
        material  Material 	{
            diffuseColor 0.34901960784313724 0.34901960784313724 0.34901960784313724
            specularColor 0.023529411764705882 0.023529411764705882 0.023529411764705882
            ambientIntensity 0.498
            transparency 0.0
            shininess 0.5
        }
    }
    geometry IndexedFaceSet {
        ccw TRUE
        solid FALSE
        coord DEF co Coordinate {
            point [
                -0.4626 -0.4724 0.3268, -0.4626 -0.4724 0.3346, -0.4639 -0.4623 0.3268, -0.4639 -0.4623 0.3346, -0.4679 -0.4528 0.3268, -0.4679 -0.4528 0.3346, -0.4741 -0.4446 0.3268, -0.4741 -0.4446 0.3346, -0.4823 -0.4383 0.3268, -0.4823 -0.4383 0.3346, -0.4918 -0.4344 0.3268, -0.4918 -0.4344 0.3346, -0.502 -0.4331 0.3268, -0.502 -0.4331 0.3346, -0.5122 -0.4344 0.3268, -0.5122 -0.4344 0.3346, -0.5217 -0.4383 0.3268, -0.5217 -0.4383 0.3346, -0.5298 -0.4446 0.3268, -0.5298 -0.4446 0.3346, -0.5361 -0.4528 0.3268, -0.5361 -0.4528 0.3346, -0.54 -0.4623 0.3268, -0.54 -0.4623 0.3346, -0.5413 -0.4724 0.3268, -0.5413 -0.4724 0.3346, -0.54 -0.4826 0.3268, -0.54 -0.4826 0.3346, -0.5361 -0.4921 0.3268, -0.5361 -0.4921 0.3346, -0.5298 -0.5003 0.3268, -0.5298 -0.5003 0.3346, -0.5217 -0.5065 0.3268, -0.5217 -0.5065 0.3346, -0.5122 -0.5105 0.3268, -0.5122 -0.5105 0.3346, -0.502 -0.5118 0.3268, -0.502 -0.5118 0.3346, -0.4918 -0.5105 0.3268, -0.4918 -0.5105 0.3346, -0.4823 -0.5065 0.3268, -0.4823 -0.5065 0.3346, -0.4741 -0.5003 0.3268, -0.4741 -0.5003 0.3346, -0.4679 -0.4921 0.3268, -0.4679 -0.4921 0.3346, -0.4639 -0.4826 0.3268, -0.4639 -0.4826 0.3346, -0.502 -0.4724 0.3268
            ]
        }
        coordIndex [
            0,1,2,-1,2,1,3,-1,2,3,4,-1,4,3,5,-1,4,5,6,-1,6,5,7,-1,6,7,8,-1,8,7,9,-1,8,9,10,-1,10,9,11,-1,10,11,12,-1,12,11,13,-1,12,13,14,-1,14,13,15,-1,14,15,16,-1,16,15,17,-1,16,17,18,-1,18,17,19,-1,18,19,20,-1,20,19,21,-1,20,21,22,-1,22,21,23,-1,22,23,24,-1,24,23,25,-1,24,25,26,-1,26,25,27,-1,26,27,28,-1,28,27,29,-1,28,29,30,-1,30,29,31,-1,30,31,32,-1,32,31,33,-1,32,33,34,-1,34,33,35,-1,34,35,36,-1,36,35,37,-1,36,37,38,-1,38,37,39,-1,38,39,40,-1,40,39,41,-1,40,41,42,-1,42,41,43,-1,42,43,44,-1,44,43,45,-1,44,45,46,-1,46,45,47,-1,46,47,0,-1,0,47,1,-1,44,46,48,-1,48,46,0,-1,48,0,2,-1,38,40,48,-1,48,40,42,-1,48,42,44,-1,32,34,48,-1,48,34,36,-1,48,36,38,-1,26,28,48,-1,48,28,30,-1,48,30,32,-1,20,22,48,-1,48,22,24,-1,48,24,26,-1,14,16,48,-1,48,16,18,-1,48,18,20,-1,8,10,48,-1,48,10,12,-1,48,12,14,-1,2,4,48,-1,48,4,6,-1,48,6,8,-1,
        ]
    }
}
Shape{
    appearance Appearance {
        material  Material 	{
            diffuseColor 0.20784313725490197 0.20784313725490197 0.20784313725490197
            specularColor 0.01568627450980392 0.01568627450980392 0.01568627450980392
            ambientIntensity 0.298
            transparency 0.0
            shininess 0.5
        }
    }
    geometry IndexedFaceSet {
        ccw TRUE
        solid FALSE
        coord DEF co Coordinate {
            point [
                -0.5809 0.5906 0.0787, -0.5807 0.5906 0.0787, -0.5807 0.5906 0.0098, -0.5909 0.5892 0.0792, -0.5909 0.5892 0.0098, -0.591 0.5892 0.0792, -0.6004 0.5853 0.0098, -0.6004 0.5853 0.0795, -0.6005 0.5852 0.0795, -0.6085 0.579 0.0098, -0.6085 0.579 0.0796, -0.6148 0.5709 0.0795, -0.6148 0.5709 0.0098, -0.6148 0.5709 0.0795, -0.6187 0.5615 0.0792, -0.6187 0.5614 0.0098, -0.6187 0.5614 0.0792, -0.6201 0.5512 0.0098, -0.6201 0.5512 0.0787, -0.6201 0.5514 0.0787, -0.5955 0.5383 0.3003, -0.5969 0.5282 0.2994, -0.5954 0.5383 0.3003, -0.5915 0.5477 0.3009, -0.5915 0.5477 0.3009, -0.5853 0.5557 0.3011, -0.5772 0.562 0.3009, -0.5772 0.562 0.3009, -0.5678 0.5659 0.3003, -0.5678 0.5659 0.3003, -0.5577 0.5674 0.2994, -0.6201 -0.5514 0.0787, -0.6201 -0.5512 0.0787, -0.6201 -0.5512 0.0098, -0.6187 -0.5614 0.0792, -0.6187 -0.5614 0.0098, -0.6187 -0.5615 0.0792, -0.6148 -0.5709 0.0098, -0.6148 -0.5709 0.0795, -0.6148 -0.5709 0.0795, -0.6085 -0.579 0.0098, -0.6085 -0.579 0.0796, -0.6005 -0.5852 0.0795, -0.6004 -0.5853 0.0098, -0.6004 -0.5853 0.0795, -0.591 -0.5892 0.0792, -0.5909 -0.5892 0.0098, -0.5909 -0.5892 0.0792, -0.5807 -0.5906 0.0098, -0.5807 -0.5906 0.0787, -0.5809 -0.5906 0.0787, -0.5904 0.5282 0.3173, -0.5842 0.5282 0.3244, -0.5833 0.5351 0.3244, -0.5757 0.533 0.33, -0.567 0.5307 0.3335, -0.566 0.533 0.3335, -0.5577 0.5282 0.3346, -0.5625 0.5365 0.3335, -0.5645 0.535 0.3335, -0.5602 0.5375 0.3335, -0.5673 0.5282 0.3335, -0.5936 0.5378 0.3085, -0.5899 0.5468 0.3085, -0.584 0.5544 0.3085, -0.5763 0.5603 0.3085, -0.5673 0.564 0.3085, -0.5577 0.5653 0.3085, -0.5577 0.5377 0.3335, -0.5841 0.5282 0.3245, -0.5763 0.5282 0.33, -0.5762 0.5282 0.33, -0.5673 0.5282 0.3335, -0.5738 0.5375 0.33, -0.5709 0.5413 0.33, -0.567 0.5443 0.33, -0.5625 0.5462 0.33, -0.5577 0.5378 0.3335, -0.5577 0.5467 0.33, -0.5577 0.5468 0.33, -0.5577 0.5545 0.3245, -0.5807 0.5414 0.3244, -0.5765 0.5469 0.3244, -0.571 0.5511 0.3244, -0.5646 0.5538 0.3244, -0.5947 0.5282 0.3087, -0.5905 0.5282 0.3171, -0.5894 0.5367 0.3171, -0.5861 0.5446 0.3171, -0.5809 0.5514 0.3171, -0.5741 0.5566 0.3171, -0.5662 0.5599 0.3171, -0.5948 0.5282 0.3085, -0.5577 0.5547 0.3244, -0.5577 0.5608 0.3173, -0.5577 0.561 0.3171, -0.5577 0.5652 0.3087, 0.6201 0.5514 0.0787, 0.6201 0.5512 0.0787, 0.6201 0.5512 0.0098, 0.6187 0.5614 0.0792, 0.6187 0.5614 0.0098, 0.6187 0.5615 0.0792, 0.6148 0.5709 0.0098, 0.6148 0.5709 0.0795, 0.6148 0.5709 0.0795, 0.6085 0.579 0.0098, 0.6085 0.579 0.0796, 0.6005 0.5852 0.0795, 0.6004 0.5853 0.0098, 0.6004 0.5853 0.0795, 0.591 0.5892 0.0792, 0.5909 0.5892 0.0098, 0.5909 0.5892 0.0792, 0.5807 0.5906 0.0098, 0.5807 0.5906 0.0787, 0.5809 0.5906 0.0787, -0.5678 -0.5659 0.3003, -0.5577 -0.5674 0.2994, -0.5678 -0.5659 0.3003, -0.5772 -0.562 0.3009, -0.5772 -0.562 0.3009, -0.5853 -0.5557 0.3011, -0.5915 -0.5477 0.3009, -0.5915 -0.5477 0.3009, -0.5954 -0.5383 0.3003, -0.5955 -0.5383 0.3003, -0.5969 -0.5282 0.2994, -0.5577 -0.5282 0.3346, -0.5948 -0.5282 0.3085, -0.5947 -0.5282 0.3087, -0.5905 -0.5282 0.3171, -0.5904 -0.5282 0.3173, -0.5842 -0.5282 0.3244, -0.5841 -0.5282 0.3245, -0.5763 -0.5282 0.33, -0.5762 -0.5282 0.33, -0.5673 -0.5282 0.3335, -0.5673 -0.5282 0.3335, 0.5577 0.5282 0.3346, 0.5577 0.5377 0.3335, 0.5577 0.5674 0.2994, 0.5577 0.5653 0.3085, 0.5577 0.5652 0.3087, 0.5577 0.561 0.3171, 0.5577 0.5608 0.3173, 0.5577 0.5547 0.3244, 0.5577 0.5545 0.3245, 0.5577 0.5468 0.33, 0.5577 0.5467 0.33, 0.5577 0.5378 0.3335, 0.5678 0.5659 0.3003, 0.5678 0.5659 0.3003, 0.5772 0.562 0.3009, 0.5772 0.562 0.3009, 0.5853 0.5557 0.3011, 0.5915 0.5477 0.3009, 0.5915 0.5477 0.3009, 0.5954 0.5383 0.3003, 0.5955 0.5383 0.3003, 0.5969 0.5282 0.2994, -0.5577 -0.5608 0.3173, -0.5577 -0.5547 0.3244, -0.5646 -0.5538 0.3244, -0.5625 -0.5462 0.33, -0.5602 -0.5375 0.3335, -0.5625 -0.5365 0.3335, -0.566 -0.533 0.3335, -0.5645 -0.535 0.3335, -0.567 -0.5307 0.3335, -0.5577 -0.5377 0.3335, -0.5673 -0.564 0.3085, -0.5763 -0.5603 0.3085, -0.584 -0.5544 0.3085, -0.5899 -0.5468 0.3085, -0.5936 -0.5378 0.3085, -0.5577 -0.5545 0.3245, -0.5577 -0.5468 0.33, -0.5577 -0.5467 0.33, -0.5577 -0.5378 0.3335, -0.567 -0.5443 0.33, -0.5709 -0.5413 0.33, -0.5738 -0.5375 0.33, -0.5757 -0.533 0.33, -0.571 -0.5511 0.3244, -0.5765 -0.5469 0.3244, -0.5807 -0.5414 0.3244, -0.5833 -0.5351 0.3244, -0.5577 -0.5652 0.3087, -0.5577 -0.561 0.3171, -0.5662 -0.5599 0.3171, -0.5741 -0.5566 0.3171, -0.5809 -0.5514 0.3171, -0.5861 -0.5446 0.3171, -0.5894 -0.5367 0.3171, -0.5577 -0.5653 0.3085, 0.5646 0.5538 0.3244, 0.5625 0.5462 0.33, 0.5602 0.5375 0.3335, 0.5625 0.5365 0.3335, 0.566 0.533 0.3335, 0.5645 0.535 0.3335, 0.567 0.5307 0.3335, 0.5673 0.564 0.3085, 0.5763 0.5603 0.3085, 0.584 0.5544 0.3085, 0.5899 0.5468 0.3085, 0.5936 0.5378 0.3085, 0.5948 0.5282 0.3085, 0.5673 0.5282 0.3335, 0.567 0.5443 0.33, 0.5709 0.5413 0.33, 0.5738 0.5375 0.33, 0.5757 0.533 0.33, 0.5673 0.5282 0.3335, 0.5762 0.5282 0.33, 0.5763 0.5282 0.33, 0.5841 0.5282 0.3245, 0.571 0.5511 0.3244, 0.5765 0.5469 0.3244, 0.5807 0.5414 0.3244, 0.5833 0.5351 0.3244, 0.5662 0.5599 0.3171, 0.5741 0.5566 0.3171, 0.5809 0.5514 0.3171, 0.5861 0.5446 0.3171, 0.5894 0.5367 0.3171, 0.5842 0.5282 0.3244, 0.5904 0.5282 0.3173, 0.5905 0.5282 0.3171, 0.5947 0.5282 0.3087, 0.5577 -0.5282 0.3346, 0.5577 -0.5674 0.2994, 0.5577 -0.5653 0.3085, 0.5577 -0.5652 0.3087, 0.5577 -0.561 0.3171, 0.5577 -0.5608 0.3173, 0.5577 -0.5547 0.3244, 0.5577 -0.5545 0.3245, 0.5577 -0.5468 0.33, 0.5577 -0.5467 0.33, 0.5577 -0.5378 0.3335, 0.5577 -0.5377 0.3335, 0.5673 -0.5282 0.3335, 0.5969 -0.5282 0.2994, 0.5948 -0.5282 0.3085, 0.5947 -0.5282 0.3087, 0.5905 -0.5282 0.3171, 0.5904 -0.5282 0.3173, 0.5842 -0.5282 0.3244, 0.5841 -0.5282 0.3245, 0.5763 -0.5282 0.33, 0.5762 -0.5282 0.33, 0.5673 -0.5282 0.3335, 0.5833 -0.5351 0.3244, 0.5757 -0.533 0.33, 0.567 -0.5307 0.3335, 0.566 -0.533 0.3335, 0.5625 -0.5365 0.3335, 0.5645 -0.535 0.3335, 0.5602 -0.5375 0.3335, 0.5936 -0.5378 0.3085, 0.5954 -0.5383 0.3003, 0.5955 -0.5383 0.3003, 0.5915 -0.5477 0.3009, 0.5899 -0.5468 0.3085, 0.5915 -0.5477 0.3009, 0.584 -0.5544 0.3085, 0.5853 -0.5557 0.3011, 0.5763 -0.5603 0.3085, 0.5772 -0.562 0.3009, 0.5772 -0.562 0.3009, 0.5673 -0.564 0.3085, 0.5678 -0.5659 0.3003, 0.5678 -0.5659 0.3003, 0.5738 -0.5375 0.33, 0.5709 -0.5413 0.33, 0.567 -0.5443 0.33, 0.5625 -0.5462 0.33, 0.5807 -0.5414 0.3244, 0.5765 -0.5469 0.3244, 0.571 -0.5511 0.3244, 0.5646 -0.5538 0.3244, 0.5894 -0.5367 0.3171, 0.5861 -0.5446 0.3171, 0.5809 -0.5514 0.3171, 0.5741 -0.5566 0.3171, 0.5662 -0.5599 0.3171, 0.6148 -0.5709 0.0795, 0.6148 -0.5709 0.0795, 0.6187 -0.5615 0.0792, 0.6187 -0.5614 0.0792, 0.6201 -0.5514 0.0787, 0.6085 -0.579 0.0796, 0.6005 -0.5852 0.0795, 0.6004 -0.5853 0.0795, 0.591 -0.5892 0.0792, 0.5909 -0.5892 0.0792, 0.5809 -0.5906 0.0787, 0.5807 -0.5906 0.0787, 0.5807 -0.5906 0.0098, 0.5909 -0.5892 0.0098, 0.6004 -0.5853 0.0098, 0.6085 -0.579 0.0098, 0.6148 -0.5709 0.0098, 0.6187 -0.5614 0.0098, 0.6201 -0.5512 0.0098, 0.6201 -0.5512 0.0787
            ]
        }
        coordIndex [
            0,1,2,-1,0,2,3,-1,3,2,4,-1,3,4,5,-1,5,4,6,-1,5,6,7,-1,7,6,8,-1,8,6,9,-1,8,9,10,-1,10,9,11,-1,11,9,12,-1,11,12,13,-1,13,12,14,-1,14,12,15,-1,14,15,16,-1,17,18,15,-1,15,18,19,-1,15,19,16,-1,11,13,20,-1,20,13,14,-1,20,14,21,-1,21,14,16,-1,21,16,19,-1,20,22,11,-1,11,22,23,-1,11,23,10,-1,10,23,24,-1,24,25,10,-1,10,25,26,-1,10,26,8,-1,8,26,27,-1,8,27,7,-1,7,27,28,-1,7,28,5,-1,5,28,29,-1,5,29,3,-1,3,29,30,-1,3,30,0,-1,31,32,33,-1,31,33,34,-1,34,33,35,-1,34,35,36,-1,36,35,37,-1,36,37,38,-1,38,37,39,-1,39,37,40,-1,39,40,41,-1,41,40,42,-1,42,40,43,-1,42,43,44,-1,44,43,45,-1,45,43,46,-1,45,46,47,-1,48,49,46,-1,46,49,50,-1,46,50,47,-1,51,52,53,-1,54,55,56,-1,57,58,59,-1,60,58,57,-1,56,55,57,-1,61,57,55,-1,62,22,20,-1,22,62,23,-1,23,62,63,-1,23,63,24,-1,24,63,64,-1,24,64,25,-1,25,64,65,-1,25,65,26,-1,26,65,27,-1,27,65,66,-1,27,66,28,-1,28,66,29,-1,29,66,67,-1,29,67,30,-1,68,60,57,-1,69,70,54,-1,54,70,71,-1,54,71,55,-1,55,71,72,-1,55,72,61,-1,73,59,74,-1,74,59,58,-1,74,58,75,-1,75,58,60,-1,75,60,76,-1,68,77,60,-1,60,77,78,-1,60,78,76,-1,76,78,79,-1,76,79,80,-1,53,73,81,-1,81,73,74,-1,81,74,82,-1,82,74,75,-1,82,75,83,-1,83,75,76,-1,83,76,84,-1,84,76,80,-1,85,86,87,-1,87,86,51,-1,51,53,87,-1,87,53,81,-1,87,81,88,-1,88,81,82,-1,88,82,89,-1,89,82,83,-1,89,83,90,-1,90,83,84,-1,90,84,91,-1,52,69,53,-1,53,69,54,-1,53,54,73,-1,73,54,56,-1,73,56,59,-1,59,56,57,-1,85,62,92,-1,92,62,20,-1,92,20,21,-1,80,93,84,-1,84,93,94,-1,84,94,91,-1,91,94,95,-1,91,95,96,-1,85,87,62,-1,62,87,88,-1,62,88,63,-1,63,88,89,-1,63,89,64,-1,64,89,90,-1,64,90,65,-1,65,90,91,-1,65,91,66,-1,66,91,96,-1,66,96,67,-1,97,98,99,-1,97,99,100,-1,100,99,101,-1,100,101,102,-1,102,101,103,-1,102,103,104,-1,104,103,105,-1,105,103,106,-1,105,106,107,-1,107,106,108,-1,108,106,109,-1,108,109,110,-1,110,109,111,-1,111,109,112,-1,111,112,113,-1,114,115,112,-1,112,115,116,-1,112,116,113,-1,42,44,117,-1,117,44,45,-1,117,45,118,-1,118,45,47,-1,118,47,50,-1,117,119,42,-1,42,119,120,-1,42,120,41,-1,41,120,121,-1,121,122,41,-1,41,122,123,-1,41,123,39,-1,39,123,124,-1,39,124,38,-1,38,124,125,-1,38,125,36,-1,36,125,126,-1,36,126,34,-1,34,126,127,-1,34,127,31,-1,128,57,61,-1,21,127,92,-1,92,127,129,-1,92,129,85,-1,85,129,130,-1,85,130,86,-1,86,130,131,-1,86,131,51,-1,51,131,132,-1,51,132,52,-1,52,132,133,-1,52,133,69,-1,69,133,134,-1,69,134,70,-1,70,134,135,-1,70,135,71,-1,71,135,136,-1,71,136,72,-1,72,136,137,-1,72,137,61,-1,61,137,138,-1,61,138,128,-1,57,139,140,-1,141,30,142,-1,142,30,67,-1,142,67,143,-1,143,67,96,-1,143,96,144,-1,144,96,95,-1,144,95,145,-1,145,95,94,-1,145,94,146,-1,146,94,93,-1,146,93,147,-1,147,93,80,-1,147,80,148,-1,148,80,79,-1,148,79,149,-1,149,79,78,-1,149,78,150,-1,150,78,77,-1,150,77,140,-1,140,77,68,-1,140,68,57,-1,108,110,151,-1,151,110,111,-1,151,111,141,-1,141,111,113,-1,141,113,116,-1,151,152,108,-1,108,152,153,-1,108,153,107,-1,107,153,154,-1,154,155,107,-1,107,155,156,-1,107,156,105,-1,105,156,157,-1,105,157,104,-1,104,157,158,-1,104,158,102,-1,102,158,159,-1,102,159,100,-1,100,159,160,-1,100,160,97,-1,161,162,163,-1,164,165,166,-1,128,167,168,-1,169,167,128,-1,166,165,128,-1,170,128,165,-1,171,119,117,-1,119,171,120,-1,120,171,172,-1,120,172,121,-1,121,172,173,-1,121,173,122,-1,122,173,174,-1,122,174,123,-1,123,174,124,-1,124,174,175,-1,124,175,125,-1,125,175,126,-1,126,175,129,-1,126,129,127,-1,138,169,128,-1,176,177,164,-1,164,177,178,-1,164,178,165,-1,165,178,179,-1,165,179,170,-1,180,168,181,-1,181,168,167,-1,181,167,182,-1,182,167,169,-1,182,169,183,-1,138,137,169,-1,169,137,136,-1,169,136,183,-1,183,136,135,-1,183,135,134,-1,163,180,184,-1,184,180,181,-1,184,181,185,-1,185,181,182,-1,185,182,186,-1,186,182,183,-1,186,183,187,-1,187,183,134,-1,188,189,190,-1,190,189,161,-1,161,163,190,-1,190,163,184,-1,190,184,191,-1,191,184,185,-1,191,185,192,-1,192,185,186,-1,192,186,193,-1,193,186,187,-1,193,187,194,-1,162,176,163,-1,163,176,164,-1,163,164,180,-1,180,164,166,-1,180,166,168,-1,168,166,128,-1,188,171,195,-1,195,171,117,-1,195,117,118,-1,134,133,187,-1,187,133,132,-1,187,132,194,-1,194,132,131,-1,194,131,130,-1,188,190,171,-1,171,190,191,-1,171,191,172,-1,172,191,192,-1,172,192,173,-1,173,192,193,-1,173,193,174,-1,174,193,194,-1,174,194,175,-1,175,194,130,-1,175,130,129,-1,145,146,196,-1,197,198,199,-1,139,200,201,-1,202,200,139,-1,199,198,139,-1,140,139,198,-1,203,152,151,-1,152,203,153,-1,153,203,204,-1,153,204,154,-1,154,204,205,-1,154,205,155,-1,155,205,206,-1,155,206,156,-1,156,206,157,-1,157,206,207,-1,157,207,158,-1,158,207,159,-1,159,207,208,-1,159,208,160,-1,209,202,139,-1,147,148,197,-1,197,148,149,-1,197,149,198,-1,198,149,150,-1,198,150,140,-1,210,201,211,-1,211,201,200,-1,211,200,212,-1,212,200,202,-1,212,202,213,-1,209,214,202,-1,202,214,215,-1,202,215,213,-1,213,215,216,-1,213,216,217,-1,196,210,218,-1,218,210,211,-1,218,211,219,-1,219,211,212,-1,219,212,220,-1,220,212,213,-1,220,213,221,-1,221,213,217,-1,143,144,222,-1,222,144,145,-1,145,196,222,-1,222,196,218,-1,222,218,223,-1,223,218,219,-1,223,219,224,-1,224,219,220,-1,224,220,225,-1,225,220,221,-1,225,221,226,-1,146,147,196,-1,196,147,197,-1,196,197,210,-1,210,197,199,-1,210,199,201,-1,201,199,139,-1,143,203,142,-1,142,203,151,-1,142,151,141,-1,217,227,221,-1,221,227,228,-1,221,228,226,-1,226,228,229,-1,226,229,230,-1,143,222,203,-1,203,222,223,-1,203,223,204,-1,204,223,224,-1,204,224,205,-1,205,224,225,-1,205,225,206,-1,206,225,226,-1,206,226,207,-1,207,226,230,-1,207,230,208,-1,231,128,170,-1,118,232,195,-1,195,232,233,-1,195,233,188,-1,188,233,234,-1,188,234,189,-1,189,234,235,-1,189,235,161,-1,161,235,236,-1,161,236,162,-1,162,236,237,-1,162,237,176,-1,176,237,238,-1,176,238,177,-1,177,238,239,-1,177,239,178,-1,178,239,240,-1,178,240,179,-1,179,240,241,-1,179,241,170,-1,170,241,242,-1,170,242,231,-1,139,231,243,-1,244,160,245,-1,245,160,208,-1,245,208,246,-1,246,208,230,-1,246,230,247,-1,247,230,229,-1,247,229,248,-1,248,229,228,-1,248,228,249,-1,249,228,227,-1,249,227,250,-1,250,227,217,-1,250,217,251,-1,251,217,216,-1,251,216,252,-1,252,216,215,-1,252,215,253,-1,253,215,214,-1,253,214,243,-1,243,214,209,-1,243,209,139,-1,248,249,254,-1,255,256,257,-1,231,258,259,-1,260,258,231,-1,257,256,231,-1,243,231,256,-1,261,262,263,-1,262,261,264,-1,264,261,265,-1,264,265,266,-1,266,265,267,-1,266,267,268,-1,268,267,269,-1,268,269,270,-1,270,269,271,-1,271,269,272,-1,271,272,273,-1,273,272,274,-1,274,272,233,-1,274,233,232,-1,242,260,231,-1,250,251,255,-1,255,251,252,-1,255,252,256,-1,256,252,253,-1,256,253,243,-1,275,259,276,-1,276,259,258,-1,276,258,277,-1,277,258,260,-1,277,260,278,-1,242,241,260,-1,260,241,240,-1,260,240,278,-1,278,240,239,-1,278,239,238,-1,254,275,279,-1,279,275,276,-1,279,276,280,-1,280,276,277,-1,280,277,281,-1,281,277,278,-1,281,278,282,-1,282,278,238,-1,246,247,283,-1,283,247,248,-1,248,254,283,-1,283,254,279,-1,283,279,284,-1,284,279,280,-1,284,280,285,-1,285,280,281,-1,285,281,286,-1,286,281,282,-1,286,282,287,-1,249,250,254,-1,254,250,255,-1,254,255,275,-1,275,255,257,-1,275,257,259,-1,259,257,231,-1,246,261,245,-1,245,261,263,-1,245,263,244,-1,238,237,282,-1,282,237,236,-1,282,236,287,-1,287,236,235,-1,287,235,234,-1,246,283,261,-1,261,283,284,-1,261,284,265,-1,265,284,285,-1,265,285,267,-1,267,285,286,-1,267,286,269,-1,269,286,287,-1,269,287,272,-1,272,287,234,-1,272,234,233,-1,288,289,263,-1,263,289,290,-1,263,290,244,-1,244,290,291,-1,244,291,292,-1,263,262,288,-1,288,262,264,-1,288,264,293,-1,293,264,266,-1,266,268,293,-1,293,268,270,-1,293,270,294,-1,294,270,271,-1,294,271,295,-1,295,271,273,-1,295,273,296,-1,296,273,274,-1,296,274,297,-1,297,274,232,-1,297,232,298,-1,298,299,300,-1,298,300,297,-1,297,300,301,-1,297,301,296,-1,296,301,302,-1,296,302,295,-1,295,302,294,-1,294,302,303,-1,294,303,293,-1,293,303,288,-1,288,303,304,-1,288,304,289,-1,289,304,290,-1,290,304,305,-1,290,305,291,-1,306,307,305,-1,305,307,292,-1,305,292,291,-1,
        ]
    }
}