#VRML V2.0 utf8
# 3D model generated by easyeda2kicad.py (https://github.com/uPesy/easyeda2kicad.py)

Shape{
    appearance Appearance {
        material  Material 	{
            diffuseColor 0.25098039215686274 0.25098039215686274 0.25098039215686274
            specularColor 0.12549019607843137 0.12549019607843137 0.12549019607843137
            ambientIntensity 0.251
            transparency 0.0
            shininess 0.5
        }
    }
    geometry IndexedFaceSet {
        ccw TRUE
        solid FALSE
        coord DEF co Coordinate {
            point [
                -1.1417 1.3287 0.0039, -1.1417 1.1929 0.0039, -1.1417 1.3287 0.0827, -1.1417 1.1929 0.0787, -1.1417 1.0354 0.0787, -1.1417 0.5354 0.0039, -1.1417 0.1929 0.0039, -1.1417 0.5354 0.0787, -1.1417 0.1929 0.0787, -1.1417 1.0354 0.0039, -1.1417 0.6929 0.0039, -1.1417 0.6929 0.0787, -1.1417 -0.6004 0.0827, -1.1417 0.0354 0.0787, -1.1417 -0.4646 0.0039, -1.1417 -0.6004 0.0039, -1.1417 -0.4646 0.0787, -1.1417 -0.3071 0.0787, -1.1417 -0.3071 0.0039, -1.1417 0.0354 0.0039, -0.9161 0.1535 0.0039, -0.9286 0.1698 0.0039, 1.1417 1.3287 0.0039, 0.9161 0.5748 0.0039, 0.9286 0.5585 0.0039, -0.9161 0.6535 0.0039, -0.9286 0.6698 0.0039, -0.9286 -0.4415 0.0039, -0.9161 -0.4252 0.0039, 0.9286 1.0585 0.0039, -0.9082 -0.4062 0.0039, -0.9055 -0.3859 0.0039, 0.9161 0.0748 0.0039, 0.9286 0.0585 0.0039, -0.9286 1.1698 0.0039, -0.9449 1.1823 0.0039, -0.9639 1.1902 0.0039, -0.9843 1.1929 0.0039, 0.9286 1.1698 0.0039, 0.9161 1.1535 0.0039, -0.9286 -0.3302 0.0039, 0.9082 1.1345 0.0039, 0.9055 1.1141 0.0039, -0.9843 -0.4646 0.0039, 0.9286 -0.4415 0.0039, 0.9449 -0.4541 0.0039, 0.9639 -0.4619 0.0039, 1.1417 -0.6004 0.0039, 0.9842 -0.4646 0.0039, 1.1417 -0.4646 0.0039, -0.9449 -0.3177 0.0039, -0.9286 0.0585 0.0039, -0.9639 -0.3098 0.0039, -0.9449 0.0459 0.0039, 1.1417 1.1929 0.0039, 0.9842 1.1929 0.0039, -0.9639 1.0381 0.0039, -0.9449 0.6823 0.0039, 0.9082 1.0938 0.0039, 0.9161 1.0748 0.0039, -0.9161 -0.3465 0.0039, -0.9082 -0.3655 0.0039, 0.9449 1.0459 0.0039, 0.9639 1.0381 0.0039, 0.9449 0.6823 0.0039, -0.9082 1.0938 0.0039, -0.9055 1.1141 0.0039, 0.9639 -0.3098 0.0039, 0.9449 0.0459 0.0039, 0.9082 -0.3655 0.0039, 0.9055 -0.3859 0.0039, -0.9082 0.0938 0.0039, -0.9055 0.1141 0.0039, -0.9082 0.5938 0.0039, -0.9055 0.6141 0.0039, -0.9082 0.6345 0.0039, 0.9082 0.6345 0.0039, 0.9055 0.6141 0.0039, 0.9082 0.1345 0.0039, 0.9055 0.1141 0.0039, 0.9082 0.0938 0.0039, 0.9842 0.0354 0.0039, 1.1417 0.0354 0.0039, 1.1417 -0.3071 0.0039, -0.9843 -0.3071 0.0039, -0.9843 0.0354 0.0039, -0.9639 0.0381 0.0039, -0.9161 0.0748 0.0039, -0.9639 0.5381 0.0039, -0.9449 0.5459 0.0039, -0.9286 0.5585 0.0039, -0.9161 0.5748 0.0039, -0.9843 0.6929 0.0039, -0.9082 1.1345 0.0039, -0.9161 1.1535 0.0039, 0.9639 0.0381 0.0039, 0.9842 -0.3071 0.0039, 0.9082 -0.4062 0.0039, 0.9161 -0.4252 0.0039, 0.9639 1.1902 0.0039, 0.9449 1.1823 0.0039, -0.9082 0.1345 0.0039, -0.9639 0.6902 0.0039, -0.9843 1.0354 0.0039, -0.9449 1.0459 0.0039, -0.9286 1.0585 0.0039, -0.9161 1.0748 0.0039, 1.1417 1.0354 0.0039, 1.1417 0.6929 0.0039, 0.9842 1.0354 0.0039, 0.9842 0.6929 0.0039, 0.9639 0.6902 0.0039, 0.9286 0.6698 0.0039, 0.9161 0.6535 0.0039, -0.9639 -0.4619 0.0039, -0.9449 -0.4541 0.0039, 0.9082 0.5938 0.0039, 1.1417 0.5354 0.0039, 1.1417 0.1929 0.0039, 0.9842 0.5354 0.0039, 0.9842 0.1929 0.0039, 0.9639 0.5381 0.0039, 0.9639 0.1902 0.0039, 0.9449 0.5459 0.0039, 0.9449 0.1823 0.0039, 0.9286 0.1698 0.0039, 0.9161 0.1535 0.0039, 0.9449 -0.3177 0.0039, 0.9286 -0.3302 0.0039, 0.9161 -0.3465 0.0039, -0.9843 0.1929 0.0039, -0.9843 0.5354 0.0039, -0.9639 0.1902 0.0039, -0.9449 0.1823 0.0039, 0.0231 -0.0476 0.437, 0.0141 -0.0411 0.437, -0.0052 -0.0367 0.437, 0.0056 -0.0316 0.437, 0.0016 -0.0252 0.437, 0.0876 -0.026 0.437, 0.093 -0.3096 0.437, 0.0924 -0.0128 0.437, 0.093 -0.0074 0.437, 0.0812 -0.036 0.437, 0.0731 -0.0437 0.437, 0.0629 -0.0496 0.437, 0.0329 -0.0517 0.437, -0.0147 -0.046 0.437, -0.0645 -0.0564 0.437, -0.0763 -0.052 0.437, -0.1062 -0.3096 0.437, -0.0871 -0.0446 0.437, -0.0958 -0.0347 0.437, -0.1022 -0.0229 0.437, -0.1062 -0.0085 0.437, -1.1024 -0.3096 0.437, -0.1063 -0.0083 0.437, -1.1024 0.0872 0.437, -0.1074 0.0056 0.437, -0.1062 0.0167 0.437, 0.0528 -0.0526 0.437, 0.0443 -0.0533 0.437, -0.0279 -0.0538 0.437, -0.0403 -0.0573 0.437, -0.0498 -0.0581 0.437, 0.093 0.0146 0.437, 0.0937 0.0119 0.437, 1.1024 0.0872 0.437, 1.1024 -0.3096 0.437, 0.0942 0.0032 0.437, -0.0143 0.0549 0.437, -0.0049 0.0441 0.437, 0.093 0.0872 0.437, 0.0443 0.0595 0.437, 0.0572 0.0578 0.437, 0.0676 0.0535 0.437, 0.077 0.0466 0.437, -0.0254 0.0629 0.437, 0.0016 0.0312 0.437, 0.0105 0.0437 0.437, 0.0846 0.0374 0.437, 0.0902 0.0262 0.437, -0.1003 0.038 0.437, -0.1062 0.0872 0.437, -0.1055 0.0232 0.437, -0.0923 0.0502 0.437, -0.0829 0.0588 0.437, -0.0713 0.0652 0.437, -0.0584 0.0686 0.437, -0.0498 0.0691 0.437, -0.0364 0.0674 0.437, 0.02 0.0519 0.437, 0.0295 0.0568 0.437, 0.0386 0.0591 0.437, 1.1024 -0.5611 0.437, 0.093 -0.5611 0.437, -0.1062 -0.5611 0.437, -1.1024 -0.5611 0.437, 0.0606 0.2396 0.437, 0.0606 0.2404 0.437, 0.0541 0.2366 0.437, 0.0469 0.2397 0.437, 0.0478 0.233 0.437, 0.0918 0.266 0.437, 0.093 0.2852 0.437, -0.105 0.266 0.437, -0.1062 0.2852 0.437, -0.105 0.2396 0.437, -0.105 0.1365 0.437, 0.0331 0.2396 0.437, 0.0918 0.2324 0.437, 0.0918 0.1316 0.437, 0.0918 0.1052 0.437, -0.105 0.1052 0.437, -0.0714 0.1308 0.437, -0.0714 0.1303 0.437, -0.0645 0.1346 0.437, -0.0571 0.1314 0.437, -0.0579 0.1387 0.437, -0.0428 0.1316 0.437, 0.0702 0.3788 0.437, 0.003 0.3788 0.437, 0.0702 0.3044 0.437, 0.003 0.3092 0.437, -0.0186 0.3092 0.437, -0.0186 0.3788 0.437, -0.105 0.3788 0.437, -0.1062 0.4232 0.437, -0.105 0.4052 0.437, 0.093 0.4232 0.437, 0.0918 0.4052 0.437, 0.0918 0.3044 0.437, 0.0918 0.5441 0.437, 0.093 0.6177 0.437, 0.0888 0.5157 0.437, 0.0807 0.4927 0.437, 0.0664 0.4712 0.437, -0.051 0.451 0.437, -0.0683 0.4621 0.437, -0.0839 0.4782 0.437, -0.0959 0.4986 0.437, -0.1028 0.5212 0.437, -0.105 0.5462 0.437, -0.1062 0.6177 0.437, -0.105 0.5997 0.437, 0.0918 0.5997 0.437, 0.0662 0.471 0.437, 0.0507 0.4571 0.437, 0.0335 0.4479 0.437, 0.014 0.4426 0.437, -0.0041 0.4412 0.437, -0.0304 0.444 0.437, -0.105 0.7317 0.437, -0.105 0.7581 0.437, 0.0918 0.7025 0.437, 0.0902 0.6833 0.437, 0.0858 0.6683 0.437, 0.0793 0.6567 0.437, 0.073 0.6495 0.437, 0.0631 0.6424 0.437, 0.0521 0.6381 0.437, 0.0037 0.6423 0.437, -0.0081 0.6503 0.437, -0.0185 0.662 0.437, 0.0918 0.7581 0.437, 0.093 0.9105 0.437, -0.1062 0.9105 0.437, 0.0364 0.6358 0.437, 0.0329 0.6357 0.437, 0.0163 0.6376 0.437, -0.0261 0.6765 0.437, -0.0299 0.692 0.437, -0.0306 0.7066 0.437, -0.0306 0.7317 0.437, -1.0114 1.1497 0.437, -1.0046 1.1663 0.437, -1.1024 1.2893 0.437, -1.1024 0.9105 0.437, -0.9271 1.0653 0.437, -0.9449 1.0629 0.437, -0.9627 1.0653 0.437, -0.9793 1.0722 0.437, -0.9936 1.0831 0.437, -0.876 1.1318 0.437, -0.8783 1.114 0.437, -0.8852 1.0974 0.437, -0.8962 1.0831 0.437, -0.9104 1.0722 0.437, -1.1024 0.2852 0.437, -1.1024 0.4232 0.437, -1.1024 0.6177 0.437, -1.0046 1.0974 0.437, -1.0114 1.114 0.437, -1.0138 1.1318 0.437, -0.9936 1.1806 0.437, -0.9793 1.1915 0.437, -0.9627 1.1984 0.437, -0.9449 1.2007 0.437, -0.9271 1.1984 0.437, -0.1062 1.2893 0.437, -0.9104 1.1915 0.437, -0.8962 1.1806 0.437, -0.8852 1.1663 0.437, -0.8783 1.1497 0.437, 0.093 1.2893 0.437, 1.1024 0.2852 0.437, 1.1024 0.4232 0.437, 1.1024 0.6177 0.437, 1.1024 0.9105 0.437, 1.1024 1.2893 0.437, 1.1417 -0.6004 0.0827, 1.1417 -0.4646 0.0787, 1.1417 -0.3071 0.0787, 1.1417 0.1929 0.0787, 1.1417 0.5354 0.0787, 1.1417 1.1929 0.0787, 1.1417 1.3287 0.0827, 1.1417 1.0354 0.0787, 1.1417 0.6929 0.0787, 1.1417 0.0354 0.0787
            ]
        }
        coordIndex [
            0,1,2,-1,2,1,3,-1,2,3,4,-1,5,6,7,-1,7,6,8,-1,9,10,4,-1,4,10,11,-1,4,11,2,-1,2,11,7,-1,2,7,12,-1,12,7,8,-1,12,8,13,-1,14,15,16,-1,16,15,12,-1,16,12,17,-1,17,12,13,-1,17,13,18,-1,18,13,19,-1,20,21,22,-1,23,24,15,-1,25,26,22,-1,27,28,29,-1,29,28,30,-1,29,30,31,-1,32,33,15,-1,34,35,22,-1,22,35,36,-1,22,36,0,-1,0,36,37,-1,0,37,1,-1,38,39,40,-1,40,39,41,-1,40,41,42,-1,15,14,43,-1,44,45,15,-1,15,45,46,-1,15,46,47,-1,47,46,48,-1,47,48,49,-1,40,50,51,-1,51,50,52,-1,51,52,53,-1,22,54,55,-1,56,26,57,-1,42,58,40,-1,40,58,59,-1,40,59,60,-1,60,59,29,-1,60,29,61,-1,61,29,31,-1,62,63,64,-1,65,66,22,-1,67,33,68,-1,69,70,15,-1,38,71,72,-1,73,74,22,-1,22,74,75,-1,22,75,25,-1,27,76,77,-1,78,79,15,-1,15,79,80,-1,15,80,32,-1,81,82,83,-1,18,19,84,-1,84,19,85,-1,84,85,52,-1,52,85,86,-1,52,86,53,-1,40,51,38,-1,38,51,87,-1,38,87,71,-1,88,89,21,-1,21,89,90,-1,21,90,22,-1,22,90,91,-1,22,91,73,-1,92,10,9,-1,66,93,22,-1,22,93,94,-1,22,94,34,-1,68,95,67,-1,67,95,81,-1,67,81,96,-1,96,81,83,-1,70,97,15,-1,15,97,98,-1,15,98,44,-1,55,99,22,-1,22,99,100,-1,22,100,20,-1,20,100,38,-1,20,38,101,-1,101,38,72,-1,57,102,56,-1,56,102,92,-1,56,92,103,-1,103,92,9,-1,56,104,26,-1,26,104,105,-1,26,105,22,-1,22,105,106,-1,22,106,65,-1,107,108,109,-1,109,108,110,-1,109,110,63,-1,63,110,111,-1,63,111,64,-1,62,64,29,-1,29,64,112,-1,29,112,27,-1,27,112,113,-1,27,113,76,-1,43,114,15,-1,15,114,115,-1,15,115,23,-1,23,115,27,-1,23,27,116,-1,116,27,77,-1,117,118,119,-1,119,118,120,-1,119,120,121,-1,121,120,122,-1,121,122,123,-1,123,122,24,-1,122,124,24,-1,24,124,125,-1,24,125,15,-1,15,125,126,-1,15,126,78,-1,67,127,33,-1,33,127,128,-1,33,128,15,-1,15,128,129,-1,15,129,69,-1,6,5,130,-1,130,5,131,-1,130,131,132,-1,132,131,88,-1,132,88,133,-1,133,88,21,-1,134,135,136,-1,136,135,137,-1,136,137,138,-1,139,140,141,-1,141,140,142,-1,139,143,140,-1,140,143,144,-1,140,144,145,-1,134,136,146,-1,146,136,147,-1,146,147,140,-1,148,149,150,-1,150,149,151,-1,150,151,152,-1,152,153,150,-1,150,153,154,-1,150,154,155,-1,155,154,156,-1,155,156,157,-1,157,156,158,-1,157,158,159,-1,145,160,140,-1,140,160,161,-1,140,161,146,-1,147,162,140,-1,140,162,163,-1,140,163,150,-1,150,163,164,-1,150,164,148,-1,165,166,167,-1,140,168,142,-1,142,168,167,-1,142,167,169,-1,169,167,166,-1,170,171,172,-1,173,174,172,-1,172,174,175,-1,172,175,176,-1,170,172,177,-1,171,178,179,-1,176,180,172,-1,172,180,181,-1,172,181,165,-1,182,183,184,-1,184,183,159,-1,182,185,183,-1,183,185,186,-1,183,186,187,-1,187,188,183,-1,183,188,189,-1,183,189,172,-1,172,189,190,-1,172,190,177,-1,179,191,171,-1,171,191,192,-1,171,192,172,-1,172,192,193,-1,172,193,173,-1,194,168,195,-1,195,168,140,-1,195,140,196,-1,196,140,150,-1,196,150,197,-1,197,150,155,-1,198,199,200,-1,200,199,201,-1,200,201,202,-1,203,204,205,-1,205,204,206,-1,205,206,207,-1,207,206,183,-1,207,183,208,-1,202,201,208,-1,208,201,209,-1,208,209,207,-1,203,210,204,-1,204,210,211,-1,204,211,172,-1,172,211,212,-1,172,212,183,-1,183,212,213,-1,183,213,208,-1,214,215,216,-1,216,215,217,-1,216,217,218,-1,218,217,210,-1,210,217,219,-1,210,219,211,-1,220,221,222,-1,222,221,223,-1,224,225,206,-1,206,225,226,-1,206,226,227,-1,227,226,228,-1,227,228,229,-1,228,230,229,-1,229,230,231,-1,229,231,204,-1,204,231,222,-1,204,222,206,-1,206,222,223,-1,206,223,224,-1,232,229,233,-1,232,234,229,-1,229,234,235,-1,229,235,236,-1,237,238,227,-1,227,238,239,-1,227,239,240,-1,240,241,227,-1,227,241,242,-1,227,242,243,-1,243,242,244,-1,243,244,233,-1,233,244,245,-1,233,245,232,-1,236,246,229,-1,229,246,247,-1,229,247,248,-1,248,249,229,-1,229,249,250,-1,229,250,227,-1,227,250,251,-1,227,251,237,-1,243,252,253,-1,254,255,233,-1,233,255,256,-1,233,256,257,-1,257,258,233,-1,233,258,259,-1,233,259,260,-1,261,262,243,-1,243,262,263,-1,254,233,264,-1,264,233,265,-1,264,265,253,-1,253,265,266,-1,253,266,243,-1,260,267,233,-1,233,267,268,-1,233,268,243,-1,243,268,269,-1,243,269,261,-1,263,270,243,-1,243,270,271,-1,243,271,252,-1,252,271,272,-1,252,272,273,-1,274,275,276,-1,277,278,279,-1,279,280,277,-1,277,280,281,-1,277,281,282,-1,283,284,266,-1,284,285,266,-1,266,285,286,-1,266,286,287,-1,159,183,157,-1,157,183,206,-1,157,206,288,-1,288,206,227,-1,288,227,289,-1,289,227,243,-1,289,243,290,-1,290,243,266,-1,290,266,277,-1,277,266,287,-1,277,287,278,-1,282,291,277,-1,277,291,292,-1,277,292,276,-1,276,292,293,-1,276,293,274,-1,275,294,276,-1,276,294,295,-1,276,295,296,-1,296,297,276,-1,276,297,298,-1,276,298,299,-1,299,298,300,-1,300,301,299,-1,299,301,302,-1,299,302,303,-1,265,304,266,-1,266,304,299,-1,266,299,283,-1,283,299,303,-1,165,167,172,-1,172,167,305,-1,172,305,204,-1,204,305,306,-1,204,306,229,-1,229,306,307,-1,229,307,233,-1,233,307,308,-1,233,308,265,-1,265,308,309,-1,265,309,304,-1,47,49,310,-1,310,49,311,-1,310,311,312,-1,118,117,313,-1,313,117,314,-1,54,22,315,-1,315,22,316,-1,315,316,317,-1,317,316,318,-1,317,318,107,-1,107,318,108,-1,83,82,312,-1,312,82,319,-1,312,319,310,-1,310,319,313,-1,310,313,316,-1,316,313,314,-1,316,314,318,-1,316,22,2,-1,2,22,0,-1,12,15,310,-1,310,15,47,-1,
        ]
    }
}
Shape{
    appearance Appearance {
        material  Material 	{
            diffuseColor 0.8509803921568627 0.8509803921568627 0.8509803921568627
            specularColor 0.4235294117647059 0.4235294117647059 0.4235294117647059
            ambientIntensity 0.851
            transparency 0.0
            shininess 0.5
        }
    }
    geometry IndexedFaceSet {
        ccw TRUE
        solid FALSE
        coord DEF co Coordinate {
            point [
                -0.876 1.1318 0.4291, -0.876 1.1318 0.437, -0.8783 1.1497 0.4291, -0.8783 1.1497 0.437, -0.8852 1.1663 0.4291, -0.8852 1.1663 0.437, -0.8962 1.1806 0.4291, -0.8962 1.1806 0.437, -0.9104 1.1915 0.4291, -0.9104 1.1915 0.437, -0.9271 1.1984 0.4291, -0.9271 1.1984 0.437, -0.9449 1.2007 0.4291, -0.9449 1.2007 0.437, -0.9627 1.1984 0.4291, -0.9627 1.1984 0.437, -0.9793 1.1915 0.4291, -0.9793 1.1915 0.437, -0.9936 1.1806 0.4291, -0.9936 1.1806 0.437, -1.0046 1.1663 0.4291, -1.0046 1.1663 0.437, -1.0114 1.1497 0.4291, -1.0114 1.1497 0.437, -1.0138 1.1318 0.4291, -1.0138 1.1318 0.437, -1.0114 1.114 0.4291, -1.0114 1.114 0.437, -1.0046 1.0974 0.4291, -1.0046 1.0974 0.437, -0.9936 1.0831 0.4291, -0.9936 1.0831 0.437, -0.9793 1.0722 0.4291, -0.9793 1.0722 0.437, -0.9627 1.0653 0.4291, -0.9627 1.0653 0.437, -0.9449 1.0629 0.4291, -0.9449 1.0629 0.437, -0.9271 1.0653 0.4291, -0.9271 1.0653 0.437, -0.9104 1.0722 0.4291, -0.9104 1.0722 0.437, -0.8962 1.0831 0.4291, -0.8962 1.0831 0.437, -0.8852 1.0974 0.4291, -0.8852 1.0974 0.437, -0.8783 1.114 0.4291, -0.8783 1.114 0.437, -0.9449 1.1318 0.4291
            ]
        }
        coordIndex [
            0,1,2,-1,2,1,3,-1,2,3,4,-1,4,3,5,-1,4,5,6,-1,6,5,7,-1,6,7,8,-1,8,7,9,-1,8,9,10,-1,10,9,11,-1,10,11,12,-1,12,11,13,-1,12,13,14,-1,14,13,15,-1,14,15,16,-1,16,15,17,-1,16,17,18,-1,18,17,19,-1,18,19,20,-1,20,19,21,-1,20,21,22,-1,22,21,23,-1,22,23,24,-1,24,23,25,-1,24,25,26,-1,26,25,27,-1,26,27,28,-1,28,27,29,-1,28,29,30,-1,30,29,31,-1,30,31,32,-1,32,31,33,-1,32,33,34,-1,34,33,35,-1,34,35,36,-1,36,35,37,-1,36,37,38,-1,38,37,39,-1,38,39,40,-1,40,39,41,-1,40,41,42,-1,42,41,43,-1,42,43,44,-1,44,43,45,-1,44,45,46,-1,46,45,47,-1,46,47,0,-1,0,47,1,-1,44,46,48,-1,48,46,0,-1,48,0,2,-1,38,40,48,-1,48,40,42,-1,48,42,44,-1,32,34,48,-1,48,34,36,-1,48,36,38,-1,26,28,48,-1,48,28,30,-1,48,30,32,-1,20,22,48,-1,48,22,24,-1,48,24,26,-1,14,16,48,-1,48,16,18,-1,48,18,20,-1,8,10,48,-1,48,10,12,-1,48,12,14,-1,2,4,48,-1,48,4,6,-1,48,6,8,-1,
        ]
    }
}
Shape{
    appearance Appearance {
        material  Material 	{
            diffuseColor 0.6666666666666666 0.6666666666666666 0.6666666666666666
            specularColor 0.3333333333333333 0.3333333333333333 0.3333333333333333
            ambientIntensity 0.6667
            transparency 0.0
            shininess 0.5
        }
    }
    geometry IndexedFaceSet {
        ccw TRUE
        solid FALSE
        coord DEF co Coordinate {
            point [
                -0.1074 0.0056 0.437, -0.1074 0.0056 0.4331, -0.1062 0.0167 0.437, -0.1055 0.0232 0.4331, -0.1055 0.0232 0.437, -0.1003 0.038 0.4331, -0.1003 0.038 0.437, -0.0923 0.0502 0.4331, -0.0923 0.0502 0.437, -0.0829 0.0588 0.4331, -0.0829 0.0588 0.437, -0.0713 0.0652 0.4331, -0.0713 0.0652 0.437, -0.0584 0.0686 0.4331, -0.0584 0.0686 0.437, -0.0498 0.0691 0.4331, -0.0498 0.0691 0.437, 0.0016 0.0312 0.4331, 0.0016 0.0312 0.437, -0.0049 0.0441 0.437, -0.0049 0.0441 0.4331, -0.0143 0.0549 0.437, -0.0143 0.0549 0.4331, -0.0254 0.0629 0.437, -0.0254 0.0629 0.4331, -0.0364 0.0674 0.437, -0.0364 0.0674 0.4331, 0.0443 0.0595 0.4331, 0.0443 0.0595 0.437, 0.0386 0.0591 0.437, 0.0386 0.0591 0.4331, 0.0295 0.0568 0.437, 0.0295 0.0568 0.4331, 0.02 0.0519 0.437, 0.02 0.0519 0.4331, 0.0105 0.0437 0.437, 0.0105 0.0437 0.4331, 0.0942 0.0032 0.4331, 0.0942 0.0032 0.437, 0.0937 0.0119 0.437, 0.0937 0.0119 0.4331, 0.093 0.0146 0.437, 0.0902 0.0262 0.4331, 0.0902 0.0262 0.437, 0.0846 0.0374 0.437, 0.0846 0.0374 0.4331, 0.077 0.0466 0.437, 0.077 0.0466 0.4331, 0.0676 0.0535 0.437, 0.0676 0.0535 0.4331, 0.0572 0.0578 0.437, 0.0572 0.0578 0.4331, 0.093 -0.0074 0.437, 0.0924 -0.0128 0.4331, 0.0924 -0.0128 0.437, 0.0876 -0.026 0.4331, 0.0876 -0.026 0.437, 0.0812 -0.036 0.4331, 0.0812 -0.036 0.437, 0.0731 -0.0437 0.4331, 0.0731 -0.0437 0.437, 0.0629 -0.0496 0.4331, 0.0629 -0.0496 0.437, 0.0528 -0.0526 0.4331, 0.0528 -0.0526 0.437, 0.0443 -0.0533 0.4331, 0.0443 -0.0533 0.437, 0.0016 -0.0252 0.4331, 0.0016 -0.0252 0.437, 0.0056 -0.0316 0.437, 0.0056 -0.0316 0.4331, 0.0141 -0.0411 0.437, 0.0141 -0.0411 0.4331, 0.0231 -0.0476 0.437, 0.0231 -0.0476 0.4331, 0.0329 -0.0517 0.437, 0.0329 -0.0517 0.4331, -0.0498 -0.0581 0.4331, -0.0498 -0.0581 0.437, -0.0403 -0.0573 0.437, -0.0403 -0.0573 0.4331, -0.0279 -0.0538 0.437, -0.0279 -0.0538 0.4331, -0.0147 -0.046 0.437, -0.0147 -0.046 0.4331, -0.0052 -0.0367 0.437, -0.0052 -0.0367 0.4331, -0.1063 -0.0083 0.437, -0.1063 -0.0083 0.4331, -0.1062 -0.0085 0.437, -0.1022 -0.0229 0.4331, -0.1022 -0.0229 0.437, -0.0958 -0.0347 0.437, -0.0958 -0.0347 0.4331, -0.0871 -0.0446 0.437, -0.0871 -0.0446 0.4331, -0.0763 -0.052 0.437, -0.0763 -0.052 0.4331, -0.0645 -0.0564 0.437, -0.0645 -0.0564 0.4331, 0.0102 0.0033 0.4331, 0.0112 0.0111 0.4331, -0.0114 0.0056 0.4331, -0.0323 0.0417 0.4331, -0.0255 0.0374 0.4331, 0.0113 -0.0046 0.4331, -0.0202 0.0321 0.4331, -0.0155 0.0249 0.4331, -0.0125 0.0163 0.4331, 0.0719 -0.0037 0.4331, 0.0726 0.0033 0.4331, 0.0717 0.0112 0.4331, 0.0695 0.0171 0.4331, 0.0658 0.0225 0.4331, 0.0611 0.027 0.4331, 0.0545 0.0308 0.4331, 0.0474 0.0327 0.4331, -0.0485 -0.0341 0.4331, -0.0388 -0.0329 0.4331, -0.0313 -0.0299 0.4331, -0.0244 -0.0251 0.4331, -0.018 -0.0177 0.4331, -0.014 -0.0101 0.4331, 0.0415 0.0331 0.4331, 0.033 0.0321 0.4331, 0.0264 0.0295 0.4331, 0.0203 0.0252 0.4331, 0.0179 0.0229 0.4331, 0.0139 0.0176 0.4331, -0.0406 0.0444 0.4331, -0.0485 0.0451 0.4331, -0.0582 0.0441 0.4331, -0.0657 0.0416 0.4331, -0.072 0.0377 0.4331, -0.0779 0.0317 0.4331, -0.0823 0.0243 0.4331, -0.0851 0.0147 0.4331, -0.0858 0.0056 0.4331, -0.0847 -0.0051 0.4331, -0.0817 -0.0139 0.4331, -0.0771 -0.0211 0.4331, -0.0718 -0.0263 0.4331, -0.0653 -0.0305 0.4331, -0.0577 -0.0331 0.4331, 0.0499 -0.0259 0.4331, 0.0566 -0.0233 0.4331, 0.0627 -0.0191 0.4331, 0.066 -0.0158 0.4331, 0.0696 -0.0103 0.4331, -0.0118 -0.0011 0.4331, 0.0138 -0.0108 0.4331, 0.018 -0.0165 0.4331, 0.0249 -0.0222 0.4331, 0.0312 -0.0252 0.4331, 0.0378 -0.0267 0.4331, 0.0415 -0.0269 0.4331, -0.0485 0.0451 0.437, -0.0406 0.0444 0.437, -0.0323 0.0417 0.437, -0.0255 0.0374 0.437, -0.0202 0.0321 0.437, -0.0155 0.0249 0.437, -0.0125 0.0163 0.437, -0.0114 0.0056 0.437, -0.0118 -0.0011 0.437, -0.014 -0.0101 0.437, -0.018 -0.0177 0.437, -0.0244 -0.0251 0.437, -0.0313 -0.0299 0.437, -0.0388 -0.0329 0.437, -0.0485 -0.0341 0.437, -0.0577 -0.0331 0.437, -0.0653 -0.0305 0.437, -0.0718 -0.0263 0.437, -0.0771 -0.0211 0.437, -0.0817 -0.0139 0.437, -0.0847 -0.0051 0.437, -0.0858 0.0056 0.437, -0.0851 0.0147 0.437, -0.0823 0.0243 0.437, -0.0779 0.0317 0.437, -0.072 0.0377 0.437, -0.0657 0.0416 0.437, -0.0582 0.0441 0.437, 0.0415 0.0331 0.437, 0.0474 0.0327 0.437, 0.0545 0.0308 0.437, 0.0611 0.027 0.437, 0.0658 0.0225 0.437, 0.0695 0.0171 0.437, 0.0717 0.0112 0.437, 0.0726 0.0033 0.437, 0.0719 -0.0037 0.437, 0.0696 -0.0103 0.437, 0.066 -0.0158 0.437, 0.0627 -0.0191 0.437, 0.0566 -0.0233 0.437, 0.0499 -0.0259 0.437, 0.0415 -0.0269 0.437, 0.0378 -0.0267 0.437, 0.0312 -0.0252 0.437, 0.0249 -0.0222 0.437, 0.018 -0.0165 0.437, 0.0138 -0.0108 0.437, 0.0113 -0.0046 0.437, 0.0102 0.0033 0.437, 0.0112 0.0111 0.437, 0.0139 0.0176 0.437, 0.0179 0.0229 0.437, 0.0203 0.0252 0.437, 0.0264 0.0295 0.437, 0.033 0.0321 0.437
            ]
        }
        coordIndex [
            0,1,2,-1,2,1,3,-1,2,3,4,-1,4,3,5,-1,4,5,6,-1,6,5,7,-1,6,7,8,-1,8,7,9,-1,8,9,10,-1,10,9,11,-1,10,11,12,-1,12,11,13,-1,12,13,14,-1,14,13,15,-1,14,15,16,-1,17,18,19,-1,17,19,20,-1,20,19,21,-1,20,21,22,-1,22,21,23,-1,22,23,24,-1,24,23,25,-1,24,25,26,-1,26,25,16,-1,26,16,15,-1,27,28,29,-1,27,29,30,-1,30,29,31,-1,30,31,32,-1,32,31,33,-1,32,33,34,-1,34,33,35,-1,34,35,36,-1,36,35,18,-1,36,18,17,-1,37,38,39,-1,37,39,40,-1,40,39,41,-1,40,41,42,-1,41,43,42,-1,42,43,44,-1,42,44,45,-1,45,44,46,-1,45,46,47,-1,47,46,48,-1,47,48,49,-1,49,48,50,-1,49,50,51,-1,51,50,28,-1,51,28,27,-1,38,37,52,-1,52,37,53,-1,52,53,54,-1,54,53,55,-1,54,55,56,-1,56,55,57,-1,56,57,58,-1,58,57,59,-1,58,59,60,-1,60,59,61,-1,60,61,62,-1,62,61,63,-1,62,63,64,-1,64,63,65,-1,64,65,66,-1,67,68,69,-1,67,69,70,-1,70,69,71,-1,70,71,72,-1,72,71,73,-1,72,73,74,-1,74,73,75,-1,74,75,76,-1,76,75,66,-1,76,66,65,-1,77,78,79,-1,77,79,80,-1,80,79,81,-1,80,81,82,-1,82,81,83,-1,82,83,84,-1,84,83,85,-1,84,85,86,-1,86,85,68,-1,86,68,67,-1,1,0,87,-1,1,87,88,-1,88,87,89,-1,88,89,90,-1,89,91,90,-1,90,91,92,-1,90,92,93,-1,93,92,94,-1,93,94,95,-1,95,94,96,-1,95,96,97,-1,97,96,98,-1,97,98,99,-1,99,98,78,-1,99,78,77,-1,100,101,102,-1,103,104,17,-1,100,102,105,-1,104,106,17,-1,17,106,107,-1,17,107,101,-1,101,107,108,-1,101,108,102,-1,55,53,109,-1,109,53,110,-1,110,53,37,-1,110,37,111,-1,111,37,40,-1,111,40,112,-1,112,40,42,-1,112,42,113,-1,113,42,45,-1,113,45,114,-1,114,45,47,-1,114,47,115,-1,115,47,49,-1,115,49,116,-1,117,80,118,-1,118,80,82,-1,118,82,119,-1,119,82,84,-1,119,84,120,-1,120,84,86,-1,120,86,121,-1,121,86,67,-1,121,67,122,-1,49,51,116,-1,116,51,27,-1,116,27,123,-1,123,27,30,-1,123,30,124,-1,124,30,32,-1,124,32,125,-1,125,32,34,-1,125,34,126,-1,126,34,36,-1,126,36,127,-1,127,36,17,-1,127,17,128,-1,128,17,101,-1,22,24,129,-1,129,24,26,-1,129,26,130,-1,130,26,15,-1,130,15,131,-1,131,15,13,-1,131,13,132,-1,132,13,11,-1,132,11,133,-1,133,11,9,-1,133,9,134,-1,134,9,7,-1,134,7,135,-1,135,7,5,-1,135,5,136,-1,136,5,3,-1,136,3,137,-1,137,3,1,-1,137,1,138,-1,138,1,88,-1,138,88,139,-1,139,88,90,-1,139,90,140,-1,140,90,93,-1,140,93,141,-1,141,93,95,-1,141,95,142,-1,142,95,97,-1,142,97,143,-1,143,97,99,-1,143,99,117,-1,117,99,77,-1,117,77,80,-1,144,61,145,-1,145,61,59,-1,145,59,146,-1,146,59,57,-1,146,57,147,-1,147,57,55,-1,147,55,148,-1,148,55,109,-1,102,149,105,-1,105,149,122,-1,105,122,150,-1,150,122,67,-1,150,67,151,-1,151,67,70,-1,151,70,152,-1,152,70,72,-1,152,72,153,-1,153,72,74,-1,153,74,154,-1,154,74,76,-1,154,76,155,-1,155,76,65,-1,155,65,144,-1,144,65,63,-1,144,63,61,-1,103,17,129,-1,129,17,20,-1,129,20,22,-1,130,156,157,-1,130,157,129,-1,129,157,158,-1,129,158,103,-1,103,158,159,-1,103,159,104,-1,104,159,160,-1,104,160,106,-1,106,160,161,-1,106,161,107,-1,107,161,162,-1,107,162,108,-1,108,162,163,-1,108,163,102,-1,102,163,164,-1,102,164,149,-1,149,164,165,-1,149,165,122,-1,122,165,166,-1,122,166,121,-1,121,166,167,-1,121,167,120,-1,120,167,168,-1,120,168,119,-1,119,168,169,-1,119,169,118,-1,118,169,170,-1,118,170,117,-1,117,170,171,-1,117,171,143,-1,143,171,172,-1,143,172,142,-1,142,172,173,-1,142,173,141,-1,141,173,174,-1,141,174,140,-1,140,174,175,-1,140,175,139,-1,139,175,176,-1,139,176,138,-1,138,176,177,-1,138,177,137,-1,137,177,178,-1,137,178,136,-1,136,178,179,-1,136,179,135,-1,135,179,180,-1,135,180,134,-1,134,180,181,-1,134,181,133,-1,133,181,182,-1,133,182,132,-1,132,182,183,-1,132,183,131,-1,131,183,156,-1,131,156,130,-1,123,184,185,-1,123,185,116,-1,116,185,186,-1,116,186,115,-1,115,186,187,-1,115,187,114,-1,114,187,188,-1,114,188,113,-1,113,188,189,-1,113,189,112,-1,112,189,190,-1,112,190,111,-1,111,190,191,-1,111,191,110,-1,110,191,192,-1,110,192,109,-1,109,192,193,-1,109,193,148,-1,148,193,194,-1,148,194,147,-1,147,194,195,-1,147,195,146,-1,146,195,196,-1,146,196,145,-1,145,196,197,-1,145,197,144,-1,144,197,198,-1,144,198,155,-1,155,198,199,-1,155,199,154,-1,154,199,200,-1,154,200,153,-1,153,200,201,-1,153,201,152,-1,152,201,202,-1,152,202,151,-1,151,202,203,-1,151,203,150,-1,150,203,204,-1,150,204,105,-1,105,204,205,-1,105,205,100,-1,100,205,206,-1,100,206,101,-1,101,206,207,-1,101,207,128,-1,128,207,208,-1,128,208,127,-1,127,208,209,-1,127,209,126,-1,126,209,210,-1,126,210,125,-1,125,210,211,-1,125,211,124,-1,124,211,184,-1,124,184,123,-1,
        ]
    }
}
Shape{
    appearance Appearance {
        material  Material 	{
            diffuseColor 0.25098039215686274 0.25098039215686274 0.25098039215686274
            specularColor 0.12549019607843137 0.12549019607843137 0.12549019607843137
            ambientIntensity 0.251
            transparency 0.0
            shininess 0.5
        }
    }
    geometry IndexedFaceSet {
        ccw TRUE
        solid FALSE
        coord DEF co Coordinate {
            point [
                -0.0114 0.0056 0.437, -0.0858 0.0056 0.437, -0.0118 -0.0011 0.437, -0.0847 -0.0051 0.437, -0.0718 -0.0263 0.437, -0.0653 -0.0305 0.437, -0.0577 -0.0331 0.437, -0.0485 -0.0341 0.437, -0.0582 0.0441 0.437, -0.0485 0.0451 0.437, -0.0125 0.0163 0.437, -0.0155 0.0249 0.437, -0.0202 0.0321 0.437, -0.0255 0.0374 0.437, -0.0406 0.0444 0.437, -0.0323 0.0417 0.437, -0.0817 -0.0139 0.437, -0.0771 -0.0211 0.437, -0.0657 0.0416 0.437, -0.072 0.0377 0.437, -0.0779 0.0317 0.437, -0.0244 -0.0251 0.437, -0.0313 -0.0299 0.437, -0.0388 -0.0329 0.437, -0.018 -0.0177 0.437, -0.014 -0.0101 0.437, -0.0823 0.0243 0.437, -0.0851 0.0147 0.437
            ]
        }
        coordIndex [
            0,1,2,-1,2,1,3,-1,4,5,2,-1,2,5,6,-1,2,6,7,-1,8,0,9,-1,9,0,10,-1,9,10,11,-1,11,12,9,-1,9,12,13,-1,9,13,14,-1,14,13,15,-1,3,16,2,-1,2,16,17,-1,2,17,4,-1,8,18,0,-1,0,18,19,-1,0,19,20,-1,21,7,22,-1,22,7,23,-1,21,24,7,-1,7,24,25,-1,7,25,2,-1,20,26,0,-1,0,26,27,-1,0,27,1,-1,
        ]
    }
}
Shape{
    appearance Appearance {
        material  Material 	{
            diffuseColor 0.6666666666666666 0.6666666666666666 0.6666666666666666
            specularColor 0.3333333333333333 0.3333333333333333 0.3333333333333333
            ambientIntensity 0.6667
            transparency 0.0
            shininess 0.5
        }
    }
    geometry IndexedFaceSet {
        ccw TRUE
        solid FALSE
        coord DEF co Coordinate {
            point [
                0.0918 0.1052 0.4331, -0.105 0.1052 0.4331, 0.0918 0.1052 0.437, -0.105 0.1052 0.437, -0.105 0.1365 0.4331, -0.105 0.1365 0.437, 0.0478 0.233 0.4331, 0.0478 0.233 0.437, 0.0606 0.2396 0.4331, 0.0606 0.2396 0.437, 0.0541 0.2366 0.437, 0.0541 0.2366 0.4331, 0.0606 0.2404 0.4331, 0.0606 0.2404 0.437, 0.0331 0.2396 0.4331, 0.0331 0.2396 0.437, 0.0469 0.2397 0.437, 0.0469 0.2397 0.4331, -0.105 0.2396 0.4331, -0.105 0.2396 0.437, -0.105 0.266 0.4331, -0.105 0.266 0.437, 0.0918 0.266 0.4331, 0.0918 0.266 0.437, 0.0918 0.2324 0.4331, 0.0918 0.2324 0.437, -0.0579 0.1387 0.4331, -0.0579 0.1387 0.437, -0.0714 0.1308 0.4331, -0.0714 0.1308 0.437, -0.0645 0.1346 0.437, -0.0645 0.1346 0.4331, -0.0714 0.1303 0.4331, -0.0714 0.1303 0.437, -0.0428 0.1316 0.4331, -0.0428 0.1316 0.437, -0.0571 0.1314 0.437, -0.0571 0.1314 0.4331, 0.0918 0.1316 0.4331, 0.0918 0.1316 0.437, 0.0918 0.3044 0.4331, 0.0702 0.3044 0.4331, 0.0918 0.3044 0.437, 0.0702 0.3044 0.437, 0.0702 0.3788 0.4331, 0.0702 0.3788 0.437, 0.003 0.3788 0.4331, 0.003 0.3788 0.437, 0.003 0.3092 0.4331, 0.003 0.3092 0.437, -0.0186 0.3092 0.4331, -0.0186 0.3092 0.437, -0.0186 0.3788 0.4331, -0.0186 0.3788 0.437, -0.105 0.3788 0.4331, -0.105 0.3788 0.437, -0.105 0.4052 0.4331, -0.105 0.4052 0.437, 0.0918 0.4052 0.4331, 0.0918 0.4052 0.437, -0.105 0.5462 0.4331, -0.105 0.5997 0.4331, -0.105 0.5462 0.437, -0.105 0.5997 0.437, 0.0918 0.5997 0.4331, 0.0918 0.5997 0.437, 0.0918 0.5441 0.4331, 0.0918 0.5441 0.437, -0.0041 0.4412 0.4331, -0.0041 0.4412 0.437, 0.014 0.4426 0.437, 0.014 0.4426 0.4331, 0.0335 0.4479 0.437, 0.0335 0.4479 0.4331, 0.0507 0.4571 0.437, 0.0507 0.4571 0.4331, 0.0662 0.471 0.437, 0.0662 0.471 0.4331, 0.0664 0.4712 0.437, 0.0664 0.4712 0.4331, 0.0807 0.4927 0.437, 0.0807 0.4927 0.4331, 0.0888 0.5157 0.437, 0.0888 0.5157 0.4331, -0.1028 0.5212 0.437, -0.1028 0.5212 0.4331, -0.0959 0.4986 0.437, -0.0959 0.4986 0.4331, -0.0839 0.4782 0.437, -0.0839 0.4782 0.4331, -0.0683 0.4621 0.437, -0.0683 0.4621 0.4331, -0.051 0.451 0.437, -0.051 0.451 0.4331, -0.0304 0.444 0.437, -0.0304 0.444 0.4331, 0.0427 0.4807 0.4331, 0.0528 0.4903 0.4331, 0.0621 0.5047 0.4331, 0.0678 0.5209 0.4331, 0.0702 0.5442 0.4331, 0.0702 0.5733 0.4331, -0.0834 0.5733 0.4331, -0.0834 0.5453 0.4331, -0.0815 0.5245 0.4331, -0.0763 0.508 0.4331, -0.0683 0.4945 0.4331, -0.0573 0.4834 0.4331, -0.0439 0.4752 0.4331, -0.0282 0.47 0.4331, -0.0047 0.4677 0.4331, 0.0149 0.4693 0.4331, 0.0305 0.4739 0.4331, 0.0702 0.5442 0.437, 0.0702 0.5733 0.437, 0.0678 0.5209 0.437, 0.0621 0.5047 0.437, 0.0528 0.4903 0.437, 0.0427 0.4807 0.437, 0.0305 0.4739 0.437, 0.0149 0.4693 0.437, -0.0047 0.4677 0.437, -0.0282 0.47 0.437, -0.0439 0.4752 0.437, -0.0573 0.4834 0.437, -0.0683 0.4945 0.437, -0.0763 0.508 0.437, -0.0815 0.5245 0.437, -0.0834 0.5453 0.437, -0.0834 0.5733 0.437, -0.0306 0.7066 0.4331, -0.0306 0.7317 0.4331, -0.0306 0.7066 0.437, -0.0306 0.7317 0.437, -0.105 0.7317 0.4331, -0.105 0.7317 0.437, -0.105 0.7581 0.4331, -0.105 0.7581 0.437, 0.0918 0.7581 0.4331, 0.0918 0.7581 0.437, 0.0918 0.7025 0.4331, 0.0918 0.7025 0.437, 0.0329 0.6357 0.4331, 0.0329 0.6357 0.437, 0.0364 0.6358 0.437, 0.0364 0.6358 0.4331, 0.0521 0.6381 0.437, 0.0521 0.6381 0.4331, 0.0631 0.6424 0.437, 0.0631 0.6424 0.4331, 0.073 0.6495 0.437, 0.073 0.6495 0.4331, 0.0793 0.6567 0.437, 0.0793 0.6567 0.4331, 0.0858 0.6683 0.437, 0.0858 0.6683 0.4331, 0.0902 0.6833 0.437, 0.0902 0.6833 0.4331, -0.0299 0.692 0.437, -0.0299 0.692 0.4331, -0.0261 0.6765 0.437, -0.0261 0.6765 0.4331, -0.0185 0.662 0.437, -0.0185 0.662 0.4331, -0.0081 0.6503 0.437, -0.0081 0.6503 0.4331, 0.0037 0.6423 0.437, 0.0037 0.6423 0.4331, 0.0163 0.6376 0.437, 0.0163 0.6376 0.4331, -0.0051 0.6851 0.4331, -0.0079 0.6953 0.4331, -0.009 0.7086 0.4331, -0.009 0.7317 0.4331, 0.0702 0.7317 0.4331, -0.001 0.6773 0.4331, 0.0046 0.6709 0.4331, 0.0115 0.6664 0.4331, 0.0192 0.6635 0.4331, 0.0311 0.6621 0.4331, 0.0319 0.6621 0.4331, 0.0419 0.6629 0.4331, 0.0498 0.6653 0.4331, 0.0561 0.6689 0.4331, 0.0608 0.6733 0.4331, 0.0641 0.6781 0.4331, 0.0679 0.687 0.4331, 0.0701 0.7015 0.4331, 0.0702 0.7062 0.4331, 0.0702 0.7062 0.437, 0.0702 0.7317 0.437, 0.0701 0.7015 0.437, 0.0679 0.687 0.437, 0.0641 0.6781 0.437, 0.0608 0.6733 0.437, 0.0561 0.6689 0.437, 0.0498 0.6653 0.437, 0.0419 0.6629 0.437, 0.0319 0.6621 0.437, 0.0311 0.6621 0.437, 0.0192 0.6635 0.437, 0.0115 0.6664 0.437, 0.0046 0.6709 0.437, -0.001 0.6773 0.437, -0.0051 0.6851 0.437, -0.0079 0.6953 0.437, -0.009 0.7086 0.437, -0.009 0.7317 0.437
            ]
        }
        coordIndex [
            0,1,2,-1,2,1,3,-1,1,4,3,-1,3,4,5,-1,4,6,5,-1,5,6,7,-1,8,9,10,-1,8,10,11,-1,11,10,7,-1,11,7,6,-1,8,12,9,-1,9,12,13,-1,14,15,16,-1,14,16,17,-1,17,16,13,-1,17,13,12,-1,14,18,15,-1,15,18,19,-1,18,20,19,-1,19,20,21,-1,20,22,21,-1,21,22,23,-1,22,24,23,-1,23,24,25,-1,24,26,25,-1,25,26,27,-1,28,29,30,-1,28,30,31,-1,31,30,27,-1,31,27,26,-1,28,32,29,-1,29,32,33,-1,34,35,36,-1,34,36,37,-1,37,36,33,-1,37,33,32,-1,34,38,35,-1,35,38,39,-1,38,0,39,-1,39,0,2,-1,0,38,1,-1,1,38,34,-1,20,18,22,-1,22,18,14,-1,14,17,22,-1,22,17,12,-1,22,12,24,-1,24,12,8,-1,34,37,1,-1,1,37,32,-1,1,32,4,-1,4,32,28,-1,28,31,4,-1,4,31,26,-1,4,26,6,-1,6,26,24,-1,6,24,11,-1,11,24,8,-1,40,41,42,-1,42,41,43,-1,41,44,43,-1,43,44,45,-1,44,46,45,-1,45,46,47,-1,46,48,47,-1,47,48,49,-1,48,50,49,-1,49,50,51,-1,50,52,51,-1,51,52,53,-1,52,54,53,-1,53,54,55,-1,54,56,55,-1,55,56,57,-1,56,58,57,-1,57,58,59,-1,58,40,59,-1,59,40,42,-1,58,56,52,-1,52,56,54,-1,41,40,44,-1,44,40,58,-1,44,58,46,-1,46,58,52,-1,46,52,48,-1,48,52,50,-1,60,61,62,-1,62,61,63,-1,61,64,63,-1,63,64,65,-1,64,66,65,-1,65,66,67,-1,68,69,70,-1,68,70,71,-1,71,70,72,-1,71,72,73,-1,73,72,74,-1,73,74,75,-1,75,74,76,-1,75,76,77,-1,77,76,78,-1,77,78,79,-1,79,78,80,-1,79,80,81,-1,81,80,82,-1,81,82,83,-1,83,82,67,-1,83,67,66,-1,60,62,84,-1,60,84,85,-1,85,84,86,-1,85,86,87,-1,87,86,88,-1,87,88,89,-1,89,88,90,-1,89,90,91,-1,91,90,92,-1,91,92,93,-1,93,92,94,-1,93,94,95,-1,95,94,69,-1,95,69,68,-1,73,75,96,-1,96,75,77,-1,96,77,97,-1,97,77,79,-1,97,79,98,-1,98,79,81,-1,98,81,99,-1,99,81,83,-1,99,83,100,-1,100,83,66,-1,100,66,101,-1,101,66,64,-1,101,64,102,-1,102,64,61,-1,102,61,103,-1,103,61,60,-1,103,60,104,-1,104,60,85,-1,104,85,105,-1,105,85,87,-1,105,87,106,-1,106,87,89,-1,106,89,107,-1,107,89,91,-1,107,91,108,-1,108,91,93,-1,108,93,109,-1,109,93,95,-1,109,95,110,-1,110,95,68,-1,110,68,111,-1,111,68,71,-1,111,71,112,-1,112,71,73,-1,112,73,96,-1,100,101,113,-1,113,101,114,-1,100,113,115,-1,100,115,99,-1,99,115,116,-1,99,116,98,-1,98,116,117,-1,98,117,97,-1,97,117,118,-1,97,118,96,-1,96,118,119,-1,96,119,112,-1,112,119,120,-1,112,120,111,-1,111,120,121,-1,111,121,110,-1,110,121,122,-1,110,122,109,-1,109,122,123,-1,109,123,108,-1,108,123,124,-1,108,124,107,-1,107,124,125,-1,107,125,106,-1,106,125,126,-1,106,126,105,-1,105,126,127,-1,105,127,104,-1,104,127,128,-1,104,128,103,-1,102,103,129,-1,129,103,128,-1,101,102,114,-1,114,102,129,-1,130,131,132,-1,132,131,133,-1,131,134,133,-1,133,134,135,-1,134,136,135,-1,135,136,137,-1,136,138,137,-1,137,138,139,-1,138,140,139,-1,139,140,141,-1,142,143,144,-1,142,144,145,-1,145,144,146,-1,145,146,147,-1,147,146,148,-1,147,148,149,-1,149,148,150,-1,149,150,151,-1,151,150,152,-1,151,152,153,-1,153,152,154,-1,153,154,155,-1,155,154,156,-1,155,156,157,-1,157,156,141,-1,157,141,140,-1,130,132,158,-1,130,158,159,-1,159,158,160,-1,159,160,161,-1,161,160,162,-1,161,162,163,-1,163,162,164,-1,163,164,165,-1,165,164,166,-1,165,166,167,-1,167,166,168,-1,167,168,169,-1,169,168,143,-1,169,143,142,-1,170,171,131,-1,131,171,172,-1,131,172,173,-1,134,131,136,-1,136,131,173,-1,136,173,138,-1,138,173,174,-1,138,174,140,-1,170,131,175,-1,175,131,130,-1,175,130,159,-1,159,161,175,-1,175,161,163,-1,175,163,176,-1,176,163,165,-1,176,165,177,-1,177,165,167,-1,177,167,178,-1,178,167,169,-1,178,169,179,-1,179,169,142,-1,179,142,180,-1,180,142,145,-1,180,145,181,-1,181,145,147,-1,181,147,182,-1,182,147,149,-1,182,149,183,-1,183,149,151,-1,183,151,184,-1,184,151,153,-1,184,153,185,-1,185,153,155,-1,185,155,186,-1,186,155,157,-1,186,157,187,-1,187,157,140,-1,187,140,188,-1,188,140,174,-1,188,174,189,-1,189,174,190,-1,188,189,191,-1,188,191,187,-1,187,191,192,-1,187,192,186,-1,186,192,193,-1,186,193,185,-1,185,193,194,-1,185,194,184,-1,184,194,195,-1,184,195,183,-1,183,195,196,-1,183,196,182,-1,182,196,197,-1,182,197,181,-1,181,197,198,-1,181,198,180,-1,180,198,199,-1,180,199,179,-1,179,199,200,-1,179,200,178,-1,178,200,201,-1,178,201,177,-1,177,201,202,-1,177,202,176,-1,176,202,203,-1,176,203,175,-1,175,203,204,-1,175,204,170,-1,170,204,205,-1,170,205,171,-1,171,205,206,-1,171,206,172,-1,173,172,207,-1,207,172,206,-1,174,173,190,-1,190,173,207,-1,
        ]
    }
}
Shape{
    appearance Appearance {
        material  Material 	{
            diffuseColor 0.25098039215686274 0.25098039215686274 0.25098039215686274
            specularColor 0.12549019607843137 0.12549019607843137 0.12549019607843137
            ambientIntensity 0.251
            transparency 0.0
            shininess 0.5
        }
    }
    geometry IndexedFaceSet {
        ccw TRUE
        solid FALSE
        coord DEF co Coordinate {
            point [
                0.0499 -0.0259 0.437, 0.0566 -0.0233 0.437, 0.0203 0.0252 0.437, 0.0627 -0.0191 0.437, 0.066 -0.0158 0.437, 0.0249 -0.0222 0.437, 0.0312 -0.0252 0.437, 0.0179 0.0229 0.437, 0.0378 -0.0267 0.437, 0.0415 -0.0269 0.437, 0.0415 0.0331 0.437, 0.0474 0.0327 0.437, 0.0696 -0.0103 0.437, 0.0717 0.0112 0.437, 0.0695 0.0171 0.437, 0.0726 0.0033 0.437, 0.0658 0.0225 0.437, 0.0611 0.027 0.437, 0.033 0.0321 0.437, 0.0264 0.0295 0.437, 0.0719 -0.0037 0.437, 0.0545 0.0308 0.437, 0.0139 0.0176 0.437, 0.0138 -0.0108 0.437, 0.018 -0.0165 0.437, 0.0112 0.0111 0.437, 0.0102 0.0033 0.437, 0.0113 -0.0046 0.437, 0.0702 0.5733 0.437, -0.0834 0.5733 0.437, 0.0702 0.5442 0.437, -0.0834 0.5453 0.437, -0.0282 0.47 0.437, -0.0047 0.4677 0.437, 0.0149 0.4693 0.437, 0.0305 0.4739 0.437, 0.0678 0.5209 0.437, -0.0815 0.5245 0.437, -0.0763 0.508 0.437, -0.0683 0.4945 0.437, 0.0427 0.4807 0.437, 0.0528 0.4903 0.437, 0.0621 0.5047 0.437, -0.0573 0.4834 0.437, -0.0439 0.4752 0.437, 0.0702 0.7317 0.437, -0.009 0.7317 0.437, 0.0702 0.7062 0.437, -0.009 0.7086 0.437, -0.0079 0.6953 0.437, -0.0051 0.6851 0.437, -0.001 0.6773 0.437, 0.0192 0.6635 0.437, 0.0311 0.6621 0.437, 0.0319 0.6621 0.437, 0.0701 0.7015 0.437, 0.0419 0.6629 0.437, 0.0679 0.687 0.437, 0.0641 0.6781 0.437, 0.0046 0.6709 0.437, 0.0115 0.6664 0.437, 0.0608 0.6733 0.437, 0.0498 0.6653 0.437, 0.0561 0.6689 0.437
            ]
        }
        coordIndex [
            0,1,2,-1,2,1,3,-1,2,3,4,-1,5,6,7,-1,7,6,8,-1,7,8,2,-1,2,8,9,-1,2,9,0,-1,10,4,11,-1,11,4,12,-1,13,14,15,-1,15,14,16,-1,15,16,17,-1,10,18,4,-1,4,18,19,-1,4,19,2,-1,12,20,11,-1,11,20,15,-1,11,15,21,-1,21,15,17,-1,22,23,7,-1,7,23,24,-1,7,24,5,-1,25,26,22,-1,22,26,27,-1,22,27,23,-1,28,29,30,-1,30,29,31,-1,32,33,30,-1,33,34,30,-1,30,34,35,-1,30,35,36,-1,31,37,30,-1,30,37,38,-1,30,38,39,-1,40,41,35,-1,35,41,42,-1,35,42,36,-1,39,43,30,-1,30,43,44,-1,30,44,32,-1,45,46,47,-1,47,46,48,-1,48,49,47,-1,47,49,50,-1,47,50,51,-1,52,53,47,-1,47,53,54,-1,47,54,55,-1,55,54,56,-1,55,56,57,-1,57,56,58,-1,51,59,47,-1,47,59,60,-1,47,60,52,-1,58,56,61,-1,61,56,62,-1,61,62,63,-1,
        ]
    }
}
Shape{
    appearance Appearance {
        material  Material 	{
            diffuseColor 1.0 1.0 1.0
            specularColor 0.8784313725490196 0.8784313725490196 0.8784313725490196
            ambientIntensity 1.0
            transparency 0.0
            shininess 0.5
        }
    }
    geometry IndexedFaceSet {
        ccw TRUE
        solid FALSE
        coord DEF co Coordinate {
            point [
                -1.1457 1.1929 0.0787, -1.1457 1.0354 0.0787, -1.1417 1.1929 0.0787, -1.1417 1.0354 0.0787, -1.1417 1.0354 0.0039, -1.1457 1.0354 0.0, -0.9843 1.0354 0.0039, -0.9843 1.0354 0.0, -0.9843 1.1929 0.0039, -0.9843 1.1929 0.0, -1.1417 1.1929 0.0039, -1.1457 1.1929 0.0, -0.9639 1.0381 0.0, -0.9639 1.0381 0.0039, -0.9449 1.0459 0.0, -0.9449 1.0459 0.0039, -0.9286 1.0585 0.0, -0.9286 1.0585 0.0039, -0.9161 1.0748 0.0, -0.9161 1.0748 0.0039, -0.9082 1.0938 0.0, -0.9082 1.0938 0.0039, -0.9055 1.1141 0.0, -0.9055 1.1141 0.0039, -0.9082 1.1345 0.0, -0.9082 1.1345 0.0039, -0.9161 1.1535 0.0, -0.9161 1.1535 0.0039, -0.9286 1.1698 0.0, -0.9286 1.1698 0.0039, -0.9449 1.1823 0.0, -0.9449 1.1823 0.0039, -0.9639 1.1902 0.0, -0.9639 1.1902 0.0039, -1.1457 0.6929 0.0787, -1.1457 0.5354 0.0787, -1.1417 0.6929 0.0787, -1.1417 0.5354 0.0787, -1.1417 0.5354 0.0039, -1.1457 0.5354 0.0, -0.9843 0.5354 0.0039, -0.9843 0.5354 0.0, -0.9843 0.6929 0.0039, -0.9843 0.6929 0.0, -1.1417 0.6929 0.0039, -1.1457 0.6929 0.0, -0.9639 0.5381 0.0, -0.9639 0.5381 0.0039, -0.9449 0.5459 0.0, -0.9449 0.5459 0.0039, -0.9286 0.5585 0.0, -0.9286 0.5585 0.0039, -0.9161 0.5748 0.0, -0.9161 0.5748 0.0039, -0.9082 0.5938 0.0, -0.9082 0.5938 0.0039, -0.9055 0.6141 0.0, -0.9055 0.6141 0.0039, -0.9082 0.6345 0.0, -0.9082 0.6345 0.0039, -0.9161 0.6535 0.0, -0.9161 0.6535 0.0039, -0.9286 0.6698 0.0, -0.9286 0.6698 0.0039, -0.9449 0.6823 0.0, -0.9449 0.6823 0.0039, -0.9639 0.6902 0.0, -0.9639 0.6902 0.0039, -1.1457 0.1929 0.0787, -1.1457 0.0354 0.0787, -1.1417 0.1929 0.0787, -1.1417 0.0354 0.0787, -1.1417 0.0354 0.0039, -1.1457 0.0354 0.0, -0.9843 0.0354 0.0039, -0.9843 0.0354 0.0, -0.9843 0.1929 0.0039, -0.9843 0.1929 0.0, -1.1417 0.1929 0.0039, -1.1457 0.1929 0.0, -0.9639 0.0381 0.0, -0.9639 0.0381 0.0039, -0.9449 0.0459 0.0, -0.9449 0.0459 0.0039, -0.9286 0.0585 0.0, -0.9286 0.0585 0.0039, -0.9161 0.0748 0.0, -0.9161 0.0748 0.0039, -0.9082 0.0938 0.0, -0.9082 0.0938 0.0039, -0.9055 0.1141 0.0, -0.9055 0.1141 0.0039, -0.9082 0.1345 0.0, -0.9082 0.1345 0.0039, -0.9161 0.1535 0.0, -0.9161 0.1535 0.0039, -0.9286 0.1698 0.0, -0.9286 0.1698 0.0039, -0.9449 0.1823 0.0, -0.9449 0.1823 0.0039, -0.9639 0.1902 0.0, -0.9639 0.1902 0.0039, -1.1457 -0.3071 0.0787, -1.1457 -0.4646 0.0787, -1.1417 -0.3071 0.0787, -1.1417 -0.4646 0.0787, -1.1417 -0.4646 0.0039, -1.1457 -0.4646 0.0, -0.9843 -0.4646 0.0039, -0.9843 -0.4646 0.0, -0.9843 -0.3071 0.0039, -0.9843 -0.3071 0.0, -1.1417 -0.3071 0.0039, -1.1457 -0.3071 0.0, -0.9639 -0.4619 0.0, -0.9639 -0.4619 0.0039, -0.9449 -0.4541 0.0, -0.9449 -0.4541 0.0039, -0.9286 -0.4415 0.0, -0.9286 -0.4415 0.0039, -0.9161 -0.4252 0.0, -0.9161 -0.4252 0.0039, -0.9082 -0.4062 0.0, -0.9082 -0.4062 0.0039, -0.9055 -0.3859 0.0, -0.9055 -0.3859 0.0039, -0.9082 -0.3655 0.0, -0.9082 -0.3655 0.0039, -0.9161 -0.3465 0.0, -0.9161 -0.3465 0.0039, -0.9286 -0.3302 0.0, -0.9286 -0.3302 0.0039, -0.9449 -0.3177 0.0, -0.9449 -0.3177 0.0039, -0.9639 -0.3098 0.0, -0.9639 -0.3098 0.0039, 1.1457 1.0354 0.0787, 1.1457 1.1929 0.0787, 1.1417 1.0354 0.0787, 1.1417 1.1929 0.0787, 1.1457 1.1929 0.0, 1.1457 1.0354 0.0, 1.1417 1.1929 0.0039, 0.9842 1.1929 0.0039, 0.9842 1.1929 0.0, 0.9639 1.1902 0.0, 0.9639 1.1902 0.0039, 0.9449 1.1823 0.0, 0.9449 1.1823 0.0039, 0.9286 1.1698 0.0, 0.9286 1.1698 0.0039, 0.9161 1.1535 0.0, 0.9161 1.1535 0.0039, 0.9082 1.1345 0.0, 0.9082 1.1345 0.0039, 0.9055 1.1141 0.0, 0.9055 1.1141 0.0039, 0.9082 1.0938 0.0, 0.9082 1.0938 0.0039, 0.9161 1.0748 0.0, 0.9161 1.0748 0.0039, 0.9286 1.0585 0.0, 0.9286 1.0585 0.0039, 0.9449 1.0459 0.0, 0.9449 1.0459 0.0039, 0.9639 1.0381 0.0, 0.9639 1.0381 0.0039, 0.9842 1.0354 0.0, 0.9842 1.0354 0.0039, 1.1417 1.0354 0.0039, 1.1457 0.5354 0.0787, 1.1457 0.6929 0.0787, 1.1417 0.5354 0.0787, 1.1417 0.6929 0.0787, 1.1457 0.6929 0.0, 1.1457 0.5354 0.0, 1.1417 0.6929 0.0039, 0.9842 0.6929 0.0039, 0.9842 0.6929 0.0, 0.9639 0.6902 0.0, 0.9639 0.6902 0.0039, 0.9449 0.6823 0.0, 0.9449 0.6823 0.0039, 0.9286 0.6698 0.0, 0.9286 0.6698 0.0039, 0.9161 0.6535 0.0, 0.9161 0.6535 0.0039, 0.9082 0.6345 0.0, 0.9082 0.6345 0.0039, 0.9055 0.6141 0.0, 0.9055 0.6141 0.0039, 0.9082 0.5938 0.0, 0.9082 0.5938 0.0039, 0.9161 0.5748 0.0, 0.9161 0.5748 0.0039, 0.9286 0.5585 0.0, 0.9286 0.5585 0.0039, 0.9449 0.5459 0.0, 0.9449 0.5459 0.0039, 0.9639 0.5381 0.0, 0.9639 0.5381 0.0039, 0.9842 0.5354 0.0, 0.9842 0.5354 0.0039, 1.1417 0.5354 0.0039, 1.1457 0.0354 0.0787, 1.1457 0.1929 0.0787, 1.1417 0.0354 0.0787, 1.1417 0.1929 0.0787, 1.1457 0.1929 0.0, 1.1457 0.0354 0.0, 1.1417 0.1929 0.0039, 0.9842 0.1929 0.0039, 0.9842 0.1929 0.0, 0.9639 0.1902 0.0, 0.9639 0.1902 0.0039, 0.9449 0.1823 0.0, 0.9449 0.1823 0.0039, 0.9286 0.1698 0.0, 0.9286 0.1698 0.0039, 0.9161 0.1535 0.0, 0.9161 0.1535 0.0039, 0.9082 0.1345 0.0, 0.9082 0.1345 0.0039, 0.9055 0.1141 0.0, 0.9055 0.1141 0.0039, 0.9082 0.0938 0.0, 0.9082 0.0938 0.0039, 0.9161 0.0748 0.0, 0.9161 0.0748 0.0039, 0.9286 0.0585 0.0, 0.9286 0.0585 0.0039, 0.9449 0.0459 0.0, 0.9449 0.0459 0.0039, 0.9639 0.0381 0.0, 0.9639 0.0381 0.0039, 0.9842 0.0354 0.0, 0.9842 0.0354 0.0039, 1.1417 0.0354 0.0039, 1.1457 -0.4646 0.0787, 1.1457 -0.3071 0.0787, 1.1417 -0.4646 0.0787, 1.1417 -0.3071 0.0787, 1.1457 -0.3071 0.0, 1.1457 -0.4646 0.0, 1.1417 -0.3071 0.0039, 0.9842 -0.3071 0.0039, 0.9842 -0.3071 0.0, 0.9639 -0.3098 0.0, 0.9639 -0.3098 0.0039, 0.9449 -0.3177 0.0, 0.9449 -0.3177 0.0039, 0.9286 -0.3302 0.0, 0.9286 -0.3302 0.0039, 0.9161 -0.3465 0.0, 0.9161 -0.3465 0.0039, 0.9082 -0.3655 0.0, 0.9082 -0.3655 0.0039, 0.9055 -0.3859 0.0, 0.9055 -0.3859 0.0039, 0.9082 -0.4062 0.0, 0.9082 -0.4062 0.0039, 0.9161 -0.4252 0.0, 0.9161 -0.4252 0.0039, 0.9286 -0.4415 0.0, 0.9286 -0.4415 0.0039, 0.9449 -0.4541 0.0, 0.9449 -0.4541 0.0039, 0.9639 -0.4619 0.0, 0.9639 -0.4619 0.0039, 0.9842 -0.4646 0.0, 0.9842 -0.4646 0.0039, 1.1417 -0.4646 0.0039
            ]
        }
        coordIndex [
            0,1,2,-1,2,1,3,-1,3,1,4,-1,4,1,5,-1,4,5,6,-1,6,5,7,-1,8,9,10,-1,10,9,11,-1,10,11,2,-1,2,11,0,-1,1,0,5,-1,5,0,11,-1,6,7,12,-1,6,12,13,-1,13,12,14,-1,13,14,15,-1,15,14,16,-1,15,16,17,-1,17,16,18,-1,17,18,19,-1,19,18,20,-1,19,20,21,-1,21,20,22,-1,21,22,23,-1,23,22,24,-1,23,24,25,-1,25,24,26,-1,25,26,27,-1,27,26,28,-1,27,28,29,-1,29,28,30,-1,29,30,31,-1,31,30,32,-1,31,32,33,-1,33,32,9,-1,33,9,8,-1,7,5,11,-1,11,9,7,-1,7,9,32,-1,7,32,30,-1,30,28,7,-1,7,28,26,-1,7,26,24,-1,24,22,7,-1,7,22,20,-1,7,20,18,-1,18,16,7,-1,7,16,14,-1,7,14,12,-1,34,35,36,-1,36,35,37,-1,37,35,38,-1,38,35,39,-1,38,39,40,-1,40,39,41,-1,42,43,44,-1,44,43,45,-1,44,45,36,-1,36,45,34,-1,35,34,39,-1,39,34,45,-1,40,41,46,-1,40,46,47,-1,47,46,48,-1,47,48,49,-1,49,48,50,-1,49,50,51,-1,51,50,52,-1,51,52,53,-1,53,52,54,-1,53,54,55,-1,55,54,56,-1,55,56,57,-1,57,56,58,-1,57,58,59,-1,59,58,60,-1,59,60,61,-1,61,60,62,-1,61,62,63,-1,63,62,64,-1,63,64,65,-1,65,64,66,-1,65,66,67,-1,67,66,43,-1,67,43,42,-1,50,48,43,-1,39,45,41,-1,41,45,43,-1,41,43,46,-1,46,43,48,-1,62,60,64,-1,64,60,66,-1,66,60,43,-1,43,60,58,-1,43,58,56,-1,56,54,43,-1,43,54,52,-1,43,52,50,-1,68,69,70,-1,70,69,71,-1,71,69,72,-1,72,69,73,-1,72,73,74,-1,74,73,75,-1,76,77,78,-1,78,77,79,-1,78,79,70,-1,70,79,68,-1,69,68,73,-1,73,68,79,-1,74,75,80,-1,74,80,81,-1,81,80,82,-1,81,82,83,-1,83,82,84,-1,83,84,85,-1,85,84,86,-1,85,86,87,-1,87,86,88,-1,87,88,89,-1,89,88,90,-1,89,90,91,-1,91,90,92,-1,91,92,93,-1,93,92,94,-1,93,94,95,-1,95,94,96,-1,95,96,97,-1,97,96,98,-1,97,98,99,-1,99,98,100,-1,99,100,101,-1,101,100,77,-1,101,77,76,-1,84,82,77,-1,73,79,75,-1,75,79,77,-1,75,77,80,-1,80,77,82,-1,96,94,98,-1,98,94,100,-1,100,94,77,-1,77,94,92,-1,77,92,90,-1,90,88,77,-1,77,88,86,-1,77,86,84,-1,102,103,104,-1,104,103,105,-1,105,103,106,-1,106,103,107,-1,106,107,108,-1,108,107,109,-1,110,111,112,-1,112,111,113,-1,112,113,104,-1,104,113,102,-1,103,102,107,-1,107,102,113,-1,108,109,114,-1,108,114,115,-1,115,114,116,-1,115,116,117,-1,117,116,118,-1,117,118,119,-1,119,118,120,-1,119,120,121,-1,121,120,122,-1,121,122,123,-1,123,122,124,-1,123,124,125,-1,125,124,126,-1,125,126,127,-1,127,126,128,-1,127,128,129,-1,129,128,130,-1,129,130,131,-1,131,130,132,-1,131,132,133,-1,133,132,134,-1,133,134,135,-1,135,134,111,-1,135,111,110,-1,107,113,109,-1,109,113,111,-1,128,126,124,-1,116,132,118,-1,118,132,120,-1,111,134,109,-1,109,134,132,-1,109,132,114,-1,114,132,116,-1,132,130,120,-1,120,130,128,-1,120,128,122,-1,122,128,124,-1,136,137,138,-1,138,137,139,-1,137,136,140,-1,140,136,141,-1,139,137,142,-1,142,137,140,-1,142,140,143,-1,143,140,144,-1,143,144,145,-1,143,145,146,-1,146,145,147,-1,146,147,148,-1,148,147,149,-1,148,149,150,-1,150,149,151,-1,150,151,152,-1,152,151,153,-1,152,153,154,-1,154,153,155,-1,154,155,156,-1,156,155,157,-1,156,157,158,-1,158,157,159,-1,158,159,160,-1,160,159,161,-1,160,161,162,-1,162,161,163,-1,162,163,164,-1,164,163,165,-1,164,165,166,-1,166,165,167,-1,166,167,168,-1,168,167,169,-1,169,167,141,-1,169,141,138,-1,138,141,136,-1,140,141,144,-1,144,141,167,-1,159,157,155,-1,147,163,149,-1,149,163,151,-1,167,165,144,-1,144,165,163,-1,144,163,145,-1,145,163,147,-1,163,161,151,-1,151,161,159,-1,151,159,153,-1,153,159,155,-1,170,171,172,-1,172,171,173,-1,171,170,174,-1,174,170,175,-1,173,171,176,-1,176,171,174,-1,176,174,177,-1,177,174,178,-1,177,178,179,-1,177,179,180,-1,180,179,181,-1,180,181,182,-1,182,181,183,-1,182,183,184,-1,184,183,185,-1,184,185,186,-1,186,185,187,-1,186,187,188,-1,188,187,189,-1,188,189,190,-1,190,189,191,-1,190,191,192,-1,192,191,193,-1,192,193,194,-1,194,193,195,-1,194,195,196,-1,196,195,197,-1,196,197,198,-1,198,197,199,-1,198,199,200,-1,200,199,201,-1,200,201,202,-1,202,201,203,-1,203,201,175,-1,203,175,172,-1,172,175,170,-1,174,175,178,-1,178,175,201,-1,178,201,199,-1,199,197,178,-1,178,197,195,-1,178,195,193,-1,193,191,178,-1,178,191,189,-1,178,189,187,-1,187,185,178,-1,178,185,183,-1,178,183,179,-1,179,183,181,-1,204,205,206,-1,206,205,207,-1,205,204,208,-1,208,204,209,-1,207,205,210,-1,210,205,208,-1,210,208,211,-1,211,208,212,-1,211,212,213,-1,211,213,214,-1,214,213,215,-1,214,215,216,-1,216,215,217,-1,216,217,218,-1,218,217,219,-1,218,219,220,-1,220,219,221,-1,220,221,222,-1,222,221,223,-1,222,223,224,-1,224,223,225,-1,224,225,226,-1,226,225,227,-1,226,227,228,-1,228,227,229,-1,228,229,230,-1,230,229,231,-1,230,231,232,-1,232,231,233,-1,232,233,234,-1,234,233,235,-1,234,235,236,-1,236,235,237,-1,237,235,209,-1,237,209,206,-1,206,209,204,-1,208,209,212,-1,212,209,235,-1,212,235,233,-1,233,231,212,-1,212,231,229,-1,212,229,227,-1,227,225,212,-1,212,225,223,-1,212,223,221,-1,221,219,212,-1,212,219,217,-1,212,217,213,-1,213,217,215,-1,238,239,240,-1,240,239,241,-1,239,238,242,-1,242,238,243,-1,241,239,244,-1,244,239,242,-1,244,242,245,-1,245,242,246,-1,245,246,247,-1,245,247,248,-1,248,247,249,-1,248,249,250,-1,250,249,251,-1,250,251,252,-1,252,251,253,-1,252,253,254,-1,254,253,255,-1,254,255,256,-1,256,255,257,-1,256,257,258,-1,258,257,259,-1,258,259,260,-1,260,259,261,-1,260,261,262,-1,262,261,263,-1,262,263,264,-1,264,263,265,-1,264,265,266,-1,266,265,267,-1,266,267,268,-1,268,267,269,-1,268,269,270,-1,270,269,271,-1,271,269,243,-1,271,243,240,-1,240,243,238,-1,246,242,243,-1,243,269,246,-1,246,269,267,-1,246,267,265,-1,265,263,246,-1,246,263,261,-1,246,261,259,-1,259,257,246,-1,246,257,255,-1,246,255,253,-1,253,251,246,-1,246,251,249,-1,246,249,247,-1,
        ]
    }
}
Shape{
    appearance Appearance {
        material  Material 	{
            diffuseColor 0.25098039215686274 0.25098039215686274 0.25098039215686274
            specularColor 0.12549019607843137 0.12549019607843137 0.12549019607843137
            ambientIntensity 0.251
            transparency 0.0
            shininess 0.5
        }
    }
    geometry IndexedFaceSet {
        ccw TRUE
        solid FALSE
        coord DEF co Coordinate {
            point [
                -1.1417 1.3287 0.0827, -1.1024 1.2893 0.437, -0.1062 1.2893 0.437, 1.1417 1.3287 0.0827, 0.093 1.2893 0.437, 1.1024 1.2893 0.437, -1.1417 -0.6004 0.0827, -1.1024 -0.5611 0.437, -1.1024 -0.3096 0.437, -1.1024 0.0872 0.437, -1.1024 0.2852 0.437, -1.1024 0.4232 0.437, -1.1024 0.6177 0.437, -1.1024 0.9105 0.437, 1.1024 0.9105 0.437, 1.1024 0.6177 0.437, 1.1024 0.4232 0.437, 1.1417 -0.6004 0.0827, 1.1024 0.2852 0.437, 1.1024 0.0872 0.437, 1.1024 -0.3096 0.437, 1.1024 -0.5611 0.437, 0.093 -0.5611 0.437, -0.1062 -0.5611 0.437
            ]
        }
        coordIndex [
            0,1,2,-1,0,2,3,-1,3,2,4,-1,3,4,5,-1,6,7,8,-1,8,9,6,-1,6,9,10,-1,6,10,0,-1,0,10,11,-1,11,12,0,-1,0,12,13,-1,0,13,1,-1,3,5,14,-1,14,15,3,-1,3,15,16,-1,3,16,17,-1,17,16,18,-1,18,19,17,-1,17,19,20,-1,17,20,21,-1,17,21,22,-1,17,22,6,-1,6,22,23,-1,6,23,7,-1,
        ]
    }
}
Shape{
    appearance Appearance {
        material  Material 	{
            diffuseColor 1.0 1.0 1.0
            specularColor 0.8784313725490196 0.8784313725490196 0.8784313725490196
            ambientIntensity 1.0
            transparency 0.0
            shininess 0.5
        }
    }
    geometry IndexedFaceSet {
        ccw TRUE
        solid FALSE
        coord DEF co Coordinate {
            point [
                -0.2945 -0.4646 0.0, -0.4155 -0.4646 0.0, -0.4155 0.3578 0.0, -0.144 1.1929 0.0, -0.0305 1.1929 0.0, -0.0305 0.3578 0.0, -0.4155 1.1929 0.0, -0.2945 1.1929 0.0, -0.2945 1.3326 0.0, -0.144 1.3326 0.0, -0.144 -0.6044 0.0, -0.2945 -0.6044 0.0, -0.144 -0.4646 0.0, -0.0312 0.3138 0.0, -0.0305 0.3068 0.0, -0.0305 -0.4646 0.0, -0.0236 0.3463 0.0, -0.0288 0.3337 0.0, -0.0305 0.3217 0.0, -0.0312 0.317 0.0, 1.1457 -0.3071 0.0, 1.1457 -0.4646 0.0, 1.0069 -0.3071 0.0, 1.0069 0.0354 0.0, 1.0069 0.1929 0.0, 1.1457 0.0354 0.0, 1.1457 0.1929 0.0, -0.0168 0.2037 0.0, -0.0168 0.2483 0.0, 0.0883 0.2037 0.0, 1.0069 0.3578 0.0, 0.0883 0.1878 0.0, 0.0768 0.3186 0.0, 0.0755 0.307 0.0, -0.0119 0.3441 0.0, 0.0723 0.2982 0.0, 0.0667 0.2898 0.0, 0.0588 0.2827 0.0, 0.0497 0.2779 0.0, 0.0369 0.2748 0.0, 0.028 0.2742 0.0, 0.0153 0.2754 0.0, 0.0051 0.2786 0.0, -0.0182 0.3159 0.0, -0.0089 0.289 0.0, -0.017 0.305 0.0, -0.0138 0.2963 0.0, -0.0031 0.2835 0.0, -0.0165 0.3316 0.0, 0.075 0.3329 0.0, -0.0107 0.3463 0.0, 0.0693 0.3463 0.0, 0.0851 0.3463 0.0, -0.0298 0.1878 0.0, -0.0298 0.2483 0.0, -0.0297 0.2992 0.0, -0.0257 0.2877 0.0, 0.0683 0.2715 0.0, 0.0782 0.2818 0.0, 0.0847 0.2928 0.0, 0.0887 0.3058 0.0, -0.0195 0.2781 0.0, -0.0101 0.2692 0.0, 0.0011 0.263 0.0, 0.0137 0.2595 0.0, 0.0898 0.3185 0.0, 0.0888 0.3326 0.0, 0.0271 0.2584 0.0, 0.0438 0.2601 0.0, 0.0573 0.2646 0.0, 1.1457 1.1929 0.0, 1.0069 1.0354 0.0, 1.1457 1.0354 0.0, 1.0069 0.6929 0.0, 0.0883 0.3693 0.0, 0.015 0.5491 0.0, 0.0026 0.5449 0.0, -0.0298 0.5594 0.0, -0.008 0.5381 0.0, 1.1457 0.6929 0.0, 1.1457 0.5354 0.0, 1.0069 0.5354 0.0, 0.0754 0.3851 0.0, 0.0365 0.3851 0.0, 0.0754 0.4298 0.0, 0.0365 0.4269 0.0, -0.0173 0.5284 0.0, -0.0244 0.5161 0.0, -0.0285 0.5024 0.0, 0.0817 0.5199 0.0, 0.0883 0.6041 0.0, 0.0865 0.5061 0.0, 0.0883 0.489 0.0, 0.0604 0.5434 0.0, 0.0489 0.5483 0.0, 0.0366 0.5506 0.0, 0.0308 0.5508 0.0, 0.0883 0.4557 0.0, 0.0235 0.4269 0.0, 0.0235 0.3851 0.0, -0.0168 0.3851 0.0, -0.0298 0.4557 0.0, -0.0168 0.4327 0.0, -0.0298 0.4327 0.0, 0.0741 0.5316 0.0, 0.0698 0.5362 0.0, 0.0883 0.4298 0.0, -0.0298 0.4878 0.0, -0.0298 0.3693 0.0, 0.0883 0.6199 0.0, -0.0298 0.666 0.0, -0.0298 0.6487 0.0, 0.0034 0.6368 0.0, 0.0034 0.588 0.0, -0.0298 0.5767 0.0
            ]
        }
        coordIndex [
            0,1,2,-1,3,4,5,-1,2,6,7,-1,8,9,7,-1,7,9,3,-1,7,3,2,-1,2,3,5,-1,10,11,12,-1,12,11,0,-1,2,13,14,-1,0,2,12,-1,12,2,14,-1,12,14,15,-1,16,17,5,-1,5,17,18,-1,5,18,2,-1,2,18,19,-1,2,19,13,-1,20,21,22,-1,22,21,15,-1,22,15,23,-1,23,15,24,-1,23,24,25,-1,25,24,26,-1,27,28,29,-1,29,28,30,-1,29,30,31,-1,32,33,34,-1,34,33,35,-1,34,35,36,-1,36,37,34,-1,34,37,38,-1,34,38,39,-1,39,40,34,-1,34,40,41,-1,34,41,42,-1,43,44,45,-1,45,44,46,-1,42,47,34,-1,34,47,44,-1,34,44,48,-1,48,44,43,-1,32,34,49,-1,49,34,50,-1,49,50,51,-1,51,50,30,-1,51,30,52,-1,30,24,31,-1,31,24,15,-1,31,15,53,-1,53,15,14,-1,53,14,54,-1,54,14,55,-1,54,55,56,-1,57,58,30,-1,30,58,59,-1,30,59,60,-1,56,61,54,-1,54,61,62,-1,54,62,28,-1,28,62,63,-1,28,63,64,-1,60,65,30,-1,30,65,66,-1,30,66,52,-1,64,67,28,-1,28,67,68,-1,28,68,30,-1,30,68,69,-1,30,69,57,-1,4,70,71,-1,71,70,72,-1,71,73,74,-1,75,76,77,-1,77,76,78,-1,79,80,73,-1,73,80,81,-1,73,81,74,-1,74,81,30,-1,74,30,5,-1,5,30,50,-1,5,50,16,-1,82,83,84,-1,84,83,85,-1,78,86,77,-1,77,86,87,-1,77,87,88,-1,89,90,91,-1,91,90,92,-1,93,94,90,-1,90,94,95,-1,90,95,77,-1,77,95,96,-1,77,96,75,-1,71,97,92,-1,98,99,100,-1,101,102,103,-1,89,104,90,-1,90,104,105,-1,90,105,93,-1,74,106,71,-1,71,106,84,-1,71,84,97,-1,97,84,85,-1,97,85,101,-1,101,85,98,-1,101,98,102,-1,102,98,100,-1,107,101,4,-1,4,101,103,-1,4,103,5,-1,5,103,108,-1,5,108,74,-1,92,90,71,-1,71,90,109,-1,71,109,4,-1,4,109,110,-1,4,110,111,-1,112,113,111,-1,111,113,114,-1,111,114,4,-1,4,114,77,-1,4,77,107,-1,107,77,88,-1,
        ]
    }
}
Shape{
    appearance Appearance {
        material  Material 	{
            diffuseColor 0.25098039215686274 0.25098039215686274 0.25098039215686274
            specularColor 0.12549019607843137 0.12549019607843137 0.12549019607843137
            ambientIntensity 0.251
            transparency 0.0
            shininess 0.5
        }
    }
    geometry IndexedFaceSet {
        ccw TRUE
        solid FALSE
        coord DEF co Coordinate {
            point [
                -0.144 1.3326 0.0, -0.144 1.3326 0.0787, -0.144 1.1929 0.0, -0.144 1.1929 0.0787
            ]
        }
        coordIndex [
            0,1,2,-1,2,1,3,-1,
        ]
    }
}
Shape{
    appearance Appearance {
        material  Material 	{
            diffuseColor 1.0 1.0 1.0
            specularColor 0.8784313725490196 0.8784313725490196 0.8784313725490196
            ambientIntensity 1.0
            transparency 0.0
            shininess 0.5
        }
    }
    geometry IndexedFaceSet {
        ccw TRUE
        solid FALSE
        coord DEF co Coordinate {
            point [
                -0.2945 1.3326 0.0, -0.2945 1.3326 0.0787, -0.144 1.3326 0.0, -0.144 1.3326 0.0787
            ]
        }
        coordIndex [
            0,1,2,-1,2,1,3,-1,
        ]
    }
}
Shape{
    appearance Appearance {
        material  Material 	{
            diffuseColor 0.25098039215686274 0.25098039215686274 0.25098039215686274
            specularColor 0.12549019607843137 0.12549019607843137 0.12549019607843137
            ambientIntensity 0.251
            transparency 0.0
            shininess 0.5
        }
    }
    geometry IndexedFaceSet {
        ccw TRUE
        solid FALSE
        coord DEF co Coordinate {
            point [
                -0.2945 1.1929 0.0, -0.2945 1.1929 0.0787, -0.2945 1.3326 0.0, -0.2945 1.3326 0.0787
            ]
        }
        coordIndex [
            0,1,2,-1,2,1,3,-1,
        ]
    }
}
Shape{
    appearance Appearance {
        material  Material 	{
            diffuseColor 1.0 1.0 1.0
            specularColor 0.8784313725490196 0.8784313725490196 0.8784313725490196
            ambientIntensity 1.0
            transparency 0.0
            shininess 0.5
        }
    }
    geometry IndexedFaceSet {
        ccw TRUE
        solid FALSE
        coord DEF co Coordinate {
            point [
                -0.4155 1.1929 0.0, -0.4155 1.1929 0.0787, -0.2945 1.1929 0.0, -0.2945 1.1929 0.0787, -0.4155 -0.4646 0.0, -0.4155 -0.4646 0.0787, -0.4155 0.3578 0.0, -0.2945 -0.4646 0.0, -0.2945 -0.4646 0.0787, -0.2945 -0.6044 0.0, -0.2945 -0.6044 0.0787, -0.144 -0.6044 0.0, -0.144 -0.6044 0.0787, -0.144 -0.4646 0.0, -0.144 -0.4646 0.0787
            ]
        }
        coordIndex [
            0,1,2,-1,2,1,3,-1,4,5,6,-1,6,5,1,-1,6,1,0,-1,7,8,4,-1,4,8,5,-1,9,10,7,-1,7,10,8,-1,11,12,9,-1,9,12,10,-1,13,14,11,-1,11,14,12,-1,
        ]
    }
}
Shape{
    appearance Appearance {
        material  Material 	{
            diffuseColor 0.25098039215686274 0.25098039215686274 0.25098039215686274
            specularColor 0.12549019607843137 0.12549019607843137 0.12549019607843137
            ambientIntensity 0.251
            transparency 0.0
            shininess 0.5
        }
    }
    geometry IndexedFaceSet {
        ccw TRUE
        solid FALSE
        coord DEF co Coordinate {
            point [
                1.1457 -0.4646 0.0, 1.1457 -0.4646 0.0787, -0.0305 -0.4646 0.0, -0.144 -0.4646 0.0787, -0.144 -0.4646 0.0
            ]
        }
        coordIndex [
            0,1,2,-1,2,1,3,-1,2,3,4,-1,
        ]
    }
}
Shape{
    appearance Appearance {
        material  Material 	{
            diffuseColor 1.0 1.0 1.0
            specularColor 0.8784313725490196 0.8784313725490196 0.8784313725490196
            ambientIntensity 1.0
            transparency 0.0
            shininess 0.5
        }
    }
    geometry IndexedFaceSet {
        ccw TRUE
        solid FALSE
        coord DEF co Coordinate {
            point [
                1.1457 -0.3071 0.0, 1.1457 -0.3071 0.0787, 1.1457 -0.4646 0.0, 1.1457 -0.4646 0.0787
            ]
        }
        coordIndex [
            0,1,2,-1,2,1,3,-1,
        ]
    }
}
Shape{
    appearance Appearance {
        material  Material 	{
            diffuseColor 0.25098039215686274 0.25098039215686274 0.25098039215686274
            specularColor 0.12549019607843137 0.12549019607843137 0.12549019607843137
            ambientIntensity 0.251
            transparency 0.0
            shininess 0.5
        }
    }
    geometry IndexedFaceSet {
        ccw TRUE
        solid FALSE
        coord DEF co Coordinate {
            point [
                1.0069 -0.3071 0.0, 1.0069 -0.3071 0.0787, 1.1457 -0.3071 0.0, 1.1457 -0.3071 0.0787
            ]
        }
        coordIndex [
            0,1,2,-1,2,1,3,-1,
        ]
    }
}
Shape{
    appearance Appearance {
        material  Material 	{
            diffuseColor 1.0 1.0 1.0
            specularColor 0.8784313725490196 0.8784313725490196 0.8784313725490196
            ambientIntensity 1.0
            transparency 0.0
            shininess 0.5
        }
    }
    geometry IndexedFaceSet {
        ccw TRUE
        solid FALSE
        coord DEF co Coordinate {
            point [
                1.0069 0.0354 0.0, 1.0069 0.0354 0.0787, 1.0069 -0.3071 0.0, 1.0069 -0.3071 0.0787, 1.1457 0.0354 0.0, 1.1457 0.0354 0.0787, 1.1457 0.1929 0.0, 1.1457 0.1929 0.0787, 1.0069 0.1929 0.0, 1.0069 0.1929 0.0787, 1.0069 0.5354 0.0, 1.0069 0.5354 0.0787, 1.0069 0.3578 0.0, 1.1457 0.5354 0.0, 1.1457 0.5354 0.0787, 1.1457 0.6929 0.0, 1.1457 0.6929 0.0787, 1.0069 0.6929 0.0, 1.0069 0.6929 0.0787, 1.0069 1.0354 0.0, 1.0069 1.0354 0.0787, 1.1457 1.0354 0.0, 1.1457 1.0354 0.0787, 1.1457 1.1929 0.0, 1.1457 1.1929 0.0787, -0.144 1.1929 0.0787, -0.0305 1.1929 0.0, -0.144 1.1929 0.0, -0.144 1.3326 0.0787, -0.2945 1.3326 0.0787, -0.2945 1.1929 0.0787, -0.144 -0.4646 0.0787, 1.1457 -0.4646 0.0787, 1.1457 -0.3071 0.0787, -0.2945 -0.4646 0.0787, -0.4155 -0.4646 0.0787, -0.4155 1.1929 0.0787, -0.144 -0.6044 0.0787, -0.2945 -0.6044 0.0787
            ]
        }
        coordIndex [
            0,1,2,-1,2,1,3,-1,4,5,0,-1,0,5,1,-1,6,7,4,-1,4,7,5,-1,8,9,6,-1,6,9,7,-1,10,11,12,-1,12,11,9,-1,12,9,8,-1,13,14,10,-1,10,14,11,-1,15,16,13,-1,13,16,14,-1,17,18,15,-1,15,18,16,-1,19,20,17,-1,17,20,18,-1,21,22,19,-1,19,22,20,-1,23,24,21,-1,21,24,22,-1,24,23,25,-1,25,23,26,-1,25,26,27,-1,28,29,25,-1,25,29,30,-1,22,24,20,-1,20,24,25,-1,31,32,3,-1,3,32,33,-1,11,14,16,-1,18,20,34,-1,34,20,25,-1,34,25,35,-1,35,25,30,-1,35,30,36,-1,3,1,31,-1,31,1,34,-1,31,34,37,-1,37,34,38,-1,5,7,1,-1,1,7,9,-1,1,9,34,-1,34,9,11,-1,34,11,18,-1,18,11,16,-1,
        ]
    }
}
Shape{
    appearance Appearance {
        material  Material 	{
            diffuseColor 0.25098039215686274 0.25098039215686274 0.25098039215686274
            specularColor 0.12549019607843137 0.12549019607843137 0.12549019607843137
            ambientIntensity 0.251
            transparency 0.0
            shininess 0.5
        }
    }
    geometry IndexedFaceSet {
        ccw TRUE
        solid FALSE
        coord DEF co Coordinate {
            point [
                -0.0298 0.666 0.0039, -0.0298 0.666 0.0, 0.0883 0.6199 0.0039, 0.0883 0.6199 0.0, 0.0883 0.6041 0.0039, 0.0883 0.6041 0.0, -0.0298 0.5594 0.0039, -0.0298 0.5594 0.0, -0.0298 0.5767 0.0039, -0.0298 0.5767 0.0, 0.0034 0.588 0.0039, 0.0034 0.588 0.0, 0.0034 0.6368 0.0039, 0.0034 0.6368 0.0, -0.0298 0.6487 0.0039, -0.0298 0.6487 0.0, 0.0163 0.6315 0.0039, 0.0163 0.6315 0.0, 0.0163 0.592 0.0039, 0.0163 0.592 0.0, 0.0657 0.6137 0.0039, 0.0657 0.6137 0.0, 0.0698 0.6126 0.0039, 0.0698 0.6126 0.0, 0.0739 0.6119 0.0039, 0.0739 0.6119 0.0, 0.0739 0.6115 0.0039, 0.0739 0.6115 0.0, 0.0698 0.6107 0.0039, 0.0698 0.6107 0.0, 0.0657 0.6096 0.0039, 0.0657 0.6096 0.0, -0.0298 0.4557 0.0039, -0.0298 0.4557 0.0, -0.0298 0.4878 0.0039, -0.0298 0.4878 0.0, 0.0308 0.5508 0.0, 0.0308 0.5508 0.0039, 0.015 0.5491 0.0039, 0.015 0.5491 0.0, 0.0026 0.5449 0.0039, 0.0026 0.5449 0.0, -0.008 0.5381 0.0039, -0.008 0.5381 0.0, -0.0173 0.5284 0.0039, -0.0173 0.5284 0.0, -0.0244 0.5161 0.0039, -0.0244 0.5161 0.0, -0.0285 0.5024 0.0039, -0.0285 0.5024 0.0, 0.0883 0.489 0.0, 0.0883 0.489 0.0039, 0.0865 0.5061 0.0039, 0.0865 0.5061 0.0, 0.0817 0.5199 0.0039, 0.0817 0.5199 0.0, 0.0741 0.5316 0.0039, 0.0741 0.5316 0.0, 0.0698 0.5362 0.0039, 0.0698 0.5362 0.0, 0.0604 0.5434 0.0039, 0.0604 0.5434 0.0, 0.0489 0.5483 0.0039, 0.0489 0.5483 0.0, 0.0366 0.5506 0.0039, 0.0366 0.5506 0.0, 0.0883 0.4557 0.0039, 0.0883 0.4557 0.0, 0.0754 0.4716 0.0039, 0.0754 0.4716 0.0, 0.0754 0.489 0.0039, 0.0754 0.489 0.0, -0.0168 0.4716 0.0039, -0.0168 0.4716 0.0, -0.0168 0.4883 0.0039, -0.0168 0.4883 0.0, -0.0156 0.5008 0.0039, -0.0156 0.5008 0.0, -0.0125 0.5107 0.0039, -0.0125 0.5107 0.0, -0.0078 0.5187 0.0039, -0.0078 0.5187 0.0, -0.0013 0.5253 0.0039, -0.0013 0.5253 0.0, 0.0068 0.5303 0.0039, 0.0068 0.5303 0.0, 0.0161 0.5335 0.0039, 0.0161 0.5335 0.0, 0.0304 0.5349 0.0039, 0.0304 0.5349 0.0, 0.0422 0.5339 0.0039, 0.0422 0.5339 0.0, 0.0515 0.5312 0.0039, 0.0515 0.5312 0.0, 0.0588 0.5271 0.0039, 0.0588 0.5271 0.0, 0.0649 0.5214 0.0039, 0.0649 0.5214 0.0, 0.0705 0.5128 0.0039, 0.0705 0.5128 0.0, 0.0739 0.503 0.0039, 0.0739 0.503 0.0, -0.0298 0.4327 0.0039, -0.0298 0.4327 0.0, -0.0168 0.4327 0.0039, -0.0168 0.4327 0.0, -0.0168 0.3851 0.0039, -0.0168 0.3851 0.0, 0.0235 0.3851 0.0039, 0.0235 0.3851 0.0, 0.0235 0.4269 0.0039, 0.0235 0.4269 0.0, 0.0365 0.4269 0.0039, 0.0365 0.4269 0.0, 0.0365 0.3851 0.0039, 0.0365 0.3851 0.0, 0.0754 0.3851 0.0039, 0.0754 0.3851 0.0, 0.0754 0.4298 0.0039, 0.0754 0.4298 0.0, 0.0883 0.4298 0.0039, 0.0883 0.4298 0.0, 0.0883 0.3693 0.0039, 0.0883 0.3693 0.0, -0.0298 0.3693 0.0039, -0.0298 0.3693 0.0, -0.0236 0.3463 0.0039, -0.0236 0.3463 0.0, -0.0107 0.3463 0.0039, -0.0107 0.3463 0.0, -0.0182 0.3159 0.0, -0.0182 0.3159 0.0039, -0.0165 0.3316 0.0039, -0.0165 0.3316 0.0, -0.0119 0.3441 0.0039, -0.0119 0.3441 0.0, 0.028 0.2742 0.0, 0.028 0.2742 0.0039, 0.0153 0.2754 0.0039, 0.0153 0.2754 0.0, 0.0051 0.2786 0.0039, 0.0051 0.2786 0.0, -0.0031 0.2835 0.0039, -0.0031 0.2835 0.0, -0.0089 0.289 0.0039, -0.0089 0.289 0.0, -0.0138 0.2963 0.0039, -0.0138 0.2963 0.0, -0.017 0.305 0.0039, -0.017 0.305 0.0, 0.0768 0.3186 0.0, 0.0768 0.3186 0.0039, 0.0755 0.307 0.0039, 0.0755 0.307 0.0, 0.0723 0.2982 0.0039, 0.0723 0.2982 0.0, 0.0667 0.2898 0.0039, 0.0667 0.2898 0.0, 0.0588 0.2827 0.0039, 0.0588 0.2827 0.0, 0.0497 0.2779 0.0039, 0.0497 0.2779 0.0, 0.0369 0.2748 0.0039, 0.0369 0.2748 0.0, 0.0693 0.3463 0.0, 0.0693 0.3463 0.0039, 0.075 0.3329 0.0039, 0.075 0.3329 0.0, 0.0851 0.3463 0.0039, 0.0851 0.3463 0.0, 0.0898 0.3185 0.0, 0.0898 0.3185 0.0039, 0.0888 0.3326 0.0039, 0.0888 0.3326 0.0, 0.0271 0.2584 0.0, 0.0271 0.2584 0.0039, 0.0438 0.2601 0.0039, 0.0438 0.2601 0.0, 0.0573 0.2646 0.0039, 0.0573 0.2646 0.0, 0.0683 0.2715 0.0039, 0.0683 0.2715 0.0, 0.0782 0.2818 0.0039, 0.0782 0.2818 0.0, 0.0847 0.2928 0.0039, 0.0847 0.2928 0.0, 0.0887 0.3058 0.0039, 0.0887 0.3058 0.0, -0.0305 0.3068 0.0, -0.0312 0.3138 0.0, -0.0312 0.3138 0.0039, -0.0297 0.2992 0.0, -0.0297 0.2992 0.0039, -0.0257 0.2877 0.0039, -0.0257 0.2877 0.0, -0.0195 0.2781 0.0039, -0.0195 0.2781 0.0, -0.0101 0.2692 0.0039, -0.0101 0.2692 0.0, 0.0011 0.263 0.0039, 0.0011 0.263 0.0, 0.0137 0.2595 0.0039, 0.0137 0.2595 0.0, -0.0288 0.3337 0.0, -0.0288 0.3337 0.0039, -0.0305 0.3217 0.0, -0.0312 0.317 0.0039, -0.0312 0.317 0.0, -0.0298 0.2483 0.0039, -0.0298 0.2483 0.0, -0.0168 0.2483 0.0039, -0.0168 0.2483 0.0, -0.0168 0.2037 0.0039, -0.0168 0.2037 0.0, 0.0883 0.2037 0.0039, 0.0883 0.2037 0.0, 0.0883 0.1878 0.0039, 0.0883 0.1878 0.0, -0.0298 0.1878 0.0039, -0.0298 0.1878 0.0
            ]
        }
        coordIndex [
            0,1,2,-1,2,1,3,-1,2,3,4,-1,4,3,5,-1,4,5,6,-1,6,5,7,-1,6,7,8,-1,8,7,9,-1,8,9,10,-1,10,9,11,-1,10,11,12,-1,12,11,13,-1,12,13,14,-1,14,13,15,-1,14,15,0,-1,0,15,1,-1,16,17,18,-1,18,17,19,-1,20,21,16,-1,16,21,17,-1,21,20,22,-1,21,22,23,-1,23,22,24,-1,23,24,25,-1,26,27,24,-1,24,27,25,-1,27,26,28,-1,27,28,29,-1,29,28,30,-1,29,30,31,-1,18,19,30,-1,30,19,31,-1,18,30,4,-1,6,8,10,-1,30,28,4,-1,4,28,26,-1,4,26,2,-1,2,26,24,-1,2,24,22,-1,4,6,18,-1,18,6,10,-1,18,10,16,-1,16,10,12,-1,22,20,2,-1,2,20,16,-1,2,16,0,-1,0,16,12,-1,0,12,14,-1,32,33,34,-1,34,33,35,-1,36,37,38,-1,36,38,39,-1,39,38,40,-1,39,40,41,-1,41,40,42,-1,41,42,43,-1,43,42,44,-1,43,44,45,-1,45,44,46,-1,45,46,47,-1,47,46,48,-1,47,48,49,-1,49,48,34,-1,49,34,35,-1,50,51,52,-1,50,52,53,-1,53,52,54,-1,53,54,55,-1,55,54,56,-1,55,56,57,-1,57,56,58,-1,57,58,59,-1,59,58,60,-1,59,60,61,-1,61,60,62,-1,61,62,63,-1,63,62,64,-1,63,64,65,-1,65,64,37,-1,65,37,36,-1,51,50,66,-1,66,50,67,-1,66,67,32,-1,32,67,33,-1,68,69,70,-1,70,69,71,-1,72,73,68,-1,68,73,69,-1,74,75,72,-1,72,75,73,-1,75,74,76,-1,75,76,77,-1,77,76,78,-1,77,78,79,-1,79,78,80,-1,79,80,81,-1,81,80,82,-1,81,82,83,-1,83,82,84,-1,83,84,85,-1,85,84,86,-1,85,86,87,-1,87,86,88,-1,87,88,89,-1,89,88,90,-1,89,90,91,-1,91,90,92,-1,91,92,93,-1,93,92,94,-1,93,94,95,-1,95,94,96,-1,95,96,97,-1,97,96,98,-1,97,98,99,-1,99,98,100,-1,99,100,101,-1,101,100,70,-1,101,70,71,-1,38,37,88,-1,88,37,64,-1,88,64,90,-1,90,64,62,-1,90,62,92,-1,92,62,60,-1,92,60,94,-1,94,60,58,-1,94,58,96,-1,96,58,56,-1,96,56,98,-1,98,56,54,-1,98,54,100,-1,100,54,52,-1,100,52,70,-1,70,52,51,-1,70,51,68,-1,68,51,66,-1,68,66,72,-1,72,66,32,-1,72,32,74,-1,74,32,34,-1,74,34,76,-1,76,34,48,-1,76,48,78,-1,78,48,46,-1,78,46,80,-1,80,46,44,-1,80,44,82,-1,82,44,42,-1,82,42,84,-1,84,42,40,-1,84,40,86,-1,86,40,38,-1,86,38,88,-1,102,103,104,-1,104,103,105,-1,104,105,106,-1,106,105,107,-1,106,107,108,-1,108,107,109,-1,108,109,110,-1,110,109,111,-1,110,111,112,-1,112,111,113,-1,112,113,114,-1,114,113,115,-1,114,115,116,-1,116,115,117,-1,116,117,118,-1,118,117,119,-1,118,119,120,-1,120,119,121,-1,120,121,122,-1,122,121,123,-1,122,123,124,-1,124,123,125,-1,124,125,102,-1,102,125,103,-1,124,102,104,-1,104,106,124,-1,124,106,108,-1,124,108,122,-1,118,120,116,-1,116,120,122,-1,116,122,114,-1,114,122,108,-1,114,108,112,-1,112,108,110,-1,126,127,128,-1,128,127,129,-1,130,131,132,-1,130,132,133,-1,133,132,134,-1,133,134,135,-1,135,134,128,-1,135,128,129,-1,136,137,138,-1,136,138,139,-1,139,138,140,-1,139,140,141,-1,141,140,142,-1,141,142,143,-1,143,142,144,-1,143,144,145,-1,145,144,146,-1,145,146,147,-1,147,146,148,-1,147,148,149,-1,149,148,131,-1,149,131,130,-1,150,151,152,-1,150,152,153,-1,153,152,154,-1,153,154,155,-1,155,154,156,-1,155,156,157,-1,157,156,158,-1,157,158,159,-1,159,158,160,-1,159,160,161,-1,161,160,162,-1,161,162,163,-1,163,162,137,-1,163,137,136,-1,164,165,166,-1,164,166,167,-1,167,166,151,-1,167,151,150,-1,165,164,168,-1,168,164,169,-1,170,171,172,-1,170,172,173,-1,173,172,168,-1,173,168,169,-1,174,175,176,-1,174,176,177,-1,177,176,178,-1,177,178,179,-1,179,178,180,-1,179,180,181,-1,181,180,182,-1,181,182,183,-1,183,182,184,-1,183,184,185,-1,185,184,186,-1,185,186,187,-1,187,186,171,-1,187,171,170,-1,188,189,190,-1,188,190,191,-1,190,192,191,-1,191,192,193,-1,191,193,194,-1,194,193,195,-1,194,195,196,-1,196,195,197,-1,196,197,198,-1,198,197,199,-1,198,199,200,-1,200,199,201,-1,200,201,202,-1,202,201,175,-1,202,175,174,-1,203,127,204,-1,204,127,126,-1,203,204,205,-1,205,204,206,-1,205,206,207,-1,207,206,190,-1,207,190,189,-1,148,190,131,-1,131,190,206,-1,131,206,132,-1,132,206,204,-1,132,204,134,-1,134,204,126,-1,134,126,128,-1,165,168,166,-1,166,168,172,-1,166,172,151,-1,151,172,171,-1,151,171,152,-1,152,171,186,-1,152,186,154,-1,154,186,184,-1,154,184,156,-1,156,184,182,-1,156,182,158,-1,158,182,180,-1,158,180,160,-1,160,180,178,-1,160,178,162,-1,162,178,176,-1,162,176,137,-1,137,176,175,-1,137,175,138,-1,138,175,201,-1,138,201,140,-1,140,201,199,-1,140,199,142,-1,142,199,197,-1,142,197,144,-1,144,197,195,-1,144,195,146,-1,146,195,193,-1,146,193,148,-1,148,193,192,-1,148,192,190,-1,208,209,210,-1,210,209,211,-1,210,211,212,-1,212,211,213,-1,212,213,214,-1,214,213,215,-1,214,215,216,-1,216,215,217,-1,216,217,218,-1,218,217,219,-1,218,219,208,-1,208,219,209,-1,214,216,212,-1,212,216,218,-1,212,218,210,-1,210,218,208,-1,
        ]
    }
}
Shape{
    appearance Appearance {
        material  Material 	{
            diffuseColor 1.0 1.0 1.0
            specularColor 0.8784313725490196 0.8784313725490196 0.8784313725490196
            ambientIntensity 1.0
            transparency 0.0
            shininess 0.5
        }
    }
    geometry IndexedFaceSet {
        ccw TRUE
        solid FALSE
        coord DEF co Coordinate {
            point [
                0.0163 0.592 0.0, 0.0163 0.6315 0.0, 0.0657 0.6096 0.0, 0.0657 0.6137 0.0, 0.0698 0.6107 0.0, 0.0698 0.6126 0.0, 0.0739 0.6115 0.0, 0.0739 0.6119 0.0, 0.0754 0.489 0.0, 0.0754 0.4716 0.0, -0.0168 0.4716 0.0, 0.0161 0.5335 0.0, 0.0304 0.5349 0.0, 0.0068 0.5303 0.0, 0.0422 0.5339 0.0, 0.0515 0.5312 0.0, 0.0739 0.503 0.0, -0.0168 0.4883 0.0, -0.0156 0.5008 0.0, -0.0125 0.5107 0.0, 0.0588 0.5271 0.0, 0.0649 0.5214 0.0, 0.0705 0.5128 0.0, -0.0078 0.5187 0.0, -0.0013 0.5253 0.0
            ]
        }
        coordIndex [
            0,1,2,-1,2,1,3,-1,2,3,4,-1,4,3,5,-1,4,5,6,-1,6,5,7,-1,8,9,10,-1,11,12,8,-1,11,8,13,-1,12,14,8,-1,8,14,15,-1,8,15,16,-1,10,17,8,-1,8,17,18,-1,8,18,19,-1,20,21,15,-1,15,21,22,-1,15,22,16,-1,19,23,8,-1,8,23,24,-1,8,24,13,-1,
        ]
    }
}