#VRML V2.0 utf8
# 3D model generated by easyeda2kicad.py (https://github.com/uPesy/easyeda2kicad.py)

Shape{
    appearance Appearance {
        material  Material 	{
            diffuseColor 0.25098039215686274 0.25098039215686274 0.25098039215686274
            specularColor 0.12549019607843137 0.12549019607843137 0.12549019607843137
            ambientIntensity 0.251
            transparency 0.0
            shininess 0.5
        }
    }
    geometry IndexedFaceSet {
        ccw TRUE
        solid FALSE
        coord DEF co Coordinate {
            point [
                0.6889 0.5751 0.0789, 0.6889 0.639 0.0789, 0.6889 0.689 0.3661, 0.6889 0.689 0.0118, 0.6889 -0.6889 0.0118, 0.6889 -0.639 0.0789, 0.6889 -0.6889 0.3661, 0.6889 -0.575 0.0789, 0.6889 0.639 0.0437, 0.6889 0.5751 0.0437, 0.6889 0.441 0.0118, 0.6889 0.441 0.0512, 0.6889 -0.3464 0.0512, 0.6889 -0.3464 0.0118, 0.6889 -0.2441 0.0118, 0.6889 -0.2441 0.0512, 0.6889 -0.1496 0.0512, 0.6889 -0.4409 0.0512, 0.6889 -0.4409 0.0118, 0.6889 -0.575 0.0437, 0.6889 -0.639 0.0437, 0.6889 0.0473 0.0512, 0.6889 0.0473 0.0118, 0.6889 0.1496 0.0118, 0.6889 0.1496 0.0512, 0.6889 0.2441 0.0512, 0.6889 -0.0472 0.0512, 0.6889 -0.0472 0.0118, 0.6889 -0.1496 0.0118, 0.6889 0.3465 0.0512, 0.6889 0.3465 0.0118, 0.6889 0.2441 0.0118, 0.639 0.689 0.0437, 0.639 0.689 0.0789, 0.575 0.689 0.0789, 0.0472 0.689 0.0512, 0.1496 0.689 0.0512, 0.1496 0.689 0.0118, 0.0472 0.689 0.0118, -0.2441 0.689 0.0512, -0.5751 0.689 0.0789, -0.1496 0.689 0.0512, -0.0473 0.689 0.0512, -0.1496 0.689 0.0118, -0.0473 0.689 0.0118, 0.575 0.689 0.0437, 0.4409 0.689 0.0118, 0.4409 0.689 0.0512, 0.3464 0.689 0.0512, 0.2441 0.689 0.0512, 0.2441 0.689 0.0118, 0.3464 0.689 0.0118, -0.689 0.689 0.3661, -0.639 0.689 0.0789, -0.689 0.689 0.0118, -0.639 0.689 0.0437, -0.5751 0.689 0.0437, -0.2441 0.689 0.0118, -0.3465 0.689 0.0118, -0.3465 0.689 0.0512, -0.441 0.689 0.0512, -0.441 0.689 0.0118, -0.689 0.5751 0.0789, -0.689 0.639 0.0789, -0.689 0.639 0.0437, -0.689 0.5751 0.0437, -0.689 0.441 0.0118, -0.689 0.441 0.0512, -0.689 0.1496 0.0512, -0.689 -0.575 0.0789, -0.689 0.2441 0.0512, -0.689 0.3465 0.0512, -0.689 0.2441 0.0118, -0.689 0.3465 0.0118, -0.689 -0.0472 0.0512, -0.689 -0.0472 0.0118, -0.689 -0.1496 0.0118, -0.689 -0.1496 0.0512, -0.689 -0.2441 0.0512, -0.689 0.0473 0.0512, -0.689 0.0473 0.0118, -0.689 0.1496 0.0118, -0.689 -0.6889 0.3661, -0.689 -0.639 0.0789, -0.689 -0.6889 0.0118, -0.689 -0.639 0.0437, -0.689 -0.575 0.0437, -0.689 -0.2441 0.0118, -0.689 -0.3464 0.0118, -0.689 -0.3464 0.0512, -0.689 -0.4409 0.0512, -0.689 -0.4409 0.0118, -0.639 -0.6889 0.0789, -0.5751 -0.6889 0.0789, -0.3465 -0.6889 0.0512, -0.441 -0.6889 0.0512, -0.441 -0.6889 0.0118, -0.5751 -0.6889 0.0437, -0.639 -0.6889 0.0437, -0.1496 -0.6889 0.0512, -0.1496 -0.6889 0.0118, -0.0473 -0.6889 0.0118, -0.0473 -0.6889 0.0512, 0.0472 -0.6889 0.0512, -0.2441 -0.6889 0.0512, -0.2441 -0.6889 0.0118, -0.3465 -0.6889 0.0118, 0.2441 -0.6889 0.0512, 0.2441 -0.6889 0.0118, 0.3464 -0.6889 0.0118, 0.3464 -0.6889 0.0512, 0.4409 -0.6889 0.0512, 0.1496 -0.6889 0.0512, 0.1496 -0.6889 0.0118, 0.0472 -0.6889 0.0118, 0.639 -0.6889 0.0437, 0.575 -0.6889 0.0437, 0.639 -0.6889 0.0789, 0.575 -0.6889 0.0789, 0.4409 -0.6889 0.0118, -0.2756 0.3937 0.0118, -0.2964 0.3729 0.0118, -0.2964 0.412 0.0118, -0.5788 0.441 0.0118, -0.689 0.5104 0.0118, -0.1496 0.5788 0.0118, -0.1252 0.689 0.0118, -0.0473 -0.5787 0.0118, -0.0512 -0.6889 0.0118, -0.2441 -0.5787 0.0118, -0.2964 -0.6889 0.0118, -0.5552 -0.2377 0.0118, -0.5454 -0.2302 0.0118, -0.5666 -0.348 0.0118, -0.4347 -0.5551 0.0118, -0.4271 -0.5453 0.0118, -0.3937 -0.3937 0.0118, -0.4174 -0.5378 0.0118, -0.406 -0.5331 0.0118, -0.4394 -0.5665 0.0118, -0.441 -0.5787 0.0118, -0.5788 -0.4409 0.0118, -0.5331 -0.4059 0.0118, -0.5315 -0.3937 0.0118, -0.5454 0.1635 0.0118, -0.5379 0.1733 0.0118, -0.3465 -0.5787 0.0118, -0.3481 -0.5665 0.0118, -0.2964 -0.3937 0.0118, -0.3528 -0.5551 0.0118, -0.3603 -0.5453 0.0118, -0.3701 -0.5378 0.0118, -0.3815 -0.5331 0.0118, -0.3937 -0.5315 0.0118, -0.5379 -0.4173 0.0118, -0.3937 0.2756 0.0118, -0.5331 0.1847 0.0118, -0.5315 0.1969 0.0118, -0.5552 0.3528 0.0118, -0.5666 0.3481 0.0118, -0.5454 0.2303 0.0118, -0.5454 0.3603 0.0118, -0.5379 0.3701 0.0118, -0.5331 0.3815 0.0118, -0.5315 0.3937 0.0118, -0.5331 0.406 0.0118, -0.5666 -0.4393 0.0118, -0.5552 -0.4346 0.0118, -0.5454 -0.4271 0.0118, -0.5552 -0.3527 0.0118, -0.5788 0.2441 0.0118, -0.5788 0.3465 0.0118, -0.5666 0.2425 0.0118, -0.5552 0.2378 0.0118, -0.5454 -0.1634 0.0118, -0.5552 -0.1559 0.0118, -0.5454 -0.0334 0.0118, -0.5666 -0.1512 0.0118, -0.5552 -0.0409 0.0118, -0.5331 -0.0122 0.0118, -0.5379 -0.0236 0.0118, -0.5454 0.0334 0.0118, -0.5552 0.041 0.0118, -0.5666 0.0457 0.0118, -0.5552 0.156 0.0118, -0.5331 0.2091 0.0118, -0.5379 0.2205 0.0118, -0.5331 -0.209 0.0118, -0.5379 -0.2204 0.0118, -0.5331 -0.3814 0.0118, -0.5379 -0.37 0.0118, -0.5454 -0.3603 0.0118, -0.5788 -0.1496 0.0118, -0.5788 -0.0472 0.0118, -0.5666 -0.0456 0.0118, -0.5315 0.0 0.0118, -0.5331 0.0123 0.0118, -0.5379 0.0237 0.0118, -0.5788 0.0473 0.0118, -0.5788 0.1496 0.0118, -0.5666 0.1513 0.0118, -0.5788 -0.3464 0.0118, -0.5788 -0.2441 0.0118, -0.5666 -0.2424 0.0118, -0.5315 -0.1968 0.0118, -0.5331 -0.1846 0.0118, -0.5379 -0.1732 0.0118, -0.1496 -0.5787 0.0118, -0.1513 -0.5665 0.0118, -0.1252 -0.3937 0.0118, -0.156 -0.5551 0.0118, -0.1635 -0.5453 0.0118, -0.1733 -0.5378 0.0118, -0.2205 -0.5378 0.0118, -0.2303 -0.5453 0.0118, -0.2378 -0.5551 0.0118, -0.2425 -0.5665 0.0118, -0.1847 -0.5331 0.0118, -0.1969 -0.5315 0.0118, -0.2091 -0.5331 0.0118, 0.0064 -0.3937 0.0118, 0.0064 -0.5323 0.0118, -0.0 -0.5315 0.0118, -0.0512 -0.3937 0.0118, -0.0123 -0.5331 0.0118, -0.0237 -0.5378 0.0118, -0.0334 -0.5453 0.0118, -0.041 -0.5551 0.0118, -0.0457 -0.5665 0.0118, 0.0122 -0.5331 0.0118, 0.076 -0.3937 0.0118, 0.0236 -0.5378 0.0118, 0.0456 -0.5665 0.0118, 0.0409 -0.5551 0.0118, 0.0334 -0.5453 0.0118, 0.0472 -0.5787 0.0118, 0.076 -0.6889 0.0118, 0.4346 -0.5551 0.0118, 0.3937 -0.3937 0.0118, 0.4271 -0.5453 0.0118, 0.4173 -0.5378 0.0118, 0.5331 0.406 0.0118, 0.5315 0.3937 0.0118, 0.3937 0.3937 0.0118, 0.4409 -0.5787 0.0118, 0.4393 -0.5665 0.0118, 0.4059 -0.5331 0.0118, 0.3937 -0.5315 0.0118, 0.3814 -0.5331 0.0118, 0.1846 -0.5331 0.0118, 0.1732 -0.5378 0.0118, 0.1634 -0.5453 0.0118, 0.5453 0.2303 0.0118, 0.5378 0.2205 0.0118, 0.37 -0.5378 0.0118, 0.3603 -0.5453 0.0118, 0.209 -0.5331 0.0118, 0.3527 -0.5551 0.0118, 0.348 -0.5665 0.0118, 0.2377 -0.5551 0.0118, 0.2302 -0.5453 0.0118, 0.2204 -0.5378 0.0118, 0.1559 -0.5551 0.0118, 0.1512 -0.5665 0.0118, 0.1496 -0.5787 0.0118, 0.5551 0.3528 0.0118, 0.5665 0.3481 0.0118, 0.5453 0.1635 0.0118, 0.5551 0.156 0.0118, 0.1968 -0.5315 0.0118, 0.5331 0.3815 0.0118, 0.5378 0.3701 0.0118, 0.5453 0.3603 0.0118, 0.5378 0.1733 0.0118, 0.5331 -0.0122 0.0118, 0.5378 -0.0236 0.0118, 0.5453 -0.0334 0.0118, 0.5551 -0.0409 0.0118, 0.3464 -0.5787 0.0118, 0.2441 -0.5787 0.0118, 0.2424 -0.5665 0.0118, 0.5331 0.2091 0.0118, 0.5315 0.1969 0.0118, 0.5331 0.1847 0.0118, 0.5551 -0.1559 0.0118, 0.5453 -0.1634 0.0118, 0.5665 -0.0456 0.0118, 0.5378 -0.1732 0.0118, 0.5331 -0.1846 0.0118, 0.5315 -0.1968 0.0118, 0.5331 -0.209 0.0118, 0.5378 -0.2204 0.0118, 0.5665 -0.348 0.0118, 0.5453 -0.2302 0.0118, 0.5551 -0.2377 0.0118, 0.5787 -0.4409 0.0118, 0.5665 -0.4393 0.0118, 0.5787 0.3465 0.0118, 0.5787 -0.2441 0.0118, 0.5378 -0.37 0.0118, 0.5453 -0.3603 0.0118, 0.5551 -0.3527 0.0118, 0.5787 0.2441 0.0118, 0.5665 0.2425 0.0118, 0.5551 0.2378 0.0118, 0.5551 0.041 0.0118, 0.5453 0.0334 0.0118, 0.5665 0.1513 0.0118, 0.5378 0.0237 0.0118, 0.5331 0.0123 0.0118, 0.5315 0.0 0.0118, 0.5665 -0.2424 0.0118, 0.5787 -0.3464 0.0118, 0.5331 -0.3814 0.0118, 0.5315 -0.3937 0.0118, 0.5331 -0.4059 0.0118, 0.5378 -0.4173 0.0118, 0.5453 -0.4271 0.0118, 0.5551 -0.4346 0.0118, 0.5787 0.1496 0.0118, 0.5787 0.0473 0.0118, 0.5665 0.0457 0.0118, 0.5787 -0.0472 0.0118, 0.5787 -0.1496 0.0118, 0.5665 -0.1512 0.0118, 0.5356 0.412 0.0118, 0.076 0.412 0.0118, 0.5378 0.4174 0.0118, 0.076 0.4307 0.0118, 0.0793 0.4398 0.0118, 0.0793 0.4312 0.0118, 0.1197 0.4312 0.0118, 0.5665 0.4394 0.0118, 0.6889 0.5104 0.0118, 0.5787 0.441 0.0118, 0.1091 0.5099 0.0118, 0.076 0.5104 0.0118, 0.1197 0.5099 0.0118, 0.5551 0.4347 0.0118, 0.5499 0.4307 0.0118, 0.5453 0.4271 0.0118, 0.3937 0.5315 0.0118, 0.4059 0.5331 0.0118, 0.4173 0.5379 0.0118, 0.4271 0.5454 0.0118, 0.4346 0.5552 0.0118, 0.4409 0.5788 0.0118, 0.4393 0.5666 0.0118, 0.2204 0.5379 0.0118, 0.2302 0.5454 0.0118, 0.3814 0.5331 0.0118, 0.2377 0.5552 0.0118, 0.37 0.5379 0.0118, 0.348 0.5666 0.0118, 0.3527 0.5552 0.0118, 0.3603 0.5454 0.0118, 0.1512 0.5666 0.0118, 0.1559 0.5552 0.0118, 0.1634 0.5454 0.0118, 0.1732 0.5379 0.0118, 0.1846 0.5331 0.0118, 0.1968 0.5315 0.0118, 0.209 0.5331 0.0118, 0.2441 0.5788 0.0118, 0.076 0.689 0.0118, 0.1496 0.5788 0.0118, 0.2424 0.5666 0.0118, 0.3464 0.5788 0.0118, 0.0334 0.5454 0.0118, 0.0409 0.5552 0.0118, 0.0236 0.5379 0.0118, 0.0472 0.5788 0.0118, 0.0456 0.5666 0.0118, -0.0473 0.5788 0.0118, -0.0457 0.5666 0.0118, -0.0512 0.5104 0.0118, -0.041 0.5552 0.0118, -0.0334 0.5454 0.0118, -0.0237 0.5379 0.0118, -0.1847 0.5331 0.0118, -0.1733 0.5379 0.0118, -0.1252 0.5104 0.0118, -0.2964 0.5104 0.0118, -0.2378 0.5552 0.0118, -0.2303 0.5454 0.0118, -0.1635 0.5454 0.0118, -0.156 0.5552 0.0118, -0.1513 0.5666 0.0118, -0.2441 0.5788 0.0118, -0.2425 0.5666 0.0118, -0.2205 0.5379 0.0118, -0.2091 0.5331 0.0118, -0.1969 0.5315 0.0118, -0.4347 0.5552 0.0118, -0.4271 0.5454 0.0118, -0.4394 0.5666 0.0118, -0.4174 0.5379 0.0118, -0.406 0.5331 0.0118, -0.3937 0.5315 0.0118, -0.3815 0.5331 0.0118, -0.3701 0.5379 0.0118, -0.3603 0.5454 0.0118, -0.2964 0.689 0.0118, -0.3465 0.5788 0.0118, -0.3528 0.5552 0.0118, -0.3481 0.5666 0.0118, -0.441 0.5788 0.0118, -0.5666 0.4394 0.0118, -0.5356 0.412 0.0118, -0.5379 0.4174 0.0118, -0.2964 0.4307 0.0118, -0.5454 0.4271 0.0118, -0.55 0.4307 0.0118, -0.5552 0.4347 0.0118, -0.1252 0.3937 0.0118, -0.1252 0.412 0.0118, -0.0512 0.3937 0.0118, -0.0512 0.412 0.0118, 0.0064 0.3937 0.0118, 0.0064 0.412 0.0118, 0.076 0.3937 0.0118, -0.1252 -0.6889 0.0118, 0.0064 0.5104 0.0118, 0.0141 0.4439 0.0118, 0.0064 0.4307 0.0118, 0.0141 0.4352 0.0118, 0.0224 0.4318 0.0118, 0.0256 0.5104 0.0118, 0.0232 0.5102 0.0118, 0.0141 0.5077 0.0118, 0.0141 0.4972 0.0118, 0.0229 0.501 0.0118, 0.0155 0.4431 0.0118, 0.0325 0.5022 0.0118, 0.0402 0.5014 0.0118, 0.0461 0.4992 0.0118, 0.0516 0.4956 0.0118, 0.0563 0.4903 0.0118, 0.0621 0.4697 0.0118, 0.0613 0.4612 0.0118, 0.0591 0.4544 0.0118, 0.0416 0.4397 0.0118, 0.0343 0.4389 0.0118, 0.0473 0.4418 0.0118, 0.0522 0.445 0.0118, 0.0559 0.4489 0.0118, 0.0238 0.44 0.0118, 0.0596 0.4843 0.0118, 0.0617 0.4758 0.0118, 0.0531 0.4338 0.0118, 0.0594 0.4379 0.0118, 0.0639 0.4965 0.0118, 0.0567 0.5034 0.0118, 0.0493 0.5077 0.0118, 0.0726 0.4691 0.0118, 0.0715 0.4802 0.0118, 0.0685 0.4892 0.0118, -0.0123 0.5331 0.0118, -0.0 0.5315 0.0118, 0.0064 0.5324 0.0118, 0.0122 0.5331 0.0118, 0.0326 0.5109 0.0118, 0.0385 0.5104 0.0118, 0.0405 0.5102 0.0118, 0.0653 0.4441 0.0118, 0.0695 0.4516 0.0118, 0.0719 0.4599 0.0118, 0.1091 0.4398 0.0118, 0.0304 0.4307 0.0118, 0.0336 0.4302 0.0118, 0.0357 0.4302 0.0118, 0.0403 0.4307 0.0118, 0.0454 0.4312 0.0118, -0.1252 0.4307 0.0118, -0.0512 0.4307 0.0118, -0.0416 0.5099 0.0118, -0.0416 0.5013 0.0118, -0.0436 0.4398 0.0118, -0.0436 0.4312 0.0118, -0.0013 0.4312 0.0118, -0.0013 0.5099 0.0118, -0.0119 0.4667 0.0118, -0.0119 0.4398 0.0118, -0.0397 0.4667 0.0118, -0.0397 0.4753 0.0118, -0.0119 0.4753 0.0118, -0.0119 0.5013 0.0118, -0.1184 0.4527 0.0118, -0.1139 0.4457 0.0118, -0.1074 0.4395 0.0118, -0.0992 0.4347 0.0118, -0.0811 0.5099 0.0118, -0.0925 0.5087 0.0118, -0.1017 0.5055 0.0118, -0.1103 0.4997 0.0118, -0.1104 0.4996 0.0118, -0.116 0.4935 0.0118, -0.1196 0.4867 0.0118, -0.0901 0.432 0.0118, -0.0803 0.4312 0.0118, -0.0589 0.4312 0.0118, -0.0589 0.5099 0.0118, -0.1217 0.4789 0.0118, -0.1223 0.4715 0.0118, -0.1212 0.461 0.0118, -0.1876 0.4312 0.0118, -0.1991 0.4312 0.0118, -0.1684 0.5099 0.0118, -0.1796 0.4533 0.0118, -0.1471 0.4533 0.0118, -0.1396 0.4312 0.0118, -0.1281 0.4312 0.0118, -0.1578 0.5099 0.0118, -0.0512 0.689 0.0118, -0.538 0.5835 0.3661, -0.5174 0.5862 0.3661, -0.4969 0.5835 0.3661, -0.4777 0.5756 0.3661, -0.4612 0.5629 0.3661, -0.4486 0.5465 0.3661, -0.4406 0.5273 0.3661, -0.5174 0.4271 0.3661, -0.538 0.4298 0.3661, -0.5572 0.4378 0.3661, -0.5737 0.4504 0.3661, -0.4379 0.5067 0.3661, -0.4406 0.4861 0.3661, -0.4486 0.4669 0.3661, -0.4612 0.4504 0.3661, -0.4777 0.4378 0.3661, -0.4969 0.4298 0.3661, -0.5943 0.5273 0.3661, -0.5863 0.5465 0.3661, -0.5863 0.4669 0.3661, -0.5943 0.4861 0.3661, -0.597 0.5067 0.3661, -0.5737 0.5629 0.3661, -0.5572 0.5756 0.3661
            ]
        }
        coordIndex [
            0,1,2,-1,2,1,3,-1,4,5,6,-1,6,5,7,-1,6,7,2,-1,1,8,3,-1,3,8,9,-1,3,9,10,-1,10,9,11,-1,12,13,14,-1,15,16,2,-1,14,15,12,-1,12,15,2,-1,12,2,17,-1,17,2,7,-1,17,7,18,-1,18,7,19,-1,18,19,4,-1,4,19,20,-1,4,20,5,-1,21,22,23,-1,24,25,2,-1,23,24,21,-1,21,24,2,-1,21,2,26,-1,26,2,16,-1,26,16,27,-1,27,16,28,-1,9,0,11,-1,11,0,2,-1,11,2,29,-1,29,2,25,-1,29,25,30,-1,30,25,31,-1,3,32,33,-1,3,33,2,-1,2,33,34,-1,2,34,35,-1,36,37,38,-1,39,40,41,-1,41,40,42,-1,41,42,43,-1,43,42,44,-1,32,3,45,-1,45,3,46,-1,45,46,34,-1,34,46,47,-1,34,47,48,-1,38,35,36,-1,36,35,34,-1,36,34,49,-1,49,34,48,-1,49,48,50,-1,50,48,51,-1,35,42,2,-1,2,42,40,-1,2,40,52,-1,52,40,53,-1,52,53,54,-1,54,53,55,-1,54,55,56,-1,57,58,39,-1,39,58,59,-1,39,59,40,-1,40,59,60,-1,40,60,56,-1,56,60,61,-1,56,61,54,-1,62,52,63,-1,63,52,54,-1,63,54,64,-1,64,54,65,-1,65,54,66,-1,65,66,62,-1,62,66,67,-1,62,67,52,-1,68,69,70,-1,70,69,71,-1,70,71,72,-1,72,71,73,-1,74,75,76,-1,77,78,69,-1,76,77,74,-1,74,77,69,-1,74,69,79,-1,79,69,68,-1,79,68,80,-1,80,68,81,-1,67,71,52,-1,52,71,69,-1,52,69,82,-1,82,69,83,-1,82,83,84,-1,84,83,85,-1,84,85,86,-1,87,88,78,-1,78,88,89,-1,78,89,69,-1,69,89,90,-1,69,90,86,-1,86,90,91,-1,86,91,84,-1,84,92,82,-1,82,92,93,-1,82,93,6,-1,94,6,95,-1,95,6,93,-1,95,93,96,-1,96,93,97,-1,96,97,84,-1,84,97,98,-1,84,98,92,-1,99,100,101,-1,102,103,6,-1,101,102,99,-1,99,102,6,-1,99,6,104,-1,104,6,94,-1,104,94,105,-1,105,94,106,-1,107,108,109,-1,110,111,6,-1,109,110,107,-1,107,110,6,-1,107,6,112,-1,112,6,103,-1,112,103,113,-1,113,103,114,-1,4,115,116,-1,115,4,117,-1,117,4,6,-1,117,6,118,-1,118,6,111,-1,118,111,116,-1,116,111,119,-1,116,119,4,-1,120,121,122,-1,123,66,124,-1,125,43,126,-1,127,101,128,-1,129,105,130,-1,131,132,133,-1,134,84,135,-1,135,84,136,-1,135,136,137,-1,137,136,138,-1,134,139,84,-1,84,139,140,-1,84,140,96,-1,84,91,141,-1,142,143,136,-1,136,144,145,-1,146,147,148,-1,148,147,149,-1,148,149,150,-1,150,151,148,-1,148,151,152,-1,148,152,136,-1,136,152,153,-1,136,153,138,-1,142,136,154,-1,136,145,155,-1,155,145,156,-1,155,156,157,-1,158,155,159,-1,159,155,160,-1,158,161,155,-1,155,161,162,-1,155,162,121,-1,121,162,163,-1,121,163,122,-1,122,163,164,-1,122,164,165,-1,141,166,84,-1,84,166,167,-1,84,167,136,-1,136,167,168,-1,136,168,154,-1,133,132,169,-1,72,73,170,-1,170,73,171,-1,170,171,172,-1,172,171,159,-1,172,159,173,-1,173,159,160,-1,174,175,176,-1,176,175,177,-1,176,177,178,-1,179,136,180,-1,180,136,176,-1,181,182,144,-1,144,182,183,-1,144,183,184,-1,157,185,155,-1,155,185,186,-1,155,186,160,-1,187,136,188,-1,188,136,132,-1,143,189,136,-1,136,189,190,-1,136,190,132,-1,132,190,191,-1,132,191,169,-1,76,75,192,-1,192,75,193,-1,192,193,177,-1,177,193,194,-1,177,194,178,-1,179,195,136,-1,136,195,196,-1,136,196,144,-1,144,196,197,-1,144,197,181,-1,80,81,198,-1,198,81,199,-1,198,199,183,-1,183,199,200,-1,183,200,184,-1,88,87,201,-1,201,87,202,-1,201,202,133,-1,133,202,203,-1,133,203,131,-1,187,204,136,-1,136,204,205,-1,136,205,176,-1,176,205,206,-1,176,206,174,-1,207,208,209,-1,208,210,209,-1,209,210,211,-1,209,211,212,-1,213,214,148,-1,148,214,215,-1,148,215,216,-1,106,146,130,-1,130,146,148,-1,130,148,129,-1,129,148,216,-1,212,217,209,-1,209,217,218,-1,209,218,148,-1,148,218,219,-1,148,219,213,-1,220,221,222,-1,220,222,223,-1,223,222,224,-1,223,224,225,-1,225,226,223,-1,223,226,227,-1,223,227,228,-1,221,220,229,-1,229,220,230,-1,229,230,231,-1,232,233,230,-1,230,233,234,-1,230,234,231,-1,232,230,235,-1,235,230,236,-1,235,236,114,-1,4,237,238,-1,238,237,239,-1,238,239,240,-1,241,242,243,-1,119,244,4,-1,4,244,245,-1,4,245,237,-1,240,246,238,-1,238,246,247,-1,238,247,248,-1,249,250,230,-1,230,250,251,-1,243,252,253,-1,254,255,256,-1,256,255,257,-1,256,257,258,-1,259,260,258,-1,258,260,261,-1,258,261,256,-1,251,262,230,-1,230,262,263,-1,230,263,236,-1,236,263,264,-1,236,264,113,-1,252,265,266,-1,267,268,238,-1,248,254,238,-1,238,254,256,-1,238,256,230,-1,230,256,269,-1,230,269,249,-1,242,270,243,-1,243,270,271,-1,243,271,252,-1,252,271,272,-1,252,272,265,-1,267,238,273,-1,274,275,238,-1,238,275,276,-1,238,276,277,-1,109,108,278,-1,278,108,279,-1,278,279,258,-1,258,279,280,-1,258,280,259,-1,253,281,243,-1,243,281,282,-1,243,282,238,-1,238,282,283,-1,238,283,273,-1,284,285,286,-1,286,285,277,-1,285,287,277,-1,277,287,288,-1,277,288,238,-1,238,288,289,-1,238,289,290,-1,290,291,292,-1,292,291,293,-1,292,293,294,-1,18,4,295,-1,295,4,296,-1,297,30,31,-1,298,14,13,-1,299,238,300,-1,300,238,290,-1,300,290,301,-1,301,290,292,-1,31,302,297,-1,297,302,303,-1,297,303,266,-1,266,303,304,-1,266,304,252,-1,305,306,307,-1,307,306,308,-1,307,308,268,-1,268,308,309,-1,268,309,238,-1,238,309,310,-1,238,310,274,-1,294,311,292,-1,292,311,298,-1,292,298,312,-1,312,298,13,-1,299,313,238,-1,238,313,314,-1,238,314,315,-1,315,316,238,-1,238,316,317,-1,238,317,4,-1,4,317,318,-1,4,318,296,-1,23,22,319,-1,319,22,320,-1,319,320,307,-1,307,320,321,-1,307,321,305,-1,27,28,322,-1,322,28,323,-1,322,323,286,-1,286,323,324,-1,286,324,284,-1,325,326,327,-1,327,326,328,-1,329,330,328,-1,328,330,331,-1,332,333,334,-1,334,333,10,-1,335,336,337,-1,337,336,333,-1,337,333,331,-1,331,333,332,-1,332,338,331,-1,331,338,339,-1,331,339,328,-1,328,339,340,-1,328,340,327,-1,333,341,342,-1,342,343,333,-1,333,343,344,-1,333,344,345,-1,46,3,346,-1,346,3,333,-1,346,333,347,-1,347,333,345,-1,333,348,341,-1,341,348,349,-1,341,349,350,-1,350,349,351,-1,350,351,352,-1,353,354,351,-1,351,354,355,-1,351,355,352,-1,356,357,336,-1,336,357,358,-1,336,358,359,-1,359,360,336,-1,336,360,361,-1,336,361,333,-1,333,361,362,-1,333,362,348,-1,363,50,51,-1,364,37,336,-1,336,37,365,-1,336,365,356,-1,351,366,353,-1,353,366,363,-1,353,363,367,-1,367,363,51,-1,368,369,336,-1,368,336,370,-1,38,364,371,-1,371,364,336,-1,371,336,372,-1,372,336,369,-1,373,374,375,-1,374,376,375,-1,375,376,377,-1,375,377,378,-1,379,380,381,-1,382,383,384,-1,380,385,381,-1,381,385,386,-1,381,386,387,-1,57,388,382,-1,382,388,389,-1,382,389,383,-1,384,390,382,-1,382,390,391,-1,382,391,392,-1,393,394,124,-1,393,124,395,-1,394,396,124,-1,124,396,397,-1,124,397,398,-1,398,399,382,-1,382,399,400,-1,382,400,401,-1,57,382,402,-1,402,382,403,-1,402,403,58,-1,401,404,382,-1,382,404,405,-1,382,405,403,-1,54,61,124,-1,124,61,406,-1,124,406,395,-1,398,382,124,-1,124,382,407,-1,124,407,123,-1,408,409,410,-1,409,411,410,-1,410,411,412,-1,410,412,382,-1,382,412,413,-1,382,413,407,-1,120,122,414,-1,414,122,415,-1,414,415,416,-1,416,415,417,-1,416,417,418,-1,418,417,419,-1,418,419,420,-1,420,419,326,-1,420,326,243,-1,243,326,325,-1,243,325,241,-1,100,207,421,-1,421,207,209,-1,421,209,128,-1,128,209,223,-1,128,223,127,-1,127,223,228,-1,422,423,424,-1,424,423,425,-1,424,425,426,-1,422,427,428,-1,428,429,422,-1,422,429,430,-1,422,430,423,-1,423,430,431,-1,423,431,432,-1,432,431,433,-1,432,433,434,-1,434,435,432,-1,432,435,436,-1,432,436,437,-1,438,439,432,-1,432,439,440,-1,441,442,443,-1,443,442,444,-1,440,445,432,-1,432,445,444,-1,432,444,446,-1,446,444,442,-1,437,447,432,-1,432,447,448,-1,432,448,438,-1,449,450,328,-1,451,452,336,-1,336,452,453,-1,454,455,336,-1,336,455,456,-1,336,456,451,-1,457,458,422,-1,422,458,459,-1,422,459,427,-1,427,459,460,-1,427,460,461,-1,461,460,370,-1,461,370,462,-1,462,370,336,-1,462,336,463,-1,463,336,453,-1,450,464,328,-1,328,464,465,-1,328,465,466,-1,466,454,328,-1,328,454,336,-1,328,336,329,-1,329,336,335,-1,329,335,467,-1,468,469,419,-1,419,469,470,-1,419,470,326,-1,326,470,471,-1,326,471,328,-1,328,471,472,-1,328,472,449,-1,165,408,122,-1,122,408,410,-1,122,410,415,-1,415,410,473,-1,415,473,417,-1,417,473,474,-1,417,474,419,-1,419,474,424,-1,419,424,468,-1,468,424,426,-1,378,457,375,-1,375,457,422,-1,375,422,475,-1,475,476,375,-1,375,476,477,-1,375,477,474,-1,474,477,478,-1,474,478,424,-1,424,478,479,-1,424,479,422,-1,422,479,480,-1,422,480,475,-1,481,482,483,-1,483,482,477,-1,483,477,484,-1,484,477,476,-1,484,476,485,-1,485,476,486,-1,487,488,473,-1,473,488,489,-1,473,489,490,-1,491,381,375,-1,491,492,381,-1,381,492,493,-1,381,493,494,-1,494,495,381,-1,381,495,496,-1,381,496,497,-1,490,498,473,-1,473,498,499,-1,473,499,474,-1,474,499,500,-1,474,500,375,-1,375,500,501,-1,375,501,491,-1,497,502,381,-1,381,502,503,-1,381,503,473,-1,473,503,504,-1,473,504,487,-1,505,473,506,-1,506,473,410,-1,506,410,507,-1,507,410,382,-1,507,382,381,-1,381,382,392,-1,381,392,379,-1,508,509,505,-1,505,509,510,-1,505,510,473,-1,473,510,511,-1,473,511,381,-1,381,511,512,-1,381,512,507,-1,387,125,381,-1,381,125,126,-1,381,126,375,-1,375,126,513,-1,375,513,373,-1,373,513,44,-1,514,515,52,-1,52,515,516,-1,52,516,2,-1,2,516,517,-1,517,518,2,-1,2,518,519,-1,2,519,520,-1,521,522,82,-1,82,522,523,-1,82,523,524,-1,520,525,2,-1,2,525,526,-1,2,526,6,-1,6,526,527,-1,527,528,6,-1,6,528,529,-1,6,529,82,-1,82,529,530,-1,82,530,521,-1,531,532,52,-1,524,533,82,-1,82,533,534,-1,82,534,52,-1,52,534,535,-1,52,535,531,-1,532,536,52,-1,52,536,537,-1,52,537,514,-1,
        ]
    }
}
Shape{
    appearance Appearance {
        material  Material 	{
            diffuseColor 0.0 0.0 0.0
            specularColor 0.0 0.0 0.0
            ambientIntensity 0.0
            transparency 0.0
            shininess 0.5
        }
    }
    geometry IndexedFaceSet {
        ccw TRUE
        solid FALSE
        coord DEF co Coordinate {
            point [
                -0.4379 0.5067 0.3657, -0.4379 0.5067 0.3661, -0.4406 0.5273 0.3657, -0.4406 0.5273 0.3661, -0.4486 0.5465 0.3657, -0.4486 0.5465 0.3661, -0.4612 0.5629 0.3657, -0.4612 0.5629 0.3661, -0.4777 0.5756 0.3657, -0.4777 0.5756 0.3661, -0.4969 0.5835 0.3657, -0.4969 0.5835 0.3661, -0.5174 0.5862 0.3657, -0.5174 0.5862 0.3661, -0.538 0.5835 0.3657, -0.538 0.5835 0.3661, -0.5572 0.5756 0.3657, -0.5572 0.5756 0.3661, -0.5737 0.5629 0.3657, -0.5737 0.5629 0.3661, -0.5863 0.5465 0.3657, -0.5863 0.5465 0.3661, -0.5943 0.5273 0.3657, -0.5943 0.5273 0.3661, -0.597 0.5067 0.3657, -0.597 0.5067 0.3661, -0.5943 0.4861 0.3657, -0.5943 0.4861 0.3661, -0.5863 0.4669 0.3657, -0.5863 0.4669 0.3661, -0.5737 0.4504 0.3657, -0.5737 0.4504 0.3661, -0.5572 0.4378 0.3657, -0.5572 0.4378 0.3661, -0.538 0.4298 0.3657, -0.538 0.4298 0.3661, -0.5174 0.4271 0.3657, -0.5174 0.4271 0.3661, -0.4969 0.4298 0.3657, -0.4969 0.4298 0.3661, -0.4777 0.4378 0.3657, -0.4777 0.4378 0.3661, -0.4612 0.4504 0.3657, -0.4612 0.4504 0.3661, -0.4486 0.4669 0.3657, -0.4486 0.4669 0.3661, -0.4406 0.4861 0.3657, -0.4406 0.4861 0.3661, -0.5174 0.5067 0.3657
            ]
        }
        coordIndex [
            0,1,2,-1,2,1,3,-1,2,3,4,-1,4,3,5,-1,4,5,6,-1,6,5,7,-1,6,7,8,-1,8,7,9,-1,8,9,10,-1,10,9,11,-1,10,11,12,-1,12,11,13,-1,12,13,14,-1,14,13,15,-1,14,15,16,-1,16,15,17,-1,16,17,18,-1,18,17,19,-1,18,19,20,-1,20,19,21,-1,20,21,22,-1,22,21,23,-1,22,23,24,-1,24,23,25,-1,24,25,26,-1,26,25,27,-1,26,27,28,-1,28,27,29,-1,28,29,30,-1,30,29,31,-1,30,31,32,-1,32,31,33,-1,32,33,34,-1,34,33,35,-1,34,35,36,-1,36,35,37,-1,36,37,38,-1,38,37,39,-1,38,39,40,-1,40,39,41,-1,40,41,42,-1,42,41,43,-1,42,43,44,-1,44,43,45,-1,44,45,46,-1,46,45,47,-1,46,47,0,-1,0,47,1,-1,44,46,48,-1,48,46,0,-1,48,0,2,-1,38,40,48,-1,48,40,42,-1,48,42,44,-1,32,34,48,-1,48,34,36,-1,48,36,38,-1,26,28,48,-1,48,28,30,-1,48,30,32,-1,20,22,48,-1,48,22,24,-1,48,24,26,-1,14,16,48,-1,48,16,18,-1,48,18,20,-1,8,10,48,-1,48,10,12,-1,48,12,14,-1,2,4,48,-1,48,4,6,-1,48,6,8,-1,
        ]
    }
}
Shape{
    appearance Appearance {
        material  Material 	{
            diffuseColor 1.0 1.0 1.0
            specularColor 0.5019607843137255 0.5019607843137255 0.5019607843137255
            ambientIntensity 1.0
            transparency 0.0
            shininess 0.5
        }
    }
    geometry IndexedFaceSet {
        ccw TRUE
        solid FALSE
        coord DEF co Coordinate {
            point [
                -0.0473 -0.6929 0.0512, 0.0472 -0.6929 0.0512, -0.0473 -0.6889 0.0512, 0.0472 -0.6889 0.0512, 0.0472 -0.5787 0.0118, 0.0472 -0.5787 0.0, 0.0456 -0.5665 0.0, 0.0456 -0.5665 0.0118, 0.0409 -0.5551 0.0, 0.0409 -0.5551 0.0118, 0.0334 -0.5453 0.0, 0.0334 -0.5453 0.0118, 0.0236 -0.5378 0.0, 0.0236 -0.5378 0.0118, 0.0122 -0.5331 0.0, 0.0122 -0.5331 0.0118, -0.0 -0.5315 0.0, -0.0 -0.5315 0.0118, -0.0123 -0.5331 0.0, -0.0123 -0.5331 0.0118, -0.0237 -0.5378 0.0, -0.0237 -0.5378 0.0118, -0.0334 -0.5453 0.0, -0.0334 -0.5453 0.0118, -0.041 -0.5551 0.0, -0.041 -0.5551 0.0118, -0.0457 -0.5665 0.0, -0.0457 -0.5665 0.0118, -0.0473 -0.5787 0.0, -0.0473 -0.5787 0.0118, -0.0473 -0.6889 0.0118, -0.0473 -0.6929 0.0, 0.0472 -0.6889 0.0118, 0.0472 -0.6929 0.0, -0.2441 -0.6929 0.0512, -0.1496 -0.6929 0.0512, -0.2441 -0.6889 0.0512, -0.1496 -0.6889 0.0512, -0.1496 -0.5787 0.0118, -0.1496 -0.5787 0.0, -0.1513 -0.5665 0.0, -0.1513 -0.5665 0.0118, -0.156 -0.5551 0.0, -0.156 -0.5551 0.0118, -0.1635 -0.5453 0.0, -0.1635 -0.5453 0.0118, -0.1733 -0.5378 0.0, -0.1733 -0.5378 0.0118, -0.1847 -0.5331 0.0, -0.1847 -0.5331 0.0118, -0.1969 -0.5315 0.0, -0.1969 -0.5315 0.0118, -0.2091 -0.5331 0.0, -0.2091 -0.5331 0.0118, -0.2205 -0.5378 0.0, -0.2205 -0.5378 0.0118, -0.2303 -0.5453 0.0, -0.2303 -0.5453 0.0118, -0.2378 -0.5551 0.0, -0.2378 -0.5551 0.0118, -0.2425 -0.5665 0.0, -0.2425 -0.5665 0.0118, -0.2441 -0.5787 0.0, -0.2441 -0.5787 0.0118, -0.2441 -0.6889 0.0118, -0.2441 -0.6929 0.0, -0.1496 -0.6889 0.0118, -0.1496 -0.6929 0.0, -0.441 -0.6929 0.0512, -0.3465 -0.6929 0.0512, -0.441 -0.6889 0.0512, -0.3465 -0.6889 0.0512, -0.3465 -0.5787 0.0118, -0.3465 -0.5787 0.0, -0.3481 -0.5665 0.0, -0.3481 -0.5665 0.0118, -0.3528 -0.5551 0.0, -0.3528 -0.5551 0.0118, -0.3603 -0.5453 0.0, -0.3603 -0.5453 0.0118, -0.3701 -0.5378 0.0, -0.3701 -0.5378 0.0118, -0.3815 -0.5331 0.0, -0.3815 -0.5331 0.0118, -0.3937 -0.5315 0.0, -0.3937 -0.5315 0.0118, -0.406 -0.5331 0.0, -0.406 -0.5331 0.0118, -0.4174 -0.5378 0.0, -0.4174 -0.5378 0.0118, -0.4271 -0.5453 0.0, -0.4271 -0.5453 0.0118, -0.4347 -0.5551 0.0, -0.4347 -0.5551 0.0118, -0.4394 -0.5665 0.0, -0.4394 -0.5665 0.0118, -0.441 -0.5787 0.0, -0.441 -0.5787 0.0118, -0.441 -0.6889 0.0118, -0.441 -0.6929 0.0, -0.3465 -0.6889 0.0118, -0.3465 -0.6929 0.0, 0.3464 -0.6889 0.0512, 0.3464 -0.6929 0.0512, 0.4409 -0.6889 0.0512, 0.4409 -0.6929 0.0512, 0.4409 -0.5787 0.0118, 0.4409 -0.5787 0.0, 0.4393 -0.5665 0.0, 0.4393 -0.5665 0.0118, 0.4346 -0.5551 0.0, 0.4346 -0.5551 0.0118, 0.4271 -0.5453 0.0, 0.4271 -0.5453 0.0118, 0.4173 -0.5378 0.0, 0.4173 -0.5378 0.0118, 0.4059 -0.5331 0.0, 0.4059 -0.5331 0.0118, 0.3937 -0.5315 0.0, 0.3937 -0.5315 0.0118, 0.3814 -0.5331 0.0, 0.3814 -0.5331 0.0118, 0.37 -0.5378 0.0, 0.37 -0.5378 0.0118, 0.3603 -0.5453 0.0, 0.3603 -0.5453 0.0118, 0.3527 -0.5551 0.0, 0.3527 -0.5551 0.0118, 0.348 -0.5665 0.0, 0.348 -0.5665 0.0118, 0.3464 -0.5787 0.0, 0.3464 -0.5787 0.0118, 0.3464 -0.6889 0.0118, 0.3464 -0.6929 0.0, 0.4409 -0.6889 0.0118, 0.4409 -0.6929 0.0, 0.1496 -0.6889 0.0512, 0.1496 -0.6929 0.0512, 0.2441 -0.6889 0.0512, 0.2441 -0.6929 0.0512, 0.2441 -0.5787 0.0118, 0.2441 -0.5787 0.0, 0.2424 -0.5665 0.0, 0.2424 -0.5665 0.0118, 0.2377 -0.5551 0.0, 0.2377 -0.5551 0.0118, 0.2302 -0.5453 0.0, 0.2302 -0.5453 0.0118, 0.2204 -0.5378 0.0, 0.2204 -0.5378 0.0118, 0.209 -0.5331 0.0, 0.209 -0.5331 0.0118, 0.1968 -0.5315 0.0, 0.1968 -0.5315 0.0118, 0.1846 -0.5331 0.0, 0.1846 -0.5331 0.0118, 0.1732 -0.5378 0.0, 0.1732 -0.5378 0.0118, 0.1634 -0.5453 0.0, 0.1634 -0.5453 0.0118, 0.1559 -0.5551 0.0, 0.1559 -0.5551 0.0118, 0.1512 -0.5665 0.0, 0.1512 -0.5665 0.0118, 0.1496 -0.5787 0.0, 0.1496 -0.5787 0.0118, 0.1496 -0.6889 0.0118, 0.1496 -0.6929 0.0, 0.2441 -0.6889 0.0118, 0.2441 -0.6929 0.0, 0.6929 -0.0472 0.0512, 0.6929 0.0473 0.0512, 0.6889 -0.0472 0.0512, 0.6889 0.0473 0.0512, 0.5787 0.0473 0.0118, 0.5787 0.0473 0.0, 0.5665 0.0457 0.0, 0.5665 0.0457 0.0118, 0.5551 0.041 0.0, 0.5551 0.041 0.0118, 0.5453 0.0334 0.0, 0.5453 0.0334 0.0118, 0.5378 0.0237 0.0, 0.5378 0.0237 0.0118, 0.5331 0.0123 0.0, 0.5331 0.0123 0.0118, 0.5315 0.0 0.0, 0.5315 0.0 0.0118, 0.5331 -0.0122 0.0, 0.5331 -0.0122 0.0118, 0.5378 -0.0236 0.0, 0.5378 -0.0236 0.0118, 0.5453 -0.0334 0.0, 0.5453 -0.0334 0.0118, 0.5551 -0.0409 0.0, 0.5551 -0.0409 0.0118, 0.5665 -0.0456 0.0, 0.5665 -0.0456 0.0118, 0.5787 -0.0472 0.0, 0.5787 -0.0472 0.0118, 0.6889 -0.0472 0.0118, 0.6929 -0.0472 0.0, 0.6889 0.0473 0.0118, 0.6929 0.0473 0.0, 0.6929 -0.2441 0.0512, 0.6929 -0.1496 0.0512, 0.6889 -0.2441 0.0512, 0.6889 -0.1496 0.0512, 0.5787 -0.1496 0.0118, 0.5787 -0.1496 0.0, 0.5665 -0.1512 0.0, 0.5665 -0.1512 0.0118, 0.5551 -0.1559 0.0, 0.5551 -0.1559 0.0118, 0.5453 -0.1634 0.0, 0.5453 -0.1634 0.0118, 0.5378 -0.1732 0.0, 0.5378 -0.1732 0.0118, 0.5331 -0.1846 0.0, 0.5331 -0.1846 0.0118, 0.5315 -0.1968 0.0, 0.5315 -0.1968 0.0118, 0.5331 -0.209 0.0, 0.5331 -0.209 0.0118, 0.5378 -0.2204 0.0, 0.5378 -0.2204 0.0118, 0.5453 -0.2302 0.0, 0.5453 -0.2302 0.0118, 0.5551 -0.2377 0.0, 0.5551 -0.2377 0.0118, 0.5665 -0.2424 0.0, 0.5665 -0.2424 0.0118, 0.5787 -0.2441 0.0, 0.5787 -0.2441 0.0118, 0.6889 -0.2441 0.0118, 0.6929 -0.2441 0.0, 0.6889 -0.1496 0.0118, 0.6929 -0.1496 0.0, 0.6929 -0.4409 0.0512, 0.6929 -0.3464 0.0512, 0.6889 -0.4409 0.0512, 0.6889 -0.3464 0.0512, 0.5787 -0.3464 0.0118, 0.5787 -0.3464 0.0, 0.5665 -0.348 0.0, 0.5665 -0.348 0.0118, 0.5551 -0.3527 0.0, 0.5551 -0.3527 0.0118, 0.5453 -0.3603 0.0, 0.5453 -0.3603 0.0118, 0.5378 -0.37 0.0, 0.5378 -0.37 0.0118, 0.5331 -0.3814 0.0, 0.5331 -0.3814 0.0118, 0.5315 -0.3937 0.0, 0.5315 -0.3937 0.0118, 0.5331 -0.4059 0.0, 0.5331 -0.4059 0.0118, 0.5378 -0.4173 0.0, 0.5378 -0.4173 0.0118, 0.5453 -0.4271 0.0, 0.5453 -0.4271 0.0118, 0.5551 -0.4346 0.0, 0.5551 -0.4346 0.0118, 0.5665 -0.4393 0.0, 0.5665 -0.4393 0.0118, 0.5787 -0.4409 0.0, 0.5787 -0.4409 0.0118, 0.6889 -0.4409 0.0118, 0.6929 -0.4409 0.0, 0.6889 -0.3464 0.0118, 0.6929 -0.3464 0.0, 0.6889 0.3465 0.0512, 0.6929 0.3465 0.0512, 0.6889 0.441 0.0512, 0.6929 0.441 0.0512, 0.5787 0.441 0.0118, 0.5787 0.441 0.0, 0.5665 0.4394 0.0, 0.5665 0.4394 0.0118, 0.5551 0.4347 0.0, 0.5551 0.4347 0.0118, 0.5453 0.4271 0.0, 0.5453 0.4271 0.0118, 0.5378 0.4174 0.0, 0.5378 0.4174 0.0118, 0.5331 0.406 0.0, 0.5331 0.406 0.0118, 0.5315 0.3937 0.0, 0.5315 0.3937 0.0118, 0.5331 0.3815 0.0, 0.5331 0.3815 0.0118, 0.5378 0.3701 0.0, 0.5378 0.3701 0.0118, 0.5453 0.3603 0.0, 0.5453 0.3603 0.0118, 0.5551 0.3528 0.0, 0.5551 0.3528 0.0118, 0.5665 0.3481 0.0, 0.5665 0.3481 0.0118, 0.5787 0.3465 0.0, 0.5787 0.3465 0.0118, 0.6889 0.3465 0.0118, 0.6929 0.3465 0.0, 0.6889 0.441 0.0118, 0.6929 0.441 0.0, 0.6889 0.1496 0.0512, 0.6929 0.1496 0.0512, 0.6889 0.2441 0.0512, 0.6929 0.2441 0.0512, 0.5787 0.2441 0.0118, 0.5787 0.2441 0.0, 0.5665 0.2425 0.0, 0.5665 0.2425 0.0118, 0.5551 0.2378 0.0, 0.5551 0.2378 0.0118, 0.5453 0.2303 0.0, 0.5453 0.2303 0.0118, 0.5378 0.2205 0.0, 0.5378 0.2205 0.0118, 0.5331 0.2091 0.0, 0.5331 0.2091 0.0118, 0.5315 0.1969 0.0, 0.5315 0.1969 0.0118, 0.5331 0.1847 0.0, 0.5331 0.1847 0.0118, 0.5378 0.1733 0.0, 0.5378 0.1733 0.0118, 0.5453 0.1635 0.0, 0.5453 0.1635 0.0118, 0.5551 0.156 0.0, 0.5551 0.156 0.0118, 0.5665 0.1513 0.0, 0.5665 0.1513 0.0118, 0.5787 0.1496 0.0, 0.5787 0.1496 0.0118, 0.6889 0.1496 0.0118, 0.6929 0.1496 0.0, 0.6889 0.2441 0.0118, 0.6929 0.2441 0.0, 0.0472 0.693 0.0512, -0.0473 0.693 0.0512, 0.0472 0.689 0.0512, -0.0473 0.689 0.0512, -0.0473 0.5788 0.0118, -0.0473 0.5788 0.0, -0.0457 0.5666 0.0, -0.0457 0.5666 0.0118, -0.041 0.5552 0.0, -0.041 0.5552 0.0118, -0.0334 0.5454 0.0, -0.0334 0.5454 0.0118, -0.0237 0.5379 0.0, -0.0237 0.5379 0.0118, -0.0123 0.5331 0.0, -0.0123 0.5331 0.0118, -0.0 0.5315 0.0, -0.0 0.5315 0.0118, 0.0122 0.5331 0.0, 0.0122 0.5331 0.0118, 0.0236 0.5379 0.0, 0.0236 0.5379 0.0118, 0.0334 0.5454 0.0, 0.0334 0.5454 0.0118, 0.0409 0.5552 0.0, 0.0409 0.5552 0.0118, 0.0456 0.5666 0.0, 0.0456 0.5666 0.0118, 0.0472 0.5788 0.0, 0.0472 0.5788 0.0118, 0.0472 0.689 0.0118, 0.0472 0.693 0.0, -0.0473 0.689 0.0118, -0.0473 0.693 0.0, 0.2441 0.693 0.0512, 0.1496 0.693 0.0512, 0.2441 0.689 0.0512, 0.1496 0.689 0.0512, 0.1496 0.5788 0.0118, 0.1496 0.5788 0.0, 0.1512 0.5666 0.0, 0.1512 0.5666 0.0118, 0.1559 0.5552 0.0, 0.1559 0.5552 0.0118, 0.1634 0.5454 0.0, 0.1634 0.5454 0.0118, 0.1732 0.5379 0.0, 0.1732 0.5379 0.0118, 0.1846 0.5331 0.0, 0.1846 0.5331 0.0118, 0.1968 0.5315 0.0, 0.1968 0.5315 0.0118, 0.209 0.5331 0.0, 0.209 0.5331 0.0118, 0.2204 0.5379 0.0, 0.2204 0.5379 0.0118, 0.2302 0.5454 0.0, 0.2302 0.5454 0.0118, 0.2377 0.5552 0.0, 0.2377 0.5552 0.0118, 0.2424 0.5666 0.0, 0.2424 0.5666 0.0118, 0.2441 0.5788 0.0, 0.2441 0.5788 0.0118, 0.2441 0.689 0.0118, 0.2441 0.693 0.0, 0.1496 0.689 0.0118, 0.1496 0.693 0.0, 0.4409 0.693 0.0512, 0.3464 0.693 0.0512, 0.4409 0.689 0.0512, 0.3464 0.689 0.0512, 0.3464 0.5788 0.0118, 0.3464 0.5788 0.0, 0.348 0.5666 0.0, 0.348 0.5666 0.0118, 0.3527 0.5552 0.0, 0.3527 0.5552 0.0118, 0.3603 0.5454 0.0, 0.3603 0.5454 0.0118, 0.37 0.5379 0.0, 0.37 0.5379 0.0118, 0.3814 0.5331 0.0, 0.3814 0.5331 0.0118, 0.3937 0.5315 0.0, 0.3937 0.5315 0.0118, 0.4059 0.5331 0.0, 0.4059 0.5331 0.0118, 0.4173 0.5379 0.0, 0.4173 0.5379 0.0118, 0.4271 0.5454 0.0, 0.4271 0.5454 0.0118, 0.4346 0.5552 0.0, 0.4346 0.5552 0.0118, 0.4393 0.5666 0.0, 0.4393 0.5666 0.0118, 0.4409 0.5788 0.0, 0.4409 0.5788 0.0118, 0.4409 0.689 0.0118, 0.4409 0.693 0.0, 0.3464 0.689 0.0118, 0.3464 0.693 0.0, -0.3465 0.689 0.0512, -0.3465 0.693 0.0512, -0.441 0.689 0.0512, -0.441 0.693 0.0512, -0.441 0.5788 0.0118, -0.441 0.5788 0.0, -0.4394 0.5666 0.0, -0.4394 0.5666 0.0118, -0.4347 0.5552 0.0, -0.4347 0.5552 0.0118, -0.4271 0.5454 0.0, -0.4271 0.5454 0.0118, -0.4174 0.5379 0.0, -0.4174 0.5379 0.0118, -0.406 0.5331 0.0, -0.406 0.5331 0.0118, -0.3937 0.5315 0.0, -0.3937 0.5315 0.0118, -0.3815 0.5331 0.0, -0.3815 0.5331 0.0118, -0.3701 0.5379 0.0, -0.3701 0.5379 0.0118, -0.3603 0.5454 0.0, -0.3603 0.5454 0.0118, -0.3528 0.5552 0.0, -0.3528 0.5552 0.0118, -0.3481 0.5666 0.0, -0.3481 0.5666 0.0118, -0.3465 0.5788 0.0, -0.3465 0.5788 0.0118, -0.3465 0.689 0.0118, -0.3465 0.693 0.0, -0.441 0.689 0.0118, -0.441 0.693 0.0, -0.1496 0.689 0.0512, -0.1496 0.693 0.0512, -0.2441 0.689 0.0512, -0.2441 0.693 0.0512, -0.2441 0.5788 0.0118, -0.2441 0.5788 0.0, -0.2425 0.5666 0.0, -0.2425 0.5666 0.0118, -0.2378 0.5552 0.0, -0.2378 0.5552 0.0118, -0.2303 0.5454 0.0, -0.2303 0.5454 0.0118, -0.2205 0.5379 0.0, -0.2205 0.5379 0.0118, -0.2091 0.5331 0.0, -0.2091 0.5331 0.0118, -0.1969 0.5315 0.0, -0.1969 0.5315 0.0118, -0.1847 0.5331 0.0, -0.1847 0.5331 0.0118, -0.1733 0.5379 0.0, -0.1733 0.5379 0.0118, -0.1635 0.5454 0.0, -0.1635 0.5454 0.0118, -0.156 0.5552 0.0, -0.156 0.5552 0.0118, -0.1513 0.5666 0.0, -0.1513 0.5666 0.0118, -0.1496 0.5788 0.0, -0.1496 0.5788 0.0118, -0.1496 0.689 0.0118, -0.1496 0.693 0.0, -0.2441 0.689 0.0118, -0.2441 0.693 0.0, -0.693 0.0473 0.0512, -0.693 -0.0472 0.0512, -0.689 0.0473 0.0512, -0.689 -0.0472 0.0512, -0.5788 -0.0472 0.0118, -0.5788 -0.0472 0.0, -0.5666 -0.0456 0.0, -0.5666 -0.0456 0.0118, -0.5552 -0.0409 0.0, -0.5552 -0.0409 0.0118, -0.5454 -0.0334 0.0, -0.5454 -0.0334 0.0118, -0.5379 -0.0236 0.0, -0.5379 -0.0236 0.0118, -0.5331 -0.0122 0.0, -0.5331 -0.0122 0.0118, -0.5315 0.0 0.0, -0.5315 0.0 0.0118, -0.5331 0.0123 0.0, -0.5331 0.0123 0.0118, -0.5379 0.0237 0.0, -0.5379 0.0237 0.0118, -0.5454 0.0334 0.0, -0.5454 0.0334 0.0118, -0.5552 0.041 0.0, -0.5552 0.041 0.0118, -0.5666 0.0457 0.0, -0.5666 0.0457 0.0118, -0.5788 0.0473 0.0, -0.5788 0.0473 0.0118, -0.689 0.0473 0.0118, -0.693 0.0473 0.0, -0.689 -0.0472 0.0118, -0.693 -0.0472 0.0, -0.693 0.2441 0.0512, -0.693 0.1496 0.0512, -0.689 0.2441 0.0512, -0.689 0.1496 0.0512, -0.5788 0.1496 0.0118, -0.5788 0.1496 0.0, -0.5666 0.1513 0.0, -0.5666 0.1513 0.0118, -0.5552 0.156 0.0, -0.5552 0.156 0.0118, -0.5454 0.1635 0.0, -0.5454 0.1635 0.0118, -0.5379 0.1733 0.0, -0.5379 0.1733 0.0118, -0.5331 0.1847 0.0, -0.5331 0.1847 0.0118, -0.5315 0.1969 0.0, -0.5315 0.1969 0.0118, -0.5331 0.2091 0.0, -0.5331 0.2091 0.0118, -0.5379 0.2205 0.0, -0.5379 0.2205 0.0118, -0.5454 0.2303 0.0, -0.5454 0.2303 0.0118, -0.5552 0.2378 0.0, -0.5552 0.2378 0.0118, -0.5666 0.2425 0.0, -0.5666 0.2425 0.0118, -0.5788 0.2441 0.0, -0.5788 0.2441 0.0118, -0.689 0.2441 0.0118, -0.693 0.2441 0.0, -0.689 0.1496 0.0118, -0.693 0.1496 0.0, -0.693 0.441 0.0512, -0.693 0.3465 0.0512, -0.689 0.441 0.0512, -0.689 0.3465 0.0512, -0.5788 0.3465 0.0118, -0.5788 0.3465 0.0, -0.5666 0.3481 0.0, -0.5666 0.3481 0.0118, -0.5552 0.3528 0.0, -0.5552 0.3528 0.0118, -0.5454 0.3603 0.0, -0.5454 0.3603 0.0118, -0.5379 0.3701 0.0, -0.5379 0.3701 0.0118, -0.5331 0.3815 0.0, -0.5331 0.3815 0.0118, -0.5315 0.3937 0.0, -0.5315 0.3937 0.0118, -0.5331 0.406 0.0, -0.5331 0.406 0.0118, -0.5379 0.4174 0.0, -0.5379 0.4174 0.0118, -0.5454 0.4271 0.0, -0.5454 0.4271 0.0118, -0.5552 0.4347 0.0, -0.5552 0.4347 0.0118, -0.5666 0.4394 0.0, -0.5666 0.4394 0.0118, -0.5788 0.441 0.0, -0.5788 0.441 0.0118, -0.689 0.441 0.0118, -0.693 0.441 0.0, -0.689 0.3465 0.0118, -0.693 0.3465 0.0, -0.689 -0.3464 0.0512, -0.693 -0.3464 0.0512, -0.689 -0.4409 0.0512, -0.693 -0.4409 0.0512, -0.5788 -0.4409 0.0118, -0.5788 -0.4409 0.0, -0.5666 -0.4393 0.0, -0.5666 -0.4393 0.0118, -0.5552 -0.4346 0.0, -0.5552 -0.4346 0.0118, -0.5454 -0.4271 0.0, -0.5454 -0.4271 0.0118, -0.5379 -0.4173 0.0, -0.5379 -0.4173 0.0118, -0.5331 -0.4059 0.0, -0.5331 -0.4059 0.0118, -0.5315 -0.3937 0.0, -0.5315 -0.3937 0.0118, -0.5331 -0.3814 0.0, -0.5331 -0.3814 0.0118, -0.5379 -0.37 0.0, -0.5379 -0.37 0.0118, -0.5454 -0.3603 0.0, -0.5454 -0.3603 0.0118, -0.5552 -0.3527 0.0, -0.5552 -0.3527 0.0118, -0.5666 -0.348 0.0, -0.5666 -0.348 0.0118, -0.5788 -0.3464 0.0, -0.5788 -0.3464 0.0118, -0.689 -0.3464 0.0118, -0.693 -0.3464 0.0, -0.689 -0.4409 0.0118, -0.693 -0.4409 0.0, -0.689 -0.1496 0.0512, -0.693 -0.1496 0.0512, -0.689 -0.2441 0.0512, -0.693 -0.2441 0.0512, -0.5788 -0.2441 0.0118, -0.5788 -0.2441 0.0, -0.5666 -0.2424 0.0, -0.5666 -0.2424 0.0118, -0.5552 -0.2377 0.0, -0.5552 -0.2377 0.0118, -0.5454 -0.2302 0.0, -0.5454 -0.2302 0.0118, -0.5379 -0.2204 0.0, -0.5379 -0.2204 0.0118, -0.5331 -0.209 0.0, -0.5331 -0.209 0.0118, -0.5315 -0.1968 0.0, -0.5315 -0.1968 0.0118, -0.5331 -0.1846 0.0, -0.5331 -0.1846 0.0118, -0.5379 -0.1732 0.0, -0.5379 -0.1732 0.0118, -0.5454 -0.1634 0.0, -0.5454 -0.1634 0.0118, -0.5552 -0.1559 0.0, -0.5552 -0.1559 0.0118, -0.5666 -0.1512 0.0, -0.5666 -0.1512 0.0118, -0.5788 -0.1496 0.0, -0.5788 -0.1496 0.0118, -0.689 -0.1496 0.0118, -0.693 -0.1496 0.0, -0.689 -0.2441 0.0118, -0.693 -0.2441 0.0, -0.3937 0.2756 0.0, -0.3937 -0.3937 0.0, -0.3937 0.2756 0.0118, -0.3937 -0.3937 0.0118, -0.2756 0.3937 0.0, -0.2756 0.3937 0.0118, 0.3937 0.3937 0.0, 0.3937 0.3937 0.0118, 0.3937 -0.3937 0.0, 0.3937 -0.3937 0.0118
            ]
        }
        coordIndex [
            0,1,2,-1,2,1,3,-1,4,5,6,-1,4,6,7,-1,7,6,8,-1,7,8,9,-1,9,8,10,-1,9,10,11,-1,11,10,12,-1,11,12,13,-1,13,12,14,-1,13,14,15,-1,15,14,16,-1,15,16,17,-1,17,16,18,-1,17,18,19,-1,19,18,20,-1,19,20,21,-1,21,20,22,-1,21,22,23,-1,23,22,24,-1,23,24,25,-1,25,24,26,-1,25,26,27,-1,27,26,28,-1,27,28,29,-1,29,28,30,-1,30,28,31,-1,30,31,2,-1,2,31,0,-1,3,1,32,-1,32,1,33,-1,32,33,4,-1,4,33,5,-1,33,1,31,-1,31,1,0,-1,5,33,31,-1,31,28,5,-1,5,28,26,-1,5,26,24,-1,24,22,5,-1,5,22,20,-1,5,20,18,-1,8,14,10,-1,10,14,12,-1,18,16,5,-1,5,16,14,-1,5,14,6,-1,6,14,8,-1,34,35,36,-1,36,35,37,-1,38,39,40,-1,38,40,41,-1,41,40,42,-1,41,42,43,-1,43,42,44,-1,43,44,45,-1,45,44,46,-1,45,46,47,-1,47,46,48,-1,47,48,49,-1,49,48,50,-1,49,50,51,-1,51,50,52,-1,51,52,53,-1,53,52,54,-1,53,54,55,-1,55,54,56,-1,55,56,57,-1,57,56,58,-1,57,58,59,-1,59,58,60,-1,59,60,61,-1,61,60,62,-1,61,62,63,-1,63,62,64,-1,64,62,65,-1,64,65,36,-1,36,65,34,-1,37,35,66,-1,66,35,67,-1,66,67,38,-1,38,67,39,-1,67,35,65,-1,65,35,34,-1,54,52,50,-1,48,62,50,-1,50,62,60,-1,60,58,50,-1,50,58,56,-1,50,56,54,-1,48,46,62,-1,62,46,44,-1,62,44,42,-1,67,65,39,-1,39,65,62,-1,39,62,40,-1,40,62,42,-1,68,69,70,-1,70,69,71,-1,72,73,74,-1,72,74,75,-1,75,74,76,-1,75,76,77,-1,77,76,78,-1,77,78,79,-1,79,78,80,-1,79,80,81,-1,81,80,82,-1,81,82,83,-1,83,82,84,-1,83,84,85,-1,85,84,86,-1,85,86,87,-1,87,86,88,-1,87,88,89,-1,89,88,90,-1,89,90,91,-1,91,90,92,-1,91,92,93,-1,93,92,94,-1,93,94,95,-1,95,94,96,-1,95,96,97,-1,97,96,98,-1,98,96,99,-1,98,99,70,-1,70,99,68,-1,71,69,100,-1,100,69,101,-1,100,101,72,-1,72,101,73,-1,101,69,99,-1,99,69,68,-1,82,96,94,-1,82,80,96,-1,96,80,78,-1,96,78,76,-1,101,99,73,-1,73,99,96,-1,73,96,74,-1,74,96,76,-1,90,88,92,-1,92,88,86,-1,92,86,94,-1,94,86,84,-1,94,84,82,-1,102,103,104,-1,104,103,105,-1,106,107,108,-1,106,108,109,-1,109,108,110,-1,109,110,111,-1,111,110,112,-1,111,112,113,-1,113,112,114,-1,113,114,115,-1,115,114,116,-1,115,116,117,-1,117,116,118,-1,117,118,119,-1,119,118,120,-1,119,120,121,-1,121,120,122,-1,121,122,123,-1,123,122,124,-1,123,124,125,-1,125,124,126,-1,125,126,127,-1,127,126,128,-1,127,128,129,-1,129,128,130,-1,129,130,131,-1,131,130,132,-1,132,130,133,-1,132,133,102,-1,102,133,103,-1,104,105,134,-1,134,105,135,-1,134,135,106,-1,106,135,107,-1,135,105,133,-1,133,105,103,-1,107,135,133,-1,133,130,107,-1,107,130,128,-1,107,128,126,-1,126,124,107,-1,107,124,122,-1,107,122,120,-1,112,110,114,-1,114,110,116,-1,120,118,107,-1,107,118,116,-1,107,116,108,-1,108,116,110,-1,136,137,138,-1,138,137,139,-1,140,141,142,-1,140,142,143,-1,143,142,144,-1,143,144,145,-1,145,144,146,-1,145,146,147,-1,147,146,148,-1,147,148,149,-1,149,148,150,-1,149,150,151,-1,151,150,152,-1,151,152,153,-1,153,152,154,-1,153,154,155,-1,155,154,156,-1,155,156,157,-1,157,156,158,-1,157,158,159,-1,159,158,160,-1,159,160,161,-1,161,160,162,-1,161,162,163,-1,163,162,164,-1,163,164,165,-1,165,164,166,-1,166,164,167,-1,166,167,136,-1,136,167,137,-1,138,139,168,-1,168,139,169,-1,168,169,140,-1,140,169,141,-1,169,139,167,-1,167,139,137,-1,156,154,152,-1,150,164,152,-1,152,164,162,-1,162,160,152,-1,152,160,158,-1,152,158,156,-1,150,148,164,-1,164,148,146,-1,164,146,144,-1,169,167,141,-1,141,167,164,-1,141,164,142,-1,142,164,144,-1,170,171,172,-1,172,171,173,-1,174,175,176,-1,174,176,177,-1,177,176,178,-1,177,178,179,-1,179,178,180,-1,179,180,181,-1,181,180,182,-1,181,182,183,-1,183,182,184,-1,183,184,185,-1,185,184,186,-1,185,186,187,-1,187,186,188,-1,187,188,189,-1,189,188,190,-1,189,190,191,-1,191,190,192,-1,191,192,193,-1,193,192,194,-1,193,194,195,-1,195,194,196,-1,195,196,197,-1,197,196,198,-1,197,198,199,-1,199,198,200,-1,200,198,201,-1,200,201,172,-1,172,201,170,-1,173,171,202,-1,202,171,203,-1,202,203,174,-1,174,203,175,-1,203,171,201,-1,201,171,170,-1,203,201,175,-1,175,201,198,-1,175,198,196,-1,196,194,175,-1,175,194,192,-1,175,192,190,-1,190,188,175,-1,175,188,186,-1,175,186,184,-1,184,182,175,-1,175,182,180,-1,175,180,176,-1,176,180,178,-1,204,205,206,-1,206,205,207,-1,208,209,210,-1,208,210,211,-1,211,210,212,-1,211,212,213,-1,213,212,214,-1,213,214,215,-1,215,214,216,-1,215,216,217,-1,217,216,218,-1,217,218,219,-1,219,218,220,-1,219,220,221,-1,221,220,222,-1,221,222,223,-1,223,222,224,-1,223,224,225,-1,225,224,226,-1,225,226,227,-1,227,226,228,-1,227,228,229,-1,229,228,230,-1,229,230,231,-1,231,230,232,-1,231,232,233,-1,233,232,234,-1,234,232,235,-1,234,235,206,-1,206,235,204,-1,207,205,236,-1,236,205,237,-1,236,237,208,-1,208,237,209,-1,237,205,235,-1,235,205,204,-1,209,237,235,-1,222,220,209,-1,209,220,218,-1,209,218,216,-1,235,232,209,-1,209,232,230,-1,209,230,228,-1,228,226,209,-1,209,226,224,-1,209,224,222,-1,214,212,216,-1,216,212,210,-1,216,210,209,-1,238,239,240,-1,240,239,241,-1,242,243,244,-1,242,244,245,-1,245,244,246,-1,245,246,247,-1,247,246,248,-1,247,248,249,-1,249,248,250,-1,249,250,251,-1,251,250,252,-1,251,252,253,-1,253,252,254,-1,253,254,255,-1,255,254,256,-1,255,256,257,-1,257,256,258,-1,257,258,259,-1,259,258,260,-1,259,260,261,-1,261,260,262,-1,261,262,263,-1,263,262,264,-1,263,264,265,-1,265,264,266,-1,265,266,267,-1,267,266,268,-1,268,266,269,-1,268,269,240,-1,240,269,238,-1,241,239,270,-1,270,239,271,-1,270,271,242,-1,242,271,243,-1,271,239,269,-1,269,239,238,-1,271,269,243,-1,243,269,266,-1,243,266,264,-1,264,262,243,-1,243,262,260,-1,243,260,258,-1,258,256,243,-1,243,256,254,-1,243,254,252,-1,252,250,243,-1,243,250,248,-1,243,248,244,-1,244,248,246,-1,272,273,274,-1,274,273,275,-1,276,277,278,-1,276,278,279,-1,279,278,280,-1,279,280,281,-1,281,280,282,-1,281,282,283,-1,283,282,284,-1,283,284,285,-1,285,284,286,-1,285,286,287,-1,287,286,288,-1,287,288,289,-1,289,288,290,-1,289,290,291,-1,291,290,292,-1,291,292,293,-1,293,292,294,-1,293,294,295,-1,295,294,296,-1,295,296,297,-1,297,296,298,-1,297,298,299,-1,299,298,300,-1,299,300,301,-1,301,300,302,-1,302,300,303,-1,302,303,272,-1,272,303,273,-1,274,275,304,-1,304,275,305,-1,304,305,276,-1,276,305,277,-1,305,275,303,-1,303,275,273,-1,305,303,277,-1,277,303,300,-1,277,300,278,-1,278,300,298,-1,278,298,296,-1,296,294,278,-1,278,294,292,-1,278,292,280,-1,280,292,282,-1,292,290,282,-1,282,290,288,-1,282,288,284,-1,284,288,286,-1,306,307,308,-1,308,307,309,-1,310,311,312,-1,310,312,313,-1,313,312,314,-1,313,314,315,-1,315,314,316,-1,315,316,317,-1,317,316,318,-1,317,318,319,-1,319,318,320,-1,319,320,321,-1,321,320,322,-1,321,322,323,-1,323,322,324,-1,323,324,325,-1,325,324,326,-1,325,326,327,-1,327,326,328,-1,327,328,329,-1,329,328,330,-1,329,330,331,-1,331,330,332,-1,331,332,333,-1,333,332,334,-1,333,334,335,-1,335,334,336,-1,336,334,337,-1,336,337,306,-1,306,337,307,-1,308,309,338,-1,338,309,339,-1,338,339,310,-1,310,339,311,-1,339,309,337,-1,337,309,307,-1,339,337,311,-1,311,337,334,-1,334,332,311,-1,311,332,330,-1,311,330,328,-1,328,326,311,-1,311,326,324,-1,311,324,322,-1,322,320,311,-1,311,320,318,-1,311,318,312,-1,312,318,316,-1,312,316,314,-1,340,341,342,-1,342,341,343,-1,344,345,346,-1,344,346,347,-1,347,346,348,-1,347,348,349,-1,349,348,350,-1,349,350,351,-1,351,350,352,-1,351,352,353,-1,353,352,354,-1,353,354,355,-1,355,354,356,-1,355,356,357,-1,357,356,358,-1,357,358,359,-1,359,358,360,-1,359,360,361,-1,361,360,362,-1,361,362,363,-1,363,362,364,-1,363,364,365,-1,365,364,366,-1,365,366,367,-1,367,366,368,-1,367,368,369,-1,369,368,370,-1,370,368,371,-1,370,371,342,-1,342,371,340,-1,343,341,372,-1,372,341,373,-1,372,373,344,-1,344,373,345,-1,373,341,371,-1,371,341,340,-1,354,352,368,-1,368,352,350,-1,368,350,348,-1,366,358,368,-1,368,358,356,-1,368,356,354,-1,366,364,358,-1,358,364,362,-1,358,362,360,-1,373,371,345,-1,345,371,368,-1,345,368,346,-1,346,368,348,-1,374,375,376,-1,376,375,377,-1,378,379,380,-1,378,380,381,-1,381,380,382,-1,381,382,383,-1,383,382,384,-1,383,384,385,-1,385,384,386,-1,385,386,387,-1,387,386,388,-1,387,388,389,-1,389,388,390,-1,389,390,391,-1,391,390,392,-1,391,392,393,-1,393,392,394,-1,393,394,395,-1,395,394,396,-1,395,396,397,-1,397,396,398,-1,397,398,399,-1,399,398,400,-1,399,400,401,-1,401,400,402,-1,401,402,403,-1,403,402,404,-1,404,402,405,-1,404,405,376,-1,376,405,374,-1,377,375,406,-1,406,375,407,-1,406,407,378,-1,378,407,379,-1,407,375,405,-1,405,375,374,-1,388,402,390,-1,390,402,400,-1,390,400,398,-1,398,396,390,-1,390,396,394,-1,390,394,392,-1,388,386,402,-1,402,386,384,-1,402,384,382,-1,407,405,379,-1,379,405,402,-1,379,402,380,-1,380,402,382,-1,408,409,410,-1,410,409,411,-1,412,413,414,-1,412,414,415,-1,415,414,416,-1,415,416,417,-1,417,416,418,-1,417,418,419,-1,419,418,420,-1,419,420,421,-1,421,420,422,-1,421,422,423,-1,423,422,424,-1,423,424,425,-1,425,424,426,-1,425,426,427,-1,427,426,428,-1,427,428,429,-1,429,428,430,-1,429,430,431,-1,431,430,432,-1,431,432,433,-1,433,432,434,-1,433,434,435,-1,435,434,436,-1,435,436,437,-1,437,436,438,-1,438,436,439,-1,438,439,410,-1,410,439,408,-1,411,409,440,-1,440,409,441,-1,440,441,412,-1,412,441,413,-1,441,409,439,-1,439,409,408,-1,424,422,434,-1,434,422,436,-1,422,420,436,-1,436,420,418,-1,436,418,416,-1,434,432,430,-1,441,439,413,-1,413,439,436,-1,413,436,414,-1,414,436,416,-1,430,428,434,-1,434,428,426,-1,434,426,424,-1,442,443,444,-1,444,443,445,-1,446,447,448,-1,446,448,449,-1,449,448,450,-1,449,450,451,-1,451,450,452,-1,451,452,453,-1,453,452,454,-1,453,454,455,-1,455,454,456,-1,455,456,457,-1,457,456,458,-1,457,458,459,-1,459,458,460,-1,459,460,461,-1,461,460,462,-1,461,462,463,-1,463,462,464,-1,463,464,465,-1,465,464,466,-1,465,466,467,-1,467,466,468,-1,467,468,469,-1,469,468,470,-1,469,470,471,-1,471,470,472,-1,472,470,473,-1,472,473,442,-1,442,473,443,-1,444,445,474,-1,474,445,475,-1,474,475,446,-1,446,475,447,-1,475,445,473,-1,473,445,443,-1,475,473,447,-1,447,473,470,-1,458,456,447,-1,470,468,447,-1,447,468,466,-1,447,466,464,-1,464,462,447,-1,447,462,460,-1,447,460,458,-1,456,454,452,-1,452,450,456,-1,456,450,448,-1,456,448,447,-1,476,477,478,-1,478,477,479,-1,480,481,482,-1,480,482,483,-1,483,482,484,-1,483,484,485,-1,485,484,486,-1,485,486,487,-1,487,486,488,-1,487,488,489,-1,489,488,490,-1,489,490,491,-1,491,490,492,-1,491,492,493,-1,493,492,494,-1,493,494,495,-1,495,494,496,-1,495,496,497,-1,497,496,498,-1,497,498,499,-1,499,498,500,-1,499,500,501,-1,501,500,502,-1,501,502,503,-1,503,502,504,-1,503,504,505,-1,505,504,506,-1,506,504,507,-1,506,507,476,-1,476,507,477,-1,478,479,508,-1,508,479,509,-1,508,509,480,-1,480,509,481,-1,509,479,507,-1,507,479,477,-1,496,494,492,-1,509,507,481,-1,481,507,504,-1,488,486,504,-1,502,500,492,-1,492,500,498,-1,492,498,496,-1,502,492,504,-1,504,492,490,-1,504,490,488,-1,486,484,504,-1,504,484,482,-1,504,482,481,-1,510,511,512,-1,512,511,513,-1,514,515,516,-1,514,516,517,-1,517,516,518,-1,517,518,519,-1,519,518,520,-1,519,520,521,-1,521,520,522,-1,521,522,523,-1,523,522,524,-1,523,524,525,-1,525,524,526,-1,525,526,527,-1,527,526,528,-1,527,528,529,-1,529,528,530,-1,529,530,531,-1,531,530,532,-1,531,532,533,-1,533,532,534,-1,533,534,535,-1,535,534,536,-1,535,536,537,-1,537,536,538,-1,537,538,539,-1,539,538,540,-1,540,538,541,-1,540,541,512,-1,512,541,510,-1,513,511,542,-1,542,511,543,-1,542,543,514,-1,514,543,515,-1,543,511,541,-1,541,511,510,-1,515,543,541,-1,541,538,515,-1,515,538,536,-1,515,536,534,-1,534,532,515,-1,515,532,530,-1,515,530,528,-1,528,526,515,-1,515,526,524,-1,515,524,522,-1,522,520,515,-1,515,520,518,-1,515,518,516,-1,544,545,546,-1,546,545,547,-1,548,549,550,-1,548,550,551,-1,551,550,552,-1,551,552,553,-1,553,552,554,-1,553,554,555,-1,555,554,556,-1,555,556,557,-1,557,556,558,-1,557,558,559,-1,559,558,560,-1,559,560,561,-1,561,560,562,-1,561,562,563,-1,563,562,564,-1,563,564,565,-1,565,564,566,-1,565,566,567,-1,567,566,568,-1,567,568,569,-1,569,568,570,-1,569,570,571,-1,571,570,572,-1,571,572,573,-1,573,572,574,-1,574,572,575,-1,574,575,546,-1,546,575,544,-1,547,545,576,-1,576,545,577,-1,576,577,548,-1,548,577,549,-1,577,545,575,-1,575,545,544,-1,552,572,554,-1,554,572,556,-1,577,575,549,-1,549,575,572,-1,549,572,550,-1,550,572,552,-1,566,564,568,-1,568,564,570,-1,564,562,570,-1,570,562,560,-1,570,560,572,-1,572,560,558,-1,572,558,556,-1,578,579,580,-1,580,579,581,-1,582,583,584,-1,582,584,585,-1,585,584,586,-1,585,586,587,-1,587,586,588,-1,587,588,589,-1,589,588,590,-1,589,590,591,-1,591,590,592,-1,591,592,593,-1,593,592,594,-1,593,594,595,-1,595,594,596,-1,595,596,597,-1,597,596,598,-1,597,598,599,-1,599,598,600,-1,599,600,601,-1,601,600,602,-1,601,602,603,-1,603,602,604,-1,603,604,605,-1,605,604,606,-1,605,606,607,-1,607,606,608,-1,608,606,609,-1,608,609,580,-1,580,609,578,-1,581,579,610,-1,610,579,611,-1,610,611,582,-1,582,611,583,-1,611,579,609,-1,609,579,578,-1,583,611,609,-1,609,606,583,-1,583,606,604,-1,583,604,602,-1,602,600,583,-1,583,600,598,-1,583,598,596,-1,596,594,583,-1,583,594,592,-1,583,592,590,-1,590,588,583,-1,583,588,586,-1,583,586,584,-1,612,613,614,-1,614,613,615,-1,616,617,618,-1,616,618,619,-1,619,618,620,-1,619,620,621,-1,621,620,622,-1,621,622,623,-1,623,622,624,-1,623,624,625,-1,625,624,626,-1,625,626,627,-1,627,626,628,-1,627,628,629,-1,629,628,630,-1,629,630,631,-1,631,630,632,-1,631,632,633,-1,633,632,634,-1,633,634,635,-1,635,634,636,-1,635,636,637,-1,637,636,638,-1,637,638,639,-1,639,638,640,-1,639,640,641,-1,641,640,642,-1,642,640,643,-1,642,643,612,-1,612,643,613,-1,614,615,644,-1,644,615,645,-1,644,645,616,-1,616,645,617,-1,645,615,643,-1,643,615,613,-1,645,643,617,-1,617,643,640,-1,624,622,620,-1,640,638,617,-1,617,638,636,-1,617,636,634,-1,634,632,617,-1,617,632,630,-1,617,630,628,-1,628,626,617,-1,617,626,624,-1,617,624,618,-1,618,624,620,-1,646,647,648,-1,648,647,649,-1,650,651,652,-1,650,652,653,-1,653,652,654,-1,653,654,655,-1,655,654,656,-1,655,656,657,-1,657,656,658,-1,657,658,659,-1,659,658,660,-1,659,660,661,-1,661,660,662,-1,661,662,663,-1,663,662,664,-1,663,664,665,-1,665,664,666,-1,665,666,667,-1,667,666,668,-1,667,668,669,-1,669,668,670,-1,669,670,671,-1,671,670,672,-1,671,672,673,-1,673,672,674,-1,673,674,675,-1,675,674,676,-1,676,674,677,-1,676,677,646,-1,646,677,647,-1,648,649,678,-1,678,649,679,-1,678,679,650,-1,650,679,651,-1,679,649,677,-1,677,649,647,-1,672,670,668,-1,664,662,674,-1,674,662,660,-1,660,658,674,-1,674,658,656,-1,674,656,654,-1,679,677,651,-1,651,677,674,-1,651,674,652,-1,652,674,654,-1,672,668,674,-1,674,668,666,-1,674,666,664,-1,680,681,682,-1,682,681,683,-1,684,680,685,-1,685,680,682,-1,686,684,687,-1,687,684,685,-1,688,686,689,-1,689,686,687,-1,681,688,683,-1,683,688,689,-1,684,686,680,-1,680,686,688,-1,680,688,681,-1,
        ]
    }
}
Shape{
    appearance Appearance {
        material  Material 	{
            diffuseColor 0.0 0.0 0.0
            specularColor 0.0 0.0 0.0
            ambientIntensity 0.0
            transparency 0.0
            shininess 0.5
        }
    }
    geometry IndexedFaceSet {
        ccw TRUE
        solid FALSE
        coord DEF co Coordinate {
            point [
                -0.1684 0.5099 0.0122, -0.1991 0.4312 0.0122, -0.1684 0.5099 0.0118, -0.1991 0.4312 0.0118, -0.1876 0.4312 0.0122, -0.1876 0.4312 0.0118, -0.1796 0.4533 0.0122, -0.1796 0.4533 0.0118, -0.1471 0.4533 0.0122, -0.1471 0.4533 0.0118, -0.1396 0.4312 0.0122, -0.1396 0.4312 0.0118, -0.1281 0.4312 0.0122, -0.1281 0.4312 0.0118, -0.1578 0.5099 0.0122, -0.1578 0.5099 0.0118, -0.1498 0.4619 0.0122, -0.1761 0.4619 0.0122, -0.1615 0.4948 0.0122, -0.1623 0.4975 0.0122, -0.1628 0.5003 0.0122, -0.163 0.5003 0.0122, -0.1635 0.4975 0.0122, -0.1642 0.4948 0.0122, -0.1498 0.4619 0.0118, -0.1761 0.4619 0.0118, -0.1615 0.4948 0.0118, -0.1623 0.4975 0.0118, -0.1628 0.5003 0.0118, -0.163 0.5003 0.0118, -0.1635 0.4975 0.0118, -0.1642 0.4948 0.0118, -0.0803 0.4312 0.0122, -0.0589 0.4312 0.0122, -0.0803 0.4312 0.0118, -0.0589 0.4312 0.0118, -0.0589 0.5099 0.0122, -0.0589 0.5099 0.0118, -0.0811 0.5099 0.0122, -0.0811 0.5099 0.0118, -0.1223 0.4715 0.0122, -0.1223 0.4715 0.0118, -0.1217 0.4789 0.0118, -0.1217 0.4789 0.0122, -0.1196 0.4867 0.0118, -0.1196 0.4867 0.0122, -0.116 0.4935 0.0118, -0.116 0.4935 0.0122, -0.1104 0.4996 0.0118, -0.1104 0.4996 0.0122, -0.1103 0.4997 0.0118, -0.1103 0.4997 0.0122, -0.1017 0.5055 0.0118, -0.1017 0.5055 0.0122, -0.0925 0.5087 0.0118, -0.0925 0.5087 0.0122, -0.0901 0.432 0.0118, -0.0901 0.432 0.0122, -0.0992 0.4347 0.0118, -0.0992 0.4347 0.0122, -0.1074 0.4395 0.0118, -0.1074 0.4395 0.0122, -0.1139 0.4457 0.0118, -0.1139 0.4457 0.0122, -0.1184 0.4527 0.0118, -0.1184 0.4527 0.0122, -0.1212 0.461 0.0118, -0.1212 0.461 0.0122, -0.1065 0.4902 0.0122, -0.1027 0.4943 0.0122, -0.0969 0.498 0.0122, -0.0904 0.5003 0.0122, -0.0811 0.5013 0.0122, -0.0695 0.5013 0.0122, -0.0695 0.4398 0.0122, -0.0807 0.4398 0.0122, -0.089 0.4406 0.0122, -0.0956 0.4427 0.0122, -0.101 0.4458 0.0122, -0.1054 0.4502 0.0122, -0.1087 0.4556 0.0122, -0.111 0.463 0.0122, -0.1117 0.4713 0.0122, -0.1111 0.4791 0.0122, -0.1092 0.4854 0.0122, -0.0811 0.5013 0.0118, -0.0695 0.5013 0.0118, -0.0904 0.5003 0.0118, -0.0969 0.498 0.0118, -0.1027 0.4943 0.0118, -0.1065 0.4902 0.0118, -0.1092 0.4854 0.0118, -0.1111 0.4791 0.0118, -0.1117 0.4713 0.0118, -0.111 0.463 0.0118, -0.1087 0.4556 0.0118, -0.1054 0.4502 0.0118, -0.101 0.4458 0.0118, -0.0956 0.4427 0.0118, -0.089 0.4406 0.0118, -0.0807 0.4398 0.0118, -0.0695 0.4398 0.0118, -0.0436 0.4398 0.0122, -0.0436 0.4312 0.0122, -0.0436 0.4398 0.0118, -0.0436 0.4312 0.0118, -0.0013 0.4312 0.0122, -0.0013 0.4312 0.0118, -0.0013 0.5099 0.0122, -0.0013 0.5099 0.0118, -0.0416 0.5099 0.0122, -0.0416 0.5099 0.0118, -0.0416 0.5013 0.0122, -0.0416 0.5013 0.0118, -0.0119 0.5013 0.0122, -0.0119 0.5013 0.0118, -0.0119 0.4753 0.0122, -0.0119 0.4753 0.0118, -0.0397 0.4753 0.0122, -0.0397 0.4753 0.0118, -0.0397 0.4667 0.0122, -0.0397 0.4667 0.0118, -0.0119 0.4667 0.0122, -0.0119 0.4667 0.0118, -0.0119 0.4398 0.0122, -0.0119 0.4398 0.0118, 0.0141 0.4439 0.0122, 0.0141 0.4352 0.0122, 0.0141 0.4439 0.0118, 0.0141 0.4352 0.0118, 0.0224 0.4318 0.0122, 0.0357 0.4302 0.0122, 0.0357 0.4302 0.0118, 0.0336 0.4302 0.0118, 0.0336 0.4302 0.0122, 0.0304 0.4307 0.0118, 0.0224 0.4318 0.0118, 0.0403 0.4307 0.0118, 0.0454 0.4312 0.0122, 0.0454 0.4312 0.0118, 0.0531 0.4338 0.0122, 0.0531 0.4338 0.0118, 0.0594 0.4379 0.0122, 0.0594 0.4379 0.0118, 0.0653 0.4441 0.0122, 0.0653 0.4441 0.0118, 0.0695 0.4516 0.0122, 0.0695 0.4516 0.0118, 0.0719 0.4599 0.0122, 0.0719 0.4599 0.0118, 0.0726 0.4691 0.0122, 0.0726 0.4691 0.0118, 0.0405 0.5102 0.0122, 0.0326 0.5109 0.0122, 0.0385 0.5104 0.0118, 0.0326 0.5109 0.0118, 0.0405 0.5102 0.0118, 0.0493 0.5077 0.0118, 0.0493 0.5077 0.0122, 0.0567 0.5034 0.0118, 0.0567 0.5034 0.0122, 0.0639 0.4965 0.0118, 0.0639 0.4965 0.0122, 0.0685 0.4892 0.0118, 0.0685 0.4892 0.0122, 0.0715 0.4802 0.0118, 0.0715 0.4802 0.0122, 0.0256 0.5104 0.0118, 0.0232 0.5102 0.0122, 0.0232 0.5102 0.0118, 0.0141 0.5077 0.0122, 0.0141 0.5077 0.0118, 0.0141 0.4972 0.0122, 0.0141 0.4972 0.0118, 0.0325 0.5022 0.0122, 0.0325 0.5022 0.0118, 0.0229 0.501 0.0118, 0.0229 0.501 0.0122, 0.0621 0.4697 0.0122, 0.0621 0.4697 0.0118, 0.0617 0.4758 0.0118, 0.0617 0.4758 0.0122, 0.0596 0.4843 0.0118, 0.0596 0.4843 0.0122, 0.0563 0.4903 0.0118, 0.0563 0.4903 0.0122, 0.0516 0.4956 0.0118, 0.0516 0.4956 0.0122, 0.0461 0.4992 0.0118, 0.0461 0.4992 0.0122, 0.0402 0.5014 0.0118, 0.0402 0.5014 0.0122, 0.0343 0.4389 0.0122, 0.0343 0.4389 0.0118, 0.0416 0.4397 0.0118, 0.0416 0.4397 0.0122, 0.0473 0.4418 0.0118, 0.0473 0.4418 0.0122, 0.0522 0.445 0.0118, 0.0522 0.445 0.0122, 0.0559 0.4489 0.0118, 0.0559 0.4489 0.0122, 0.0591 0.4544 0.0118, 0.0591 0.4544 0.0122, 0.0613 0.4612 0.0118, 0.0613 0.4612 0.0122, 0.0155 0.4431 0.0118, 0.0155 0.4431 0.0122, 0.0238 0.44 0.0118, 0.0238 0.44 0.0122, 0.0793 0.4398 0.0122, 0.0793 0.4312 0.0122, 0.0793 0.4398 0.0118, 0.0793 0.4312 0.0118, 0.1197 0.4312 0.0122, 0.1197 0.4312 0.0118, 0.1197 0.5099 0.0122, 0.1197 0.5099 0.0118, 0.1091 0.5099 0.0122, 0.1091 0.5099 0.0118, 0.1091 0.4398 0.0122, 0.1091 0.4398 0.0118
            ]
        }
        coordIndex [
            0,1,2,-1,2,1,3,-1,1,4,3,-1,3,4,5,-1,4,6,5,-1,5,6,7,-1,6,8,7,-1,7,8,9,-1,8,10,9,-1,9,10,11,-1,10,12,11,-1,11,12,13,-1,12,14,13,-1,13,14,15,-1,14,0,15,-1,15,0,2,-1,16,8,17,-1,17,8,6,-1,18,14,16,-1,16,14,12,-1,16,12,8,-1,8,12,10,-1,18,19,14,-1,14,19,20,-1,14,20,0,-1,0,20,21,-1,0,21,22,-1,22,23,0,-1,0,23,17,-1,0,17,1,-1,1,17,6,-1,1,6,4,-1,16,17,24,-1,24,17,25,-1,18,16,26,-1,26,16,24,-1,18,26,27,-1,18,27,19,-1,19,27,28,-1,19,28,20,-1,21,20,29,-1,29,20,28,-1,21,29,30,-1,21,30,22,-1,22,30,31,-1,22,31,23,-1,17,23,25,-1,25,23,31,-1,32,33,34,-1,34,33,35,-1,33,36,35,-1,35,36,37,-1,36,38,37,-1,37,38,39,-1,40,41,42,-1,40,42,43,-1,43,42,44,-1,43,44,45,-1,45,44,46,-1,45,46,47,-1,47,46,48,-1,47,48,49,-1,49,48,50,-1,49,50,51,-1,51,50,52,-1,51,52,53,-1,53,52,54,-1,53,54,55,-1,55,54,39,-1,55,39,38,-1,32,34,56,-1,32,56,57,-1,57,56,58,-1,57,58,59,-1,59,58,60,-1,59,60,61,-1,61,60,62,-1,61,62,63,-1,63,62,64,-1,63,64,65,-1,65,64,66,-1,65,66,67,-1,67,66,41,-1,67,41,40,-1,45,47,68,-1,68,47,49,-1,68,49,69,-1,69,49,51,-1,69,51,70,-1,70,51,53,-1,70,53,71,-1,71,53,55,-1,71,55,72,-1,72,55,38,-1,72,38,73,-1,73,38,36,-1,73,36,74,-1,74,36,33,-1,74,33,75,-1,75,33,32,-1,75,32,76,-1,76,32,57,-1,76,57,77,-1,77,57,59,-1,77,59,78,-1,78,59,61,-1,78,61,79,-1,79,61,63,-1,79,63,80,-1,80,63,65,-1,80,65,81,-1,81,65,67,-1,81,67,82,-1,82,67,40,-1,82,40,83,-1,83,40,43,-1,83,43,84,-1,84,43,45,-1,84,45,68,-1,72,73,85,-1,85,73,86,-1,72,85,87,-1,72,87,71,-1,71,87,88,-1,71,88,70,-1,70,88,89,-1,70,89,69,-1,69,89,90,-1,69,90,68,-1,68,90,91,-1,68,91,84,-1,84,91,92,-1,84,92,83,-1,83,92,93,-1,83,93,82,-1,82,93,94,-1,82,94,81,-1,81,94,95,-1,81,95,80,-1,80,95,96,-1,80,96,79,-1,79,96,97,-1,79,97,78,-1,78,97,98,-1,78,98,77,-1,77,98,99,-1,77,99,76,-1,76,99,100,-1,76,100,75,-1,74,75,101,-1,101,75,100,-1,73,74,86,-1,86,74,101,-1,102,103,104,-1,104,103,105,-1,103,106,105,-1,105,106,107,-1,106,108,107,-1,107,108,109,-1,108,110,109,-1,109,110,111,-1,110,112,111,-1,111,112,113,-1,112,114,113,-1,113,114,115,-1,114,116,115,-1,115,116,117,-1,116,118,117,-1,117,118,119,-1,118,120,119,-1,119,120,121,-1,120,122,121,-1,121,122,123,-1,122,124,123,-1,123,124,125,-1,124,102,125,-1,125,102,104,-1,106,103,102,-1,102,124,106,-1,106,124,122,-1,106,122,108,-1,112,110,114,-1,114,110,108,-1,114,108,116,-1,116,108,122,-1,116,122,118,-1,118,122,120,-1,126,127,128,-1,128,127,129,-1,129,127,130,-1,131,132,133,-1,131,133,134,-1,134,133,135,-1,134,135,130,-1,130,135,136,-1,130,136,129,-1,132,131,137,-1,137,131,138,-1,137,138,139,-1,139,138,140,-1,139,140,141,-1,141,140,142,-1,141,142,143,-1,143,142,144,-1,143,144,145,-1,145,144,146,-1,145,146,147,-1,147,146,148,-1,147,148,149,-1,149,148,150,-1,149,150,151,-1,152,153,154,-1,154,153,155,-1,154,156,152,-1,152,156,157,-1,152,157,158,-1,158,157,159,-1,158,159,160,-1,160,159,161,-1,160,161,162,-1,162,161,163,-1,162,163,164,-1,164,163,165,-1,164,165,166,-1,166,165,151,-1,166,151,150,-1,155,153,167,-1,167,153,168,-1,167,168,169,-1,169,168,170,-1,169,170,171,-1,170,172,171,-1,171,172,173,-1,174,175,176,-1,174,176,177,-1,177,176,173,-1,177,173,172,-1,178,179,180,-1,178,180,181,-1,181,180,182,-1,181,182,183,-1,183,182,184,-1,183,184,185,-1,185,184,186,-1,185,186,187,-1,187,186,188,-1,187,188,189,-1,189,188,190,-1,189,190,191,-1,191,190,175,-1,191,175,174,-1,192,193,194,-1,192,194,195,-1,195,194,196,-1,195,196,197,-1,197,196,198,-1,197,198,199,-1,199,198,200,-1,199,200,201,-1,201,200,202,-1,201,202,203,-1,203,202,204,-1,203,204,205,-1,205,204,179,-1,205,179,178,-1,126,128,206,-1,126,206,207,-1,207,206,208,-1,207,208,209,-1,209,208,193,-1,209,193,192,-1,195,131,192,-1,192,131,134,-1,192,134,209,-1,209,134,130,-1,209,130,207,-1,207,130,127,-1,207,127,126,-1,172,170,177,-1,177,170,168,-1,177,168,174,-1,174,168,153,-1,174,153,191,-1,191,153,152,-1,191,152,189,-1,189,152,158,-1,189,158,187,-1,187,158,160,-1,187,160,185,-1,185,160,162,-1,185,162,183,-1,183,162,164,-1,183,164,181,-1,181,164,166,-1,181,166,178,-1,178,166,150,-1,178,150,205,-1,205,150,148,-1,205,148,203,-1,203,148,146,-1,203,146,201,-1,201,146,144,-1,201,144,199,-1,199,144,142,-1,199,142,197,-1,197,142,140,-1,197,140,195,-1,195,140,138,-1,195,138,131,-1,210,211,212,-1,212,211,213,-1,211,214,213,-1,213,214,215,-1,214,216,215,-1,215,216,217,-1,216,218,217,-1,217,218,219,-1,218,220,219,-1,219,220,221,-1,220,210,221,-1,221,210,212,-1,218,216,220,-1,220,216,214,-1,220,214,210,-1,210,214,211,-1,
        ]
    }
}
Shape{
    appearance Appearance {
        material  Material 	{
            diffuseColor 0.25098039215686274 0.25098039215686274 0.25098039215686274
            specularColor 0.12549019607843137 0.12549019607843137 0.12549019607843137
            ambientIntensity 0.251
            transparency 0.0
            shininess 0.5
        }
    }
    geometry IndexedFaceSet {
        ccw TRUE
        solid FALSE
        coord DEF co Coordinate {
            point [
                -0.1498 0.4619 0.0118, -0.1761 0.4619 0.0118, -0.1615 0.4948 0.0118, -0.1642 0.4948 0.0118, -0.1623 0.4975 0.0118, -0.1635 0.4975 0.0118, -0.1628 0.5003 0.0118, -0.163 0.5003 0.0118, -0.0695 0.5013 0.0118, -0.0695 0.4398 0.0118, -0.0811 0.5013 0.0118, -0.0807 0.4398 0.0118, -0.089 0.4406 0.0118, -0.1117 0.4713 0.0118, -0.1111 0.4791 0.0118, -0.1092 0.4854 0.0118, -0.0904 0.5003 0.0118, -0.0956 0.4427 0.0118, -0.101 0.4458 0.0118, -0.1054 0.4502 0.0118, -0.1087 0.4556 0.0118, -0.111 0.463 0.0118, -0.1065 0.4902 0.0118, -0.1027 0.4943 0.0118, -0.0969 0.498 0.0118
            ]
        }
        coordIndex [
            0,1,2,-1,2,1,3,-1,2,3,4,-1,4,3,5,-1,4,5,6,-1,6,5,7,-1,8,9,10,-1,10,9,11,-1,10,11,12,-1,13,14,10,-1,10,14,15,-1,10,15,16,-1,12,17,10,-1,10,17,18,-1,10,18,19,-1,19,20,10,-1,10,20,21,-1,10,21,13,-1,22,23,15,-1,15,23,24,-1,15,24,16,-1,
        ]
    }
}
Shape{
    appearance Appearance {
        material  Material 	{
            diffuseColor 1.0 1.0 1.0
            specularColor 0.5019607843137255 0.5019607843137255 0.5019607843137255
            ambientIntensity 1.0
            transparency 0.0
            shininess 0.5
        }
    }
    geometry IndexedFaceSet {
        ccw TRUE
        solid FALSE
        coord DEF co Coordinate {
            point [
                -0.5751 -0.6929 0.0789, -0.5751 -0.6929 0.0437, -0.5751 -0.6889 0.0789, -0.5751 -0.6889 0.0437, -0.639 -0.6929 0.0789, -0.639 -0.6889 0.0789, -0.639 -0.6929 0.0437, -0.639 -0.6889 0.0437, 0.639 -0.6929 0.0789, 0.639 -0.6929 0.0437, 0.639 -0.6889 0.0789, 0.639 -0.6889 0.0437, 0.575 -0.6929 0.0789, 0.575 -0.6889 0.0789, 0.575 -0.6929 0.0437, 0.575 -0.6889 0.0437, -0.693 0.5751 0.0789, -0.693 0.5751 0.0437, -0.689 0.5751 0.0789, -0.689 0.5751 0.0437, -0.693 0.639 0.0789, -0.689 0.639 0.0789, -0.693 0.639 0.0437, -0.689 0.639 0.0437, -0.693 -0.639 0.0789, -0.693 -0.639 0.0437, -0.689 -0.639 0.0789, -0.689 -0.639 0.0437, -0.693 -0.575 0.0789, -0.689 -0.575 0.0789, -0.693 -0.575 0.0437, -0.689 -0.575 0.0437, 0.575 0.693 0.0789, 0.575 0.693 0.0437, 0.575 0.689 0.0789, 0.575 0.689 0.0437, 0.639 0.693 0.0789, 0.639 0.689 0.0789, 0.639 0.693 0.0437, 0.639 0.689 0.0437, -0.639 0.693 0.0789, -0.639 0.693 0.0437, -0.639 0.689 0.0789, -0.639 0.689 0.0437, -0.5751 0.693 0.0789, -0.5751 0.689 0.0789, -0.5751 0.693 0.0437, -0.5751 0.689 0.0437, 0.6929 -0.575 0.0789, 0.6929 -0.575 0.0437, 0.6889 -0.575 0.0789, 0.6889 -0.575 0.0437, 0.6929 -0.639 0.0789, 0.6889 -0.639 0.0789, 0.6929 -0.639 0.0437, 0.6889 -0.639 0.0437, 0.6929 0.639 0.0789, 0.6929 0.639 0.0437, 0.6889 0.639 0.0789, 0.6889 0.639 0.0437, 0.6929 0.5751 0.0789, 0.6889 0.5751 0.0789, 0.6929 0.5751 0.0437, 0.6889 0.5751 0.0437
            ]
        }
        coordIndex [
            0,1,2,-1,2,1,3,-1,4,0,5,-1,5,0,2,-1,6,4,7,-1,7,4,5,-1,1,6,3,-1,3,6,7,-1,4,6,0,-1,0,6,1,-1,8,9,10,-1,10,9,11,-1,12,8,13,-1,13,8,10,-1,14,12,15,-1,15,12,13,-1,9,14,11,-1,11,14,15,-1,12,14,8,-1,8,14,9,-1,16,17,18,-1,18,17,19,-1,20,16,21,-1,21,16,18,-1,22,20,23,-1,23,20,21,-1,17,22,19,-1,19,22,23,-1,20,22,16,-1,16,22,17,-1,24,25,26,-1,26,25,27,-1,28,24,29,-1,29,24,26,-1,30,28,31,-1,31,28,29,-1,25,30,27,-1,27,30,31,-1,28,30,24,-1,24,30,25,-1,32,33,34,-1,34,33,35,-1,36,32,37,-1,37,32,34,-1,38,36,39,-1,39,36,37,-1,33,38,35,-1,35,38,39,-1,36,38,32,-1,32,38,33,-1,40,41,42,-1,42,41,43,-1,44,40,45,-1,45,40,42,-1,46,44,47,-1,47,44,45,-1,41,46,43,-1,43,46,47,-1,44,46,40,-1,40,46,41,-1,48,49,50,-1,50,49,51,-1,52,48,53,-1,53,48,50,-1,54,52,55,-1,55,52,53,-1,49,54,51,-1,51,54,55,-1,52,54,48,-1,48,54,49,-1,56,57,58,-1,58,57,59,-1,60,56,61,-1,61,56,58,-1,62,60,63,-1,63,60,61,-1,57,62,59,-1,59,62,63,-1,60,62,56,-1,56,62,57,-1,
        ]
    }
}