#VRML V2.0 utf8
# 3D model generated by easyeda2kicad.py (https://github.com/uPesy/easyeda2kicad.py)

Shape{
    appearance Appearance {
        material  Material 	{
            diffuseColor 0.6666666666666666 0.6666666666666666 0.6666666666666666
            specularColor 0.4666666666666667 0.4666666666666667 0.4666666666666667
            ambientIntensity 0.6667
            transparency 0.0
            shininess 0.5
        }
    }
    geometry IndexedFaceSet {
        ccw TRUE
        solid FALSE
        coord DEF co Coordinate {
            point [
                0.4154 0.2225 0.0, 0.3169 0.124 0.0, -0.0139 0.124 0.0, -0.6004 0.3504 0.0, -0.6004 0.3583 0.0, -0.4154 0.3583 0.0, -0.1618 0.2402 0.0, -0.1503 0.2402 0.0, -0.0139 0.2397 0.0, -0.0908 0.2402 0.0, -0.0811 0.2618 0.0, -0.0765 0.2547 0.0, -0.1205 0.3189 0.0, -0.1311 0.3189 0.0, -0.0139 0.754 0.0, -0.4154 0.754 0.0, -0.4429 0.754 0.0, -0.4429 0.939 0.0, -0.0701 0.2485 0.0, -0.0618 0.2437 0.0, -0.0528 0.241 0.0, -0.6496 0.2481 0.0, -0.6496 0.3504 0.0, -0.6004 0.2481 0.0, -0.043 0.2402 0.0, -0.1023 0.2402 0.0, -0.1098 0.2623 0.0, -0.1423 0.2623 0.0, -0.0216 0.2402 0.0, -0.0216 0.3189 0.0, -0.0438 0.3189 0.0, -0.0731 0.3087 0.0, -0.0786 0.3025 0.0, -0.0823 0.2957 0.0, -0.4154 0.2402 0.0, -0.6004 0.2402 0.0, -0.0552 0.3177 0.0, -0.0644 0.3145 0.0, -0.073 0.3087 0.0, -0.0844 0.288 0.0, -0.085 0.2805 0.0, -0.0839 0.27 0.0, -0.3248 0.939 0.0, -0.3248 0.754 0.0, -0.187 0.754 0.0, -0.4154 0.2397 0.0, -0.0689 0.754 0.0, -0.0689 0.939 0.0, -0.187 0.939 0.0, -0.3169 0.124 0.0, -0.4154 0.2225 0.0, 0.0677 0.2397 0.0, 0.0709 0.2393 0.0, 0.4154 0.2397 0.0, 0.0777 0.2397 0.0, 0.073 0.2392 0.0, -0.0063 0.2488 0.0, -0.0063 0.2402 0.0, 0.036 0.2402 0.0, -0.0043 0.3103 0.0, 0.0254 0.3103 0.0, 0.0254 0.2844 0.0, 0.0514 0.2443 0.0, 0.0514 0.2529 0.0, 0.036 0.3189 0.0, 0.0598 0.2408 0.0, 0.0689 0.939 0.0, 0.187 0.939 0.0, 0.0689 0.754 0.0, 0.187 0.754 0.0, 0.157 0.2402 0.0, 0.157 0.3189 0.0, 0.4154 0.3583 0.0, 0.0254 0.2757 0.0, 0.0254 0.2488 0.0, -0.0024 0.2757 0.0, -0.0024 0.2844 0.0, -0.0043 0.3189 0.0, 0.6496 0.3504 0.0, 0.6496 0.2481 0.0, 0.6004 0.3504 0.0, 0.6004 0.2481 0.0, 0.6004 0.2402 0.0, 0.4154 0.2402 0.0, 0.6004 0.3583 0.0, 0.4429 0.939 0.0, 0.4429 0.754 0.0, 0.3248 0.939 0.0, 0.4154 0.754 0.0, 0.3248 0.754 0.0, 0.1058 0.2982 0.0, 0.1012 0.3056 0.0, 0.1464 0.3189 0.0, 0.0776 0.3104 0.0, 0.0834 0.3082 0.0, 0.0528 0.2521 0.0, 0.0889 0.3046 0.0, 0.0937 0.2994 0.0, 0.0994 0.2787 0.0, 0.0986 0.2702 0.0, 0.0964 0.2634 0.0, 0.0789 0.2487 0.0, 0.0716 0.2479 0.0, 0.0847 0.2508 0.0, 0.0895 0.2541 0.0, 0.0932 0.258 0.0, 0.0611 0.249 0.0, 0.0969 0.2933 0.0, 0.099 0.2848 0.0, 0.0941 0.3124 0.0, 0.0904 0.2429 0.0, 0.0967 0.2469 0.0, 0.1167 0.2402 0.0, 0.1026 0.2531 0.0, 0.1167 0.2488 0.0, 0.1068 0.2606 0.0, 0.1464 0.2488 0.0, 0.0827 0.2402 0.0, 0.1092 0.269 0.0, 0.1099 0.2781 0.0, 0.1088 0.2893 0.0, 0.0866 0.3167 0.0, 0.0778 0.3192 0.0, 0.0699 0.3199 0.0, 0.0605 0.3192 0.0, 0.0514 0.3168 0.0, 0.0514 0.3062 0.0, 0.0602 0.31 0.0, 0.0698 0.3112 0.0
            ]
        }
        coordIndex [
            0,1,2,-1,3,4,5,-1,6,7,8,-1,9,10,11,-1,12,13,14,-1,15,16,17,-1,11,18,9,-1,9,18,19,-1,9,19,20,-1,21,22,23,-1,23,22,3,-1,20,24,9,-1,9,24,8,-1,9,8,25,-1,25,8,7,-1,25,7,26,-1,26,7,27,-1,24,28,8,-1,8,28,29,-1,8,29,14,-1,14,29,30,-1,31,32,12,-1,12,32,33,-1,3,5,23,-1,23,5,34,-1,23,34,35,-1,30,36,14,-1,14,36,37,-1,14,37,12,-1,12,37,38,-1,12,38,31,-1,33,39,12,-1,12,39,40,-1,12,40,9,-1,9,40,41,-1,9,41,10,-1,17,42,15,-1,15,42,43,-1,15,43,5,-1,5,43,44,-1,6,45,13,-1,13,45,34,-1,13,34,14,-1,14,34,5,-1,14,5,46,-1,46,5,44,-1,46,44,47,-1,47,44,48,-1,6,8,45,-1,45,8,49,-1,45,49,50,-1,51,52,2,-1,53,0,54,-1,54,0,2,-1,54,2,55,-1,55,2,52,-1,14,56,8,-1,8,56,57,-1,8,57,58,-1,59,60,61,-1,62,58,63,-1,63,58,64,-1,62,65,58,-1,58,65,51,-1,58,51,8,-1,8,51,2,-1,8,2,49,-1,66,67,68,-1,68,67,69,-1,70,71,72,-1,73,74,75,-1,75,74,56,-1,75,56,76,-1,61,76,59,-1,59,76,56,-1,59,56,77,-1,77,56,14,-1,77,14,64,-1,78,79,80,-1,80,79,81,-1,82,83,81,-1,81,83,70,-1,81,70,80,-1,80,70,72,-1,80,72,84,-1,85,86,87,-1,87,86,88,-1,87,88,89,-1,89,88,72,-1,90,91,92,-1,93,94,95,-1,95,94,96,-1,95,96,97,-1,98,99,95,-1,95,99,100,-1,101,102,103,-1,103,102,104,-1,100,105,95,-1,95,105,104,-1,95,104,106,-1,106,104,102,-1,97,107,95,-1,95,107,108,-1,95,108,98,-1,91,109,92,-1,92,109,14,-1,92,14,71,-1,71,14,68,-1,71,68,72,-1,72,68,69,-1,72,69,89,-1,110,111,112,-1,112,111,113,-1,112,113,114,-1,114,113,115,-1,114,115,116,-1,83,53,70,-1,70,53,54,-1,70,54,112,-1,112,54,117,-1,112,117,110,-1,115,118,116,-1,116,118,119,-1,116,119,92,-1,92,119,120,-1,92,120,90,-1,109,121,14,-1,14,121,122,-1,14,122,123,-1,123,124,14,-1,14,124,125,-1,14,125,64,-1,64,125,126,-1,64,126,63,-1,63,126,127,-1,63,127,95,-1,95,127,128,-1,95,128,93,-1,
        ]
    }
}
Shape{
    appearance Appearance {
        material  Material 	{
            diffuseColor 0.20784313725490197 0.20784313725490197 0.20784313725490197
            specularColor 0.01568627450980392 0.01568627450980392 0.01568627450980392
            ambientIntensity 0.298
            transparency 0.0
            shininess 0.5
        }
    }
    geometry IndexedFaceSet {
        ccw TRUE
        solid FALSE
        coord DEF co Coordinate {
            point [
                0.4429 -0.1752 0.0098, 0.6004 0.2402 0.0098, 0.4429 -0.311 0.0098, 0.6004 -0.2716 0.0098, 0.561 -0.311 0.0098, 0.3248 -0.1752 0.0098, 0.3248 -0.311 0.0098, 0.187 -0.311 0.0098, 0.187 -0.1752 0.0098, 0.0689 -0.1752 0.0098, -0.3169 0.124 0.0098, 0.5951 -0.2913 0.0098, 0.5889 -0.2995 0.0098, 0.5807 -0.3057 0.0098, 0.3169 0.124 0.0098, 0.4154 0.2225 0.0098, 0.4154 0.2402 0.0098, 0.5991 -0.2818 0.0098, 0.5712 -0.3097 0.0098, 0.0689 -0.311 0.0098, -0.0689 -0.311 0.0098, -0.0689 -0.1752 0.0098, -0.187 -0.1752 0.0098, -0.4154 0.2225 0.0098, -0.6004 0.2402 0.0098, -0.4154 0.2402 0.0098, -0.4429 -0.1752 0.0098, -0.3248 -0.1752 0.0098, -0.3248 -0.311 0.0098, -0.187 -0.311 0.0098, -0.4429 -0.311 0.0098, -0.561 -0.311 0.0098, -0.6004 -0.2716 0.0098, -0.5807 -0.3057 0.0098, -0.5889 -0.2995 0.0098, -0.5951 -0.2913 0.0098, -0.5712 -0.3097 0.0098, -0.5991 -0.2818 0.0098, -0.6004 0.3583 0.0, -0.6004 0.3504 0.0, -0.6004 0.3583 0.0098, -0.6004 0.3504 0.0787, -0.6004 0.8504 0.0098, -0.6004 0.8504 0.0787
            ]
        }
        coordIndex [
            0,1,2,-1,2,1,3,-1,2,3,4,-1,5,6,7,-1,8,9,10,-1,11,12,13,-1,7,8,5,-1,5,8,10,-1,5,10,0,-1,0,10,14,-1,0,14,1,-1,1,14,15,-1,1,15,16,-1,3,17,4,-1,4,17,11,-1,4,11,18,-1,18,11,13,-1,19,20,9,-1,9,20,21,-1,9,21,10,-1,10,21,22,-1,10,22,23,-1,23,22,24,-1,23,24,25,-1,26,24,27,-1,27,24,22,-1,27,22,28,-1,28,22,29,-1,26,30,24,-1,24,30,31,-1,24,31,32,-1,33,34,35,-1,31,36,32,-1,32,36,33,-1,32,33,37,-1,37,33,35,-1,38,39,40,-1,40,39,41,-1,40,41,42,-1,42,41,43,-1,
        ]
    }
}
Shape{
    appearance Appearance {
        material  Material 	{
            diffuseColor 0.6666666666666666 0.6666666666666666 0.6666666666666666
            specularColor 0.4666666666666667 0.4666666666666667 0.4666666666666667
            ambientIntensity 0.6667
            transparency 0.0
            shininess 0.5
        }
    }
    geometry IndexedFaceSet {
        ccw TRUE
        solid FALSE
        coord DEF co Coordinate {
            point [
                -0.4154 0.2225 0.0, -0.4154 0.2225 0.0098, -0.4154 0.2397 0.0, -0.4154 0.2402 0.0098, -0.4154 0.2402 0.0
            ]
        }
        coordIndex [
            0,1,2,-1,2,1,3,-1,2,3,4,-1,
        ]
    }
}
Shape{
    appearance Appearance {
        material  Material 	{
            diffuseColor 0.20784313725490197 0.20784313725490197 0.20784313725490197
            specularColor 0.01568627450980392 0.01568627450980392 0.01568627450980392
            ambientIntensity 0.298
            transparency 0.0
            shininess 0.5
        }
    }
    geometry IndexedFaceSet {
        ccw TRUE
        solid FALSE
        coord DEF co Coordinate {
            point [
                0.4154 0.3583 0.0098, 0.4154 0.754 0.0098, 0.6004 0.3583 0.0098, 0.4429 0.754 0.0098, 0.5951 0.8701 0.0098, 0.5991 0.8606 0.0098, 0.5889 0.8783 0.0098, 0.6004 0.8504 0.0098, 0.5807 0.8845 0.0098, 0.4429 0.8898 0.0098, 0.561 0.8898 0.0098, 0.5712 0.8885 0.0098, 0.6004 0.2402 0.0, 0.6004 0.2481 0.0, 0.6004 0.2402 0.0098, 0.6004 0.2481 0.0787, 0.6004 -0.2716 0.0098, 0.6004 -0.2716 0.0787
            ]
        }
        coordIndex [
            0,1,2,-1,2,1,3,-1,4,5,6,-1,6,5,7,-1,6,7,8,-1,3,9,2,-1,2,9,10,-1,2,10,7,-1,7,10,11,-1,7,11,8,-1,12,13,14,-1,14,13,15,-1,14,15,16,-1,16,15,17,-1,
        ]
    }
}
Shape{
    appearance Appearance {
        material  Material 	{
            diffuseColor 0.6666666666666666 0.6666666666666666 0.6666666666666666
            specularColor 0.4666666666666667 0.4666666666666667 0.4666666666666667
            ambientIntensity 0.6667
            transparency 0.0
            shininess 0.5
        }
    }
    geometry IndexedFaceSet {
        ccw TRUE
        solid FALSE
        coord DEF co Coordinate {
            point [
                0.4154 0.3583 0.0, 0.4154 0.754 0.0, 0.4154 0.3583 0.0098, 0.4154 0.754 0.0098
            ]
        }
        coordIndex [
            0,1,2,-1,2,1,3,-1,
        ]
    }
}
Shape{
    appearance Appearance {
        material  Material 	{
            diffuseColor 0.20784313725490197 0.20784313725490197 0.20784313725490197
            specularColor 0.01568627450980392 0.01568627450980392 0.01568627450980392
            ambientIntensity 0.298
            transparency 0.0
            shininess 0.5
        }
    }
    geometry IndexedFaceSet {
        ccw TRUE
        solid FALSE
        coord DEF co Coordinate {
            point [
                0.187 -0.311 0.0787, 0.187 -0.311 0.0098, 0.3248 -0.311 0.0787, 0.3248 -0.311 0.0098, 0.561 0.8898 0.0098, 0.4429 0.8898 0.0098, 0.561 0.8898 0.0787, 0.4429 0.8898 0.0787, 0.187 0.754 0.0098, 0.187 0.8898 0.0098, 0.3248 0.754 0.0098, 0.3248 0.8898 0.0098, -0.0689 -0.311 0.0787, -0.0689 -0.311 0.0098, 0.0689 -0.311 0.0787, 0.0689 -0.311 0.0098, 0.187 0.8898 0.0787, 0.3248 0.8898 0.0787, -0.5807 0.8845 0.0098, -0.5712 0.8885 0.0098, -0.5889 0.8783 0.0098, -0.561 0.8898 0.0098, -0.5951 0.8701 0.0098, -0.4154 0.754 0.0098, -0.4154 0.3583 0.0098, -0.4429 0.754 0.0098, -0.6004 0.3583 0.0098, -0.4429 0.8898 0.0098, -0.6004 0.8504 0.0098, -0.5991 0.8606 0.0098
            ]
        }
        coordIndex [
            0,1,2,-1,2,1,3,-1,4,5,6,-1,6,5,7,-1,8,9,10,-1,10,9,11,-1,12,13,14,-1,14,13,15,-1,9,16,11,-1,11,16,17,-1,18,19,20,-1,20,19,21,-1,20,21,22,-1,23,24,25,-1,25,24,26,-1,25,26,27,-1,27,26,28,-1,27,28,21,-1,21,28,29,-1,21,29,22,-1,
        ]
    }
}
Shape{
    appearance Appearance {
        material  Material 	{
            diffuseColor 0.6666666666666666 0.6666666666666666 0.6666666666666666
            specularColor 0.4666666666666667 0.4666666666666667 0.4666666666666667
            ambientIntensity 0.6667
            transparency 0.0
            shininess 0.5
        }
    }
    geometry IndexedFaceSet {
        ccw TRUE
        solid FALSE
        coord DEF co Coordinate {
            point [
                0.187 0.754 0.0, 0.187 0.754 0.0098, 0.3248 0.754 0.0, 0.3248 0.754 0.0098
            ]
        }
        coordIndex [
            0,1,2,-1,2,1,3,-1,
        ]
    }
}
Shape{
    appearance Appearance {
        material  Material 	{
            diffuseColor 0.20784313725490197 0.20784313725490197 0.20784313725490197
            specularColor 0.01568627450980392 0.01568627450980392 0.01568627450980392
            ambientIntensity 0.298
            transparency 0.0
            shininess 0.5
        }
    }
    geometry IndexedFaceSet {
        ccw TRUE
        solid FALSE
        coord DEF co Coordinate {
            point [
                -0.3248 -0.311 0.0787, -0.3248 -0.311 0.0098, -0.187 -0.311 0.0787, -0.187 -0.311 0.0098, -0.0689 0.8898 0.0098, -0.0689 0.8898 0.0787, 0.0689 0.8898 0.0098, 0.0689 0.8898 0.0787, -0.0689 0.754 0.0098, 0.0689 0.754 0.0098
            ]
        }
        coordIndex [
            0,1,2,-1,2,1,3,-1,4,5,6,-1,6,5,7,-1,8,4,9,-1,9,4,6,-1,
        ]
    }
}
Shape{
    appearance Appearance {
        material  Material 	{
            diffuseColor 0.6666666666666666 0.6666666666666666 0.6666666666666666
            specularColor 0.4666666666666667 0.4666666666666667 0.4666666666666667
            ambientIntensity 0.6667
            transparency 0.0
            shininess 0.5
        }
    }
    geometry IndexedFaceSet {
        ccw TRUE
        solid FALSE
        coord DEF co Coordinate {
            point [
                -0.0689 0.754 0.0, -0.0689 0.754 0.0098, -0.0139 0.754 0.0, 0.0689 0.754 0.0098, 0.0689 0.754 0.0
            ]
        }
        coordIndex [
            0,1,2,-1,2,1,3,-1,2,3,4,-1,
        ]
    }
}
Shape{
    appearance Appearance {
        material  Material 	{
            diffuseColor 0.20784313725490197 0.20784313725490197 0.20784313725490197
            specularColor 0.01568627450980392 0.01568627450980392 0.01568627450980392
            ambientIntensity 0.298
            transparency 0.0
            shininess 0.5
        }
    }
    geometry IndexedFaceSet {
        ccw TRUE
        solid FALSE
        coord DEF co Coordinate {
            point [
                -0.561 -0.311 0.0098, -0.4429 -0.311 0.0098, -0.561 -0.311 0.0787, -0.4429 -0.311 0.0787, -0.3248 0.8898 0.0098, -0.3248 0.8898 0.0787, -0.187 0.8898 0.0098, -0.187 0.8898 0.0787, -0.3248 0.754 0.0098, -0.187 0.754 0.0098, 0.6004 0.8504 0.0787, 0.6004 0.8506 0.0787, 0.5813 0.8316 0.26, 0.6004 -0.2718 0.0787, 0.6004 -0.2716 0.0787, 0.5813 -0.2528 0.26, 0.6004 0.2481 0.0787, 0.6004 0.3504 0.0787, 0.5612 0.8898 0.0787, 0.561 0.8898 0.0787, 0.5422 0.8707 0.26, 0.4429 0.8898 0.0787, 0.3248 0.8898 0.0787, 0.187 0.8898 0.0787, 0.0689 0.8898 0.0787, -0.5422 0.8707 0.26, -0.0689 0.8898 0.0787, -0.4429 0.8898 0.0787, -0.561 0.8898 0.0787, -0.5612 0.8898 0.0787, -0.6004 -0.2716 0.0787, -0.6004 -0.2718 0.0787, -0.5813 -0.2528 0.26, -0.6004 0.8506 0.0787, -0.6004 0.8504 0.0787, -0.5813 0.8316 0.26, -0.6004 0.3504 0.0787, -0.6004 0.2481 0.0787, -0.5612 -0.311 0.0787, -0.5422 -0.2919 0.26, -0.3248 -0.311 0.0787, -0.187 -0.311 0.0787, -0.0689 -0.311 0.0787, 0.5422 -0.2919 0.26, 0.0689 -0.311 0.0787, 0.187 -0.311 0.0787, 0.3248 -0.311 0.0787, 0.4429 -0.311 0.0787, 0.561 -0.311 0.0787, 0.5612 -0.311 0.0787, -0.4429 -0.1929 0.2953, -0.4443 -0.2031 0.2953, 0.5422 -0.2528 0.2953, -0.4482 -0.2126 0.2953, -0.4544 -0.2207 0.2953, -0.5422 -0.2528 0.2953, -0.4925 -0.2309 0.2953, -0.502 -0.227 0.2953, 0.5422 0.8316 0.2953, -0.4544 -0.165 0.2953, -0.4482 -0.1732 0.2953, -0.4626 -0.227 0.2953, -0.4721 -0.2309 0.2953, -0.4823 -0.2323 0.2953, -0.5101 -0.2207 0.2953, -0.5164 -0.2126 0.2953, -0.5203 -0.2031 0.2953, -0.5217 -0.1929 0.2953, -0.5203 -0.1827 0.2953, -0.5422 0.8316 0.2953, -0.5164 -0.1732 0.2953, -0.5101 -0.165 0.2953, -0.502 -0.1588 0.2953, -0.4925 -0.1549 0.2953, -0.4443 -0.1827 0.2953, -0.4823 -0.1535 0.2953, -0.4721 -0.1549 0.2953, -0.4626 -0.1588 0.2953, 0.6004 0.3504 0.0, 0.6004 0.3583 0.0, 0.6004 0.3583 0.0098, 0.6004 0.8504 0.0098, 0.561 -0.311 0.0098, 0.4429 -0.311 0.0098, -0.6004 0.2481 0.0, -0.6004 0.2402 0.0, -0.6004 0.2402 0.0098, -0.6004 -0.2716 0.0098, -0.561 0.8898 0.0098, -0.4429 0.8898 0.0098
            ]
        }
        coordIndex [
            0,1,2,-1,2,1,3,-1,4,5,6,-1,6,5,7,-1,8,4,9,-1,9,4,6,-1,10,11,12,-1,13,14,15,-1,15,14,16,-1,15,16,12,-1,12,16,17,-1,12,17,10,-1,18,19,20,-1,20,19,21,-1,20,21,22,-1,22,23,20,-1,20,23,24,-1,20,24,25,-1,24,26,25,-1,25,26,7,-1,25,7,5,-1,5,27,25,-1,25,27,28,-1,25,28,29,-1,30,31,32,-1,33,34,35,-1,35,34,36,-1,35,36,32,-1,32,36,37,-1,32,37,30,-1,38,2,39,-1,39,2,3,-1,39,3,40,-1,40,41,39,-1,39,41,42,-1,39,42,43,-1,42,44,43,-1,43,44,45,-1,43,45,46,-1,46,47,43,-1,43,47,48,-1,43,48,49,-1,50,51,52,-1,52,51,53,-1,52,53,54,-1,55,56,57,-1,58,59,60,-1,54,61,52,-1,52,61,62,-1,52,62,55,-1,55,62,63,-1,55,63,56,-1,57,64,55,-1,55,64,65,-1,55,65,66,-1,66,67,55,-1,55,67,68,-1,55,68,69,-1,69,68,70,-1,70,71,69,-1,69,71,72,-1,69,72,73,-1,58,60,52,-1,52,60,74,-1,52,74,50,-1,73,75,69,-1,69,75,76,-1,69,76,58,-1,58,76,77,-1,58,77,59,-1,78,79,80,-1,81,10,80,-1,80,10,17,-1,80,17,78,-1,48,47,82,-1,82,47,83,-1,84,85,86,-1,87,30,86,-1,86,30,37,-1,86,37,84,-1,28,27,88,-1,88,27,89,-1,
        ]
    }
}
Shape{
    appearance Appearance {
        material  Material 	{
            diffuseColor 0.6666666666666666 0.6666666666666666 0.6666666666666666
            specularColor 0.4666666666666667 0.4666666666666667 0.4666666666666667
            ambientIntensity 0.6667
            transparency 0.0
            shininess 0.5
        }
    }
    geometry IndexedFaceSet {
        ccw TRUE
        solid FALSE
        coord DEF co Coordinate {
            point [
                -0.4154 0.754 0.0098, -0.4154 0.754 0.0, -0.4154 0.3583 0.0098, -0.4154 0.3583 0.0, -0.3248 0.754 0.0, -0.3248 0.754 0.0098, -0.187 0.754 0.0, -0.187 0.754 0.0098, 0.4154 0.2402 0.0, 0.4154 0.2402 0.0098, 0.4154 0.2397 0.0, 0.4154 0.2225 0.0098, 0.4154 0.2225 0.0, 0.3169 0.124 0.0, 0.3169 0.124 0.0098, -0.0139 0.124 0.0, -0.3169 0.124 0.0098, -0.3169 0.124 0.0, -0.4154 0.2225 0.0, -0.4154 0.2225 0.0098, -0.3248 0.8898 0.0098, -0.3248 0.939 0.0, -0.3248 0.8898 0.0787, -0.3248 0.939 0.0787, -0.4429 0.939 0.0, -0.4429 0.939 0.0787, -0.4429 0.754 0.0, -0.4429 0.754 0.0098, -0.4429 0.8898 0.0098, -0.4429 0.8898 0.0787, -0.4429 -0.1752 0.0098, -0.4429 -0.1752 0.0, -0.4429 -0.311 0.0098, -0.4429 -0.3602 0.0, -0.4429 -0.311 0.0787, -0.4429 -0.3602 0.0787, -0.3248 -0.3602 0.0, -0.3248 -0.3602 0.0787, -0.3248 -0.1752 0.0, -0.3248 -0.1752 0.0098, -0.3248 -0.311 0.0098, -0.3248 -0.311 0.0787, -0.0689 0.939 0.0787, -0.187 0.939 0.0787, -0.0689 0.8898 0.0787, -0.187 0.8898 0.0787, -0.0689 0.754 0.0098, -0.0689 0.754 0.0, -0.0689 0.8898 0.0098, -0.0689 0.939 0.0, -0.187 0.939 0.0, -0.187 0.8898 0.0098, -0.187 -0.1752 0.0098, -0.187 -0.1752 0.0, -0.187 -0.311 0.0098, -0.187 -0.3602 0.0, -0.187 -0.311 0.0787, -0.187 -0.3602 0.0787, -0.0689 -0.3602 0.0, -0.0689 -0.3602 0.0787, -0.0689 -0.1752 0.0, -0.0689 -0.1752 0.0098, -0.0689 -0.311 0.0098, -0.0689 -0.311 0.0787, 0.187 0.939 0.0787, 0.0689 0.939 0.0787, 0.187 0.8898 0.0787, 0.0689 0.8898 0.0787, 0.187 0.754 0.0098, 0.187 0.754 0.0, 0.187 0.8898 0.0098, 0.187 0.939 0.0, 0.0689 0.939 0.0, 0.0689 0.754 0.0, 0.0689 0.754 0.0098, 0.0689 0.8898 0.0098, 0.0689 -0.1752 0.0098, 0.0689 -0.1752 0.0, 0.0689 -0.311 0.0098, 0.0689 -0.3602 0.0, 0.0689 -0.311 0.0787, 0.0689 -0.3602 0.0787, 0.187 -0.3602 0.0, 0.187 -0.3602 0.0787, 0.187 -0.1752 0.0, 0.187 -0.1752 0.0098, 0.187 -0.311 0.0098, 0.187 -0.311 0.0787, 0.4429 0.939 0.0787, 0.3248 0.939 0.0787, 0.4429 0.8898 0.0787, 0.3248 0.8898 0.0787, 0.4154 0.754 0.0098, 0.4154 0.754 0.0, 0.4429 0.754 0.0098, 0.4429 0.754 0.0, 0.4429 0.8898 0.0098, 0.4429 0.939 0.0, 0.3248 0.939 0.0, 0.3248 0.754 0.0, 0.3248 0.754 0.0098, 0.3248 0.8898 0.0098, 0.3248 -0.1752 0.0098, 0.3248 -0.1752 0.0, 0.3248 -0.311 0.0098, 0.3248 -0.3602 0.0, 0.3248 -0.311 0.0787, 0.3248 -0.3602 0.0787, 0.4429 -0.3602 0.0, 0.4429 -0.3602 0.0787, 0.4429 -0.1752 0.0, 0.4429 -0.1752 0.0098, 0.4429 -0.311 0.0098, 0.4429 -0.311 0.0787, 0.6004 0.3583 0.0, 0.4154 0.3583 0.0, 0.6004 0.3583 0.0098, 0.4154 0.3583 0.0098, 0.6004 0.2402 0.0098, 0.6004 0.2402 0.0, 0.6496 0.2481 0.0787, 0.6004 0.2481 0.0787, 0.6496 0.2481 0.0, 0.6004 0.2481 0.0, 0.6496 0.3504 0.0787, 0.6496 0.3504 0.0, 0.6004 0.3504 0.0787, 0.6004 0.3504 0.0, -0.6004 0.3583 0.0098, -0.6004 0.3583 0.0, -0.6496 0.3504 0.0787, -0.6004 0.3504 0.0787, -0.6496 0.3504 0.0, -0.6004 0.3504 0.0, -0.6496 0.2481 0.0787, -0.6496 0.2481 0.0, -0.6004 0.2481 0.0787, -0.6004 0.2481 0.0, -0.6004 0.2402 0.0, -0.4154 0.2402 0.0, -0.6004 0.2402 0.0098, -0.4154 0.2402 0.0098
            ]
        }
        coordIndex [
            0,1,2,-1,2,1,3,-1,4,5,6,-1,6,5,7,-1,8,9,10,-1,10,9,11,-1,10,11,12,-1,13,12,14,-1,14,12,11,-1,13,14,15,-1,15,14,16,-1,15,16,17,-1,18,17,19,-1,19,17,16,-1,5,4,20,-1,20,4,21,-1,20,21,22,-1,22,21,23,-1,24,25,21,-1,21,25,23,-1,26,27,28,-1,29,25,28,-1,28,25,24,-1,28,24,26,-1,27,26,0,-1,0,26,1,-1,22,23,29,-1,29,23,25,-1,30,31,32,-1,32,31,33,-1,32,33,34,-1,34,33,35,-1,36,37,33,-1,33,37,35,-1,38,39,40,-1,41,37,40,-1,40,37,36,-1,40,36,38,-1,39,38,30,-1,30,38,31,-1,35,37,34,-1,34,37,41,-1,38,36,31,-1,31,36,33,-1,42,43,44,-1,44,43,45,-1,46,47,48,-1,48,47,49,-1,48,49,44,-1,44,49,42,-1,50,43,49,-1,49,43,42,-1,6,7,51,-1,45,43,51,-1,51,43,50,-1,51,50,6,-1,52,53,54,-1,54,53,55,-1,54,55,56,-1,56,55,57,-1,58,59,55,-1,55,59,57,-1,60,61,62,-1,63,59,62,-1,62,59,58,-1,62,58,60,-1,61,60,52,-1,52,60,53,-1,57,59,56,-1,56,59,63,-1,60,58,53,-1,53,58,55,-1,64,65,66,-1,66,65,67,-1,68,69,70,-1,70,69,71,-1,70,71,66,-1,66,71,64,-1,72,65,71,-1,71,65,64,-1,73,74,75,-1,67,65,75,-1,75,65,72,-1,75,72,73,-1,76,77,78,-1,78,77,79,-1,78,79,80,-1,80,79,81,-1,82,83,79,-1,79,83,81,-1,84,85,86,-1,87,83,86,-1,86,83,82,-1,86,82,84,-1,85,84,76,-1,76,84,77,-1,81,83,80,-1,80,83,87,-1,84,82,77,-1,77,82,79,-1,88,89,90,-1,90,89,91,-1,92,93,94,-1,94,93,95,-1,94,95,96,-1,96,95,97,-1,96,97,90,-1,90,97,88,-1,98,89,97,-1,97,89,88,-1,99,100,101,-1,91,89,101,-1,101,89,98,-1,101,98,99,-1,102,103,104,-1,104,103,105,-1,104,105,106,-1,106,105,107,-1,108,109,105,-1,105,109,107,-1,110,111,112,-1,113,109,112,-1,112,109,108,-1,112,108,110,-1,111,110,102,-1,102,110,103,-1,107,109,106,-1,106,109,113,-1,110,108,103,-1,103,108,105,-1,114,115,116,-1,116,115,117,-1,9,8,118,-1,118,8,119,-1,120,121,122,-1,122,121,123,-1,124,120,125,-1,125,120,122,-1,126,124,127,-1,127,124,125,-1,120,124,121,-1,121,124,126,-1,2,3,128,-1,128,3,129,-1,130,131,132,-1,132,131,133,-1,134,130,135,-1,135,130,132,-1,136,134,137,-1,137,134,135,-1,138,139,140,-1,140,139,141,-1,130,134,131,-1,131,134,136,-1,
        ]
    }
}
Shape{
    appearance Appearance {
        material  Material 	{
            diffuseColor 1.0 1.0 1.0
            specularColor 0.8784313725490196 0.8784313725490196 0.8784313725490196
            ambientIntensity 1.0
            transparency 0.0
            shininess 0.5
        }
    }
    geometry IndexedFaceSet {
        ccw TRUE
        solid FALSE
        coord DEF co Coordinate {
            point [
                -0.1311 0.3189 0.0079, -0.1618 0.2402 0.0079, -0.1311 0.3189 0.0, -0.1618 0.2402 0.0, -0.1503 0.2402 0.0079, -0.1503 0.2402 0.0, -0.1423 0.2623 0.0079, -0.1423 0.2623 0.0, -0.1098 0.2623 0.0079, -0.1098 0.2623 0.0, -0.1023 0.2402 0.0079, -0.1023 0.2402 0.0, -0.0908 0.2402 0.0079, -0.0908 0.2402 0.0, -0.1205 0.3189 0.0079, -0.1205 0.3189 0.0, -0.1125 0.2709 0.0079, -0.1242 0.3038 0.0079, -0.125 0.3065 0.0079, -0.1255 0.3093 0.0079, -0.1257 0.3093 0.0079, -0.1262 0.3065 0.0079, -0.1269 0.3038 0.0079, -0.1388 0.2709 0.0079, -0.1125 0.2709 0.0, -0.1388 0.2709 0.0, -0.1242 0.3038 0.0, -0.125 0.3065 0.0, -0.1255 0.3093 0.0, -0.1257 0.3093 0.0, -0.1262 0.3065 0.0, -0.1269 0.3038 0.0, -0.043 0.2402 0.0079, -0.0216 0.2402 0.0079, -0.043 0.2402 0.0, -0.0216 0.2402 0.0, -0.0216 0.3189 0.0079, -0.0216 0.3189 0.0, -0.0438 0.3189 0.0079, -0.0438 0.3189 0.0, -0.085 0.2805 0.0079, -0.085 0.2805 0.0, -0.0844 0.288 0.0, -0.0844 0.288 0.0079, -0.0823 0.2957 0.0, -0.0823 0.2957 0.0079, -0.0786 0.3025 0.0, -0.0786 0.3025 0.0079, -0.0731 0.3087 0.0, -0.0731 0.3087 0.0079, -0.073 0.3087 0.0, -0.073 0.3087 0.0079, -0.0644 0.3145 0.0, -0.0644 0.3145 0.0079, -0.0552 0.3177 0.0, -0.0552 0.3177 0.0079, -0.0528 0.241 0.0, -0.0528 0.241 0.0079, -0.0618 0.2437 0.0, -0.0618 0.2437 0.0079, -0.0701 0.2485 0.0, -0.0701 0.2485 0.0079, -0.0765 0.2547 0.0, -0.0765 0.2547 0.0079, -0.0811 0.2618 0.0, -0.0811 0.2618 0.0079, -0.0839 0.27 0.0, -0.0839 0.27 0.0079, -0.0692 0.2992 0.0079, -0.0654 0.3033 0.0079, -0.0596 0.307 0.0079, -0.0531 0.3093 0.0079, -0.0438 0.3103 0.0079, -0.0322 0.3103 0.0079, -0.0322 0.2488 0.0079, -0.0434 0.2488 0.0079, -0.0517 0.2496 0.0079, -0.0583 0.2517 0.0079, -0.0637 0.2549 0.0079, -0.0681 0.2592 0.0079, -0.0714 0.2647 0.0079, -0.0737 0.2721 0.0079, -0.0744 0.2803 0.0079, -0.0738 0.2882 0.0079, -0.0719 0.2944 0.0079, -0.0438 0.3103 0.0, -0.0322 0.3103 0.0, -0.0531 0.3093 0.0, -0.0596 0.307 0.0, -0.0654 0.3033 0.0, -0.0692 0.2992 0.0, -0.0719 0.2944 0.0, -0.0738 0.2882 0.0, -0.0744 0.2803 0.0, -0.0737 0.2721 0.0, -0.0714 0.2647 0.0, -0.0681 0.2592 0.0, -0.0637 0.2549 0.0, -0.0583 0.2517 0.0, -0.0517 0.2496 0.0, -0.0434 0.2488 0.0, -0.0322 0.2488 0.0, -0.0063 0.2488 0.0079, -0.0063 0.2402 0.0079, -0.0063 0.2488 0.0, -0.0063 0.2402 0.0, 0.036 0.2402 0.0079, 0.036 0.2402 0.0, 0.036 0.3189 0.0079, 0.036 0.3189 0.0, -0.0043 0.3189 0.0079, -0.0043 0.3189 0.0, -0.0043 0.3103 0.0079, -0.0043 0.3103 0.0, 0.0254 0.3103 0.0079, 0.0254 0.3103 0.0, 0.0254 0.2844 0.0079, 0.0254 0.2844 0.0, -0.0024 0.2844 0.0079, -0.0024 0.2844 0.0, -0.0024 0.2757 0.0079, -0.0024 0.2757 0.0, 0.0254 0.2757 0.0079, 0.0254 0.2757 0.0, 0.0254 0.2488 0.0079, 0.0254 0.2488 0.0, 0.0514 0.2529 0.0079, 0.0514 0.2443 0.0079, 0.0514 0.2529 0.0, 0.0514 0.2443 0.0, 0.0598 0.2408 0.0079, 0.073 0.2392 0.0079, 0.073 0.2392 0.0, 0.0709 0.2393 0.0, 0.0709 0.2393 0.0079, 0.0677 0.2397 0.0, 0.0598 0.2408 0.0, 0.1099 0.2781 0.0079, 0.1099 0.2781 0.0, 0.1092 0.269 0.0, 0.1092 0.269 0.0079, 0.1068 0.2606 0.0, 0.1068 0.2606 0.0079, 0.1026 0.2531 0.0, 0.1026 0.2531 0.0079, 0.0967 0.2469 0.0, 0.0967 0.2469 0.0079, 0.0904 0.2429 0.0, 0.0904 0.2429 0.0079, 0.0827 0.2402 0.0, 0.0827 0.2402 0.0079, 0.0777 0.2397 0.0, 0.0699 0.3199 0.0079, 0.0699 0.3199 0.0, 0.0778 0.3192 0.0, 0.0778 0.3192 0.0079, 0.0866 0.3167 0.0, 0.0866 0.3167 0.0079, 0.0941 0.3124 0.0, 0.0941 0.3124 0.0079, 0.1012 0.3056 0.0, 0.1012 0.3056 0.0079, 0.1058 0.2982 0.0, 0.1058 0.2982 0.0079, 0.1088 0.2893 0.0, 0.1088 0.2893 0.0079, 0.0514 0.3168 0.0079, 0.0514 0.3168 0.0, 0.0605 0.3192 0.0, 0.0605 0.3192 0.0079, 0.0514 0.3062 0.0079, 0.0514 0.3062 0.0, 0.0698 0.3112 0.0079, 0.0698 0.3112 0.0, 0.0602 0.31 0.0, 0.0602 0.31 0.0079, 0.0994 0.2787 0.0079, 0.0994 0.2787 0.0, 0.099 0.2848 0.0, 0.099 0.2848 0.0079, 0.0969 0.2933 0.0, 0.0969 0.2933 0.0079, 0.0937 0.2994 0.0, 0.0937 0.2994 0.0079, 0.0889 0.3046 0.0, 0.0889 0.3046 0.0079, 0.0834 0.3082 0.0, 0.0834 0.3082 0.0079, 0.0776 0.3104 0.0, 0.0776 0.3104 0.0079, 0.0716 0.2479 0.0079, 0.0716 0.2479 0.0, 0.0789 0.2487 0.0, 0.0789 0.2487 0.0079, 0.0847 0.2508 0.0, 0.0847 0.2508 0.0079, 0.0895 0.2541 0.0, 0.0895 0.2541 0.0079, 0.0932 0.258 0.0, 0.0932 0.258 0.0079, 0.0964 0.2634 0.0, 0.0964 0.2634 0.0079, 0.0986 0.2702 0.0, 0.0986 0.2702 0.0079, 0.0528 0.2521 0.0, 0.0528 0.2521 0.0079, 0.0611 0.249 0.0, 0.0611 0.249 0.0079, 0.1167 0.2488 0.0079, 0.1167 0.2402 0.0079, 0.1167 0.2488 0.0, 0.1167 0.2402 0.0, 0.157 0.2402 0.0079, 0.157 0.2402 0.0, 0.157 0.3189 0.0079, 0.157 0.3189 0.0, 0.1464 0.3189 0.0079, 0.1464 0.3189 0.0, 0.1464 0.2488 0.0079, 0.1464 0.2488 0.0
            ]
        }
        coordIndex [
            0,1,2,-1,2,1,3,-1,1,4,3,-1,3,4,5,-1,4,6,5,-1,5,6,7,-1,6,8,7,-1,7,8,9,-1,8,10,9,-1,9,10,11,-1,10,12,11,-1,11,12,13,-1,12,14,13,-1,13,14,15,-1,14,0,15,-1,15,0,2,-1,16,17,14,-1,12,10,8,-1,17,18,14,-1,14,18,19,-1,14,19,0,-1,0,19,20,-1,0,20,21,-1,21,22,0,-1,0,22,23,-1,0,23,1,-1,4,1,6,-1,6,1,23,-1,6,23,8,-1,8,23,16,-1,8,16,12,-1,12,16,14,-1,16,23,24,-1,24,23,25,-1,17,16,26,-1,26,16,24,-1,17,26,27,-1,17,27,18,-1,18,27,28,-1,18,28,19,-1,20,19,29,-1,29,19,28,-1,20,29,30,-1,20,30,21,-1,21,30,31,-1,21,31,22,-1,23,22,25,-1,25,22,31,-1,32,33,34,-1,34,33,35,-1,33,36,35,-1,35,36,37,-1,36,38,37,-1,37,38,39,-1,40,41,42,-1,40,42,43,-1,43,42,44,-1,43,44,45,-1,45,44,46,-1,45,46,47,-1,47,46,48,-1,47,48,49,-1,49,48,50,-1,49,50,51,-1,51,50,52,-1,51,52,53,-1,53,52,54,-1,53,54,55,-1,55,54,39,-1,55,39,38,-1,32,34,56,-1,32,56,57,-1,57,56,58,-1,57,58,59,-1,59,58,60,-1,59,60,61,-1,61,60,62,-1,61,62,63,-1,63,62,64,-1,63,64,65,-1,65,64,66,-1,65,66,67,-1,67,66,41,-1,67,41,40,-1,45,47,68,-1,68,47,49,-1,68,49,69,-1,69,49,51,-1,69,51,70,-1,70,51,53,-1,70,53,71,-1,71,53,55,-1,71,55,72,-1,72,55,38,-1,72,38,73,-1,73,38,36,-1,73,36,74,-1,74,36,33,-1,74,33,75,-1,75,33,32,-1,75,32,76,-1,76,32,57,-1,76,57,77,-1,77,57,59,-1,77,59,78,-1,78,59,61,-1,78,61,79,-1,79,61,63,-1,79,63,80,-1,80,63,65,-1,80,65,81,-1,81,65,67,-1,81,67,82,-1,82,67,40,-1,82,40,83,-1,83,40,43,-1,83,43,84,-1,84,43,45,-1,84,45,68,-1,72,73,85,-1,85,73,86,-1,72,85,87,-1,72,87,71,-1,71,87,88,-1,71,88,70,-1,70,88,89,-1,70,89,69,-1,69,89,90,-1,69,90,68,-1,68,90,91,-1,68,91,84,-1,84,91,92,-1,84,92,83,-1,83,92,93,-1,83,93,82,-1,82,93,94,-1,82,94,81,-1,81,94,95,-1,81,95,80,-1,80,95,96,-1,80,96,79,-1,79,96,97,-1,79,97,78,-1,78,97,98,-1,78,98,77,-1,77,98,99,-1,77,99,76,-1,76,99,100,-1,76,100,75,-1,74,75,101,-1,101,75,100,-1,73,74,86,-1,86,74,101,-1,102,103,104,-1,104,103,105,-1,103,106,105,-1,105,106,107,-1,106,108,107,-1,107,108,109,-1,108,110,109,-1,109,110,111,-1,110,112,111,-1,111,112,113,-1,112,114,113,-1,113,114,115,-1,114,116,115,-1,115,116,117,-1,116,118,117,-1,117,118,119,-1,118,120,119,-1,119,120,121,-1,120,122,121,-1,121,122,123,-1,122,124,123,-1,123,124,125,-1,124,102,125,-1,125,102,104,-1,106,103,102,-1,102,124,106,-1,106,124,122,-1,106,122,108,-1,112,110,114,-1,114,110,108,-1,114,108,116,-1,116,108,122,-1,116,122,118,-1,118,122,120,-1,126,127,128,-1,128,127,129,-1,129,127,130,-1,131,132,133,-1,131,133,134,-1,134,133,135,-1,134,135,130,-1,130,135,136,-1,130,136,129,-1,137,138,139,-1,137,139,140,-1,140,139,141,-1,140,141,142,-1,142,141,143,-1,142,143,144,-1,144,143,145,-1,144,145,146,-1,146,145,147,-1,146,147,148,-1,148,147,149,-1,148,149,150,-1,150,149,131,-1,131,149,151,-1,131,151,132,-1,152,153,154,-1,152,154,155,-1,155,154,156,-1,155,156,157,-1,157,156,158,-1,157,158,159,-1,159,158,160,-1,159,160,161,-1,161,160,162,-1,161,162,163,-1,163,162,164,-1,163,164,165,-1,165,164,138,-1,165,138,137,-1,166,167,168,-1,166,168,169,-1,169,168,153,-1,169,153,152,-1,166,170,167,-1,167,170,171,-1,172,173,174,-1,172,174,175,-1,175,174,171,-1,175,171,170,-1,176,177,178,-1,176,178,179,-1,179,178,180,-1,179,180,181,-1,181,180,182,-1,181,182,183,-1,183,182,184,-1,183,184,185,-1,185,184,186,-1,185,186,187,-1,187,186,188,-1,187,188,189,-1,189,188,173,-1,189,173,172,-1,190,191,192,-1,190,192,193,-1,193,192,194,-1,193,194,195,-1,195,194,196,-1,195,196,197,-1,197,196,198,-1,197,198,199,-1,199,198,200,-1,199,200,201,-1,201,200,202,-1,201,202,203,-1,203,202,177,-1,203,177,176,-1,126,128,204,-1,126,204,205,-1,205,204,206,-1,205,206,207,-1,207,206,191,-1,207,191,190,-1,193,131,190,-1,190,131,134,-1,190,134,207,-1,207,134,130,-1,207,130,205,-1,205,130,127,-1,205,127,126,-1,170,166,175,-1,175,166,169,-1,175,169,172,-1,172,169,152,-1,172,152,189,-1,189,152,155,-1,189,155,187,-1,187,155,157,-1,187,157,185,-1,185,157,159,-1,185,159,183,-1,183,159,161,-1,183,161,181,-1,181,161,163,-1,181,163,179,-1,179,163,165,-1,179,165,176,-1,176,165,137,-1,176,137,203,-1,203,137,140,-1,203,140,201,-1,201,140,142,-1,201,142,199,-1,199,142,144,-1,199,144,197,-1,197,144,146,-1,197,146,195,-1,195,146,148,-1,195,148,193,-1,193,148,150,-1,193,150,131,-1,208,209,210,-1,210,209,211,-1,209,212,211,-1,211,212,213,-1,212,214,213,-1,213,214,215,-1,214,216,215,-1,215,216,217,-1,216,218,217,-1,217,218,219,-1,218,208,219,-1,219,208,210,-1,216,214,218,-1,218,214,212,-1,218,212,208,-1,208,212,209,-1,
        ]
    }
}
Shape{
    appearance Appearance {
        material  Material 	{
            diffuseColor 0.6666666666666666 0.6666666666666666 0.6666666666666666
            specularColor 0.4666666666666667 0.4666666666666667 0.4666666666666667
            ambientIntensity 0.6667
            transparency 0.0
            shininess 0.5
        }
    }
    geometry IndexedFaceSet {
        ccw TRUE
        solid FALSE
        coord DEF co Coordinate {
            point [
                -0.1125 0.2709 0.0, -0.1388 0.2709 0.0, -0.1242 0.3038 0.0, -0.1269 0.3038 0.0, -0.125 0.3065 0.0, -0.1262 0.3065 0.0, -0.1255 0.3093 0.0, -0.1257 0.3093 0.0, -0.0322 0.3103 0.0, -0.0322 0.2488 0.0, -0.0438 0.3103 0.0, -0.0434 0.2488 0.0, -0.0517 0.2496 0.0, -0.0744 0.2803 0.0, -0.0738 0.2882 0.0, -0.0719 0.2944 0.0, -0.0531 0.3093 0.0, -0.0583 0.2517 0.0, -0.0637 0.2549 0.0, -0.0681 0.2592 0.0, -0.0714 0.2647 0.0, -0.0737 0.2721 0.0, -0.0692 0.2992 0.0, -0.0654 0.3033 0.0, -0.0596 0.307 0.0
            ]
        }
        coordIndex [
            0,1,2,-1,2,1,3,-1,2,3,4,-1,4,3,5,-1,4,5,6,-1,6,5,7,-1,8,9,10,-1,10,9,11,-1,10,11,12,-1,13,14,10,-1,10,14,15,-1,10,15,16,-1,12,17,10,-1,10,17,18,-1,10,18,19,-1,19,20,10,-1,10,20,21,-1,10,21,13,-1,22,23,15,-1,15,23,24,-1,15,24,16,-1,
        ]
    }
}
Shape{
    appearance Appearance {
        material  Material 	{
            diffuseColor 0.34901960784313724 0.34901960784313724 0.34901960784313724
            specularColor 0.023529411764705882 0.023529411764705882 0.023529411764705882
            ambientIntensity 0.498
            transparency 0.0
            shininess 0.5
        }
    }
    geometry IndexedFaceSet {
        ccw TRUE
        solid FALSE
        coord DEF co Coordinate {
            point [
                -0.4429 -0.1929 0.2874, -0.4429 -0.1929 0.2953, -0.4443 -0.1827 0.2874, -0.4443 -0.1827 0.2953, -0.4482 -0.1732 0.2874, -0.4482 -0.1732 0.2953, -0.4544 -0.165 0.2874, -0.4544 -0.165 0.2953, -0.4626 -0.1588 0.2874, -0.4626 -0.1588 0.2953, -0.4721 -0.1549 0.2874, -0.4721 -0.1549 0.2953, -0.4823 -0.1535 0.2874, -0.4823 -0.1535 0.2953, -0.4925 -0.1549 0.2874, -0.4925 -0.1549 0.2953, -0.502 -0.1588 0.2874, -0.502 -0.1588 0.2953, -0.5101 -0.165 0.2874, -0.5101 -0.165 0.2953, -0.5164 -0.1732 0.2874, -0.5164 -0.1732 0.2953, -0.5203 -0.1827 0.2874, -0.5203 -0.1827 0.2953, -0.5217 -0.1929 0.2874, -0.5217 -0.1929 0.2953, -0.5203 -0.2031 0.2874, -0.5203 -0.2031 0.2953, -0.5164 -0.2126 0.2874, -0.5164 -0.2126 0.2953, -0.5101 -0.2207 0.2874, -0.5101 -0.2207 0.2953, -0.502 -0.227 0.2874, -0.502 -0.227 0.2953, -0.4925 -0.2309 0.2874, -0.4925 -0.2309 0.2953, -0.4823 -0.2323 0.2874, -0.4823 -0.2323 0.2953, -0.4721 -0.2309 0.2874, -0.4721 -0.2309 0.2953, -0.4626 -0.227 0.2874, -0.4626 -0.227 0.2953, -0.4544 -0.2207 0.2874, -0.4544 -0.2207 0.2953, -0.4482 -0.2126 0.2874, -0.4482 -0.2126 0.2953, -0.4443 -0.2031 0.2874, -0.4443 -0.2031 0.2953, -0.4823 -0.1929 0.2874
            ]
        }
        coordIndex [
            0,1,2,-1,2,1,3,-1,2,3,4,-1,4,3,5,-1,4,5,6,-1,6,5,7,-1,6,7,8,-1,8,7,9,-1,8,9,10,-1,10,9,11,-1,10,11,12,-1,12,11,13,-1,12,13,14,-1,14,13,15,-1,14,15,16,-1,16,15,17,-1,16,17,18,-1,18,17,19,-1,18,19,20,-1,20,19,21,-1,20,21,22,-1,22,21,23,-1,22,23,24,-1,24,23,25,-1,24,25,26,-1,26,25,27,-1,26,27,28,-1,28,27,29,-1,28,29,30,-1,30,29,31,-1,30,31,32,-1,32,31,33,-1,32,33,34,-1,34,33,35,-1,34,35,36,-1,36,35,37,-1,36,37,38,-1,38,37,39,-1,38,39,40,-1,40,39,41,-1,40,41,42,-1,42,41,43,-1,42,43,44,-1,44,43,45,-1,44,45,46,-1,46,45,47,-1,46,47,0,-1,0,47,1,-1,44,46,48,-1,48,46,0,-1,48,0,2,-1,38,40,48,-1,48,40,42,-1,48,42,44,-1,32,34,48,-1,48,34,36,-1,48,36,38,-1,26,28,48,-1,48,28,30,-1,48,30,32,-1,20,22,48,-1,48,22,24,-1,48,24,26,-1,14,16,48,-1,48,16,18,-1,48,18,20,-1,8,10,48,-1,48,10,12,-1,48,12,14,-1,2,4,48,-1,48,4,6,-1,48,6,8,-1,
        ]
    }
}
Shape{
    appearance Appearance {
        material  Material 	{
            diffuseColor 0.20784313725490197 0.20784313725490197 0.20784313725490197
            specularColor 0.01568627450980392 0.01568627450980392 0.01568627450980392
            ambientIntensity 0.298
            transparency 0.0
            shininess 0.5
        }
    }
    geometry IndexedFaceSet {
        ccw TRUE
        solid FALSE
        coord DEF co Coordinate {
            point [
                -0.5612 0.8898 0.0787, -0.561 0.8898 0.0787, -0.561 0.8898 0.0098, -0.5712 0.8884 0.0792, -0.5712 0.8885 0.0098, -0.5714 0.8884 0.0792, -0.5807 0.8845 0.0098, -0.5807 0.8845 0.0795, -0.5808 0.8845 0.0795, -0.5889 0.8783 0.0098, -0.5889 0.8783 0.0796, -0.5951 0.8702 0.0795, -0.5951 0.8701 0.0098, -0.5951 0.8701 0.0795, -0.599 0.8608 0.0792, -0.5991 0.8606 0.0098, -0.599 0.8606 0.0792, -0.6004 0.8504 0.0098, -0.6004 0.8504 0.0787, -0.6004 0.8506 0.0787, 0.6004 0.8506 0.0787, 0.6004 0.8504 0.0787, 0.6004 0.8504 0.0098, 0.599 0.8606 0.0792, 0.5991 0.8606 0.0098, 0.599 0.8608 0.0792, 0.5951 0.8701 0.0098, 0.5951 0.8701 0.0795, 0.5951 0.8702 0.0795, 0.5889 0.8783 0.0098, 0.5889 0.8783 0.0796, 0.5808 0.8845 0.0795, 0.5807 0.8845 0.0098, 0.5807 0.8845 0.0795, 0.5714 0.8884 0.0792, 0.5712 0.8885 0.0098, 0.5712 0.8884 0.0792, 0.561 0.8898 0.0098, 0.561 0.8898 0.0787, 0.5612 0.8898 0.0787, -0.5799 0.8417 0.2609, -0.5813 0.8316 0.26, -0.5799 0.8417 0.2609, -0.576 0.851 0.2615, -0.5759 0.8511 0.2615, -0.5697 0.8591 0.2617, -0.5617 0.8653 0.2615, -0.5616 0.8654 0.2615, -0.5523 0.8693 0.2609, -0.5523 0.8693 0.2609, -0.5422 0.8707 0.26, -0.5422 0.8316 0.2953, 0.5422 0.8316 0.2953, 0.5422 0.8411 0.2941, 0.5422 0.8707 0.26, 0.5422 0.8687 0.2691, -0.5422 0.8687 0.2691, 0.5422 0.8686 0.2694, -0.5422 0.8686 0.2694, 0.5422 0.8644 0.2777, -0.5422 0.8644 0.2777, 0.5422 0.8642 0.2779, -0.5422 0.8642 0.2779, 0.5422 0.8581 0.285, -0.5422 0.8581 0.285, 0.5422 0.8579 0.2851, -0.5422 0.8579 0.2851, 0.5422 0.8502 0.2906, -0.5422 0.8502 0.2906, 0.5422 0.8501 0.2907, -0.5422 0.8501 0.2907, 0.5422 0.8412 0.2941, -0.5422 0.8412 0.2941, -0.5422 0.8411 0.2941, 0.5523 0.8693 0.2609, 0.5523 0.8693 0.2609, 0.5616 0.8654 0.2615, 0.5617 0.8653 0.2615, 0.5697 0.8591 0.2617, 0.5759 0.8511 0.2615, 0.576 0.851 0.2615, 0.5799 0.8417 0.2609, 0.5799 0.8417 0.2609, 0.5813 0.8316 0.26, -0.6004 -0.2718 0.0787, -0.6004 -0.2716 0.0787, -0.6004 -0.2716 0.0098, -0.599 -0.2818 0.0792, -0.5991 -0.2818 0.0098, -0.599 -0.282 0.0792, -0.5951 -0.2913 0.0098, -0.5951 -0.2913 0.0795, -0.5951 -0.2914 0.0795, -0.5889 -0.2995 0.0098, -0.5889 -0.2995 0.0796, -0.5808 -0.3057 0.0795, -0.5807 -0.3057 0.0098, -0.5807 -0.3057 0.0795, -0.5714 -0.3096 0.0792, -0.5712 -0.3097 0.0098, -0.5712 -0.3096 0.0792, -0.561 -0.311 0.0098, -0.561 -0.311 0.0787, -0.5612 -0.311 0.0787, -0.5748 0.8316 0.2779, -0.5687 0.8316 0.285, -0.5678 0.8384 0.285, -0.5601 0.8364 0.2906, -0.5514 0.8341 0.2941, -0.5505 0.8364 0.2941, -0.547 0.8399 0.2941, -0.549 0.8384 0.2941, -0.5447 0.8408 0.2941, -0.5517 0.8316 0.2941, -0.578 0.8412 0.2691, -0.5743 0.8501 0.2691, -0.5684 0.8578 0.2691, -0.5607 0.8637 0.2691, -0.5518 0.8674 0.2691, -0.5685 0.8316 0.2851, -0.5608 0.8316 0.2906, -0.5607 0.8316 0.2907, -0.5518 0.8316 0.2941, -0.5583 0.8409 0.2906, -0.5553 0.8447 0.2906, -0.5515 0.8477 0.2906, -0.547 0.8495 0.2906, -0.5651 0.8448 0.285, -0.5609 0.8503 0.285, -0.5554 0.8545 0.285, -0.549 0.8572 0.285, -0.5792 0.8316 0.2694, -0.575 0.8316 0.2777, -0.5738 0.8401 0.2777, -0.5706 0.848 0.2777, -0.5654 0.8548 0.2777, -0.5586 0.86 0.2777, -0.5507 0.8632 0.2777, -0.5793 0.8316 0.2691, 0.549 0.8572 0.285, 0.547 0.8495 0.2906, 0.5447 0.8408 0.2941, 0.547 0.8399 0.2941, 0.5505 0.8364 0.2941, 0.549 0.8384 0.2941, 0.5514 0.8341 0.2941, 0.5518 0.8674 0.2691, 0.5607 0.8637 0.2691, 0.5684 0.8578 0.2691, 0.5743 0.8501 0.2691, 0.578 0.8412 0.2691, 0.5793 0.8316 0.2691, 0.5517 0.8316 0.2941, 0.5515 0.8477 0.2906, 0.5553 0.8447 0.2906, 0.5583 0.8409 0.2906, 0.5601 0.8364 0.2906, 0.5518 0.8316 0.2941, 0.5607 0.8316 0.2907, 0.5608 0.8316 0.2906, 0.5685 0.8316 0.2851, 0.5554 0.8545 0.285, 0.5609 0.8503 0.285, 0.5651 0.8448 0.285, 0.5678 0.8384 0.285, 0.5507 0.8632 0.2777, 0.5586 0.86 0.2777, 0.5654 0.8548 0.2777, 0.5706 0.848 0.2777, 0.5738 0.8401 0.2777, 0.5687 0.8316 0.285, 0.5748 0.8316 0.2779, 0.575 0.8316 0.2777, 0.5792 0.8316 0.2694, 0.5612 -0.311 0.0787, 0.561 -0.311 0.0787, 0.561 -0.311 0.0098, 0.5712 -0.3096 0.0792, 0.5712 -0.3097 0.0098, 0.5714 -0.3096 0.0792, 0.5807 -0.3057 0.0098, 0.5807 -0.3057 0.0795, 0.5808 -0.3057 0.0795, 0.5889 -0.2995 0.0098, 0.5889 -0.2995 0.0796, 0.5951 -0.2914 0.0795, 0.5951 -0.2913 0.0098, 0.5951 -0.2913 0.0795, 0.599 -0.282 0.0792, 0.5991 -0.2818 0.0098, 0.599 -0.2818 0.0792, 0.6004 -0.2716 0.0098, 0.6004 -0.2716 0.0787, 0.6004 -0.2718 0.0787, -0.5422 -0.2919 0.26, -0.5509 -0.2907 0.2608, -0.5523 -0.2905 0.2609, -0.559 -0.2877 0.2613, -0.5616 -0.2866 0.2615, -0.5663 -0.283 0.2616, -0.5813 -0.2528 0.26, -0.5801 -0.2615 0.2608, -0.5799 -0.2629 0.2609, -0.5771 -0.2696 0.2613, -0.576 -0.2722 0.2615, -0.5724 -0.2769 0.2616, -0.5697 -0.2803 0.2617, -0.5422 -0.2528 0.2953, -0.5793 -0.2528 0.2691, -0.5792 -0.2528 0.2694, -0.575 -0.2528 0.2777, -0.5748 -0.2528 0.2779, -0.5687 -0.2528 0.285, -0.5685 -0.2528 0.2851, -0.5608 -0.2528 0.2906, -0.5607 -0.2528 0.2907, -0.5518 -0.2528 0.2941, -0.5517 -0.2528 0.2941, 0.5422 -0.2528 0.2953, 0.5517 -0.2528 0.2941, 0.5813 -0.2528 0.26, 0.5793 -0.2528 0.2691, 0.5792 -0.2528 0.2694, 0.575 -0.2528 0.2777, 0.5748 -0.2528 0.2779, 0.5687 -0.2528 0.285, 0.5685 -0.2528 0.2851, 0.5608 -0.2528 0.2906, 0.5607 -0.2528 0.2907, 0.5518 -0.2528 0.2941, 0.5801 -0.2615 0.2608, 0.5799 -0.2629 0.2609, 0.5771 -0.2696 0.2613, 0.576 -0.2722 0.2615, 0.5724 -0.2769 0.2616, 0.5422 -0.2919 0.26, 0.5509 -0.2907 0.2608, 0.5523 -0.2905 0.2609, 0.559 -0.2877 0.2613, 0.5616 -0.2866 0.2615, 0.5663 -0.283 0.2616, 0.5697 -0.2803 0.2617, -0.5422 -0.2898 0.2694, -0.5422 -0.2856 0.2777, -0.5495 -0.2847 0.2777, -0.5422 -0.2854 0.2779, -0.5422 -0.2793 0.285, -0.5481 -0.2786 0.285, -0.5463 -0.2709 0.2906, -0.5443 -0.2621 0.2941, -0.5463 -0.2614 0.2941, -0.5508 -0.2569 0.2941, -0.5497 -0.2588 0.2941, -0.5515 -0.2549 0.2941, -0.5422 -0.2623 0.2941, -0.5504 -0.2889 0.2691, -0.5583 -0.2862 0.2691, -0.5653 -0.2818 0.2691, -0.5712 -0.2759 0.2691, -0.5756 -0.2689 0.2691, -0.5783 -0.261 0.2691, -0.5422 -0.2791 0.2851, -0.5422 -0.2714 0.2906, -0.5422 -0.2713 0.2907, -0.5422 -0.2624 0.2941, -0.5538 -0.2673 0.2906, -0.5567 -0.2644 0.2906, -0.5589 -0.2608 0.2906, -0.5603 -0.2569 0.2906, -0.5502 -0.2695 0.2906, -0.5482 -0.2603 0.2941, -0.5537 -0.2766 0.285, -0.5587 -0.2735 0.285, -0.5629 -0.2693 0.285, -0.566 -0.2643 0.285, -0.568 -0.2587 0.285, -0.5564 -0.2823 0.2777, -0.5626 -0.2784 0.2777, -0.5678 -0.2732 0.2777, -0.5717 -0.267 0.2777, -0.5741 -0.2601 0.2777, -0.5422 -0.2899 0.2691, 0.5741 -0.2601 0.2777, 0.568 -0.2587 0.285, 0.5603 -0.2569 0.2906, 0.5515 -0.2549 0.2941, 0.5508 -0.2569 0.2941, 0.5463 -0.2614 0.2941, 0.5482 -0.2603 0.2941, 0.5443 -0.2621 0.2941, 0.5783 -0.261 0.2691, 0.5756 -0.2689 0.2691, 0.5712 -0.2759 0.2691, 0.5653 -0.2818 0.2691, 0.5583 -0.2862 0.2691, 0.5504 -0.2889 0.2691, 0.5422 -0.2899 0.2691, 0.5422 -0.2623 0.2941, 0.5567 -0.2644 0.2906, 0.5538 -0.2673 0.2906, 0.5502 -0.2695 0.2906, 0.5463 -0.2709 0.2906, 0.5589 -0.2608 0.2906, 0.5497 -0.2588 0.2941, 0.5422 -0.2624 0.2941, 0.5422 -0.2713 0.2907, 0.5422 -0.2714 0.2906, 0.5422 -0.2791 0.2851, 0.566 -0.2643 0.285, 0.5629 -0.2693 0.285, 0.5587 -0.2735 0.285, 0.5537 -0.2766 0.285, 0.5481 -0.2786 0.285, 0.5717 -0.267 0.2777, 0.5678 -0.2732 0.2777, 0.5626 -0.2784 0.2777, 0.5564 -0.2823 0.2777, 0.5495 -0.2847 0.2777, 0.5422 -0.2793 0.285, 0.5422 -0.2854 0.2779, 0.5422 -0.2856 0.2777, 0.5422 -0.2898 0.2694
            ]
        }
        coordIndex [
            0,1,2,-1,0,2,3,-1,3,2,4,-1,3,4,5,-1,5,4,6,-1,5,6,7,-1,7,6,8,-1,8,6,9,-1,8,9,10,-1,10,9,11,-1,11,9,12,-1,11,12,13,-1,13,12,14,-1,14,12,15,-1,14,15,16,-1,17,18,15,-1,15,18,19,-1,15,19,16,-1,20,21,22,-1,20,22,23,-1,23,22,24,-1,23,24,25,-1,25,24,26,-1,25,26,27,-1,27,26,28,-1,28,26,29,-1,28,29,30,-1,30,29,31,-1,31,29,32,-1,31,32,33,-1,33,32,34,-1,34,32,35,-1,34,35,36,-1,37,38,35,-1,35,38,39,-1,35,39,36,-1,11,13,40,-1,40,13,14,-1,40,14,41,-1,41,14,16,-1,41,16,19,-1,40,42,11,-1,11,42,43,-1,11,43,10,-1,10,43,44,-1,44,45,10,-1,10,45,46,-1,10,46,8,-1,8,46,47,-1,8,47,7,-1,7,47,48,-1,7,48,5,-1,5,48,49,-1,5,49,3,-1,3,49,50,-1,3,50,0,-1,51,52,53,-1,54,50,55,-1,55,50,56,-1,55,56,57,-1,57,56,58,-1,57,58,59,-1,59,58,60,-1,59,60,61,-1,61,60,62,-1,61,62,63,-1,63,62,64,-1,63,64,65,-1,65,64,66,-1,65,66,67,-1,67,66,68,-1,67,68,69,-1,69,68,70,-1,69,70,71,-1,71,70,72,-1,71,72,53,-1,53,72,73,-1,53,73,51,-1,31,33,74,-1,74,33,34,-1,74,34,54,-1,54,34,36,-1,54,36,39,-1,74,75,31,-1,31,75,76,-1,31,76,30,-1,30,76,77,-1,77,78,30,-1,30,78,79,-1,30,79,28,-1,28,79,80,-1,28,80,27,-1,27,80,81,-1,27,81,25,-1,25,81,82,-1,25,82,23,-1,23,82,83,-1,23,83,20,-1,84,85,86,-1,84,86,87,-1,87,86,88,-1,87,88,89,-1,89,88,90,-1,89,90,91,-1,91,90,92,-1,92,90,93,-1,92,93,94,-1,94,93,95,-1,95,93,96,-1,95,96,97,-1,97,96,98,-1,98,96,99,-1,98,99,100,-1,101,102,99,-1,99,102,103,-1,99,103,100,-1,104,105,106,-1,107,108,109,-1,51,110,111,-1,112,110,51,-1,109,108,51,-1,113,51,108,-1,114,42,40,-1,42,114,43,-1,43,114,115,-1,43,115,44,-1,44,115,116,-1,44,116,45,-1,45,116,117,-1,45,117,46,-1,46,117,47,-1,47,117,118,-1,47,118,48,-1,48,118,49,-1,49,118,56,-1,49,56,50,-1,73,112,51,-1,119,120,107,-1,107,120,121,-1,107,121,108,-1,108,121,122,-1,108,122,113,-1,123,111,124,-1,124,111,110,-1,124,110,125,-1,125,110,112,-1,125,112,126,-1,73,72,112,-1,112,72,70,-1,112,70,126,-1,126,70,68,-1,126,68,66,-1,106,123,127,-1,127,123,124,-1,127,124,128,-1,128,124,125,-1,128,125,129,-1,129,125,126,-1,129,126,130,-1,130,126,66,-1,131,132,133,-1,133,132,104,-1,104,106,133,-1,133,106,127,-1,133,127,134,-1,134,127,128,-1,134,128,135,-1,135,128,129,-1,135,129,136,-1,136,129,130,-1,136,130,137,-1,105,119,106,-1,106,119,107,-1,106,107,123,-1,123,107,109,-1,123,109,111,-1,111,109,51,-1,131,114,138,-1,138,114,40,-1,138,40,41,-1,66,64,130,-1,130,64,62,-1,130,62,137,-1,137,62,60,-1,137,60,58,-1,131,133,114,-1,114,133,134,-1,114,134,115,-1,115,134,135,-1,115,135,116,-1,116,135,136,-1,116,136,117,-1,117,136,137,-1,117,137,118,-1,118,137,58,-1,118,58,56,-1,61,63,139,-1,140,141,142,-1,52,143,144,-1,145,143,52,-1,142,141,52,-1,53,52,141,-1,146,75,74,-1,75,146,76,-1,76,146,147,-1,76,147,77,-1,77,147,148,-1,77,148,78,-1,78,148,149,-1,78,149,79,-1,79,149,80,-1,80,149,150,-1,80,150,81,-1,81,150,82,-1,82,150,151,-1,82,151,83,-1,152,145,52,-1,65,67,140,-1,140,67,69,-1,140,69,141,-1,141,69,71,-1,141,71,53,-1,153,144,154,-1,154,144,143,-1,154,143,155,-1,155,143,145,-1,155,145,156,-1,152,157,145,-1,145,157,158,-1,145,158,156,-1,156,158,159,-1,156,159,160,-1,139,153,161,-1,161,153,154,-1,161,154,162,-1,162,154,155,-1,162,155,163,-1,163,155,156,-1,163,156,164,-1,164,156,160,-1,57,59,165,-1,165,59,61,-1,61,139,165,-1,165,139,161,-1,165,161,166,-1,166,161,162,-1,166,162,167,-1,167,162,163,-1,167,163,168,-1,168,163,164,-1,168,164,169,-1,63,65,139,-1,139,65,140,-1,139,140,153,-1,153,140,142,-1,153,142,144,-1,144,142,52,-1,57,146,55,-1,55,146,74,-1,55,74,54,-1,160,170,164,-1,164,170,171,-1,164,171,169,-1,169,171,172,-1,169,172,173,-1,57,165,146,-1,146,165,166,-1,146,166,147,-1,147,166,167,-1,147,167,148,-1,148,167,168,-1,148,168,149,-1,149,168,169,-1,149,169,150,-1,150,169,173,-1,150,173,151,-1,174,175,176,-1,174,176,177,-1,177,176,178,-1,177,178,179,-1,179,178,180,-1,179,180,181,-1,181,180,182,-1,182,180,183,-1,182,183,184,-1,184,183,185,-1,185,183,186,-1,185,186,187,-1,187,186,188,-1,188,186,189,-1,188,189,190,-1,191,192,189,-1,189,192,193,-1,189,193,190,-1,103,194,100,-1,100,194,195,-1,100,195,98,-1,98,195,196,-1,98,196,97,-1,97,196,197,-1,97,197,95,-1,197,198,95,-1,95,198,199,-1,95,199,94,-1,200,84,201,-1,201,84,87,-1,201,87,202,-1,202,87,89,-1,202,89,203,-1,203,89,91,-1,203,91,204,-1,204,91,92,-1,204,92,205,-1,205,92,94,-1,205,94,206,-1,206,94,199,-1,207,51,113,-1,41,200,138,-1,138,200,208,-1,138,208,131,-1,131,208,209,-1,131,209,132,-1,132,209,210,-1,132,210,104,-1,104,210,211,-1,104,211,105,-1,105,211,212,-1,105,212,119,-1,119,212,213,-1,119,213,120,-1,120,213,214,-1,120,214,121,-1,121,214,215,-1,121,215,122,-1,122,215,216,-1,122,216,113,-1,113,216,217,-1,113,217,207,-1,52,218,219,-1,220,83,221,-1,221,83,151,-1,221,151,222,-1,222,151,173,-1,222,173,223,-1,223,173,172,-1,223,172,224,-1,224,172,171,-1,224,171,225,-1,225,171,170,-1,225,170,226,-1,226,170,160,-1,226,160,227,-1,227,160,159,-1,227,159,228,-1,228,159,158,-1,228,158,229,-1,229,158,157,-1,229,157,219,-1,219,157,152,-1,219,152,52,-1,193,220,190,-1,190,220,230,-1,190,230,188,-1,188,230,231,-1,188,231,187,-1,187,231,232,-1,187,232,185,-1,232,233,185,-1,185,233,234,-1,185,234,184,-1,235,174,236,-1,236,174,177,-1,236,177,237,-1,237,177,179,-1,237,179,238,-1,238,179,181,-1,238,181,239,-1,239,181,182,-1,239,182,240,-1,240,182,184,-1,240,184,241,-1,241,184,234,-1,242,243,244,-1,245,246,247,-1,248,249,250,-1,207,251,252,-1,253,251,207,-1,250,249,207,-1,254,207,249,-1,195,255,196,-1,196,255,256,-1,196,256,197,-1,197,256,198,-1,198,256,257,-1,198,257,199,-1,199,257,206,-1,206,257,258,-1,206,258,205,-1,205,258,204,-1,204,258,259,-1,204,259,203,-1,203,259,202,-1,202,259,260,-1,202,260,201,-1,201,260,208,-1,201,208,200,-1,217,253,207,-1,261,262,248,-1,248,262,263,-1,248,263,249,-1,249,263,264,-1,249,264,254,-1,265,252,266,-1,266,252,251,-1,266,251,267,-1,267,251,253,-1,267,253,268,-1,246,261,247,-1,247,261,248,-1,247,248,269,-1,269,248,250,-1,269,250,270,-1,270,250,207,-1,217,216,253,-1,253,216,215,-1,253,215,268,-1,268,215,214,-1,268,214,213,-1,271,265,272,-1,272,265,266,-1,272,266,273,-1,273,266,267,-1,273,267,274,-1,274,267,268,-1,274,268,275,-1,275,268,213,-1,244,271,276,-1,276,271,272,-1,276,272,277,-1,277,272,273,-1,277,273,278,-1,278,273,274,-1,278,274,279,-1,279,274,275,-1,279,275,280,-1,243,245,244,-1,244,245,247,-1,244,247,271,-1,271,247,269,-1,271,269,265,-1,265,269,270,-1,265,270,252,-1,252,270,207,-1,195,194,255,-1,255,194,281,-1,255,281,242,-1,213,212,275,-1,275,212,211,-1,275,211,280,-1,280,211,210,-1,280,210,209,-1,242,244,255,-1,255,244,276,-1,255,276,256,-1,256,276,277,-1,256,277,257,-1,257,277,278,-1,257,278,258,-1,258,278,279,-1,258,279,259,-1,259,279,280,-1,259,280,260,-1,260,280,209,-1,260,209,208,-1,222,223,282,-1,224,225,283,-1,284,285,286,-1,218,287,288,-1,289,287,218,-1,286,285,218,-1,219,218,285,-1,230,290,231,-1,231,290,291,-1,231,291,232,-1,232,291,233,-1,233,291,292,-1,233,292,234,-1,234,292,241,-1,241,292,293,-1,241,293,240,-1,240,293,239,-1,239,293,294,-1,239,294,238,-1,238,294,237,-1,237,294,295,-1,237,295,236,-1,236,295,296,-1,236,296,235,-1,297,289,218,-1,226,227,284,-1,284,227,228,-1,284,228,285,-1,285,228,229,-1,285,229,219,-1,298,288,299,-1,299,288,287,-1,299,287,300,-1,300,287,289,-1,300,289,301,-1,225,226,283,-1,283,226,284,-1,283,284,302,-1,302,284,286,-1,302,286,303,-1,303,286,218,-1,297,304,289,-1,289,304,305,-1,289,305,301,-1,301,305,306,-1,301,306,307,-1,308,298,309,-1,309,298,299,-1,309,299,310,-1,310,299,300,-1,310,300,311,-1,311,300,301,-1,311,301,312,-1,312,301,307,-1,282,308,313,-1,313,308,309,-1,313,309,314,-1,314,309,310,-1,314,310,315,-1,315,310,311,-1,315,311,316,-1,316,311,312,-1,316,312,317,-1,223,224,282,-1,282,224,283,-1,282,283,308,-1,308,283,302,-1,308,302,298,-1,298,302,303,-1,298,303,288,-1,288,303,218,-1,230,220,290,-1,290,220,221,-1,290,221,222,-1,307,318,312,-1,312,318,319,-1,312,319,317,-1,317,319,320,-1,317,320,321,-1,222,282,290,-1,290,282,313,-1,290,313,291,-1,291,313,314,-1,291,314,292,-1,292,314,315,-1,292,315,293,-1,293,315,316,-1,293,316,294,-1,294,316,317,-1,294,317,295,-1,295,317,321,-1,295,321,296,-1,218,207,254,-1,194,235,281,-1,281,235,296,-1,281,296,242,-1,242,296,321,-1,242,321,243,-1,243,321,320,-1,243,320,245,-1,245,320,319,-1,245,319,246,-1,246,319,318,-1,246,318,261,-1,261,318,307,-1,261,307,262,-1,262,307,306,-1,262,306,263,-1,263,306,305,-1,263,305,264,-1,264,305,304,-1,264,304,254,-1,254,304,297,-1,254,297,218,-1,
        ]
    }
}